<svg id="Capa_1" enable-background="new 0 0 512 512" height="512" viewBox="0 0 512 512" width="512" xmlns="http://www.w3.org/2000/svg"><g><path d="m437.02 74.98c-48.353-48.351-112.64-74.98-181.02-74.98s-132.667 26.629-181.02 74.98c-48.351 48.353-74.98 112.64-74.98 181.02s26.629 132.667 74.98 181.02c48.353 48.351 112.64 74.98 181.02 74.98s132.667-26.629 181.02-74.98c48.351-48.353 74.98-112.64 74.98-181.02s-26.629-132.667-74.98-181.02zm-181.02 407.02c-124.617 0-226-101.383-226-226s101.383-226 226-226 226 101.383 226 226-101.383 226-226 226z"></path><path d="m241 241h30v30h-30z"></path><path d="m241 60h30v30h-30z"></path><path d="m241 422h30v30h-30z"></path><path d="m150.5 84.249h30v30h-30z" transform="matrix(.866 -.5 .5 .866 -27.452 96.047)"></path><path d="m331.5 397.751h30v30h-30z" transform="matrix(.866 -.5 .5 .866 -159.953 228.549)"></path><path d="m84.25 150.5h30v30h-30z" transform="matrix(.5 -.866 .866 .5 -93.703 168.703)"></path><path d="m397.751 331.5h30v30h-30z" transform="matrix(.5 -.866 .866 .5 -93.703 530.702)"></path><path d="m60 241h30v30h-30z"></path><path d="m422 241h30v30h-30z"></path><path d="m84.249 331.5h30v30h-30z" transform="matrix(.866 -.5 .5 .866 -159.954 96.048)"></path><path d="m397.751 150.5h30v30h-30z" transform="matrix(.866 -.5 .5 .866 -27.452 228.55)"></path><path d="m150.5 397.751h30v30h-30z" transform="matrix(.5 -.866 .866 .5 -274.703 349.703)"></path><path d="m331.5 84.249h30v30h-30z" transform="matrix(.5 -.866 .866 .5 87.298 349.703)"></path><path d="m241 331.5h30v30h-30z"></path><path d="m241 150.5h30v30h-30z"></path><path d="m319.375 286.25h30v30h-30z" transform="matrix(.5 -.866 .866 .5 -93.703 440.203)"></path><path d="m162.625 195.75h30v30h-30z" transform="matrix(.5 -.866 .866 .5 -93.703 259.203)"></path><path d="m319.375 195.75h30v30h-30z" transform="matrix(.866 -.5 .5 .866 -60.577 195.425)"></path><path d="m162.625 286.25h30v30h-30z" transform="matrix(.866 -.5 .5 .866 -126.829 129.174)"></path></g></svg>