<svg id="Capa_1" enable-background="new 0 0 512 512" height="512" viewBox="0 0 512 512" width="512" xmlns="http://www.w3.org/2000/svg"><g><path d="m437.02 74.98c-48.353-48.351-112.64-74.98-181.02-74.98s-132.667 26.629-181.02 74.98c-48.351 48.353-74.98 112.64-74.98 181.02s26.629 132.667 74.98 181.02c48.353 48.351 112.64 74.98 181.02 74.98s132.667-26.629 181.02-74.98c48.351-48.353 74.98-112.64 74.98-181.02s-26.629-132.667-74.98-181.02zm-166.02 76.086c51.37 7.309 91 51.577 91 104.934s-39.63 97.625-91 104.934zm0 240.103c67.958-7.491 121-65.248 121-135.169s-53.042-127.678-121-135.169v-30.146c84.529 7.608 151 78.839 151 165.315s-66.471 157.707-151 165.315zm-241-135.169c0-119.575 93.351-217.742 211-225.49v450.98c-117.649-7.748-211-105.915-211-225.49zm241 225.49v-30.059c101.094-7.687 181-92.403 181-195.431s-79.906-187.744-181-195.431v-30.059c117.649 7.748 211 105.915 211 225.49s-93.351 217.742-211 225.49z"></path><path d="m150.5 84.249h30v30h-30z" transform="matrix(.866 -.5 .5 .866 -27.452 96.047)"></path><path d="m84.25 150.5h30v30h-30z" transform="matrix(.5 -.866 .866 .5 -93.703 168.703)"></path><path d="m60 241h30v30h-30z"></path><path d="m84.249 331.5h30v30h-30z" transform="matrix(.866 -.5 .5 .866 -159.954 96.048)"></path><path d="m150.5 397.751h30v30h-30z" transform="matrix(.5 -.866 .866 .5 -274.703 349.702)"></path><path d="m162.625 195.75h30v30h-30z" transform="matrix(.5 -.866 .866 .5 -93.703 259.203)"></path><path d="m162.625 286.25h30v30h-30z" transform="matrix(.866 -.5 .5 .866 -126.829 129.174)"></path></g></svg>