<svg id="Capa_1" enable-background="new 0 0 512 512" height="512" viewBox="0 0 512 512" width="512" xmlns="http://www.w3.org/2000/svg"><g><path d="m437.02 74.98c-48.353-48.351-112.64-74.98-181.02-74.98s-132.667 26.629-181.02 74.98c-48.351 48.353-74.98 112.64-74.98 181.02s26.629 132.667 74.98 181.02c48.353 48.351 112.64 74.98 181.02 74.98s132.667-26.629 181.02-74.98c48.351-48.353 74.98-112.64 74.98-181.02s-26.629-132.667-74.98-181.02zm-226.02-40.474c9.787-1.985 19.803-3.324 30-3.996v450.98c-10.197-.672-20.213-2.01-30-3.996zm-30 434.685c-10.366-3.657-20.386-8.049-30-13.115v-400.152c9.614-5.066 19.634-9.458 30-13.115zm90-438.681c10.197.672 20.213 2.01 30 3.996v442.989c-9.787 1.985-19.803 3.324-30 3.996zm60 12.299c10.366 3.657 20.386 8.049 30 13.115v400.152c-9.614 5.066-19.634 9.458-30 13.115zm-301 213.191c0-74.05 35.8-139.896 91-181.141v362.281c-55.2-41.244-91-107.09-91-181.14zm361 181.141v-362.282c55.2 41.245 91 107.09 91 181.141s-35.8 139.896-91 181.141z"></path></g></svg>