<svg id="Capa_1" enable-background="new 0 0 512 512" height="512" viewBox="0 0 512 512" width="512" xmlns="http://www.w3.org/2000/svg"><g><path d="m390.491 60c-6.969-34.192-37.271-60-73.491-60h-122c-36.22 0-66.522 25.808-73.491 60h-61.509v452h392v-452zm-195.491-30h122c19.555 0 36.228 12.542 42.42 30h-206.84c6.192-17.458 22.865-30 42.42-30zm227 452h-332v-392h332z"></path><path d="m392 120h-272v332h272zm-30 30v90h-212v-90zm-212 272v-152h212v152z"></path><path d="m241 180h30v30h-30z"></path><path d="m301 180h30v30h-30z"></path><path d="m181 180h30v30h-30z"></path></g></svg>