<svg id="Capa_1" enable-background="new 0 0 512 512" height="512" viewBox="0 0 512 512" width="512" xmlns="http://www.w3.org/2000/svg"><g><path d="m0 0v512h512v-512zm399.787 91h-287.574l-61-61h409.574zm-8.787 30v270h-270v-270zm-300-8.787v287.574l-61 61v-409.574zm21.213 308.787h287.574l61 61h-409.574zm308.787-21.213v-287.574l61-61v409.574z"></path><path d="m256 361c57.897 0 105-47.103 105-105s-47.103-105-105-105-105 47.103-105 105 47.103 105 105 105zm0-180c41.355 0 75 33.645 75 75s-33.645 75-75 75-75-33.645-75-75 33.645-75 75-75z"></path><path d="m256 301c24.813 0 45-20.187 45-45s-20.187-45-45-45-45 20.187-45 45 20.187 45 45 45zm0-60c8.271 0 15 6.729 15 15s-6.729 15-15 15-15-6.729-15-15 6.729-15 15-15z"></path></g></svg>