<svg id="Capa_1" enable-background="new 0 0 512 512" height="512" viewBox="0 0 512 512" width="512" xmlns="http://www.w3.org/2000/svg"><g><path d="m203.5 394.541 37.5 75v42.459h30v-42.459l37.5-75v-33.541h-105zm73.229-3.541-20.729 41.459-20.729-41.459z"></path><path d="m241 150.5h30v30h-30z"></path><path d="m241 241h30v30h-30z"></path><path d="m241 60h30v30h-30z"></path><path d="m319.375 195.75h30v30h-30z" transform="matrix(.5 -.866 .866 .5 -15.327 394.953)"></path><path d="m162.625 105.25h30v30h-30z" transform="matrix(.5 -.866 .866 .5 -15.327 213.953)"></path><path d="m319.375 105.25h30v30h-30z" transform="matrix(.866 -.5 .5 .866 -15.327 183.298)"></path><path d="m162.625 195.75h30v30h-30z" transform="matrix(.866 -.5 .5 .866 -81.578 117.048)"></path><path d="m256 0c-91.257 0-165.5 74.243-165.5 165.5s74.243 165.5 165.5 165.5 165.5-74.243 165.5-165.5-74.243-165.5-165.5-165.5zm0 301c-74.715 0-135.5-60.785-135.5-135.5s60.785-135.5 135.5-135.5 135.5 60.785 135.5 135.5-60.785 135.5-135.5 135.5z"></path></g></svg>