<svg id="Capa_1" enable-background="new 0 0 512 512" height="512" viewBox="0 0 512 512" width="512" xmlns="http://www.w3.org/2000/svg"><g><path d="m437.02 74.98c-48.353-48.351-112.64-74.98-181.02-74.98s-132.667 26.629-181.02 74.98c-48.351 48.353-74.98 112.64-74.98 181.02s26.629 132.667 74.98 181.02c48.353 48.351 112.64 74.98 181.02 74.98s132.667-26.629 181.02-74.98c48.351-48.353 74.98-112.64 74.98-181.02s-26.629-132.667-74.98-181.02zm-181.02 407.02c-124.617 0-226-101.383-226-226s101.383-226 226-226 226 101.383 226 226-101.383 226-226 226z"></path><path d="m256 120c-74.991 0-136 61.009-136 136s61.009 136 136 136c74.99 0 136-61.009 136-136s-61.01-136-136-136zm0 242c-58.449 0-106-47.551-106-106s47.551-106 106-106c58.448 0 106 47.551 106 106s-47.552 106-106 106z"></path><path d="m241 60h30v30h-30z"></path><path d="m256 180c-31.337 0-59.064 18.827-70.637 47.962l27.881 11.075c7.006-17.639 23.789-29.037 42.756-29.037s35.75 11.398 42.757 29.038l27.881-11.075c-11.574-29.136-39.301-47.963-70.638-47.963z"></path><path d="m256 302c-18.967 0-35.75-11.398-42.756-29.038l-27.881 11.075c11.573 29.136 39.3 47.963 70.637 47.963s59.064-18.827 70.638-47.962l-27.881-11.075c-7.007 17.639-23.79 29.037-42.757 29.037z"></path></g></svg>