<svg id="Capa_1" enable-background="new 0 0 512 512" height="512" viewBox="0 0 512 512" width="512" xmlns="http://www.w3.org/2000/svg"><g><path d="m256 60c-41.355 0-75 33.645-75 75s33.645 75 75 75 75-33.645 75-75-33.645-75-75-75zm0 120c-24.813 0-45-20.187-45-45s20.187-45 45-45 45 20.187 45 45-20.187 45-45 45z"></path><path d="m256 0c-74.439 0-135 60.561-135 135 0 4.53.229 9.114.683 13.624l29.697 295.937c3.857 38.446 35.937 67.439 74.62 67.439h15v-227c0-8.271 6.729-15 15-15s15 6.729 15 15v227h15c38.683 0 70.763-28.993 74.62-67.439l29.697-295.936c.454-4.511.683-9.095.683-13.625 0-74.439-60.561-135-135-135zm104.468 145.629-29.697 295.937c-1.79 17.834-13.715 32.276-29.771 37.899v-194.465c0-24.813-20.187-45-45-45s-45 20.187-45 45v194.464c-16.056-5.623-27.98-20.064-29.771-37.899l-29.697-295.938c-.353-3.518-.532-7.094-.532-10.627 0-57.897 47.103-105 105-105s105 47.103 105 105c0 3.533-.179 7.109-.532 10.629z"></path></g></svg>