<svg id="Capa_1" enable-background="new 0 0 512 512" height="512" viewBox="0 0 512 512" width="512" xmlns="http://www.w3.org/2000/svg"><g><path d="m483.417 247.861c-15.677-21.378-37.68-40.572-64.029-55.974 1.383-8.596 2.113-17.408 2.113-26.388-.001-91.256-74.244-165.499-165.501-165.499s-165.5 74.243-165.5 165.5c0 8.98.729 17.792 2.113 26.388-26.349 15.402-48.352 34.595-64.029 55.974-18.7 25.499-28.584 54.335-28.584 83.388 0 49.36 27.377 95.373 77.087 129.562 47.995 33.009 111.535 51.188 178.913 51.188s130.918-18.179 178.913-51.188c49.71-34.189 77.087-80.202 77.087-129.562 0-29.053-9.884-57.889-28.583-83.389zm-227.417-217.861c74.715 0 135.5 60.785 135.5 135.5s-60.785 135.5-135.5 135.5-135.5-60.785-135.5-135.5 60.785-135.5 135.5-135.5zm-161.307 406.5c42.497-29.079 100.117-45.5 161.307-45.5 61.189 0 118.809 16.421 161.307 45.5-42.976 29.343-100.224 45.5-161.307 45.5s-118.331-16.157-161.307-45.5zm346.88-19.543c-48.15-35.685-114.942-55.957-185.573-55.957s-137.422 20.272-185.573 55.957c-26.259-25.112-40.427-54.801-40.427-85.707 0-41.52 25.464-80.551 70.499-109.074 23.19 63.428 84.143 108.824 155.501 108.824s132.311-45.396 155.501-108.824c45.035 28.523 70.499 67.554 70.499 109.074 0 30.906-14.168 60.594-40.427 85.707z"></path><path d="m241 150.5h30v30h-30z"></path><path d="m241 241h30v30h-30z"></path><path d="m241 60h30v30h-30z"></path><path d="m319.375 195.75h30v30h-30z" transform="matrix(.5 -.866 .866 .5 -15.327 394.953)"></path><path d="m162.625 105.25h30v30h-30z" transform="matrix(.5 -.866 .866 .5 -15.327 213.953)"></path><path d="m319.375 105.25h30v30h-30z" transform="matrix(.866 -.5 .5 .866 -15.327 183.298)"></path><path d="m162.625 195.75h30v30h-30z" transform="matrix(.866 -.5 .5 .866 -81.578 117.048)"></path></g></svg>