<svg id="Capa_1" enable-background="new 0 0 512 512" height="512" viewBox="0 0 512 512" width="512" xmlns="http://www.w3.org/2000/svg"><g><path d="m75.5 392c-33.084 0-60 26.916-60 60s26.916 60 60 60 60-26.916 60-60-26.916-60-60-60zm0 90c-16.542 0-30-13.458-30-30s13.458-30 30-30 30 13.458 30 30-13.458 30-30 30z"></path><path d="m480.738 160.78c-7.322-22.088-14.238-42.951-14.238-85.78v-15h-61v-15c0-24.813-20.187-45-45-45h-195v512h30v-301h120v15c0 24.813 20.187 45 45 45h136v-15c0-47.671-8.013-71.844-15.762-95.22zm-285.238 20.22v-151h165c8.271 0 15 6.729 15 15v138.58c-4.695-1.665-9.742-2.58-15-2.58zm150 45v-15h15c8.271 0 15 6.729 15 15s-6.729 15-15 15-15-6.729-15-15zm57.42 15c1.665-4.695 2.58-9.742 2.58-15v-136h31.283c1.488 38.013 8.587 59.432 15.479 80.22 6.412 19.342 12.512 37.746 13.93 70.78z"></path></g></svg>