<svg id="Capa_1" enable-background="new 0 0 512 512" height="512" viewBox="0 0 512 512" width="512" xmlns="http://www.w3.org/2000/svg"><g><path d="m346.5 181h-196v-75h120.5v-106h-150.5v181.834c-67.682 7.489-120.5 65.021-120.5 134.666 0 74.715 60.785 135.5 135.5 135.5 48.783 0 72.73 13.62 98.084 28.039 27.63 15.713 56.199 31.961 112.916 31.961 91.257 0 165.5-74.243 165.5-165.5s-74.243-165.5-165.5-165.5zm-196-151h90.5v46h-90.5zm0 286.5c0 8.271-6.729 15-15 15s-15-6.729-15-15 6.729-15 15-15 15 6.729 15 15zm196 165.5c-48.783 0-72.73-13.62-98.084-28.039-27.629-15.713-56.199-31.961-112.916-31.961-58.173 0-105.5-47.327-105.5-105.5 0-53.081 39.407-97.124 90.5-104.429v62.009c-17.459 6.192-30 22.865-30 42.42 0 24.813 20.187 45 45 45s45-20.187 45-45c0-19.555-12.541-36.228-30-42.42v-63.08h196c74.715 0 135.5 60.785 135.5 135.5s-60.785 135.5-135.5 135.5z"></path></g></svg>