<svg id="Capa_1" enable-background="new 0 0 512 512" height="512" viewBox="0 0 512 512" width="512" xmlns="http://www.w3.org/2000/svg"><g><path d="m256 331c91.257 0 165.5-74.243 165.5-165.5s-74.243-165.5-165.5-165.5-165.5 74.243-165.5 165.5 74.243 165.5 165.5 165.5zm0-301c74.715 0 135.5 60.785 135.5 135.5s-60.785 135.5-135.5 135.5-135.5-60.785-135.5-135.5 60.785-135.5 135.5-135.5z"></path><path d="m241 150.5h30v30h-30z"></path><path d="m241 241h30v30h-30z"></path><path d="m241 60h30v30h-30z"></path><path d="m319.375 195.75h30v30h-30z" transform="matrix(.5 -.866 .866 .5 -15.327 394.953)"></path><path d="m162.625 105.25h30v30h-30z" transform="matrix(.5 -.866 .866 .5 -15.327 213.953)"></path><path d="m319.375 105.25h30v30h-30z" transform="matrix(.866 -.5 .5 .866 -15.327 183.298)"></path><path d="m162.625 195.75h30v30h-30z" transform="matrix(.866 -.5 .5 .866 -81.578 117.048)"></path><path d="m489.509 356.004c-14.693 8.469-27.419 19.51-37.759 32.345v-125.308l-22.491 12.964c-39.318 22.663-64.618 63.681-67.48 108.486-11.668 7.746-21.925 17.179-30.529 27.859v-69.309l-22.491 12.964c-22.899 13.2-41.031 32.633-52.759 55.406-11.728-22.773-29.859-42.207-52.759-55.406l-22.491-12.964v69.309c-8.603-10.68-18.86-20.114-30.529-27.859-2.862-44.805-28.163-85.823-67.48-108.486l-22.491-12.964v125.309c-10.34-12.835-23.066-23.876-37.759-32.345l-22.491-12.964v168.959h512v-168.959zm-67.759-36.604v162.6h-30.25v-89c0-27.783 11.161-54.177 30.25-73.6zm-60.25 104.014v58.586h-29.147c3.236-22.156 13.539-42.701 29.147-58.586zm-60.25-24.014v82.6h-30.25v-9c0-27.783 11.161-54.178 30.25-73.6zm-60.25 73.6v9h-30.25v-82.6c19.089 19.422 30.25 45.817 30.25 73.6zm-61.353 9h-29.147v-58.586c15.608 15.885 25.911 36.43 29.147 58.586zm-89.397-162.6c19.089 19.422 30.25 45.816 30.25 73.6v89h-30.25zm-60.25 80c19.089 19.422 30.25 45.816 30.25 73.6v9h-30.25zm452 82.6h-30.25v-9c0-27.783 11.161-54.178 30.25-73.6z"></path></g></svg>