<svg id="Capa_1" enable-background="new 0 0 512 512" height="512" viewBox="0 0 512 512" width="512" xmlns="http://www.w3.org/2000/svg"><g><path d="m497 380.156c-14.263 0-27.802-4.537-39.153-13.121l-9.047-6.841-9.047 6.841c-11.352 8.583-24.891 13.121-39.153 13.121s-27.801-4.537-39.152-13.121l-9.047-6.841-9.047 6.841c-11.353 8.584-24.892 13.121-39.153 13.121s-27.801-4.537-39.153-13.121l-9.047-6.84-9.047 6.84c-11.353 8.584-24.892 13.121-39.153 13.121s-27.801-4.537-39.153-13.121l-9.047-6.841-9.047 6.841c-11.352 8.583-24.891 13.121-39.152 13.121-14.263 0-27.802-4.537-39.153-13.121l-9.047-6.841-9.047 6.841c-11.353 8.584-24.892 13.121-39.155 13.121h-15v131.844h512v-131.844zm-15 101.844h-452v-73.012c11.737-1.851 22.942-5.881 33.2-11.951 14.554 8.612 31.02 13.119 48.2 13.119s33.646-4.507 48.199-13.119c14.555 8.612 31.021 13.119 48.2 13.119s33.646-4.507 48.2-13.12c14.555 8.612 31.021 13.12 48.2 13.12s33.646-4.507 48.2-13.119c14.554 8.612 31.02 13.119 48.199 13.119 17.181 0 33.646-4.507 48.2-13.119 10.258 6.07 21.463 10.1 33.2 11.951v73.012z"></path><path d="m256 331c91.257 0 165.5-74.243 165.5-165.5s-74.243-165.5-165.5-165.5-165.5 74.243-165.5 165.5 74.243 165.5 165.5 165.5zm0-301c74.715 0 135.5 60.785 135.5 135.5s-60.785 135.5-135.5 135.5-135.5-60.785-135.5-135.5 60.785-135.5 135.5-135.5z"></path><path d="m241 150.5h30v30h-30z"></path><path d="m241 241h30v30h-30z"></path><path d="m241 60h30v30h-30z"></path><path d="m319.375 195.75h30v30h-30z" transform="matrix(.5 -.866 .866 .5 -15.327 394.954)"></path><path d="m162.625 105.25h30v30h-30z" transform="matrix(.5 -.866 .866 .5 -15.327 213.953)"></path><path d="m319.375 105.25h30v30h-30z" transform="matrix(.866 -.5 .5 .866 -15.327 183.298)"></path><path d="m162.625 195.75h30v30h-30z" transform="matrix(.866 -.5 .5 .866 -81.578 117.048)"></path></g></svg>