<svg id="Capa_1" enable-background="new 0 0 512 512" height="512" viewBox="0 0 512 512" width="512" xmlns="http://www.w3.org/2000/svg"><g><path d="m497 327c-119.616 0-182.115 23.209-241 46.378-58.885-23.169-121.384-46.378-241-46.378h-15v185h512v-185zm-15 155h-452v-124.874c107.631 1.838 162.528 23.477 220.499 46.329 58.04 22.878 117.979 46.504 231.501 48.42zm0-60.126c-85.208-1.455-137.37-15.322-184.167-32.374 46.797-17.052 98.959-30.919 184.167-32.374z"></path><path d="m256 331c91.257 0 165.5-74.243 165.5-165.5s-74.243-165.5-165.5-165.5-165.5 74.243-165.5 165.5 74.243 165.5 165.5 165.5zm0-301c74.715 0 135.5 60.785 135.5 135.5s-60.785 135.5-135.5 135.5-135.5-60.785-135.5-135.5 60.785-135.5 135.5-135.5z"></path><path d="m241 150.5h30v30h-30z"></path><path d="m241 241h30v30h-30z"></path><path d="m241 60h30v30h-30z"></path><path d="m319.375 195.75h30v30h-30z" transform="matrix(.5 -.866 .866 .5 -15.327 394.953)"></path><path d="m162.625 105.25h30v30h-30z" transform="matrix(.5 -.866 .866 .5 -15.327 213.953)"></path><path d="m319.375 105.25h30v30h-30z" transform="matrix(.866 -.5 .5 .866 -15.327 183.298)"></path><path d="m162.625 195.75h30v30h-30z" transform="matrix(.866 -.5 .5 .866 -81.578 117.048)"></path></g></svg>