<svg id="Capa_1" enable-background="new 0 0 512 512" height="512" viewBox="0 0 512 512" width="512" xmlns="http://www.w3.org/2000/svg"><g><path d="m256 90.5c-91.257 0-165.5 74.243-165.5 165.5s74.243 165.5 165.5 165.5 165.5-74.243 165.5-165.5-74.243-165.5-165.5-165.5zm0 301c-74.715 0-135.5-60.785-135.5-135.5s60.785-135.5 135.5-135.5 135.5 60.785 135.5 135.5-60.785 135.5-135.5 135.5z"></path><path d="m241 241h30v30h-30z"></path><path d="m241 331.5h30v30h-30z"></path><path d="m241 150.5h30v30h-30z"></path><path d="m319.375 286.25h30v30h-30z" transform="matrix(.5 -.866 .866 .5 -93.703 440.203)"></path><path d="m162.625 195.75h30v30h-30z" transform="matrix(.5 -.866 .866 .5 -93.703 259.203)"></path><path d="m319.375 195.75h30v30h-30z" transform="matrix(.866 -.5 .5 .866 -60.577 195.423)"></path><path d="m162.625 286.25h30v30h-30z" transform="matrix(.866 -.5 .5 .866 -126.828 129.173)"></path><path d="m241 0h30v30h-30z"></path><path d="m178.625 8.212h30v30h-30z" transform="matrix(.966 -.259 .259 .966 .59 50.905)"></path><path d="m120.5 32.288h30v30h-30z" transform="matrix(.866 -.5 .5 .866 -5.49 74.085)"></path><path d="m70.587 70.587h30v30h-30z" transform="matrix(.707 -.707 .707 .707 -35.451 85.587)"></path><path d="m32.288 120.5h30v30h-30z" transform="matrix(.5 -.866 .866 .5 -93.703 108.703)"></path><path d="m8.212 178.625h30v30h-30z" transform="matrix(.259 -.966 .966 .259 -169.823 165.932)"></path><path d="m0 241h30v30h-30z"></path><path d="m8.212 303.375h30v30h-30z" transform="matrix(.966 -.259 .259 .966 -81.611 16.856)"></path><path d="m32.288 361.5h30v30h-30z" transform="matrix(.866 -.5 .5 .866 -181.915 74.085)"></path><path d="m70.587 411.413h30v30h-30z" transform="matrix(.707 -.707 .707 .707 -276.451 185.413)"></path><path d="m120.5 449.712h30v30h-30z" transform="matrix(.5 -.866 .866 .5 -334.702 349.702)"></path><path d="m178.625 473.788h30v30h-30z" transform="matrix(.259 -.966 .966 .259 -328.622 549.307)"></path><path d="m241 482h30v30h-30z"></path><path d="m303.375 473.788h30v30h-30z" transform="matrix(.966 -.259 .259 .966 -115.66 99.057)"></path><path d="m361.5 449.712h30v30h-30z" transform="matrix(.866 -.5 .5 .866 -181.915 250.51)"></path><path d="m411.413 411.413h30v30h-30z" transform="matrix(.707 -.707 .707 .707 -176.626 426.413)"></path><path d="m449.712 361.5h30v30h-30z" transform="matrix(.5 -.866 .866 .5 -93.703 590.703)"></path><path d="m473.788 303.375h30v30h-30z" transform="matrix(.259 -.966 .966 .259 54.753 708.107)"></path><path d="m482 241h30v30h-30z"></path><path d="m473.788 178.625h30v30h-30z" transform="matrix(.966 -.259 .259 .966 -33.459 133.106)"></path><path d="m449.712 120.5h30v30h-30z" transform="matrix(.866 -.5 .5 .866 -5.49 250.51)"></path><path d="m411.413 70.587h30v30h-30z" transform="matrix(.707 -.707 .707 .707 64.374 326.587)"></path><path d="m361.5 32.288h30v30h-30z" transform="matrix(.5 -.866 .866 .5 147.297 349.702)"></path><path d="m303.375 8.212h30v30h-30z" transform="matrix(.259 -.966 .966 .259 213.553 324.731)"></path></g></svg>