<svg id="Capa_1" enable-background="new 0 0 511.923 511.923" height="512" viewBox="0 0 511.923 511.923" width="512" xmlns="http://www.w3.org/2000/svg"><g><path d="m463.526 48.396c-64.529-64.528-169.524-64.528-234.052 0-31.259 31.259-48.474 72.82-48.474 117.026s17.215 85.767 48.474 117.026c32.268 32.268 74.64 48.396 117.026 48.396 42.376 0 84.766-16.136 117.026-48.396 64.529-64.528 64.529-169.523 0-234.052zm-21.213 212.839c-52.831 52.83-138.795 52.831-191.626 0-52.831-52.832-52.831-138.794 0-191.626 26.416-26.416 61.115-39.624 95.813-39.624s69.397 13.208 95.813 39.624c52.832 52.832 52.832 138.795 0 191.626z"></path><path d="m331.5 150.422h30v30h-30z" transform="matrix(.707 -.707 .707 .707 -15.483 293.464)"></path><path d="m267.507 214.415h30v30h-30z" transform="matrix(.707 -.707 .707 .707 -79.477 266.957)"></path><path d="m395.493 86.429h30v30h-30z" transform="matrix(.707 -.707 .707 .707 48.51 319.971)"></path><path d="m354.923 237.838h30v30h-30z" transform="matrix(.966 -.259 .259 .966 -52.834 104.358)"></path><path d="m308.077 63.006h30v30h-30z" transform="matrix(.966 -.259 .259 .966 -9.181 86.277)"></path><path d="m418.916 173.845h30v30h-30z" transform="matrix(.259 -.966 .966 .259 139.201 559.1)"></path><path d="m244.084 126.999h30v30h-30z" transform="matrix(.259 -.966 .966 .259 54.867 355.503)"></path><path d="m-30.329 387.489h279.525v30h-279.525z" transform="matrix(.707 -.707 .707 .707 -252.551 195.268)"></path><path d="m61.936 405.381h228.919v30h-228.919z" transform="matrix(.707 -.707 .707 .707 -245.589 247.857)"></path><path d="m-22.918 320.529h228.92v30h-228.92z" transform="matrix(.707 -.707 .707 .707 -210.443 163.004)"></path></g></svg>