<svg id="Capa_1" enable-background="new 0 0 511.979 511.979" height="512" viewBox="0 0 511.979 511.979" width="512" xmlns="http://www.w3.org/2000/svg"><g><path d="m498.819 13.159c-17.544-17.545-46.093-17.546-63.639 0l-268.341 268.341c-14.399-6.128-30.23-9.522-46.839-9.522-66.168 0-120 53.832-120 120s53.832 120 120 120 120-53.832 120-120c0-16.61-3.394-32.441-9.522-46.84l268.341-268.339c17.546-17.546 17.546-46.095 0-63.64zm-198.507 177.295 42.427-42.427 21.213 21.213-42.427 42.427zm0 42.426-21.214 21.214-21.213-21.213 21.213-21.213zm63.64-106.066 21.214-21.214 21.213 21.213-21.214 21.214zm-333.952 265.165c0-19.41 6.177-37.403 16.667-52.12l21.667 21.666c-5.287 8.934-8.334 19.342-8.334 30.454 0 33.084 26.916 60 60 60 11.112 0 21.52-3.047 30.454-8.333l21.666 21.666c-14.717 10.49-32.711 16.667-52.12 16.667-49.626 0-90-40.374-90-90zm90 30c-16.542 0-30-13.458-30-30s13.458-30 30-30 30 13.458 30 30-13.458 30-30 30zm73.333 22.12-21.666-21.667c5.286-8.934 8.333-19.342 8.333-30.454 0-33.084-26.916-60-60-60-11.111 0-21.52 3.047-30.454 8.333l-21.666-21.665c14.717-10.49 32.711-16.667 52.12-16.667 49.626 0 90 40.374 90 90 0 19.409-6.177 37.403-16.667 52.12zm.21-146.876 43.13-43.13 21.213 21.213-43.13 43.13c-6.162-7.921-13.292-15.051-21.213-21.213zm284.064-241.637-50.015 50.015-21.213-21.213 50.015-50.015c5.85-5.849 15.365-5.849 21.213 0 5.848 5.848 5.848 15.364 0 21.213z"></path></g></svg>