<svg id="Capa_1" enable-background="new 0 0 512 512" height="512" viewBox="0 0 512 512" width="512" xmlns="http://www.w3.org/2000/svg"><g><path d="m422.377 263.278-68.943 68.943-76.221-76.221 234.787-234.787-21.213-21.213-234.787 234.787-234.787-234.787-21.213 21.213 234.787 234.788-76.22 76.221-68.943-68.943c-20.469-20.47-53.777-20.47-74.246 0-20.47 20.47-20.47 53.776 0 74.246l26.517 26.517c17.545 17.545 40.592 26.318 63.64 26.318 23.047 0 46.094-8.772 63.64-26.318l86.825-86.828 86.827 86.828c17.546 17.545 40.593 26.318 63.64 26.317 23.048 0 46.095-8.772 63.64-26.318l26.517-26.517c20.47-20.47 20.47-53.776 0-74.246-20.47-20.469-53.778-20.469-74.247 0zm-359.271 79.55-26.516-26.516c-8.772-8.773-8.772-23.047 0-31.82 4.387-4.386 10.148-6.58 15.91-6.58s11.523 2.193 15.91 6.58l67.601 67.602c-23.001 13.554-53.172 10.467-72.905-9.266zm412.304-26.516-26.517 26.517c-19.733 19.732-49.905 22.82-72.904 9.264l67.601-67.601c8.772-8.772 23.048-8.773 31.82 0s8.773 23.047 0 31.82z"></path><path d="m241 467h30v45h-30z"></path><path d="m256 347c-24.813 0-45 20.187-45 45s20.187 45 45 45 45-20.187 45-45-20.187-45-45-45zm0 60c-8.271 0-15-6.729-15-15s6.729-15 15-15 15 6.729 15 15-6.729 15-15 15z"></path></g></svg>