<svg id="Capa_1" enable-background="new 0 0 512 512" height="512" viewBox="0 0 512 512" width="512" xmlns="http://www.w3.org/2000/svg"><g><path d="m512 452-.007-194.721-.009-32.688c0-.255-.005-.507-.015-.755-.412-38.861-22.116-74.138-56.63-92.064l-221.284-114.955c-21.18-11.002-45.059-16.817-69.055-16.817-32.502 0-63.43 10.227-89.439 29.575-25.49 18.961-44.013 44.917-53.568 75.063l-15.7 49.538c-4.176 13.176-6.293 26.911-6.293 40.824 0 74.439 60.561 135 135 135h257v122h15v60h90v-60zm-90-30v-32h60v32zm-287-122c-57.897 0-105-47.103-105-105 0-10.833 1.646-21.519 4.892-31.76l15.699-49.539c15.868-50.064 61.846-83.701 114.409-83.701 19.477 0 38.058 4.522 55.226 13.439l221.284 114.956c24.658 12.807 40.165 38.002 40.474 65.755.01 2.594.014 75.968.016 135.85h-60v-60zm332 182h-30v-30h30z"></path><path d="m135 240h257v30h-257z"></path><path d="m135 120h163.861v30h-163.861z"></path><path d="m135 180h257v30h-257z"></path><path d="m135 60h30v30h-30z"></path></g></svg>