<svg id="Capa_1" enable-background="new 0 0 512 512" height="512" viewBox="0 0 512 512" width="512" xmlns="http://www.w3.org/2000/svg"><g><path d="m512 224c0-59.833-23.3-116.084-65.608-158.392s-98.559-65.608-158.392-65.608h-64c-59.833 0-116.084 23.3-158.392 65.608s-65.608 98.559-65.608 158.392v6.206l4.384 4.392c53.662 53.756 121.538 88.367 196.29 100.092 35.974 5.642 72.471 5.754 108.479.333 28.558-4.299 56.329-12.009 82.847-22.985v139.962h15v60h90v-60h15zm-481.902-6.193c3.277-104.12 89-187.807 193.902-187.807h64c106.972 0 194 87.028 194 194v136h-60v-95.396l-21.654 10.72c-123.386 61.077-271.348 37.844-370.248-57.517zm391.902 204.193v-32h60v32zm45 60h-30v-30h30z"></path><path d="m451.19 205.501-1.412-8.49c-6.294-37.836-25.918-72.503-55.256-97.618-29.675-25.403-67.506-39.393-106.522-39.393h-64c-39.016 0-76.847 13.99-106.522 39.393-29.338 25.114-48.961 59.782-55.256 97.618l-1.412 8.49 6.617 5.503c26.388 21.948 56.008 38.942 88.036 50.51 32.122 11.603 65.948 17.486 100.537 17.486s68.415-5.883 100.537-17.485c32.028-11.568 61.648-28.563 88.036-50.51zm-48.481-51.001c5.599 9.277 10.118 19.329 13.38 30h-320.177c3.261-10.671 7.781-20.723 13.38-30zm-114.709-64.5c34.446 0 66.093 12.902 89.981 34.5h-243.962c23.888-21.598 55.535-34.5 89.981-34.5zm-32 159c-46.971 0-91.582-11.822-131.185-34.5h262.371c-39.604 22.678-84.215 34.5-131.186 34.5z"></path></g></svg>