<svg id="Capa_1" enable-background="new 0 0 512 512" height="512" viewBox="0 0 512 512" width="512" xmlns="http://www.w3.org/2000/svg"><g><path d="m422 288.888v-99.855l58.18-58.181-10.606-10.606 42.426-42.426-63.64-63.64-42.426 42.426-10.607-10.607-62.574 62.575c-19.831 19.832-30.753 46.2-30.753 74.246v105h-197c-57.897 0-105 47.103-105 105s47.103 105 105 105h302c57.897 0 105-47.103 105-105 0-52.805-39.183-96.631-90-103.932zm26.36-232.281 21.214 21.213-21.213 21.214-21.213-21.214zm-116.36 261.213v-135c0-20.033 7.802-38.867 21.967-53.033l41.361-41.361 42.426 42.426-45.754 45.755v141.213h15c5.136 0 10.152.521 15 1.509v73.491c0 8.271-6.729 15-15 15h-302c-8.271 0-15-6.729-15-15v-73.491c4.848-.988 9.864-1.509 15-1.509zm75 150h-302c-41.355 0-75-33.645-75-75 0-24.484 11.796-46.262 30-59.959v59.959c0 24.813 20.187 45 45 45h302c24.813 0 45-20.187 45-45v-59.959c18.204 13.697 30 35.475 30 59.959 0 41.355-33.645 75-75 75z"></path></g></svg>