<svg id="Capa_1" enable-background="new 0 0 512 512" height="512" viewBox="0 0 512 512" width="512" xmlns="http://www.w3.org/2000/svg"><g><path d="m391 31.509v-31.509h-270v151.509c-34.192 6.969-60 37.272-60 73.491v227h60v60h270v-31.509c34.192-6.968 60-37.271 60-73.491v-302c0-36.219-25.808-66.522-60-73.491zm-30 390.491h-210v-332h210zm0-392v30h-210v-30zm-240 152.58v42.42h-30c0-19.555 12.541-36.228 30-42.42zm-30 239.42v-167h30v167zm60 60v-30h210v30zm270-75c0 19.555-12.541 36.228-30 42.42v-386.84c17.459 6.192 30 22.865 30 42.42z"></path><path d="m331 392v-197c0-24.813-20.187-45-45-45h-60c-24.813 0-45 20.187-45 45v197zm-120-30v-108h30v30h30v-30h30v108zm15-182h60c8.271 0 15 6.729 15 15v29h-90v-29c0-8.271 6.729-15 15-15z"></path></g></svg>