<svg id="Capa_1" enable-background="new 0 0 512 512" height="512" viewBox="0 0 512 512" width="512" xmlns="http://www.w3.org/2000/svg"><g><path d="m512 376c0-66.308-50.882-120.946-115.65-126.945l-45.139-180.555h25.789v-30h-377v30h30v210h-30v142.5h61.701c6.842 30.021 33.736 52.5 65.799 52.5s58.958-22.479 65.799-52.5h125.402c6.842 30.021 33.736 52.5 65.799 52.5s58.958-22.479 65.799-52.5h61.701zm-452-307.5h260.289l45 180h-48.289v82.5h-62v-52.5h-75v-75c0-41.355-33.645-75-75-75h-15v150h-30zm195 292.5h62v30h-62zm-105-82.5h-30v-117.43c17.461 6.191 30 22.874 30 42.43zm-22.5 165c-20.678 0-37.5-16.822-37.5-37.5s16.822-37.5 37.5-37.5 37.5 16.822 37.5 37.5-16.822 37.5-37.5 37.5zm0-105c-32.063 0-58.958 22.479-65.799 52.5h-31.701v-82.5h195v82.5h-31.701c-6.841-30.021-33.736-52.5-65.799-52.5zm257 105c-20.678 0-37.5-16.822-37.5-37.5s16.822-37.5 37.5-37.5 37.5 16.822 37.5 37.5-16.822 37.5-37.5 37.5zm97.5-52.5h-31.701c-6.842-30.021-33.736-52.5-65.799-52.5-13.867 0-26.767 4.208-37.5 11.406v-71.406h37.5c53.762 0 97.5 43.738 97.5 97.5z"></path></g></svg>