<svg id="Capa_1" enable-background="new 0 0 512 512" height="512" viewBox="0 0 512 512" width="512" xmlns="http://www.w3.org/2000/svg"><g><path d="m411 0h-310c-41.355 0-75 33.645-75 75v362c0 41.355 33.645 75 75 75h310c41.355 0 75-33.645 75-75v-362c0-41.355-33.645-75-75-75zm45 437c0 24.813-20.187 45-45 45h-310c-24.813 0-45-20.187-45-45v-362c0-24.813 20.187-45 45-45h310c24.813 0 45 20.187 45 45z"></path><path d="m86 452h340v-392h-340zm30-60h65v30h-65zm185 0v30h-90v-30zm30 30v-30h65v30zm65-332v272h-280v-272z"></path><path d="m256 332c24.813 0 45-20.187 45-45 0-19.555-12.541-36.228-30-42.42v-34.58h95v-90h-125v124.58c-17.459 6.192-30 22.865-30 42.42 0 24.813 20.187 45 45 45zm15-182h65v30h-65zm-15 122c8.271 0 15 6.729 15 15s-6.729 15-15 15-15-6.729-15-15 6.729-15 15-15z"></path></g></svg>