<svg id="Capa_1" enable-background="new 0 0 512 512" height="512" viewBox="0 0 512 512" width="512" xmlns="http://www.w3.org/2000/svg"><g><path d="m256 0c-107.523 0-195 87.477-195 195 0 43.886 14.241 85.332 41.182 119.857 0 0 153.818 197.143 153.818 197.143l153.819-197.144c26.941-34.525 41.181-75.97 41.181-119.856 0-107.523-87.477-195-195-195zm130.167 296.401-130.167 166.829-130.166-166.828c-22.789-29.204-34.834-64.268-34.834-101.402 0-90.981 74.019-165 165-165s165 74.019 165 165c0 37.134-12.045 72.198-34.833 101.401z"></path><path d="m256 60c-74.439 0-135 60.561-135 135s60.561 135 135 135 135-60.561 135-135-60.561-135-135-135zm0 240c-57.897 0-105-47.103-105-105s47.103-105 105-105 105 47.103 105 105-47.103 105-105 105z"></path><path d="m198.574 137.574h30v30h-30z" transform="matrix(.707 -.707 .707 .707 -45.332 195.707)"></path><path d="m198.574 222.426h30v30h-30z" transform="matrix(.707 -.707 .707 .707 -105.332 220.56)"></path><path d="m283.426 222.426h30v30h-30z" transform="matrix(.707 -.707 .707 .707 -80.479 280.56)"></path></g></svg>