<svg id="Capa_1" enable-background="new 0 0 512 512" height="512" viewBox="0 0 512 512" width="512" xmlns="http://www.w3.org/2000/svg"><g><path d="m341.333 0-170.666 60-170.667-60v452l170.667 60 170.666-60 170.667 60v-452zm140.667 259.553-30-10.547v-146.5l-95.667-33.633v-31.799l125.667 44.18zm-392 13.988 65.667 23.086v114.699l-65.667-23.086zm95.667 23.086 140.666-49.453v114.699l-140.666 49.453zm0-31.801v-114.699l140.666-49.453v114.699zm140.666-195.953-140.666 49.453v-31.799l140.666-49.453zm-170.666 195.953-65.667-23.086v-114.699l65.667 23.086zm30 178.301 140.666-49.453v31.799l-140.666 49.453zm170.666-195.953 65.667 23.086v114.699l-65.667-23.086zm0-31.801v-114.699l65.667 23.086v114.699zm-200.666-128.846v31.799l-95.667-33.633v146.5l-30-10.547v-178.298zm-125.667 165.92 30 10.547v146.5l95.667 33.633v31.799l-125.667-44.18zm326.333 173.026v-31.799l95.667 33.633v-146.5l30 10.547v178.299z"></path></g></svg>