<svg id="Capa_1" enable-background="new 0 0 512 512" height="512" viewBox="0 0 512 512" width="512" xmlns="http://www.w3.org/2000/svg"><g><path d="m497 132c-119.615 0-182.115 23.209-241 46.378-37.241-14.653-75.934-29.319-129.6-38.123v-34.255h120.5v-106h-150.5v136.162c-24.001-2.643-50.832-4.162-81.4-4.162h-15v380h512v-380zm-370.6-102h90.5v46h-90.5zm355.6 132.126v64.748c-85.208-1.455-137.37-15.321-184.167-32.374 46.797-17.053 98.959-30.919 184.167-32.374zm-231.501 46.329c58.039 22.879 117.979 46.504 231.501 48.42v30.125h-355.6v-116.396c50.213 8.731 86.512 23.035 124.099 37.851zm-154.099-42.161v120.706h-66.4v-124.874c24.685.421 46.59 1.887 66.4 4.168zm-66.4 315.706v-165h452v30h-188.5c-28.948 0-52.5 23.552-52.5 52.5s23.552 52.5 52.5 52.5h188.5v30zm452-105v45h-188.5c-12.406 0-22.5-10.094-22.5-22.5s10.094-22.5 22.5-22.5z"></path></g></svg>