<svg id="Capa_1" enable-background="new 0 0 512 512" height="512" viewBox="0 0 512 512" width="512" xmlns="http://www.w3.org/2000/svg"><g><path d="m497 170.156c-14.263 0-27.802-4.537-39.153-13.121l-9.047-6.841-9.047 6.841c-11.352 8.584-24.891 13.121-39.153 13.121s-27.801-4.537-39.152-13.121l-9.047-6.841-9.047 6.841c-11.353 8.584-24.892 13.121-39.153 13.121s-27.801-4.537-39.153-13.121l-9.048-6.841-9.047 6.841c-11.353 8.584-24.892 13.121-39.153 13.121s-27.801-4.537-39.153-13.121l-9.047-6.841-9.047 6.841c-7.279 5.504-15.46 9.335-24.152 11.382v-62.417h120.5v-106h-150.501v168.417c-8.692-2.047-16.874-5.878-24.153-11.382l-9.047-6.841-9.047 6.841c-11.351 8.584-24.89 13.121-39.153 13.121h-15v341.844h512v-341.844zm-370.6-140.156h90.5v46h-90.5zm33.2 157.037c14.555 8.612 31.021 13.119 48.2 13.119s33.646-4.507 48.2-13.119c14.555 8.612 31.021 13.119 48.2 13.119s33.646-4.507 48.2-13.119c14.554 8.612 31.02 13.119 48.199 13.119 17.181 0 33.646-4.507 48.2-13.119 10.258 6.07 21.463 10.1 33.2 11.951v88.012h-355.599v-88.023c11.736-1.851 22.944-5.871 33.2-11.94zm-96.4 0c10.256 6.069 21.464 10.089 33.2 11.94v88.023h-66.4v-88.012c11.737-1.851 22.942-5.881 33.2-11.951zm-33.2 294.963v-165h452v30h-188.5c-28.948 0-52.5 23.552-52.5 52.5s23.552 52.5 52.5 52.5h188.5v30zm452-105v45h-188.5c-12.406 0-22.5-10.094-22.5-22.5s10.094-22.5 22.5-22.5z"></path></g></svg>