<svg id="Capa_1" enable-background="new 0 0 512.001 512.001" height="512" viewBox="0 0 512.001 512.001" width="512" xmlns="http://www.w3.org/2000/svg"><g><path d="m477.784 303.469h34.217l-140.991-244.203-40.396 69.969-74.614-129.235-74.613 129.234-40.396-69.969-140.991 244.204h34.217l-34.217 59.266h34.217l-34.217 59.265h67.5c5.98 29.344 29.147 52.51 58.491 58.491v31.509h30v-90h26.519c5.98 29.344 29.147 52.51 58.491 58.491v31.509h30v-31.509c29.344-5.98 52.51-29.147 58.491-58.491h26.519v90h30v-31.509c29.344-5.98 52.51-29.147 58.491-58.491h67.5l-34.217-59.266h34.217zm-132.755-89.265h-34.217l34.217 59.266h-34.217l34.217 59.266h-34.217l34.217 59.264h-178.057l34.217-59.266h-34.217l34.217-59.266h-34.217l34.217-59.266h-34.217l89.028-154.202zm-293.067 118.531 34.217-59.266h-34.217l89.029-154.203 23.076 39.969-49.057 84.969h34.217l-34.217 59.266h34.217l-34.217 59.266h34.217l-16.897 29.264h-80.368l34.217-59.266h-34.217zm74.029 116.685c-12.764-4.527-22.893-14.656-27.42-27.42h27.42zm87.59-27.42h27.419v27.42c-12.763-4.527-22.892-14.656-27.419-27.42zm57.419 27.42v-27.42h27.42c-4.527 12.764-14.656 22.893-27.42 27.42zm115.01 0v-27.42h27.42c-4.527 12.764-14.656 22.893-27.42 27.42zm74.029-116.685h-34.217l34.217 59.265h-80.368l-16.897-29.266h34.217l-34.217-59.266h34.217l-34.217-59.266h34.217l-49.057-84.969 23.076-39.969 89.029 154.203h-34.217z"></path></g></svg>