<svg id="Capa_1" enable-background="new 0 0 512 512" height="512" viewBox="0 0 512 512" width="512" xmlns="http://www.w3.org/2000/svg"><g><path d="m300 181h92v30h-92z"></path><path d="m300 241h92v30h-92z"></path><path d="m300 301h92v30h-92z"></path><path d="m180 180h30v30h-30z"></path><path d="m195 120c-41.355 0-75 33.645-75 75v122c0 41.355 33.645 75 75 75s75-33.645 75-75v-122c0-41.355-33.645-75-75-75zm45 197c0 24.813-20.187 45-45 45s-45-20.187-45-45v-122c0-24.813 20.187-45 45-45s45 20.187 45 45z"></path><path d="m422 0v60h-15c-8.047 0-15.948-2.157-22.851-6.238l-59.007-34.885c-20.875-12.35-44.784-18.877-69.142-18.877s-48.267 6.527-69.138 18.875l-59.012 34.887c-6.902 4.081-14.803 6.238-22.85 6.238h-15v-60h-90v512h90v-60h332v60h90v-512zm-362 482h-30v-452h30zm30-60v-332h15c13.415 0 26.596-3.602 38.119-10.414l59.015-34.889c16.252-9.615 34.879-14.697 53.866-14.697s37.614 5.082 53.87 14.699l59.011 34.887c11.523 6.812 24.704 10.414 38.119 10.414h15v332zm392 60h-30v-452h30z"></path></g></svg>