<svg id="Capa_1" enable-background="new 0 0 512 512" height="512" viewBox="0 0 512 512" width="512" xmlns="http://www.w3.org/2000/svg"><g><path d="m301 347c-12.683 0-23-10.317-23-23h-30c0 29.225 23.775 53 53 53s53-23.775 53-53c0-14.889-6.171-28.363-16.09-38 9.919-9.637 16.09-23.111 16.09-38 0-29.225-23.775-53-53-53s-53 23.775-53 53h30c0-12.683 10.317-23 23-23s23 10.317 23 23-10.317 23-23 23v30c12.683 0 23 10.317 23 23s-10.317 23-23 23z"></path><path d="m497 90v-30h-392v-15c0-24.813-20.187-45-45-45s-45 20.187-45 45v467h90v-422h60v30h-30v332h332v-332h-30v-30zm-422 392h-30v-437c0-8.271 6.729-15 15-15s15 6.729 15 15zm362-60h-272v-272h272zm-30-302h-212v-30h212z"></path></g></svg>