<svg id="Capa_1" enable-background="new 0 0 512 512" height="512" viewBox="0 0 512 512" width="512" xmlns="http://www.w3.org/2000/svg"><g><path d="m296.172 166-25.172-21.844v-38.156h95v-90h-125v128.156l-25.172 21.844h-215.828v330h512v-330zm-25.172-120h65v30h-65zm211 150v90h-90v-36.844l-61.256-53.156zm-211 135h31v135h-31zm-30 135h-31v-135h31zm-61-165v165h-30v-195h212v195h-30v-165zm-60 45h-90v-30h90zm0 30v90h-30v-90zm55.172-135 80.828-70.14 80.828 70.14zm216.828 135h30v90h-30zm0-30v-30h90v30zm-210.744-150-61.256 53.156v36.844h-90v-90zm-151.256 180h30v90h-30zm422 90v-90h30v90z"></path></g></svg>