<svg id="Capa_1" enable-background="new 0 0 512 512" height="512" viewBox="0 0 512 512" width="512" xmlns="http://www.w3.org/2000/svg"><g><path d="m507.545 343.212-26.902-283.212h-28.643v-60h-151v60h-90v-60h-151v60h-28.643l-26.902 283.211c-2.956 31.092-4.455 62.646-4.455 93.789v75h211v-182h90v182h211v-75c0-31.143-1.499-62.697-4.455-93.788zm-176.545-313.212h91v30h-91zm122.357 60 24.322 256.051c2.393 25.17 3.787 50.649 4.187 75.949h-150.866v-332zm-152.357 60v30h-90v-30zm0-30h-30v-30h30zm-60-30v30h-30v-30zm-151-60h91v30h-91zm-55.68 316.049 24.323-256.049h122.357v332h-150.866c.4-25.3 1.793-50.78 4.186-75.951zm-4.32 135.951v-30h151v30zm181-182v-90h90v90zm120 182v-30h151v30z"></path></g></svg>