<svg id="Capa_1" enable-background="new 0 0 512 512" height="512" viewBox="0 0 512 512" width="512" xmlns="http://www.w3.org/2000/svg"><g><path d="m391.5 0h-60v15c0 41.355 33.645 75 75 75h30.5c24.813 0 45 20.187 45 45v189.255c-16.043-14.448-37.261-23.255-60.5-23.255h-331c-23.239 0-44.457 8.807-60.5 23.255v-189.255c0-24.813 20.187-45 45-45h30.5c41.355 0 75-33.645 75-75v-15h-60c-66.444 0-120.5 54.056-120.5 120.5v271c0 28.757 13.21 55.158 36.243 72.436l36.009 27.008c18.366 13.775 40.237 21.056 63.248 21.056 58.173 0 105.5-47.327 105.5-105.5v-11.039c4.421-2.901 9.59-4.461 15-4.461s10.579 1.56 15 4.461v11.039c0 58.173 47.327 105.5 105.5 105.5 23.011 0 44.882-7.281 63.249-21.057l36.009-27.009c23.032-17.276 36.242-43.677 36.242-72.434v-271c0-66.444-54.056-120.5-120.5-120.5zm45.5 60h-30.5c-19.556 0-36.239-12.539-42.43-30h27.43c28.764 0 54.436 13.487 71.024 34.472-7.97-2.894-16.566-4.472-25.524-4.472zm-316.5-30h27.43c-6.191 17.461-22.874 30-42.43 30h-30.5c-8.958 0-17.554 1.578-25.524 4.472 16.588-20.985 42.26-34.472 71.024-34.472zm90.5 376.5c0 41.631-33.869 75.5-75.5 75.5-16.469 0-32.115-5.206-45.248-15.057l-36.008-27.007c-15.408-11.557-24.244-29.211-24.244-48.436 0-33.359 27.14-60.5 60.5-60.5h75.5c24.813 0 45 20.187 45 45zm28.915-43.216c-2.052-11.959-6.939-22.963-13.951-32.284h60.071c-7.012 9.321-11.899 20.324-13.951 32.284-5.16-1.498-10.561-2.284-16.084-2.284s-10.924.786-16.085 2.284zm217.841 76.652-36.008 27.008c-13.133 9.85-28.779 15.056-45.248 15.056-41.631 0-75.5-33.869-75.5-75.5v-30.5c0-24.813 20.187-45 45-45h75.5c33.36 0 60.5 27.141 60.5 60.5 0 19.225-8.836 36.879-24.244 48.436z"></path></g></svg>