<svg id="Capa_1" enable-background="new 0 0 512 512" height="512" viewBox="0 0 512 512" width="512" xmlns="http://www.w3.org/2000/svg"><g><path d="m347 106c-18.71 0-37.093 3.121-54.638 9.277l-242.174 84.945c-30.019 10.522-50.188 38.966-50.188 70.778 0 20.155 7.99 38.477 20.97 51.967-12.594 7.985-20.97 22.05-20.97 38.033 0 24.813 20.187 45 45 45h422c24.813 0 45-20.187 45-45v-90c0-90.981-74.019-165-165-165zm-317 255c0-8.271 6.729-15 15-15h257v30h-257c-8.271 0-15-6.729-15-15zm392-15v30h-30v-30zm-60 30h-30v-30h30zm120-15c0 8.271-6.729 15-15 15h-15v-30h30zm0-45h-407c-24.813 0-45-20.187-45-45 0-19.088 12.101-36.154 30.115-42.469l242.178-84.945c14.347-5.034 29.388-7.586 44.707-7.586 74.439 0 135 60.561 135 135z"></path></g></svg>