<svg id="Capa_1" enable-background="new 0 0 511.999 511.999" height="512" viewBox="0 0 511.999 511.999" width="512" xmlns="http://www.w3.org/2000/svg"><g><path d="m436 210.999c-24.813 0-45-20.187-45-45v-146.099l-79.602-19.9-6.005 6.006c-13.193 13.193-30.735 20.459-49.393 20.459s-36.2-7.266-49.394-20.459l-6.005-6.006-79.601 19.9v146.099c0 24.813-20.187 45-45 45h-15v301h390v-301zm-137.288-164.083c-5.41 30.182-20.249 57.83-42.713 79.186-22.463-21.356-37.302-49.004-42.713-79.186 13.182 6.246 27.692 9.549 42.713 9.549s29.531-3.303 42.713-9.549zm-147.712 119.083v-122.675l30.602-7.65c3.934 47.792 27.135 91.658 65.015 122.028l9.383 7.522 9.383-7.522c37.88-30.37 61.082-74.236 65.015-122.028l30.602 7.65v122.675c0 36.219 25.81 66.523 60 73.493v182.507h-330v-182.507c34.19-6.97 60-37.274 60-73.493zm30 286v30h-30v-30zm30 0h30v30h-30zm60 0h30v30h-30zm60 0h30v30h-30zm-240 0h30v30h-30zm300 30v-30h30v30z"></path></g></svg>