<svg id="Capa_1" enable-background="new 0 0 512 512" height="512" viewBox="0 0 512 512" width="512" xmlns="http://www.w3.org/2000/svg"><g><path d="m512 94.472-166-60v-34.472h-180v34.472l-166 60v146.528h91v271h330v-271h91zm-316-32.665 30.852 43.193h-30.852zm14.148-31.807h91.704l-45.852 64.193zm105.852 31.807v43.193h-30.852zm-286 149.193v-95.472l61-22.048v117.52zm91 271v-399.364l45-16.265v68.629h180v-68.629l45 16.265v399.364zm361-271h-61v-117.52l61 22.048z"></path><path d="m241 165h30v30h-30z"></path><path d="m241 225h30v30h-30z"></path></g></svg>