<svg id="Capa_1" enable-background="new 0 0 512 512" height="512" viewBox="0 0 512 512" width="512" xmlns="http://www.w3.org/2000/svg"><g><path d="m512 241v-146.528l-166-60v-34.472h-180v34.472l-166 60v146.528h114.542l6.061 43.215-38.349 98.857c-14.103 36.338-21.254 74.669-21.254 113.928v15h390v-15c0-39.259-7.151-77.59-21.253-113.926l-38.35-98.859 6.061-43.215zm-93.713-148.501 63.713 23.029v95.472h-80.334zm-388.287 118.501v-95.472l63.713-23.029 16.621 118.501zm271.852-181-45.852 64.193-45.852-64.193zm14.148 31.807v43.193h-30.852zm-120 0 30.852 43.193h-30.852zm205.778 332.119c10.954 28.223 17.27 57.785 18.836 88.074h-329.228c1.566-30.29 7.882-59.852 18.837-88.076l41.174-106.141-28.852-205.705 43.455-15.707v68.629h180v-68.629l43.455 15.707-28.852 205.705z"></path><path d="m241 165h30v30h-30z"></path><path d="m241 225h30v30h-30z"></path></g></svg>