<svg id="Capa_1" enable-background="new 0 0 512 512" height="512" viewBox="0 0 512 512" width="512" xmlns="http://www.w3.org/2000/svg"><g><path d="m421 70.647v-70.647h-330v70.648c-18.986 30.732-29 66.02-29 102.346 0 6.195.299 12.477.888 18.669l30.471 320.337h147.641v-241h30v241h147.641l30.471-320.336c.589-6.188.888-12.469.888-18.67 0-36.327-10.014-71.614-29-102.347zm-300-40.647h59v30h-59zm-28.935 139.356c.611-28.056 8.277-55.261 22.333-79.356h35.5c-4.981 34.377-26.812 64.182-57.833 79.356zm148.935 71.644h-30v241h-90.359l-26.708-280.776c47.19-17.922 80.604-61.131 86.223-111.224h60.844zm0-181h-31v-30h31zm90-30h60v30h-60zm-60 0h30v30h-30zm120.359 452h-90.359v-241h-30v-151h60.844c5.619 50.093 39.034 93.302 86.223 111.224zm-29.257-392h35.5c14.056 24.094 21.722 51.3 22.333 79.356-31.021-15.174-52.852-44.979-57.833-79.356z"></path></g></svg>