<svg id="Capa_1" enable-background="new 0 0 512 512" height="512" viewBox="0 0 512 512" width="512" xmlns="http://www.w3.org/2000/svg"><g><path d="m466.875 30c-5.984 0-11.695 1.181-16.925 3.306-5.163-19.16-22.681-33.306-43.45-33.306-20.737 0-38.232 14.102-43.424 33.217-5.17-2.068-10.802-3.217-16.701-3.217-24.882 0-45.125 20.243-45.125 45.125v32.491c-4.731-1.688-9.821-2.616-15.125-2.616s-10.394.927-15.125 2.616v-32.491c0-24.882-20.243-45.125-45.125-45.125-5.984 0-11.695 1.181-16.925 3.306-5.163-19.16-22.682-33.306-43.45-33.306-20.736 0-38.232 14.102-43.424 33.217-5.17-2.068-10.802-3.217-16.701-3.217-24.882 0-45.125 20.243-45.125 45.125v32.491c-4.731-1.689-9.821-2.616-15.125-2.616-24.882 0-45.125 20.243-45.125 45.125v196.375c0 31.092 10.658 61.114 30.125 85.178v80.322h210.75v-80.322c5.858-7.242 10.913-15.026 15.125-23.214 4.212 8.188 9.267 15.972 15.125 23.214v80.322h30.25c17.908 0 33.997-7.896 45-20.377 11.003 12.481 27.092 20.377 45 20.377h90.5v-80.322c19.467-24.064 30.125-54.086 30.125-85.178v-271.375c0-24.882-20.243-45.125-45.125-45.125zm-225.875 316.5c0 25.72-9.366 50.497-26.372 69.769l-3.753 4.253v61.478h-150.75v-61.479l-3.753-4.253c-17.006-19.271-26.372-44.048-26.372-69.768v-196.375c0-8.34 6.785-15.125 15.125-15.125s15.125 6.785 15.125 15.125v76.875h30v-151.875c0-8.34 6.785-15.125 15.125-15.125s15.125 6.785 15.125 15.125v151.875h30v-182c0-8.271 6.729-15 15-15s15 6.729 15 15.016l.236 228.489c-34.322 6.979-60.236 37.394-60.236 73.745h30c0-24.951 20.299-45.25 45.25-45.25h15.016l-.126-121.875h.11c0-8.34 6.785-15.125 15.125-15.125s15.125 6.785 15.125 15.125zm0-208.884c-4.731-1.688-9.821-2.616-15.125-2.616-5.361 0-10.505.945-15.279 2.668l-.065-62.543h.219c0-8.34 6.785-15.125 15.125-15.125s15.125 6.785 15.125 15.125zm30 208.367v-57.966l99.627 6.542c11.774.771 20.998 10.627 20.998 22.441s-9.224 21.671-21.002 22.441zm211 .517c0 25.72-9.365 50.497-26.372 69.769l-3.753 4.253v61.478h-60.5c-16.542 0-30-13.458-30-30v-30h-30v30c0 16.542-13.458 30-30 30h-.25v-61.479l-3.753-4.253c-10.4-11.785-17.925-25.635-22.216-40.494l97.428-6.398c27.5-1.798 49.041-24.805 49.041-52.377s-21.541-50.579-49.037-52.377l-101.588-6.669v-107.828c0-8.34 6.785-15.125 15.125-15.125s15.125 6.785 15.125 15.125v76.875h30v-151.875c0-8.34 6.785-15.125 15.125-15.125s15.125 6.785 15.125 15.125v151.875h30v-182c0-8.271 6.729-15 15-15s15 6.729 15 15.021l.25 182 30-.041-.209-151.854h.209c0-8.34 6.785-15.125 15.125-15.125s15.125 6.784 15.125 15.124z"></path></g></svg>