<svg id="Capa_1" enable-background="new 0 0 512 512" height="512" viewBox="0 0 512 512" width="512" xmlns="http://www.w3.org/2000/svg"><g><path d="m452.39 189.096-281.326-100.915-10.129 28.238 49.359 17.706c-5.038 36.496-36.436 64.694-74.295 64.694h-135.999v195h30v30h30v-30h30v30h30v-30h212v30h30v-30h30v30h30v-30h30v30h30v-30h30v-119.999c0-37.885-23.955-71.934-59.61-84.724zm-332.39 174.723h-90v-30h90zm182 0h-152v-30h152zm180 0h-150v-30h150zm0-60h-452v-75h106c50.851 0 93.375-36.337 102.973-84.407l40.752 14.618-10.129 28.238 28.238 10.129 10.129-28.238 28.238 10.129-10.129 28.238 28.238 10.129 10.129-28.238 77.821 27.915c23.77 8.528 39.74 31.229 39.74 56.488z"></path></g></svg>