<svg id="Capa_1" enable-background="new 0 0 512 512" height="512" viewBox="0 0 512 512" width="512" xmlns="http://www.w3.org/2000/svg"><g><path d="m447.31 85.904 42.742-42.743-21.213-21.213-42.743 42.742c-46.909-41.816-106.741-64.689-170.096-64.69-68.38.001-132.668 26.629-181.02 74.981l21.213 21.213c17.643-17.643 46.35-17.643 63.993 0s17.643 46.35 0 63.993l21.213 21.213c17.643-17.643 46.35-17.643 63.993 0s17.643 46.35 0 63.993l-136.773 136.775-21.213-21.213-74.246 74.246c-17.546 17.546-17.546 46.094 0 63.639 17.546 17.546 46.094 17.546 63.64 0l74.246-74.246-21.213-21.213 21.213-21.213 21.213 21.213 21.213-21.213-21.213-21.213 94.348-94.348c17.643-17.643 46.35-17.643 63.993 0s17.643 46.35 0 63.993l21.213 21.213c17.643-17.643 46.35-17.643 63.993 0s17.643 46.35 0 63.993l21.213 21.213c48.352-48.351 74.98-112.639 74.981-181.019-.001-63.355-22.874-123.187-64.69-170.096zm-391.724 391.723c-5.849 5.849-15.364 5.849-21.213 0s-5.849-15.364 0-21.213l53.033-53.033 21.213 21.213zm147.255-358.619c-1.963-16.104-9.106-31.692-21.441-44.027-9.009-9.009-19.754-15.252-31.168-18.729 60.91-32.211 133.553-34.653 196.249-7.347-8.928 1.055-18.188 2.862-27.732 5.446-39.056 10.577-79.441 33.209-115.908 64.657zm85.04 83.897c-2.183-15.638-9.274-30.717-21.275-42.718-11.604-11.604-26.086-18.612-41.169-21.038 32.254-27.202 67.401-46.702 101.153-55.842 31.383-8.498 58.135-7.104 77.159 3.729zm84.969 83.658c-2.425-15.083-9.433-29.565-21.038-41.169-12.001-12.001-27.079-19.092-42.718-21.275l115.869-115.869c10.833 19.023 12.227 45.776 3.729 77.159-9.141 33.753-28.64 68.9-55.842 101.154zm64.169 44.037c-12.335-12.335-27.923-19.478-44.027-21.441 31.449-36.467 54.08-76.852 64.657-115.908 2.584-9.544 4.391-18.804 5.446-27.733 27.305 62.697 24.864 135.339-7.347 196.25-3.477-11.414-9.72-22.159-18.729-31.168z"></path></g></svg>