<svg id="Capa_1" enable-background="new 0 0 512 512" height="512" viewBox="0 0 512 512" width="512" xmlns="http://www.w3.org/2000/svg"><g><path d="m120 27.285v32.715h-30v-15c0-24.813-20.187-45-45-45s-45 20.187-45 45v467h90v-271h30v32.715l392-65.514v-115.402zm211 65.68 60.5 10.111v94.848l-60.5 10.111zm-30 120.084-60.5 10.111v-145.32l60.5 10.111zm-241 268.951h-30v-437c0-8.271 6.729-15 15-15s15 6.729 15 15zm30-271v-121h30v121zm60-148.285 60.5 10.111v155.348l-60.5 10.111zm332 120.084-60.5 10.111v-84.82l60.5 10.111z"></path></g></svg>