<svg id="Capa_1" enable-background="new 0 0 512 512" height="512" viewBox="0 0 512 512" width="512" xmlns="http://www.w3.org/2000/svg"><g><path d="m452 0h-302c-33.084 0-60 26.916-60 60v362h-90v30c0 33.084 26.916 60 60 60h302c33.084 0 60-26.916 60-60v-362h90v-30c0-33.084-26.916-60-60-60zm-392 482c-16.542 0-30-13.458-30-30h272c0 10.92 2.933 21.17 8.052 30zm332-30c0 16.542-13.458 30-30 30s-30-13.458-30-30v-30h-212v-362c0-16.542 13.458-30 30-30h250.072c-5.123 8.833-8.072 19.075-8.072 30zm30-392c0-16.542 13.458-30 30-30s30 13.458 30 30z"></path><path d="m180 91h152v30h-152z"></path><path d="m180 151h152v30h-152z"></path><path d="m180 211h152v30h-152z"></path><path d="m180 271h152v30h-152z"></path><path d="m180 331h152v30h-152z"></path></g></svg>