<svg id="Capa_1" enable-background="new 0 0 512 512" height="512" viewBox="0 0 512 512" width="512" xmlns="http://www.w3.org/2000/svg"><g><path d="m45 0v362h-45v30c0 27.906 19.151 51.424 45 58.101v61.899h467v-512zm90 362v-332h30v60h227v-60h30v362c0 16.542-13.458 30-30 30s-30-13.458-30-30v-30zm60-332h167v30h-167zm-120 0h30v332h-30zm-45 362h302c0 10.92 2.934 21.17 8.052 30h-280.052c-16.542 0-30-13.458-30-30zm452 90h-407v-30h317c33.084 0 60-26.916 60-60v-362h30z"></path><path d="m392 120h-227v212h227zm-30 60.667h-68.5v-30.667h68.5zm-68.5 30h68.5v30.666h-68.5zm-30 30.666h-68.5v-30.666h68.5zm0-91.333v30.667h-68.5v-30.667zm-68.5 121.333h68.5v30.667h-68.5zm98.5 30.667v-30.667h68.5v30.667z"></path></g></svg>