<svg id="Capa_1" enable-background="new 0 0 512 512" height="512" viewBox="0 0 512 512" width="512" xmlns="http://www.w3.org/2000/svg"><g><path d="m512 90h-363.509c-5.981-29.344-29.147-52.51-58.491-58.491v-31.509h-90v512h90v-31.509c29.344-5.98 52.51-29.147 58.491-58.491h363.509zm-103.226 30-92.774 77.397-92.774-77.397zm-258.774 56.117 95.754 79.883-95.754 79.883zm-90 305.883h-30v-452h30zm60-75c0 19.555-12.541 36.228-30 42.42v-386.84c17.459 6.192 30 22.865 30 42.42zm103.226-15 92.774-77.397 92.774 77.397zm232.38 0-139.606-116.466-139.606 116.466h-26.394v-17.047l142.585-118.953-142.585-118.953v-17.047h26.394l139.606 116.466 139.606-116.466h26.394v17.047l-142.585 118.953 142.585 118.953v17.047zm26.394-215.883v159.766l-95.754-79.883z"></path></g></svg>