<?xml version="1.0"?>
<svg id="Outline" xmlns="http://www.w3.org/2000/svg" version="1.1" viewBox="0 0 48 48">
  
  <path d="M5,27.999c0,.553.447,1,1,1,8.006,0,15.632,2.868,21.646,8.157.531.467,1.046.95,1.546,1.45,0,0,.101.101.101.101.388.388,1.028.386,1.414,0,.391-.391.391-1.023,0-1.414l-.101-.101c-1.746-1.746-3.648-3.276-5.669-4.593,3.542-1.703,7.439-2.599,11.372-2.599h5.69c.553,0,1-.447,1-1s-.447-1-1-1h-5.69c-4.662,0-9.27,1.178-13.379,3.39-2.446-1.367-5.045-2.427-7.75-3.162,2.264-1.161,3.819-3.514,3.819-6.228,0-.541-.068-1.066-.184-1.572,2.336-.382,4.38-1.939,5.314-4.154l3.78-8.311c.112-.246.119-.527.021-.778-.099-.252-.295-.453-.545-.558l-3.69-1.55c-.494-.206-1.072.016-1.297.508l-3.377,7.425-2.784-1.173c-1.521-.639-3.282.074-3.929,1.594l-.669,1.587c-3.692.189-6.641,3.244-6.641,6.982,0,1.973.824,3.754,2.141,5.028-.38-.012-.759-.028-1.141-.028-.553,0-1,.447-1,1ZM15.462,13.681l3.681,1.55c.495.208,1.074-.015,1.298-.508l3.377-7.426,1.846.775-3.364,7.398c-.745,1.766-2.386,2.899-4.246,3.029-.933-1.607-2.485-2.807-4.329-3.277l.427-1.012c.216-.505.801-.746,1.312-.53ZM7,21.999c0-2.757,2.243-5,5-5s5,2.243,5,5-2.243,5-5,5-5-2.243-5-5Z"></path>
  <path d="M42,40.999H6c-.553,0-1,.447-1,1s.447,1,1,1h36c.553,0,1-.447,1-1s-.447-1-1-1Z"></path>
</svg>