<?xml version="1.0"?>
<svg id="Outline" xmlns="http://www.w3.org/2000/svg" version="1.1" viewBox="0 0 48 48">
  
  <path d="M34,26.786c-1.302,0-2.402.839-2.816,2h-1.184c-.553,0-1,.447-1,1s.447,1,1,1h1.184c.414,1.161,1.514,2,2.816,2,1.654,0,3-1.346,3-3s-1.346-3-3-3ZM34,30.786c-.552,0-1-.448-1-1s.448-1,1-1,1,.448,1,1-.448,1-1,1Z"></path>
  <path d="M42.94,28.766c-.43-3.95-3.59-7.26-7.5-7.87-.48-.07-.96-.11-1.44-.11-2.31,0-4.53.87-6.22,2.5-1,.97-2.35,1.5-3.78,1.5s-2.78-.53-3.78-1.5c-1.45-1.39-3.27-2.21-5.22-2.43v-3.35l.2-.06c1.11-.38,2.3-.29,3.35.23.9.46,1.88.68,2.86.68.68,0,1.36-.11,2.03-.33l.88-.29c.4-.14.68-.52.68-.95v-6c0-.32-.15-.62-.42-.81-.26-.19-.59-.24-.9-.14l-.88.29c-1.11.37-2.3.29-3.35-.23-1.53-.77-3.26-.89-4.89-.35l-.88.29c-.4.14-.68.52-.68.95v10.07c-.15.01-.29.02-.44.04-3.91.61-7.07,3.92-7.5,7.87-.29,2.56.53,5.12,2.23,7.02,1.71,1.91,4.15,3,6.71,3,2.34,0,4.56-.9,6.25-2.53.98-.95,2.31-1.47,3.75-1.47s2.77.52,3.75,1.47c1.69,1.63,3.91,2.53,6.25,2.53,2.56,0,5-1.09,6.71-3,1.7-1.9,2.52-4.46,2.23-7.02ZM15,11.506l.2-.06c1.11-.38,2.3-.29,3.35.23,1.39.7,2.96.86,4.45.48v3.91l-.2.06c-1.11.38-2.3.29-3.35-.23-.9-.46-1.88-.68-2.86-.68-.53,0-1.06.06-1.59.2v-3.91ZM14,30.786c.55,0,1-.45,1-1v-2.82c1.16.42,2,1.52,2,2.82,0,1.65-1.35,3-3,3s-3-1.35-3-3c0-1.3.84-2.4,2-2.82v2.82c0,.55.45,1,1,1ZM39.22,34.456c-1.33,1.48-3.23,2.33-5.22,2.33-1.82,0-3.55-.7-4.86-1.97-1.35-1.31-3.18-2.03-5.14-2.03s-3.79.72-5.14,2.03c-1.31,1.27-3.04,1.97-4.86,1.97-1.99,0-3.89-.85-5.22-2.33-1.34-1.5-1.96-3.45-1.74-5.47.34-3.07,2.79-5.64,5.83-6.11.04-.01.09-.01.13-.01v2.02c-2.28.47-4,2.49-4,4.9,0,2.76,2.24,5,5,5,2.41,0,4.43-1.72,4.9-4h1.1c.55,0,1-.45,1-1s-.45-1-1-1h-1.1c-.4-1.96-1.94-3.5-3.9-3.9v-2.02c1.43.21,2.76.84,3.83,1.86,1.38,1.33,3.22,2.06,5.17,2.06s3.79-.73,5.17-2.06c1.58-1.52,3.76-2.2,5.96-1.85,3.04.47,5.49,3.04,5.83,6.11.22,2.02-.4,3.97-1.74,5.47Z"></path>
  <path d="M26.666,28.786h-3.333c-.553,0-1,.447-1,1s.447,1,1,1h3.333c.553,0,1-.447,1-1s-.447-1-1-1Z"></path>
</svg>