<?xml version="1.0"?>
<svg id="Outline" xmlns="http://www.w3.org/2000/svg" version="1.1" viewBox="0 0 48 48">
  
  <path d="M37,21h-5v-.18c1.16-.42,2-1.52,2-2.82,0-1.65-1.35-3-3-3h-1v-2h3c1.65,0,3-1.35,3-3v-2c0-1.65-1.35-3-3-3h-2c-3.86,0-7,3.14-7,7v3h-2v-3c0-3.86-3.14-7-7-7h-2c-1.65,0-3,1.35-3,3v2c0,1.65,1.35,3,3,3h3v2h-1c-1.65,0-3,1.35-3,3,0,1.3.84,2.4,2,2.82v15.18c0,1.3.84,2.4,2,2.82v1.18c0,1.65,1.35,3,3,3h8c1.65,0,3-1.35,3-3v-1.18c1.16-.42,2-1.52,2-2.82v-1h3c1.65,0,3-1.35,3-3v-10c0-.55-.45-1-1-1ZM26,12c0-2.76,2.24-5,5-5h2c.55,0,1,.45,1,1v2c0,.55-.45,1-1,1h-4c-.55,0-1,.45-1,1v3h-2v-3ZM13,11c-.55,0-1-.45-1-1v-2c0-.55.45-1,1-1h2c2.76,0,5,2.24,5,5v3h-2v-3c0-.55-.45-1-1-1h-4ZM28,40c0,.55-.45,1-1,1h-8c-.55,0-1-.45-1-1v-1h10v1ZM30,36c0,.55-.45,1-1,1h-12c-.55,0-1-.45-1-1v-15h14v15ZM31,19H15c-.55,0-1-.45-1-1s.45-1,1-1h16c.55,0,1,.45,1,1s-.45,1-1,1ZM36,32c0,.55-.45,1-1,1h-3v-10h4v9Z"></path>
</svg>