<?xml version="1.0"?>
<svg id="Outline" xmlns="http://www.w3.org/2000/svg" version="1.1" viewBox="0 0 48 48">
  
  <path d="M36,17c0-6.62-5.38-12-12-12s-12,5.38-12,12c0,2.4.73,4.75,2.07,6.72-.65.55-1.07,1.36-1.07,2.28,0,1.65,1.35,3,3,3h.18c-.11.31-.18.65-.18,1,0,1.65,1.35,3,3,3h2v9c0,.55.45,1,1,1s1-.45,1-1v-9h2v9c0,.55.45,1,1,1s1-.45,1-1v-9h2c1.65,0,3-1.35,3-3,0-.35-.07-.69-.18-1h.18c1.65,0,3-1.35,3-3,0-.92-.42-1.73-1.07-2.28,1.34-1.97,2.07-4.32,2.07-6.72ZM14,17c0-5.51,4.49-10,10-10s10,4.49,10,10c0,2.17-.72,4.28-2.01,6h-15.98c-1.29-1.72-2.01-3.83-2.01-6ZM29,31h-10c-.55,0-1-.45-1-1s.45-1,1-1h10c.55,0,1,.45,1,1s-.45,1-1,1ZM32,27h-16c-.55,0-1-.45-1-1s.45-1,1-1h16c.55,0,1,.45,1,1s-.45,1-1,1Z"></path>
  <path d="M26,11c.551,0,1,.449,1,1s.448,1,1,1,1-.448,1-1c0-1.654-1.346-3-3-3-.552,0-1,.448-1,1s.448,1,1,1Z"></path>
  <path d="M28,15c0,.552.448,1,1,1s1,.449,1,1,.448,1,1,1,1-.448,1-1c0-1.654-1.346-3-3-3-.552,0-1,.448-1,1Z"></path>
  <path d="M24,15c.551,0,1,.449,1,1s.448,1,1,1,1-.448,1-1c0-1.654-1.346-3-3-3-.552,0-1,.448-1,1s.448,1,1,1Z"></path>
</svg>