<?xml version="1.0"?>
<svg id="Outline" xmlns="http://www.w3.org/2000/svg" version="1.1" viewBox="0 0 48 48">
  
  <path d="M25,26.039v-5.42l13.45-6.73c.34-.16.55-.51.55-.89s-.21-.73-.55-.89l-14-7c-.31-.16-.68-.14-.98.04-.29.18-.47.5-.47.85v20.04c-10.01.44-18,7.42-18,15.96,0,.55.45,1,1,1s1-.45,1-1c0-7.44,7.09-13.53,16-13.96v2.02c-2.87.31-5,1.93-5,3.94,0,2.24,2.64,4,6,4s6-1.76,6-4c0-2.01-2.13-3.63-5-3.94v-2.02c8.91.43,16,6.52,16,13.96,0,.55.45,1,1,1s1-.45,1-1c0-8.54-7.99-15.52-18-15.96ZM25,7.619l10.76,5.38-10.76,5.38V7.619ZM23,35.919c-1.77-.25-3-1.12-3-1.92s1.23-1.67,3-1.92v3.84ZM28,33.999c0,.8-1.23,1.67-3,1.92v-3.84c1.77.25,3,1.12,3,1.92Z"></path>
</svg>