<?xml version="1.0"?>
<svg id="Outline" xmlns="http://www.w3.org/2000/svg" version="1.1" viewBox="0 0 48 48">
  
  <path d="M42,41.001h-6v-2h2c.55,0,1-.45,1-1,0-.41-.25-.76-.6-.92.37-.6.6-1.31.6-2.08,0-2.21-1.79-4-4-4s-4,1.79-4,4c0,.77.23,1.48.6,2.08-.35.16-.6.51-.6.92,0,.55.45,1,1,1h2v2h-11.7c.19-.53.24-1.11.11-1.67l-2.37-10.25,2.38-5.94c.5-1.26.48-2.63-.06-3.86-.31-.73-.8-1.33-1.38-1.82,1.2-.69,2.02-1.98,2.02-3.46,0-2.21-1.79-4-4-4s-4,1.79-4,4c0,.31.04.61.11.89l-4.11-1.58v-2.95l15.22-3.38c.54-.12.88-.66.76-1.2-.12-.54-.66-.87-1.2-.76l-15.24,3.4c-.53-.85-1.47-1.42-2.54-1.42-1.65,0-3,1.35-3,3v4.36c0,2.01,1.19,3.81,3.03,4.6l3.73,1.6-2.71,8.12c-.03.11-.05.21-.05.32v11.09c0,.32.06.62.16.91h-3.16c-.55,0-1,.45-1,1s.45,1,1,1h36c.55,0,1-.45,1-1s-.45-1-1-1ZM19,12.001c1.1,0,2,.9,2,2s-.9,2-2,2-2-.9-2-2,.9-2,2-2ZM15.03,41.001c.07-.2.12-.4.14-.62l.32-3.26,1.12,3.74c.02.05.04.09.06.14h-1.64ZM20.265,40.617c-.179.229-.454.384-.775.384-.44,0-.83-.29-.96-.71l-2.57-8.58c-.13-.42-.52-.71-.96-.71h-.1c-.47.05-.85.43-.9.9l-.82,8.28c-.05.47-.44.82-.91.82h-.36c-.5,0-.91-.41-.91-.91v-10.93l2.95-8.84c.16-.5-.08-1.03-.56-1.24l-4.57-1.96c-1.11-.47-1.82-1.56-1.82-2.76v-4.36c0-.55.45-1,1-1s1,.45,1,1v4c0,.41.25.78.64.93l9.22,3.55c.75.29,1.35.86,1.67,1.6.32.74.34,1.56.04,2.31l-2.5,6.24c-.07.19-.09.4-.04.59l2.43,10.56c.068.297-.014.604-.195.836ZM33,35.001c0-1.1.9-2,2-2s2,.9,2,2-.9,2-2,2-2-.9-2-2Z"></path>
</svg>