<?xml version="1.0"?>
<svg id="Outline" xmlns="http://www.w3.org/2000/svg" version="1.1" viewBox="0 0 48 48">
  
  <path d="M36.67,25.03l-6.16-14.08c1.41-.24,2.49-1.47,2.49-2.95,0-1.65-1.35-3-3-3H8c-1.65,0-3,1.35-3,3,0,1.3.84,2.4,2,2.82v13.18h-1c-.55,0-1,.45-1,1v12c0,1.65,1.35,3,3,3h1.14c.45,1.72,2,3,3.86,3s3.41-1.28,3.86-3h14.28c.45,1.72,2,3,3.86,3s3.41-1.28,3.86-3h1.14c1.65,0,3-1.35,3-3v-5c0-3.63-2.78-6.63-6.33-6.97ZM34.81,25.78l-1.31,1.31-4.59-4.59.8-.79c.39-.39.39-1.03,0-1.42-.39-.39-1.03-.39-1.42,0l-3,3c-.39.39-.39,1.03,0,1.42.39.38,1.03.38,1.42,0l.79-.8,4.59,4.59-3.5,3.5h-6.97l-1.73-3.45c-.16-.34-.51-.55-.89-.55h-3v-7c0-1.65-1.35-3-3-3s-3,1.35-3,3v3h-1v-13h19.35l6.46,14.78ZM14,21v7h-2v-7c0-.55.45-1,1-1s1,.45,1,1ZM8,7h22c.55,0,1,.45,1,1s-.45,1-1,1H8c-.55,0-1-.45-1-1s.45-1,1-1ZM7,26h3v3c0,.55.45,1,1,1h5.59l-2,2h-4.59c-.16,0-.31.04-.45.11l-2.55,1.27v-7.38ZM13,41c-1.1,0-2-.9-2-2s.9-2,2-2,2,.9,2,2-.9,2-2,2ZM35,41c-1.1,0-2-.9-2-2s.9-2,2-2,2,.9,2,2-.9,2-2,2ZM41,37c0,.55-.45,1-1,1h-1.14c-.45-1.72-2-3-3.86-3s-3.41,1.28-3.86,3h-14.28c-.45-1.72-2-3-3.86-3s-3.41,1.28-3.86,3h-1.14c-.55,0-1-.45-1-1v-1.38l3.24-1.62h4.76c.27,0,.52-.11.71-.29l3-3c0-.01.01-.02.01-.03l1.39,2.77c.16.34.51.55.89.55h8c.27,0,.52-.11.71-.29l6.69-6.69c2.57.2,4.6,2.36,4.6,4.98v5Z"></path>
</svg>