<?xml version="1.0"?>
<svg id="Outline" xmlns="http://www.w3.org/2000/svg" version="1.1" viewBox="0 0 48 48">
  
  <path d="M25.45,23.11l-14-7c-.31-.16-.68-.14-.98.04-.29.18-.47.5-.47.85v16.06c-2.87.31-5,1.93-5,3.94,0,2.24,2.64,4,6,4s6-1.76,6-4c0-2.01-2.13-3.63-5-3.94v-1.44l13.45-6.73c.34-.16.55-.51.55-.89s-.21-.73-.55-.89ZM10,38.92c-1.77-.25-3-1.12-3-1.92s1.23-1.67,3-1.92v3.84ZM15,37c0,.8-1.23,1.67-3,1.92v-3.84c1.77.25,3,1.12,3,1.92ZM12,29.38v-10.76l10.76,5.38-10.76,5.38Z"></path>
  <path d="M36,27c-3.859,0-7,3.14-7,7s3.141,7,7,7,7-3.14,7-7-3.141-7-7-7ZM36,39c-2.757,0-5-2.243-5-5s2.243-5,5-5,5,2.243,5,5-2.243,5-5,5Z"></path>
  <circle cx="37.001" cy="32" r="1"></circle>
  <circle cx="38" cy="34.999" r="1"></circle>
  <path d="M39,14c0-1.654-1.346-3-3-3s-3,1.346-3,3,1.346,3,3,3,3-1.346,3-3ZM35,14c0-.551.448-1,1-1s1,.449,1,1-.448,1-1,1-1-.449-1-1Z"></path>
  <path d="M36,25c.284,0,.555-.121.744-.332.641-.714,6.256-7.075,6.256-10.668,0-3.86-3.141-7-7-7s-7,3.14-7,7c0,3.593,5.615,9.954,6.256,10.668.189.211.46.332.744.332ZM36,9c2.757,0,5,2.243,5,5,0,1.906-2.816,5.884-5,8.475-2.184-2.591-5-6.568-5-8.475,0-2.757,2.243-5,5-5Z"></path>
</svg>