<?xml version="1.0"?>
<svg id="Outline" xmlns="http://www.w3.org/2000/svg" version="1.1" viewBox="0 0 48 48">
  
  <path d="M34,13c1.65,0,3-1.35,3-3v-2c0-1.65-1.35-3-3-3h-2c-3.86,0-7,3.14-7,7v7h-2v-7c0-3.86-3.14-7-7-7h-2c-1.65,0-3,1.35-3,3v2c0,1.65,1.35,3,3,3h3v6h-5c-.55,0-1,.45-1,1v4c0,.55.45,1,1,1h1v7c0,6.07,4.93,11,11,11s11-4.93,11-11v-7h1c.55,0,1-.45,1-1v-4c0-.55-.45-1-1-1h-5v-6h3ZM14,11c-.55,0-1-.45-1-1v-2c0-.55.45-1,1-1h2c2.76,0,5,2.24,5,5v7h-2v-7c0-.55-.45-1-1-1h-4ZM33,32c0,4.96-4.04,9-9,9s-9-4.04-9-9v-7h18v7ZM35,21v2H13v-2h22ZM30,11c-.55,0-1,.45-1,1v7h-2v-7c0-2.76,2.24-5,5-5h2c.55,0,1,.45,1,1v2c0,.55-.45,1-1,1h-4Z"></path>
  <path d="M18,29h12c.553,0,1-.448,1-1s-.447-1-1-1h-12c-.553,0-1,.448-1,1s.447,1,1,1Z"></path>
</svg>