<?xml version="1.0"?>
<svg id="Outline" xmlns="http://www.w3.org/2000/svg" version="1.1" viewBox="0 0 48 48">
  
  <path d="M32,23h-2.03c2.44-1.83,4.03-4.73,4.03-8,0-5.51-4.49-10-10-10s-10,4.49-10,10c0,3.27,1.59,6.17,4.03,8h-2.03c-1.65,0-3,1.35-3,3s1.35,3,3,3h.18c-.11.31-.18.65-.18,1,0,1.65,1.35,3,3,3h1.26l2.78,9.29c.13.42.52.71.96.71s.83-.29.96-.71l2.78-9.29h1.26c1.65,0,3-1.35,3-3,0-.35-.07-.69-.18-1h.18c1.65,0,3-1.35,3-3s-1.35-3-3-3ZM16,15c0-4.41,3.59-8,8-8s8,3.59,8,8-3.59,8-8,8-8-3.59-8-8ZM24,38.52l-1.66-5.52h3.32l-1.66,5.52ZM29,31h-10c-.55,0-1-.45-1-1s.45-1,1-1h10c.55,0,1,.45,1,1s-.45,1-1,1ZM32,27h-16c-.55,0-1-.45-1-1s.45-1,1-1h16c.55,0,1,.45,1,1s-.45,1-1,1Z"></path>
  <path d="M30,13c0-1.331-1.083-2.414-2.414-2.414-.553,0-1,.448-1,1s.447,1,1,1c.229,0,.414.186.414.414,0,.552.447,1,1,1s1-.448,1-1Z"></path>
  <path d="M25.414,11.414c0-1.331-1.083-2.414-2.414-2.414-.553,0-1,.448-1,1s.447,1,1,1c.229,0,.414.186.414.414,0,.552.447,1,1,1s1-.448,1-1Z"></path>
  <path d="M26,13.586c-.553,0-1,.448-1,1s.447,1,1,1c.229,0,.414.186.414.414,0,.552.447,1,1,1s1-.448,1-1c0-1.331-1.083-2.414-2.414-2.414Z"></path>
</svg>