<?xml version="1.0"?>
<svg id="Outline" xmlns="http://www.w3.org/2000/svg" version="1.1" viewBox="0 0 48 48">
  
  <path d="M38.831,5.44c-.19-.28-.5-.44-.83-.44h-4c-.4,0-.76.24-.92.61l-6,14c-.05.12-.08.25-.08.39v5h-1c-.55,0-1,.45-1,1v3h-4v-2.18c1.16-.42,2-1.52,2-2.82v-2.52c2.41-1.62,4-4.37,4-7.48,0-4.96-4.04-9-9-9s-9,4.04-9,9c0,3.11,1.59,5.86,4,7.48v2.52c0,1.3.84,2.4,2,2.82v2.18h-3c-1.65,0-3,1.35-3,3v8c0,1.65,1.35,3,3,3h8c7.17,0,13-5.83,13-13v-8.81l5.93-14.82c.12-.31.08-.66-.1-.93ZM21.001,24c0,.55-.45,1-1,1h-4c-.55,0-1-.45-1-1v-1.53c.94.34,1.95.53,3,.53s2.06-.19,3-.53v1.53ZM19.001,27v2h-2v-2h2ZM11.001,14c0-3.86,3.14-7,7-7s7,3.14,7,7-3.14,7-7,7-7-3.14-7-7ZM20.001,41h-8c-.55,0-1-.45-1-1v-8c0-.55.45-1,1-1h18.96c-.51,5.6-5.23,10-10.96,10ZM31.001,29h-4v-2h4v2ZM31.071,20.63c-.05.12-.07.24-.07.37v4h-2v-4.79l5.66-13.21h1.86l-5.45,13.63Z"></path>
</svg>