<?xml version="1.0"?>
<svg id="Outline" xmlns="http://www.w3.org/2000/svg" version="1.1" viewBox="0 0 48 48">
  
  <path d="M35.12,19.37c-2.47-.22-4.87-1.07-6.93-2.45l-5.64-3.75c-.39-.27-.92-.21-1.26.12l-2.08,2.08c-1.05,1.05-2.44,1.63-3.93,1.63-1.74,0-3.4-.83-4.45-2.23l-.43-.57c-.56-.75-1.46-1.2-2.4-1.2-1.65,0-3,1.35-3,3v14c0,1.65,1.35,3,3,3v1c0,.55.45,1,1,1s1-.45,1-1v-1h2v1c0,.55.45,1,1,1s1-.45,1-1v-1h2v1c0,.55.45,1,1,1s1-.45,1-1v-1h2c.55,0,1-.45,1-1h1.59l.7.71c.19.18.44.29.71.29h2v1c0,.55.45,1,1,1s1-.45,1-1v-1h2v1c0,.55.45,1,1,1s1-.45,1-1v-1h2v1c0,.55.45,1,1,1s1-.45,1-1v-1h2v1c0,.55.45,1,1,1s1-.45,1-1v-1c1.65,0,3-1.35,3-3v-2c0-4.51-3.39-8.22-7.88-8.63ZM37,22c0-.04-.01-.07-.01-.11,2.09.89,3.59,2.81,3.93,5.11h-22.74c.42-1.16,1.52-2,2.82-2h13c1.65,0,3-1.35,3-3ZM7,16c0-.55.45-1,1-1,.31,0,.61.15.8.4l.43.57c1.42,1.9,3.68,3.03,6.05,3.03,2.02,0,3.92-.79,5.35-2.21l1.5-1.5,1.3.87-1.14,1.13c-.39.39-.39,1.03,0,1.42.4.38,1.02.38,1.42,0l1.42-1.42,1.9,1.27-.74.73c-.39.39-.39,1.03,0,1.42.4.38,1.02.38,1.42,0l1.11-1.11c1.84.93,3.85,1.52,5.91,1.74.17.17.27.41.27.66,0,.55-.45,1-1,1h-13c-2.41,0-4.43,1.72-4.9,4h-2.17c-.45-3.61-3.32-6.48-6.93-6.93v-4.07ZM7,22.09c2.51.42,4.49,2.4,4.91,4.91h-4.91v-4.91ZM41,30c0,.55-.45,1-1,1h-15.59l-.7-.71c-.19-.18-.44-.29-.71-.29h-3c-.55,0-1,.45-1,1h-11c-.55,0-1-.45-1-1v-1h34v1Z"></path>
</svg>