<?xml version="1.0"?>
<svg id="Outline" xmlns="http://www.w3.org/2000/svg" version="1.1" viewBox="0 0 48 48">
  
  <path d="M11,20.5c0,4.411,3.589,8,8,8s8-3.589,8-8-3.589-8-8-8-8,3.589-8,8ZM19,14.5c3.309,0,6,2.691,6,6s-2.691,6-6,6-6-2.691-6-6,2.691-6,6-6Z"></path>
  <path d="M21.585,20.086c.229,0,.415.186.415.414,0,.553.448,1,1,1s1-.447,1-1c0-1.331-1.083-2.414-2.415-2.414-.552,0-1,.447-1,1s.448,1,1,1Z"></path>
  <path d="M17,18.5c.229,0,.414.186.414.414,0,.553.448,1,1,1s1-.447,1-1c0-1.331-1.083-2.414-2.414-2.414-.552,0-1,.447-1,1s.448,1,1,1Z"></path>
  <path d="M42,22.5h-5v-2.38l5.45-2.73c.34-.17.55-.51.55-.89s-.21-.72-.55-.89l-6-3c-.31-.16-.68-.14-.98.04-.29.18-.47.5-.47.85v9h-5.42c-.45,0-.84.3-.96.73-1.21,4.28-5.16,7.27-9.62,7.27s-8.41-2.99-9.62-7.27c-.12-.43-.51-.73-.96-.73h-2.42c-.55,0-1,.45-1,1v16c0,.55.45,1,1,1h36c.55,0,1-.45,1-1v-16c0-.55-.45-1-1-1ZM37,15.12l2.76,1.38-2.76,1.38v-2.76ZM41,38.5H7v-14h.69c1.67,4.75,6.22,8,11.31,8s9.64-3.25,11.31-8h10.69v14Z"></path>
  <path d="M6,13.5h.171c1.557,0,3.02.606,4.121,1.707.368.368,1.023.392,1.414,0,.391-.391.391-1.023,0-1.414-1.479-1.479-3.445-2.293-5.536-2.293h-.171c-.552,0-1,.447-1,1s.448,1,1,1Z"></path>
  <path d="M6,9.5h.757c2.469,0,4.79.961,6.536,2.707.387.387,1.027.387,1.414,0,.391-.391.391-1.023,0-1.414-2.124-2.123-4.947-3.293-7.95-3.293h-.757c-.552,0-1,.447-1,1s.448,1,1,1Z"></path>
</svg>