<?xml version="1.0"?>
<svg id="Outline" xmlns="http://www.w3.org/2000/svg" version="1.1" viewBox="0 0 48 48">
  
  <path d="M42,29.999h-3.03c2.44-1.83,4.03-4.73,4.03-8,0-5.51-4.49-10-10-10s-10,4.49-10,10c0,3.27,1.59,6.17,4.03,8H11v-9.38l13.45-6.73c.34-.16.55-.51.55-.89s-.21-.73-.55-.89l-14-7c-.31-.16-.68-.14-.98.04-.29.18-.47.5-.47.85v24h-3c-.55,0-1,.45-1,1v11c0,.55.45,1,1,1h36c.55,0,1-.45,1-1v-11c0-.55-.45-1-1-1ZM11,7.619l10.76,5.38-10.76,5.38V7.619ZM25,21.999c0-4.41,3.59-8,8-8s8,3.59,8,8-3.59,8-8,8-8-3.59-8-8ZM41,40.999H7v-9h34v9Z"></path>
  <path d="M39,19.999c0-1.331-1.083-2.414-2.414-2.414-.552,0-1,.448-1,1s.448,1,1,1c.229,0,.414.186.414.414,0,.552.448,1,1,1s1-.448,1-1Z"></path>
  <path d="M34.414,18.413c0-1.331-1.083-2.414-2.414-2.414-.552,0-1,.448-1,1s.448,1,1,1c.229,0,.414.186.414.414,0,.552.448,1,1,1s1-.448,1-1Z"></path>
  <path d="M35,20.585c-.552,0-1,.448-1,1s.448,1,1,1c.229,0,.414.186.414.414,0,.552.448,1,1,1s1-.448,1-1c0-1.331-1.083-2.414-2.414-2.414Z"></path>
</svg>