<?xml version="1.0"?>
<svg id="Outline" xmlns="http://www.w3.org/2000/svg" version="1.1" viewBox="0 0 48 48">
  
  <circle cx="24" cy="12.999" r="1"></circle>
  <path d="M40,15h-6.18c.11-.31.18-.65.18-1,0-1.65-1.35-3-3-3h-2.1c-.46-2.28-2.49-4-4.9-4s-4.44,1.72-4.9,4h-2.1c-1.65,0-3,1.35-3,3,0,.35.07.69.18,1h-6.18c-1.65,0-3,1.35-3,3v20c0,1.65,1.35,3,3,3h32c1.65,0,3-1.35,3-3v-20c0-1.65-1.35-3-3-3ZM17,13h3c.55,0,1-.45,1-1,0-1.65,1.35-3,3-3s3,1.35,3,3c0,.55.45,1,1,1h3c.55,0,1,.45,1,1s-.45,1-1,1h-14c-.55,0-1-.45-1-1s.45-1,1-1ZM41,38c0,.55-.45,1-1,1H8c-.55,0-1-.45-1-1v-20c0-.55.45-1,1-1h32c.55,0,1,.45,1,1v20Z"></path>
  <path d="M38,19H10c-.55,0-1,.45-1,1v16c0,.55.45,1,1,1h28c.55,0,1-.45,1-1v-16c0-.55-.45-1-1-1ZM13,35h-2v-10h2v10ZM13,23h-2v-2h2v2ZM25,35h-10v-10h10v10ZM25,23h-10v-2h10v2ZM31,35h-4v-10h4v10ZM31,23h-4v-2h4v2ZM37,35h-4v-10h4v10ZM37,23h-4v-2h4v2Z"></path>
</svg>