<?xml version="1.0"?>
<svg id="Outline" xmlns="http://www.w3.org/2000/svg" version="1.1" viewBox="0 0 48 48">
  
  <path d="M33,23c-.709,0-1.399.077-2.066.217.037-.403.066-.808.066-1.217,0-5.622-3.595-10.408-8.601-12.217.372-.5.601-1.113.601-1.783,0-1.654-1.346-3-3-3h-4c-1.654,0-3,1.346-3,3,0,.67.228,1.283.601,1.783-5.006,1.809-8.601,6.595-8.601,12.217,0,7.168,5.832,13,13,13,1.738,0,3.456-.353,5.05-1.021.494,5.056,4.767,9.021,9.95,9.021,5.514,0,10-4.486,10-10s-4.486-10-10-10ZM16,9c-.552,0-1-.448-1-1s.448-1,1-1h4c.552,0,1,.448,1,1s-.448,1-1,1h-4ZM7,22c0-6.065,4.935-11,11-11s11,4.935,11,11c0,.656-.073,1.3-.185,1.93-3.061,1.418-5.285,4.334-5.726,7.805-1.57.816-3.313,1.265-5.089,1.265-6.065,0-11-4.935-11-11ZM33,41c-4.411,0-8-3.589-8-8s3.589-8,8-8,8,3.589,8,8-3.589,8-8,8Z"></path>
  <path d="M36.586,28.586c-.553,0-1,.447-1,1s.447,1,1,1c.229,0,.414.186.414.414,0,.553.447,1,1,1s1-.447,1-1c0-1.331-1.083-2.414-2.414-2.414Z"></path>
  <path d="M34.414,29.414c0-1.331-1.083-2.414-2.414-2.414-.553,0-1,.447-1,1s.447,1,1,1c.229,0,.414.186.414.414,0,.553.447,1,1,1s1-.447,1-1Z"></path>
  <path d="M35,31.586c-.553,0-1,.447-1,1s.447,1,1,1c.229,0,.414.186.414.414,0,.553.447,1,1,1s1-.447,1-1c0-1.331-1.083-2.414-2.414-2.414Z"></path>
  <path d="M19,19.184v-5.184c0-.553-.447-1-1-1s-1,.447-1,1v5.184c-.098.035-.193.072-.285.116l-3.665-3.665c-.391-.391-1.023-.391-1.414,0s-.391,1.023,0,1.414l3.665,3.665c-.187.391-.301.824-.301,1.285,0,1.654,1.346,3,3,3s3-1.346,3-3c0-1.302-.839-2.402-2-2.816ZM18,23c-.552,0-1-.448-1-1s.448-1,1-1,1,.448,1,1-.448,1-1,1Z"></path>
</svg>