<svg height="512pt" viewBox="-75 0 512 512.00111" width="512pt" xmlns="http://www.w3.org/2000/svg"><path d="m132.015625 216.242188-5.832031-3.503907 1.667968-5.214843c1.253907-3.921876.582032-8.273438-1.792968-11.636719-5.015625-7.101563-21.296875-25.097657-64.101563-38.773438-23.292969-7.441406-33.679687-9.425781-41.171875-7.867187-12.882812 2.679687-14.253906 14.660156-19.757812 27.730468-3.019532 7.175782.898437 15.320313 8.125 17.628907l98.625 32.347656c3.285156 1.046875 6.867187.8125 10.074218-.84375.257813-.132813.5-.285156.746094-.433594l5.691406 3.421875c.054688.035156.113282.070313.121094.203125.011719.128907-.039062.171875-.089844.214844l-17.589843 14.75c-7 5.867187-11.015625 14.472656-11.015625 23.605469v77.410156c-10.28125 3.203125-17.761719 12.808594-17.761719 24.125v.46875 129.273438c0 7.085937 5.765625 12.851562 12.847656 12.851562h24.828125c7.085938 0 12.851563-5.765625 12.851563-12.851562 0-5.824219 0-126.285157 0-129.742188 0-11.316406-7.484375-20.921875-17.761719-24.125v-77.410156c0-4.6875 2.058594-9.101563 5.648438-12.113282l17.589843-14.75c8.015625-6.71875 7.03125-19.371093-1.941406-24.765624zm-18.539063 153.164062v28.335938h-20.523437v-27.867188c0-5.691406 4.605469-10.761719 10.367187-10.722656 5.585938.054687 10.15625 4.667968 10.15625 10.253906zm-20.523437 127.59375v-84.257812h20.523437v84.257812zm-77.335937-316.0625c4.449218-11.03125 5.292968-16.394531 8.222656-17.007812 7.988281-1.664063 70.148437 14.355468 89.441406 39.894531l-2.644531 8.28125zm0 0"></path><path d="m225.742188 345.097656v-204.339844c1.347656-5.667968-.234376-11.636718-4.3125-15.902343l-10.691407-11.179688c-6.773437-7.082031-14.457031-13.238281-22.847656-18.304687l-40.535156-24.484375c-12.558594-7.582031-28.941407-3.539063-36.527344 9.019531l-16.464844 27.261719c-8.882812 14.703125-.210937 33.773437 16.707031 36.753906l19.542969 3.4375c4.074219.714844 7.96875-2.007813 8.6875-6.085937.71875-4.078126-2.007812-7.96875-6.089843-8.6875l-19.539063-3.4375c-6.570313-1.15625-9.910156-8.523438-6.46875-14.226563l16.46875-27.261719c3.304687-5.476562 10.453125-7.238281 15.929687-3.933594l40.535157 24.484376c7.253906 4.382812 13.902343 9.707031 19.761719 15.832031l10.6875 11.179687c1.261718 1.320313.519531 3.503906-1.277344 3.792969l-13.183594 2.097656c-5.035156.804688-10.136719.761719-15.15625-.125l-12.753906-2.242187c-4.085938-.71875-7.972656 2.007812-8.6875 6.085937-.71875 4.082031 2.007812 7.96875 6.085937 8.6875l12.753907 2.246094c6.65625 1.171875 13.429687 1.230469 20.117187.164063l12.257813-1.953126v191.523438c-9.949219 3.394531-17.121094 12.828125-17.121094 23.910156v.464844 129.277344c0 7.085937 5.761718 12.847656 12.847656 12.847656h24.828125c7.085937 0 12.847656-5.761719 12.847656-12.847656 0-5.828125 0-126.289063 0-129.742188 0-11.53125-7.773437-21.308594-18.402343-24.3125zm3.402343 52.644532h-20.523437v-27.867188c0-5.667969 4.582031-10.761719 10.367187-10.722656 5.597657.054687 10.15625 4.675781 10.15625 10.253906zm-20.523437 99.257812v-84.257812h20.523437v84.257812zm0 0"></path><path d="m344.414062 345.238281c0-281.464843.011719-199.628906-.035156-281.195312-.011718-23.277344-15.707031-43.8125-38.164062-49.933594l-46.515625-12.6875c-22.75-6.203125-46.039063 8.523437-50.085938 31.855469-3.53125 20.382812 8.761719 40.179687 28.59375 46.058594l42.570313 12.609374c22.9375 6.796876 33.941406 19.082032 48.632812 32.980469v220.410157c-10.195312 3.25-17.605468 12.8125-17.605468 24.070312v.46875 129.273438c0 7.085937 5.765624 12.851562 12.851562 12.851562h24.824219c7.085937 0 12.851562-5.765625 12.851562-12.851562v-29.636719c0-4.140625-3.359375-7.5-7.5-7.5-4.144531 0-7.5 3.359375-7.5 7.5v27.488281h-20.523437v-84.257812h20.523437v21.769531c0 4.140625 3.355469 7.5 7.5 7.5 4.140625 0 7.5-3.359375 7.5-7.5 0-7.21875 0-58.25 0-65.105469.003907-11.324219-7.507812-21-17.917969-24.167969zm-59.375-267.675781-42.570312-12.609375c-12.535156-3.714844-20.304688-16.230469-18.074219-29.113281 2.53125-14.601563 17.03125-23.851563 31.359375-19.945313l46.515625 12.6875c15.953125 4.347657 27.097657 18.933594 27.109375 35.46875l.023438 40.21875c-12.042969-11.390625-24.773438-20.902343-44.363282-26.707031zm41.769532 320.179688v-27.867188c0-5.628906 4.535156-10.753906 10.367187-10.722656 5.683594.054687 10.15625 4.761718 10.15625 10.253906v28.335938zm0 0"></path></svg>