<svg height="512pt" viewBox="-65 0 512 512.001" width="512pt" xmlns="http://www.w3.org/2000/svg"><path d="m311.601562 386.867188c-4.140624 0-7.5 3.359374-7.5 7.5v102.632812h-95.898437c-4.144531 0-7.5 3.355469-7.5 7.5 0 4.140625 3.355469 7.5 7.5 7.5h152.777344c11.261719 0 20.421875-9.160156 20.421875-20.421875v-48.339844c0-4.140625-3.355469-7.5-7.5-7.5-4.144532 0-7.5 3.359375-7.5 7.5v48.339844c0 2.988281-2.433594 5.421875-5.421875 5.421875h-41.878907v-102.632812c0-4.140626-3.355468-7.5-7.5-7.5zm0 0"></path><path d="m90.023438 73.542969c-5.308594 1.902343-9.085938 6.433593-9.457032 11.796875l-2.179687 31.480468-19.066407 26.402344c-6.894531 9.550782 1.074219 22.160156 13.777344 21.582032l5.675782-.261719c.859374 5.734375 3.140624 11.125 6.644531 15.703125v60.472656c0 11.210938 9.117187 20.328125 20.328125 20.328125h37.769531v5.859375c-.089844.035156-100 38.765625-100.085937 38.804688-1.773438.730468-43.429688 18.414062-43.429688 67.085937v118.78125c0 11.261719 9.160156 20.421875 20.421875 20.421875h152.78125c4.140625 0 7.5-3.355469 7.5-7.5 0-4.140625-3.359375-7.5-7.5-7.5h-95.898437v-102.632812c0-4.140626-3.359376-7.5-7.5-7.5-4.144532 0-7.5 3.359374-7.5 7.5v102.632812h-41.882813c-2.988281 0-5.421875-2.433594-5.421875-5.421875v-118.78125c0-38.085937 32.160156-52.375 34.085938-53.195313l60.464843-23.4375 26.585938 53.285157c3.761719 7.535156 13.382812 9.964843 20.269531 5.070312l26.742188-18.992187v52.746094c0 4.140624 3.355468 7.5 7.5 7.5 4.140624 0 7.5-3.359376 7.5-7.5v-52.785157l26.792968 19.03125c6.882813 4.890625 16.503906 2.472657 20.269532-5.070312l26.585937-53.285157 60.523437 23.441407c1.4375.617187 34.082032 15.121093 34.082032 53.191406v35.441406c0 4.140625 3.355468 7.5 7.5 7.5 4.144531 0 7.5-3.359375 7.5-7.5v-35.441406c0-48.671875-41.652344-66.355469-43.425782-67.085937-.046874-.019532-.09375-.039063-.144531-.058594-17.1875-6.65625-74.777343-28.957032-100.054687-38.746094v-5.859375h35.816406c11.210938 0 20.328125-9.117187 20.328125-20.328125v-60.53125c3.480469-4.566406 5.746094-9.9375 6.601563-15.648438l5.664062.261719c6.234375.285157 12.046875-2.789062 14.769531-7.828125 2.421875-4.472656 2.0625-9.636718-.949219-13.8125l-19.019531-26.339844-2.207031-31.839843c-.367188-5.320313-4.183594-9.78125-9.496094-11.542969-13.402344-43.476562-53.6875-73.4375-99.617187-73.4375-45.964844 0-86.273438 30.007812-99.644531 73.542969zm3.871093 90.308593 18.0625-.828124v15.851562c-9.25-.632812-16.203125-7.089844-18.0625-15.023438zm11.851563 82.195313c-2.9375 0-5.328125-2.390625-5.328125-5.328125v-49.234375c3.679687 1.429687 7.882812 2.3125 12.179687 2.433594 2.417969 20.035156 12.976563 39.152343 30.632813 52.128906zm43.164062 95.398437-25.308594-50.722656 25.039063-9.695312c9.277344 11.449218 5.246094 6.476562 31.167969 38.472656zm41.765625-32.429687-32.160156-39.699219v-14.628906c20.144531 8.507812 44.058594 8.683594 64.261719-.699219v15.398438c-24.207032 29.882812-17.484375 21.582031-32.101563 39.628906zm67.070313-18.292969-25.308594 50.722656-30.933594-21.96875 31.160156-38.464843zm-93.996094-50.125c-22.953125-10.074218-36.753906-33.023437-36.753906-56.222656v-22.042969c63.773437-2.917969 58.789062-3.046875 125.34375 0 0 24.203125-.035156 23.375-.035156 23.375-.941407 43.949219-46.429688 73.207031-88.554688 54.890625zm115.171875.121094c0 2.9375-2.386719 5.328125-5.324219 5.328125h-35.816406v-1.238281c15.742188-12.320313 26.390625-30.449219 28.945312-50.890625 4.054688-.105469 8.347657-.945313 12.195313-2.445313zm-11.582031-61.839844v-15.859375l18.066406.828125c-1.894531 8.089844-8.949219 14.398438-18.066406 15.03125zm22.199218-52.289062 16.75 23.195312c-.050781 0-12.671874-.578125-12.671874-.578125-120.589844-5.527343-87.507813-5.511719-220.53125.578125l16.75-23.195312c83.050781-8.582032 105.390624-9.746094 199.703124 0zm-5.613281-39.003906 1.628907 23.511718c-87.082032-9-114.851563-7.945312-191.734376 0l1.628907-23.511718c74.925781-7.742188 101.878906-8.960938 188.476562 0zm-11.257812-16.246094c-71.574219-7.398438-109.445313-5.839844-165.996094.003906 13.304687-33.660156 46.015625-56.34375 82.996094-56.34375s69.691406 22.683594 83 56.339844zm0 0"></path></svg>