<svg height="511pt" viewBox="0 -8 511.997 511" width="511pt" xmlns="http://www.w3.org/2000/svg"><path d="m272.933594 27.339844h-3.1875c-4.144532 0-7.5 3.355468-7.5 7.5 0 4.140625 3.355468 7.5 7.5 7.5h3.1875c4.144531 0 7.5-3.359375 7.5-7.5 0-4.144532-3.355469-7.5-7.5-7.5zm0 0"></path><path d="m501.691406 435.304688-34.46875-338.816407c-2.292968-22.523437-15.832031-28.226562-15.832031-37.257812v-41.382813c0-.027344-.003906-.054687-.003906-.082031-.050781-9.78125-8.015625-17.25-17.308594-17.265625-.011719 0-.023437 0-.035156 0-3.277344 0-352.800781 0-356.082031 0-9.566407 0-17.351563 7.78125-17.351563 17.347656v41.382813c0 9.363281-13.53125 14.644531-15.832031 37.261719-3.0625 30.085937-33.347656 327.777343-34.46875 338.8125-5.949219 1.738281-10.308594 7.234374-10.308594 13.734374v31.386719c0 7.894531 6.421875 14.320313 14.316406 14.320313h213.652344c7.894531 0 14.316406-6.425782 14.316406-14.320313v-31.386719c0-4.023437-1.671875-7.65625-4.351562-10.261718l18.066406-133.957032 18.066406 133.957032c-2.679687 2.605468-4.355468 6.238281-4.355468 10.261718v31.386719c0 7.894531 6.425781 14.320313 14.320312 14.320313h89.324219c4.140625 0 7.5-3.359375 7.5-7.5 0-4.144532-3.359375-7.5-7.5-7.5h-88.644531v-30.023438h212.285156v30.023438h-88.640625c-4.144531 0-7.5 3.355468-7.5 7.5 0 4.140625 3.355469 7.5 7.5 7.5h89.324219c7.894531 0 14.316406-6.425782 14.316406-14.320313v-31.386719c.003906-6.503906-4.355469-11.996093-10.304688-13.734374zm-91.996094-419.808594h24.34375c1.308594 0 2.351563 1.089844 2.351563 2.347656v36.335938h-26.695313zm0 53.683594h28.667969c3.5625 8.617187 12.425781 14 13.9375 28.828124h-.003906l10.34375 101.671876-12.539063-9.765626c-25.679687-19.996093-40.40625-50.128906-40.40625-82.675781zm-30.199218-53.683594h15.195312v38.683594h-15.195312zm-132.273438 2.351562c0-1.296875 1.054688-2.351562 2.347656-2.351562h114.925782v38.683594h-117.273438zm-99.71875-2.351562h84.894532c-.105469.769531-.175782 1.550781-.175782 2.351562v36.332032h-84.71875zm-30.195312 0h15.195312v38.683594h-15.195312zm-41.699219 2.347656c0-1.292969 1.054687-2.347656 2.347656-2.347656h24.347657v38.683594h-26.695313zm-15.910156 80.164062c1.082031-10.648437 5.738281-16.117187 11.109375-23.703124h.003906c.96875-1.367188 2.074219-3.3125 2.824219-5.125h28.667969v38.058593c0 32.546875-14.726563 62.679688-40.40625 82.675781l-12.539063 9.765626zm167.585937 381.738282h-212.285156v-30.023438h212.285156zm61.371094-45.023438-22.929688-170.015625c-.664062-4.925781-4.753906-8.503906-9.726562-8.503906s-9.0625 3.578125-9.726562 8.503906l-22.929688 170.015625h-197.898438l21.8125-214.394531 23.855469-18.578125c29.355469-22.855469 46.191407-57.304688 46.191407-94.507812v-38.0625h114.742187v146.113281c0 7.222656 5.875 13.097656 13.097656 13.097656h18.453125c7.523438 0 13.648438-6.121094 13.648438-13.644531v-55.960938c0-4.140625-3.359375-7.5-7.5-7.5-4.144532 0-7.503906 3.359375-7.503906 7.5v54.605469h-15.191407v-144.210937h15.191407v54.605468c0 4.140625 3.359374 7.5 7.503906 7.5 4.140625 0 7.5-3.359375 7.5-7.5v-54.605468h117.445312v38.0625c0 37.203124 16.835938 71.652343 46.191406 94.507812l23.859376 18.578125 21.808593 214.394531zm0 0"></path></svg>