<svg height="512pt" viewBox="-47 0 512 512.00082" width="512pt" xmlns="http://www.w3.org/2000/svg"><path d="m199.09375 12.917969c0-4.140625-3.359375-7.5-7.5-7.5h-38.175781c-5.597657-4.320313-11.25-6.867188-19.023438-4.53125-.011719.003906-.027343.007812-.039062.011719-6.714844 2.035156-30.296875 9.179687-80.3125 24.335937-5.566407 1.6875-9.328125 6.757813-9.328125 12.574219v68.480468c0 38.582032-20.398438 56.882813-40.542969 79.492188-2.660156 2.988281-4.171875 6.871094-4.171875 10.957031v258.941407c0 9.667968 7.867188 17.539062 17.539062 17.539062h.710938v14.855469c0 13.195312 10.734375 23.925781 23.925781 23.925781h333.082031c13.191407 0 23.925782-10.730469 23.925782-23.925781v-14.855469h.710937c9.671875 0 17.539063-7.867188 17.539063-17.539062v-85.613282c0-4.144531-3.355469-7.5-7.5-7.5-4.144532 0-7.5 3.355469-7.5 7.5v85.613282c0 1.398437-1.136719 2.539062-2.539063 2.539062-19.148437 0-364.722656 0-382.355469 0-1.398437 0-2.539062-1.140625-2.539062-2.539062v-199.941407c49.972656-58.480469 80.863281-84.042969 80.863281-160.804687v-66.695313l14.59375-4.421875c10.921875 57.941406 40.179688 108.59375 87.832031 141.640625 6.582032 4.5625 14.960938 4.089844 20.859376 0 47.847656-33.179687 76.957031-83.945312 87.832031-141.640625l14.59375 4.421875v66.695313c0 40.601562 9.207031 76.953125 38.960937 111.769531l41.898438 49.035156v79.328125c0 4.140625 3.355468 7.5 7.5 7.5 4.144531 0 7.5-3.359375 7.5-7.5v-138.328125c0-4.042969-1.480469-7.933593-4.175782-10.957031-44.167968-49.578125-40.539062-44.140625-40.539062-147.972656 0-5.871094-3.804688-10.898438-9.328125-12.574219-43.28125-13.113281-78.554687-23.800781-80.308594-24.335937-.015625-.003907-.03125-.003907-.042969-.007813-7.558593-2.273437-13.269531.082031-19.03125 4.53125l-37.417968-.003906c-4.140625 0-7.5 3.359375-7.5 7.5 0 4.144531 3.359375 7.5 7.5 7.5l30.828125.003906c-7.28125 33.578125-22.402344 64.882813-46.699219 88.558594-1.171875 1.144531-2.984375.996093-4.003906 0-.003906 0-.003906 0-.003906 0-24.472657-23.847657-39.488282-55.308594-46.699219-88.5625h31.578125c4.144531 0 7.503906-3.359375 7.503906-7.5zm130.550781 460.300781h54.535157v14.855469c0 4.921875-4.003907 8.925781-8.925782 8.925781h-45.609375zm-70.761719 0h55.761719v23.78125h-55.761719zm-85.332031 0h70.332031v23.78125h-70.332031zm-70.761719 0h55.761719v23.78125h-55.761719zm-69.539062 0h54.539062v23.78125h-45.613281c-4.921875 0-8.925781-4.003906-8.925781-8.925781zm-18.25-240.570312v-35.910157c0-.226562.070312-.445312.171875-.644531.054687-.117188.113281-.238281.203125-.335938 19.386719-21.761718 21.25-23.515624 26.082031-30.5625l16.945313 14.160157c-7.34375 11.742187-10.261719 14.507812-43.402344 53.292969zm50.816406-66.644532-16.683594-13.9375c7.871094-16.097656 10.582032-31.574218 10.582032-49.632812h21.132812c-.171875 21.183594-5.019531 43.117187-15.03125 63.570312zm15.042969-78.570312h-21.144531v-48.242188l21.144531-6.410156zm295.117187 77.761718c7.148438 10.425782 24.226563 27.996094 26.164063 30.695313.453125.636719.292969-1.847656.292969 36.757813-33.007813-38.628907-36.054688-41.546876-43.402344-53.292969zm-7.675781-13.128906-16.683593 13.9375c-9.707032-19.835937-14.855469-41.644531-15.027344-63.570312h21.128906c0 17.980468 2.679688 33.472656 10.582031 49.632812zm-31.726562-119.285156c4.203125 1.277344 16.785156 5.089844 21.144531 6.410156v48.242188h-21.144531zm-63.171875-15.621094c1.902344-1.453125 3.199218-2.550781 5.328125-1.90625l13.8125 4.1875c-3.496094 19.214844-9.25 38.285156-17.65625 56.382813l-16.515625-10.046875c7.0625-15.738282 11.972656-32.289063 15.03125-48.617188zm-57.183594 105.941406c1.796875-.820312 3.488281-1.933593 4.972656-3.378906 11.9375-11.636718 22.148438-25.238281 30.484375-40.460937l16.476563 10.023437c-13.132813 23.640625-30.570313 43.769532-51.933594 59.773438zm-73.671875-47.277343c-8.390625-18.066407-14.152344-37.125-17.65625-56.382813l13.8125-4.1875c2.191406-.660156 3.566406.5625 5.328125 1.902344 3.117188 16.628906 8.070312 33.113281 15.03125 48.621094zm23.210937 3.4375c7.6875 14.042969 25.886719 39.464843 35.460938 43.886719v25.914062c-21.898438-16.40625-39.035156-36.558594-51.9375-59.777344zm0 0"></path></svg>