<svg height="512pt" viewBox="0 -24 512.00053 512" width="512pt" xmlns="http://www.w3.org/2000/svg"><path d="m502.9375 79.554688c-6.375-2.5-103.136719-40.449219-109.226562-42.835938-3.730469-1.464844-7.628907-2.5625-11.574219-3.265625l-43.375-7.699219-38.746094-24.585937c-1.113281-.707031-2.566406-1.167969-4.019531-1.167969h-79.992188c-1.328125 0-2.785156.386719-4.019531 1.167969l-38.75 24.585937-43.367187 7.699219c-3.953126.703125-7.847657 1.800781-11.578126 3.265625-10.050781 3.941406-97.988281 38.429688-109.226562 42.835938-6.777344 2.65625-10.457031 9.960937-8.570312 16.980468l27.867187 103.828125c2.003906 7.457031 9.9375 11.722657 17.265625 9.257813l63.445312-21.308594c.074219-.027344.183594-.0625.339844.050781s.15625.230469.15625.304688v262.03125c0 7.382812 6 13.59375 13.597656 13.59375h265.671876c7.5 0 13.597656-6.097657 13.597656-13.59375 0-5.78125 0-125.6875 0-131.324219 0-4.140625-3.359375-7.5-7.5-7.5-4.144532 0-7.5 3.359375-7.5 7.5v97.945312h-113.933594c-4.140625 0-7.5 3.355469-7.5 7.5 0 4.140626 3.359375 7.5 7.5 7.5h113.933594v16.972657h-262.863282v-16.972657h113.929688c4.140625 0 7.5-3.359374 7.5-7.5 0-4.144531-3.359375-7.5-7.5-7.5h-113.929688v-228.652343c0-4.9375-2.394531-9.605469-6.402343-12.484375-4.007813-2.882813-9.195313-3.664063-13.871094-2.09375l-32.5 10.917968-26.84375-103.414062 78.816406-30.910156c2.808594-1.105469 5.742188-1.929688 8.71875-2.457032l39.433594-7.003906 31.570313 60.011719c4.210937 8.007813 14.136718 10.820313 21.890624 6.457031l23.117188-13.015625v62.320313c0 4.140625 3.359375 7.5 7.5 7.5 4.144531 0 7.5-3.359375 7.5-7.5v-62.320313l23.121094 13.015625c6.339844 3.570313 11.3125 1.398438 12.3125 1.398438 4.074218-1.207032 7.53125-3.964844 9.578125-7.855469 4.277343-8.128906 27.113281-51.542969 31.570312-60.011719l39.433594 7.003906c2.972656.527344 5.90625 1.355469 8.71875 2.457032l77.894531 30.550781-26.859375 103.460937-31.5625-10.601562c-9.949219-3.34375-20.273437 4.078125-20.273437 14.574219v95.707031c0 4.144531 3.355468 7.503906 7.5 7.503906 4.144531 0 7.5-3.359375 7.5-7.503906v-95.707031c0-.074219 0-.191407.15625-.304688s.265625-.074219.339844-.050781c22.5 7.558594 43.441406 14.59375 63.445312 21.308594 7.214844 2.425781 15.230469-1.679688 17.265625-9.257813l27.871094-103.824219c1.878906-7.015624-1.789063-14.320312-8.574219-16.984374zm-445.394531 110.238281-15.125 5.082031-27.269531-101.59375 15.734374-6.171875zm160.476562-95.171875c-.464843.261718-1.023437.066406-1.253906-.371094l-30.902344-58.742188 27.355469-17.355468c4.855469 9.03125 30.207031 56.148437 32.691406 60.765625-7.59375 4.273437-2.082031 1.167969-27.890625 15.703125zm37.980469-28.609375-27.445312-51.007813h54.890624zm39.234375 28.238281c-.222656.421875-.769531.640625-1.253906.371094l-27.890625-15.703125c2.488281-4.617188 27.835937-51.734375 32.695312-60.765625l27.351563 17.355468zm174.347656 100.625-16.058593-5.394531 26.671874-102.730469 16.652344 6.53125zm0 0"></path><path d="m352.59375 170.226562c7.558594-3.492187 7.554688-13.945312-.003906-17.433593l-29.304688-13.527344c-.726562-3.382813-3.730468-5.917969-7.328125-5.917969-4.144531 0-7.503906 3.359375-7.503906 7.5v51.035156c-15.648437 1.6875-26.039063 8.699219-26.039063 18.199219 0 24.835938 67.082032 24.871094 67.082032 0 0-9.5-10.390625-16.511719-26.039063-18.199219v-8.210937zm-29.136719-14.359374 12.222657 5.640624-12.222657 5.644532zm9.875 54.214843c-8.152343 4.792969-26.589843 4.800781-34.753906 0 8.15625-4.789062 26.589844-4.796875 34.753906 0zm0 0"></path></svg>