<svg height="511pt" viewBox="-98 0 511 511.99943" width="511pt" xmlns="http://www.w3.org/2000/svg"><path d="m295.226562 157.78125c-17.851562-7.824219-38.746093.328125-46.5625 18.15625-.183593.425781-24.523437 56.171875-24.722656 56.632812v-172.789062c0-17.496094-13.332031-32.460938-30.351562-34.066406-7.742188-.734375-15.492188 1.273437-21.882813 5.5625-1.394531-16.203125-14.171875-29.609375-30.230469-31.125-18.828124-1.777344-35.367187 12.386718-36.675781 31.097656-6.382812-4.273438-14.109375-6.269531-21.839843-5.535156-15.003907 1.417968-27.140626 13.210937-29.804688 27.972656-6.472656-4.488281-14.390625-6.601562-22.304688-5.851562-17.019531 1.609374-30.351562 16.574218-30.351562 34.070312v269.15625c0 19.386719 9.78125 30.695312 14.242188 52.496094.015624.367187.046874.734375.117187 1.101562 2.679687 14.011719 2.132813 17.390625 2.132813 75.550782 0 17.527343 14.261718 31.789062 31.789062 31.789062h64.738281c4.144531 0 7.5-3.359375 7.5-7.5 0-4.144531-3.355469-7.5-7.5-7.5h-64.738281c-9.257812 0-16.789062-7.53125-16.789062-16.789062 0-52.828126.382812-58.351563-.914063-69.460938h32.558594c-2.238281 5.523438-1.746094 7.191406-1.746094 33.730469 0 13.230469 10.761719 23.996093 23.992187 23.996093h146.433594v11.945313c0 9.140625-7.433594 16.574219-16.570312 16.574219h-67.21875c-4.144532 0-7.5 3.359375-7.5 7.5 0 4.144531 3.355468 7.503906 7.5 7.503906h67.222656c17.414062 0 31.574219-14.171875 31.574219-31.578125v-13.152344c9.566406-3.160156 16.492187-12.175781 16.492187-22.789062v-24.738281c0-10.550782-6.851562-19.527344-16.335937-22.734376.734375-14.882812 4-32.878906 9.746093-53.621093 1.101563-3.992188-1.238281-8.125-5.230468-9.230469-3.992188-1.105469-8.125 1.234375-9.230469 5.226562-5.960937 21.542969-9.394531 40.457032-10.238281 56.367188h-204.160156c-4.953126-19.929688-12.863282-30.15625-12.863282-44.6875v-269.15625c0-9.84375 7.363282-18.246094 16.761719-19.136719 11.261719-1.058593 20.347656 7.949219 20.347656 18.46875v164.613281c0 4.140626 3.355469 7.5 7.5 7.5s7.5-3.359374 7.5-7.5c0-6.632812 0-181.890624 0-186.070312 0-9.839844 7.363281-18.246094 16.761719-19.132812 11.238281-1.0625 20.347656 7.929687 20.347656 18.46875v186.734374c0 4.140626 3.359375 7.5 7.5 7.5 4.144532 0 7.5-3.359374 7.5-7.5 0-6.777343 0-209.261718 0-212.296874 0-10.550782 9.125-19.535157 20.347656-18.472657 9.398438.890625 16.761719 9.292969 16.761719 19.136719v211.632812c0 4.140626 3.359375 7.5 7.5 7.5 4.144531 0 7.503907-3.359374 7.503907-7.5v-186.734374c0-10.53125 9.097656-19.53125 20.347656-18.46875 9.398437.886718 16.757812 9.292968 16.757812 19.132812v181c0 14.203125 19.519532 18.546875 25.355469 5.570312.125-.292968 27.960937-64.046874 28.097656-64.363281 4.507813-10.277343 16.535157-14.972656 26.8125-10.46875 10.265625 4.5 14.859375 16.496094 10.558594 26.605469-2.046875 3.960938-27.421875 53.4375-46.253906 107.21875-1.367188 3.910156.691406 8.1875 4.601562 9.554688 3.910157 1.371093 8.1875-.6875 9.558594-4.597657 19.167969-54.742187 45.261719-104.988281 45.523437-105.488281.078126-.152344.152344-.304688.222657-.457031 7.816406-17.839844-.351563-38.753907-18.191407-46.574219zm-209.339843 295.695312c-4.953125 0-8.992188-4.03125-8.992188-8.992187v-24.742187c0-4.957032 4.035157-8.992188 8.992188-8.992188h18.835937v42.726562zm153.933593-42.726562c4.960938 0 8.992188 4.035156 8.992188 8.992188v24.742187c0 4.957031-4.03125 8.992187-8.992188 8.992187h-120.097656v-42.726562zm0 0"></path></svg>