<svg height="511pt" viewBox="-3 0 511 511.99914" width="511pt" xmlns="http://www.w3.org/2000/svg"><path d="m187.804688 254.996094h129.761718c11.757813 0 21.320313-9.5625 21.320313-21.320313v-25.339843c0-11.753907-9.5625-21.320313-21.320313-21.320313h-47.378906c-4.144531 0-7.503906 3.359375-7.503906 7.5 0 4.144531 3.359375 7.5 7.503906 7.5h47.378906c3.484375 0 6.320313 2.835937 6.320313 6.320313v25.339843c0 3.484375-2.835938 6.320313-6.320313 6.320313h-129.761718c-3.484376 0-6.320313-2.835938-6.320313-6.320313v-25.339843c0-3.484376 2.835937-6.320313 6.320313-6.320313h47.378906c4.144531 0 7.5-3.355469 7.5-7.5 0-4.140625-3.355469-7.5-7.5-7.5h-47.378906c-11.757813 0-21.320313 9.566406-21.320313 21.320313v25.339843c0 11.757813 9.5625 21.320313 21.320313 21.320313zm0 0"></path><path d="m497.371094 422.109375c4.140625 0 7.5-3.359375 7.5-7.503906 0-5.703125 0-129.15625 0-135.980469 0-67.089844-26.308594-130.347656-74.074219-178.113281-40.515625-40.515625-92.171875-65.582031-147.863281-72.261719v-.304688c0-15.410156-12.535156-27.945312-27.945313-27.945312h-4.605469c-15.40625 0-27.945312 12.535156-27.945312 27.945312v.304688c-55.6875 6.679688-107.347656 31.746094-147.863281 72.261719-47.769531 47.765625-74.074219 111.023437-74.074219 178.113281v196.429688c.082031 30.433593 35.125 47.722656 59.242188 29.46875 30.636718-23.191407 67.058593-35.449219 105.324218-35.449219h175.238282c38.265624 0 74.683593 12.257812 105.324218 35.449219 24.203125 18.320312 59.15625.851562 59.238282-29.457032l.003906-25.457031c0-4.144531-3.359375-7.5-7.503906-7.5-4.140626 0-7.5 3.355469-7.5 7.5v25.40625c-.050782 18.046875-20.828126 28.414063-35.1875 17.546875-33.265626-25.179688-72.816407-38.488281-114.375-38.488281h-175.238282c-41.5625 0-81.113281 13.308593-114.378906 38.488281-14.375 10.882812-35.136719.472656-35.1875-17.527344v-97.445312c8.175781-13.375 18.199219-25.78125 30.171875-36.929688v83.632813c0 15.046875 15.546875 25.125 29.25 18.921875 28.328125-12.816406 58.65625-19.3125 90.144531-19.3125h175.238282c31.3125 0 61.488281 6.429687 89.683593 19.109375 13.9375 6.265625 29.707031-3.949219 29.707031-19.234375v-83.117188c11.808594 10.996094 21.785157 23.21875 30.171876 36.929688v37.015625c.003906 4.144531 3.359374 7.503906 7.503906 7.503906zm-246.988282-407.109375h4.605469c6.789063 0 12.375 5.253906 12.902344 11.910156-9.863281-.625-20.15625-.613281-30.410156 0 .527343-6.65625 6.113281-11.910156 12.902343-11.910156zm-51.472656 32.640625c35.3125-8.265625 72.628906-8.175781 107.550782 0 36.921874 14.066406 61.695312 49.847656 61.695312 89.191406v143.449219c-9.453125-1.386719-18.992188-2.027344-27.851562-2.027344h-175.238282c-8.785156 0-18.359375.632813-27.851562 2.027344v-143.449219c0-39.339843 24.773437-75.125 61.695312-89.191406zm-183.410156 303.675781v-72.691406c0-93.457031 54.339844-174.449219 133.074219-213.078125-16.597657 19.582031-26.359375 44.726563-26.359375 71.285156v146.277344c-42.753906 9.890625-80.390625 34.707031-106.714844 68.207031zm429.195312 72.460938c0 4.402344-4.53125 7.363281-8.554687 5.550781-30.140625-13.554687-62.386719-20.425781-95.835937-20.425781h-175.238282c-33.632812 0-66.042968 6.945312-96.324218 20.648437-3.769532 1.707031-8.070313-1.085937-8.070313-5.257812v-96.152344c30.347656-22.585937 67.167969-34.886719 104.394531-34.886719h175.238282c37.160156 0 74.011718 12.277344 104.394531 34.886719v95.636719zm-61.539062-140.667969v-146.273437c0-26.5625-9.761719-51.707032-26.359375-71.289063 78.734375 38.628906 133.074219 119.621094 133.074219 213.078125v72.691406c-26.179688-33.304687-63.644532-58.242187-106.714844-68.207031zm0 0"></path></svg>