<svg height="511pt" viewBox="1 -111 511.999 511" width="511pt" xmlns="http://www.w3.org/2000/svg"><path d="m484.421875 127.828125c-5.078125-18.121094-31.371094-31.03125-63.605469-6.664063 0-16.597656 0-24.988281 0-37.230468 13.441406 3.9375 26.6875-6.230469 26.6875-19.996094 0-11.492188-9.351562-20.84375-20.84375-20.84375-2.359375 0-4.617187.410156-6.734375 1.136719-4.136719-14.777344-21.808593-23.777344-39.039062-18.949219-32.894531 9.214844-27.394531 27.242188-64.363281 27.242188-8.710938 0-16.589844-3.433594-23.707032-8.578126-27.617187-19.972656-23.347656-42.359374-51.390625-43.40625-24.972656-.933593-38.601562 14.8125-46.21875 21.890626-2.933593 2.726562-5.976562 5.363281-9.085937 7.941406-2.441406-.980469-5.324219-.648438-7.515625 1.121094-2.113281 1.707031-3.050781 4.328124-2.710938 6.839843-3.320312 2.433594-6.71875 4.78125-10.195312 7.050781-2.398438-2.980468-6.710938-3.703124-9.964844-1.558593-3.101563 2.042969-4.183594 5.988281-2.734375 9.273437-3.191406 1.804688-6.417969 3.558594-9.710938 5.226563-2.148437-3.464844-6.683593-4.59375-10.203124-2.5-3.089844 1.835937-4.378907 5.546875-3.28125 8.824219-3.195313 1.386718-6.441407 2.695312-9.714844 3.957031-2.144532-2.566407-5.824219-3.464844-8.980469-1.957031-2.652344 1.269531-4.210937 3.894531-4.257813 6.648437-38.707031 12.550781-67.230468 13.617187-82.546874 36.765625-7.183594 10.691406-10.714844 25.070312-11.304688 44.574219-7.597656 2.976562-13 10.359375-13 18.996093v12.015626c0 11.25 9.152344 20.40625 20.40625 20.40625h62.25c-3.121094 8.789062-4.777344 19.382812-5.164062 32.183593-7.597657 2.972657-13 10.355469-13 18.992188v12.015625c0 11.253906 9.152343 20.40625 20.40625 20.40625h196.453124c4.144532 0 7.5-3.355469 7.5-7.5 0-4.140625-3.355468-7.5-7.5-7.5h-196.453124c-2.976563 0-5.402344-2.425782-5.402344-5.40625v-12.015625c0-2.980469 2.425781-5.402344 5.402344-5.402344h392.910156c2.980468 0 5.40625 2.421875 5.40625 5.402344v12.015625c0 2.980468-2.425782 5.40625-5.40625 5.40625h-161.453125c-4.140625 0-7.5 3.359375-7.5 7.5 0 4.144531 3.359375 7.5 7.5 7.5h161.453125c11.253906 0 20.40625-9.152344 20.40625-20.40625v-12.015625c0-8.601563-5.359375-15.960938-12.90625-18.957031v-70.738282c13.441406 3.9375 26.691406-6.234375 26.691406-19.996094 0-14.164062-13.972656-24.371093-27.578125-19.710937zm-57.761719-69.734375c3.222656 0 5.84375 2.625 5.84375 5.847656s-2.621094 5.84375-5.84375 5.84375-5.84375-2.621094-5.84375-5.84375 2.621094-5.847656 5.84375-5.847656zm-173.070312-36.289062c6.570312 10.273437 14.5 20.601562 23.652344 28.808593l-13.246094 13.277344c-.644532.652344-1.691406.695313-2.4375.097656h.003906c-16.222656-13.03125-28.632812-30.855469-36.96875-45.363281 9.289062-3.945312 23.414062-5.472656 28.996094 3.179688zm-140.96875 65.390624 2.941406 6.152344c1.789062 3.738282 6.265625 5.316406 10.003906 3.527344 3.738282-1.785156 5.316406-6.265625 3.53125-10l-2.289062-4.785156c3.558594-1.394532 7.085937-2.84375 10.558594-4.378906l2.554687 4.300781c1.402344 2.363281 3.894531 3.671875 6.453125 3.671875 5.78125 0 9.417969-6.328125 6.441406-11.332032l-1.847656-3.109374c3.457031-1.769532 6.851562-3.625 10.199219-5.535157l2.609375 3.960938c1.441406 2.1875 3.832031 3.375 6.269531 3.375 5.925781 0 9.550781-6.628907 6.257813-11.628907l-2.324219-3.527343c3.566406-2.328125 7.058593-4.734375 10.46875-7.226563l4.664062 5.773438c1.484375 1.835937 3.652344 2.789062 5.839844 2.789062 6.261719 0 9.796875-7.304687 5.828125-12.214844l-4.503906-5.578124c3.121094-2.605469 6.183594-5.261719 9.140625-8.011719l6.777343-6.292969c9.03125 15.535156 22.378907 34.421875 39.972657 48.558594 6.726562 5.40625 16.378906 4.890625 22.453125-1.199219l14.800781-14.839844c8.804687 5.238281 17.851563 7.882813 27.101563 7.882813 25.945312 0 35.824218-7.777344 45.375-15.300782 6.132812-4.828124 11.921874-9.386718 23.035156-12.5 10.304687-2.886718 20.882812 3.070313 20.882812 10.867188v40.386719c-6.519531 7.316406-16.035156 11.628906-25.929687 11.628906-34.902344 0-36.800781-.378906-44.703125 1.347656-5.542969-7.851562-11.171875-21.324219-34.378906-19.726562-24.636719 1.632812-32.132813 14.789062-50.191407 29.742187-2.4375-.980468-5.320312-.652344-7.511719 1.121094-2.117187 1.707031-3.050781 4.328125-2.714843 6.839844-3.316407 2.433594-6.714844 4.78125-10.195313 7.050781-5.460937-6.796875-16.199218-.234375-12.699218 7.71875-3.1875 1.800781-6.414063 3.554687-9.710938 5.222656-2.144531-3.464843-6.679688-4.59375-10.203125-2.5-3.089844 1.835938-4.378906 5.550781-3.277344 8.824219-5.503906 2.386719-8.714843 3.574219-9.714843 3.957031-3.339844-3.992187-9.617188-3.4375-12.21875 1.019531h-7c-13.007813-25.523437-39.242188-41.761718-68.175782-41.761718-10.59375 0-22.878906 1.257812-35.144531-9.707032 11.839844-3.941406 33.820313-9.046874 50.574219-14.5625zm293.195312 23.09375v21.351563c-6.367187 3.082031-13.308594 4.097656-20.429687 4.394531-16.214844.683594-27.40625-5.898437-39.160157-18.402344 28.363282-.90625 42.023438 3.355469 59.589844-7.34375zm-64.082031 23.925782-13.242187 13.277344c-.648438.648437-1.695313.691406-2.4375.097656-16.222657-13.035156-28.628907-30.855469-36.964844-45.363282 8.070312-3.414062 23.148437-5.96875 28.964844 3.132813 6.648437 10.394531 14.515624 20.660156 23.679687 28.855469zm-294.308594-25.945313c17.101563 19.601563 37.976563 18.191407 49.761719 18.191407 20.578125 0 39.457031 10.207031 50.78125 26.765624h-119.914062c.75-18.183593 4.015624-35.4375 19.371093-44.957031zm-27.019531 82.785157c-2.980469 0-5.40625-2.425782-5.40625-5.40625v-12.015626c0-2.980468 2.425781-5.40625 5.40625-5.40625h110.925781c-16.332031 4.648438-30.871093 9.957032-40.683593 22.828126zm72.140625 45.773437c.753906-18.238281 3.925781-35.320313 19.382813-44.945313 17.417968 19.949219 38.980468 18.179688 49.753906 18.179688 20.574218 0 39.457031 10.207031 50.78125 26.765625zm277.085937 0c3.558594-20.214844 21.246094-35.621094 42.464844-35.621094 33.84375 0 43.457032 1.671875 58.210938-7.316406v42.9375zm100.675782-62.25c-6.519532 7.316406-16.035156 11.628906-25.929688 11.628906h-32.28125c-29.503906 0-53.925781 22.105469-57.621094 50.621094h-124.617187c-13.007813-25.527344-39.242187-41.765625-68.175781-41.765625-10.519532 0-22.863282 1.261719-35.128906-9.695312 12.066406-4.042969 33.9375-9.089844 50.5625-14.566407l2.9375 6.144531c1.789062 3.738282 6.261718 5.320313 10.003906 3.53125 3.734375-1.789062 5.316406-6.265624 3.527344-10.003906l-2.28125-4.765625c2.324218-.910156 6.765624-2.726562 10.554687-4.390625l2.554687 4.296875c1.402344 2.359375 3.894532 3.671875 6.453126 3.671875 5.78125 0 9.417968-6.328125 6.441406-11.332031l-1.832032-3.085937c3.460938-1.769532 6.871094-3.601563 10.21875-5.507813l2.574219 3.910156c1.441407 2.1875 3.832031 3.375 6.269531 3.375 5.925782 0 9.550782-6.628906 6.257813-11.628906l-2.300781-3.488281c3.566406-2.332032 7.054687-4.746094 10.464844-7.242188l4.644531 5.75c2.605469 3.222656 7.324219 3.726563 10.546875 1.121094 3.226562-2.601562 3.726562-7.324219 1.121094-10.546875l-4.484376-5.550781c5.785157-4.835938 9.980469-8.835938 15.898438-14.332032 9.03125 15.535157 22.375 34.421876 39.96875 48.558594h.003906c6.734375 5.40625 16.386719 4.886719 22.453125-1.199218l14.796875-14.839844c11.570313 6.882812 24.15625 9.878906 42.910156 6.695312 27.121094-4.515625 28.484376-19.855468 52.605469-26.617187 10.3125-2.886719 20.882813 3.078125 20.882813 10.871093zm20.84375-21.195313c-3.222656 0-5.84375-2.621093-5.84375-5.84375 0-3.222656 2.621094-5.84375 5.84375-5.84375s5.847656 2.621094 5.847656 5.84375c0 3.222657-2.625 5.84375-5.847656 5.84375zm0 0"></path></svg>