<svg height="512pt" viewBox="-75 0 512 512" width="512pt" xmlns="http://www.w3.org/2000/svg"><path d="m191.878906 0h-22.449218c-10.453126 0-18.957032 8.503906-18.957032 18.957031v11.191407h-37.773437c-10.753907 0-19.503907 8.75-19.503907 19.5v3.324218h-59.917968c-18.347656 0-33.277344 14.925782-33.277344 33.277344v392.472656c0 18.347656 14.929688 33.277344 33.277344 33.277344h129.875c4.144531 0 7.5-3.359375 7.5-7.5 0-4.144531-3.355469-7.5-7.5-7.5h-129.875c-10.078125 0-18.277344-8.199219-18.277344-18.277344v-392.472656c0-10.078125 8.199219-18.277344 18.277344-18.277344h59.917968v3.582032c0 10.453124 8.503907 18.957031 18.957032 18.957031h2.226562v11.917969h-69.527344c-7.851562 0-14.238281 6.386718-14.238281 14.238281v351.792969c0 7.851562 6.390625 14.234374 14.238281 14.234374h271.605469c7.847657 0 14.234375-6.386718 14.234375-14.234374v-351.792969c0-7.851563-6.386718-14.238281-14.234375-14.238281h-69.527343v-11.917969h2.222656c9.898437 0 18.957031-7.753907 18.957031-19.5v-3.039063h59.921875c10.078125 0 18.277344 8.199219 18.277344 18.277344v173.023438c0 4.140624 3.355468 7.5 7.5 7.5 4.140625 0 7.5-3.359376 7.5-7.5v-173.023438c0-18.351562-14.929688-33.277344-33.277344-33.277344h-59.921875v-3.324218c0-10.75-8.746094-19.5-19.5-19.5h-37.773437v-11.191407c0-10.453125-8.503907-18.957031-18.957032-18.957031zm-26.40625 18.957031c0-2.144531 1.8125-3.957031 3.957032-3.957031h22.449218c2.144532 0 3.953125 1.8125 3.953125 3.957031v11.191407h-30.359375zm150.21875 98.472657v350.265624h-270.078125v-350.265624h68.765625v10.832031c0 8.871093 7.214844 16.085937 16.089844 16.085937h100.371094c8.871094 0 16.089844-7.21875 16.089844-16.085937v-10.832031zm-83.765625 0v10.832031c0 .597656-.484375 1.085937-1.085937 1.085937h-100.371094c-.601562 0-1.089844-.488281-1.089844-1.085937v-10.832031zm-102.546875-15v-11.917969h102.546875v11.917969zm119.230469-57.28125c2.4375 0 4.5 2.0625 4.5 4.5v21.363281c0 2.4375-2.0625 4.5-4.5 4.5-4.421875 0-131.324219 0-135.910156 0-2.441407 0-4.5-2.0625-4.5-4.5 0-7.632813 0-13.414063 0-21.363281 0-2.4375 2.058593-4.5 4.5-4.5zm0 0"></path><path d="m79.886719 156.632812c-9.597657 0-17.40625 7.808594-17.40625 17.40625v256.636719c0 9.597657 7.808593 17.40625 17.40625 17.40625h201.535156c9.597656 0 17.40625-7.808593 17.40625-17.40625 0-5.3125 0-229.144531 0-256.636719 0-9.597656-7.808594-17.40625-17.40625-17.40625-9.257813 0-193.941406 0-201.535156 0zm34.492187 276.449219h-34.492187c-1.328125 0-2.40625-1.078125-2.40625-2.402343v-211.609376h36.898437zm0-229.015625h-36.898437v-30.027344c0-1.324218 1.078125-2.402343 2.402343-2.402343h34.492188v32.429687zm15-32.429687h152.042969c1.328125 0 2.40625 1.078125 2.40625 2.402343v30.027344h-154.449219zm0 47.433593h154.449219v211.609376c0 1.324218-1.078125 2.402343-2.40625 2.402343h-152.042969zm0 0"></path><path d="m254.15625 237.070312h-98.003906c-4.144532 0-7.5 3.359376-7.5 7.5 0 4.144532 3.355468 7.5 7.5 7.5h98.003906c4.144531 0 7.5-3.355468 7.5-7.5 0-4.140624-3.355469-7.5-7.5-7.5zm0 0"></path><path d="m254.15625 269.273438h-98.003906c-4.144532 0-7.5 3.355468-7.5 7.5 0 4.140624 3.355468 7.5 7.5 7.5h98.003906c4.144531 0 7.5-3.359376 7.5-7.5 0-4.144532-3.355469-7.5-7.5-7.5zm0 0"></path><path d="m254.15625 301.472656h-98.003906c-4.144532 0-7.5 3.359375-7.5 7.503906 0 4.140626 3.355468 7.5 7.5 7.5h98.003906c4.144531 0 7.5-3.359374 7.5-7.5 0-4.144531-3.355469-7.503906-7.5-7.503906zm0 0"></path><path d="m254.15625 333.675781h-98.003906c-4.144532 0-7.5 3.359375-7.5 7.5 0 4.144531 3.355468 7.5 7.5 7.5h98.003906c4.144531 0 7.5-3.355469 7.5-7.5 0-4.140625-3.355469-7.5-7.5-7.5zm0 0"></path><path d="m254.15625 365.878906h-98.003906c-4.144532 0-7.5 3.355469-7.5 7.5 0 4.140625 3.355468 7.5 7.5 7.5h98.003906c4.144531 0 7.5-3.359375 7.5-7.5 0-4.144531-3.355469-7.5-7.5-7.5zm0 0"></path><path d="m254.15625 398.082031h-98.003906c-4.144532 0-7.5 3.355469-7.5 7.5 0 4.140625 3.355468 7.5 7.5 7.5h98.003906c4.144531 0 7.5-3.359375 7.5-7.5 0-4.144531-3.355469-7.5-7.5-7.5zm0 0"></path><path d="m94.929688 252.070312h2.769531c4.140625 0 7.5-3.355468 7.5-7.5 0-4.140624-3.359375-7.5-7.5-7.5h-2.769531c-4.144532 0-7.5 3.359376-7.5 7.5 0 4.144532 3.355468 7.5 7.5 7.5zm0 0"></path><path d="m94.929688 284.273438h2.769531c4.140625 0 7.5-3.359376 7.5-7.5 0-4.144532-3.359375-7.5-7.5-7.5h-2.769531c-4.144532 0-7.5 3.355468-7.5 7.5 0 4.140624 3.355468 7.5 7.5 7.5zm0 0"></path><path d="m94.929688 316.476562h2.769531c4.140625 0 7.5-3.359374 7.5-7.5 0-4.144531-3.359375-7.503906-7.5-7.503906h-2.769531c-4.144532 0-7.5 3.359375-7.5 7.503906 0 4.140626 3.355468 7.5 7.5 7.5zm0 0"></path><path d="m94.929688 348.675781h2.769531c4.140625 0 7.5-3.355469 7.5-7.5 0-4.140625-3.359375-7.5-7.5-7.5h-2.769531c-4.144532 0-7.5 3.359375-7.5 7.5 0 4.144531 3.355468 7.5 7.5 7.5zm0 0"></path><path d="m94.929688 380.878906h2.769531c4.140625 0 7.5-3.359375 7.5-7.5 0-4.144531-3.359375-7.5-7.5-7.5h-2.769531c-4.144532 0-7.5 3.355469-7.5 7.5 0 4.140625 3.355468 7.5 7.5 7.5zm0 0"></path><path d="m94.929688 413.082031h2.769531c4.140625 0 7.5-3.359375 7.5-7.5 0-4.144531-3.359375-7.5-7.5-7.5h-2.769531c-4.144532 0-7.5 3.355469-7.5 7.5 0 4.140625 3.355468 7.5 7.5 7.5zm0 0"></path><path d="m353.804688 286.773438c-4.140626 0-7.5 3.359374-7.5 7.5v184.449218c0 10.078125-8.195313 18.277344-18.273438 18.277344h-129.878906c-4.140625 0-7.5 3.355469-7.5 7.5 0 4.140625 3.359375 7.5 7.5 7.5h129.875c18.351562 0 33.277344-14.929688 33.277344-33.277344v-184.449218c.003906-4.140626-3.355469-7.5-7.5-7.5zm0 0"></path></svg>