<svg height="511pt" viewBox="-21 0 511 511.998" width="511pt" xmlns="http://www.w3.org/2000/svg"><path d="m1.402344 125.757812c6.222656 55.109376 45.890625 120.773438 138.550781 139.800782 1.339844.273437 2.710937.421875 4.078125.460937 17.648438 16.8125 39.921875 28.8125 64.6875 33.871094v61.5625h-46.503906c-12.519532 0-22.703125 10.183594-22.703125 22.699219v73.152344h-17.242188c-10.65625 0-19.324219 8.667968-19.324219 19.324218v20.367188h-5.167968c-4.144532 0-7.5 3.359375-7.5 7.5 0 4.144531 3.355468 7.5 7.5 7.5h274.890625c4.144531 0 7.5-3.355469 7.5-7.5 0-4.140625-3.355469-7.5-7.5-7.5h-5.167969v-20.367188c0-10.65625-8.667969-19.324218-19.324219-19.324218h-17.242187v-73.152344c0-12.515625-10.1875-22.699219-22.703125-22.699219h-46.503907v-61.5625c24.765626-5.058594 47.039063-17.058594 64.683594-33.875 5.1875-.136719 62.1875-9.421875 102.722656-53.480469 26.09375-28.363281 35.582032-59.054687 38.945313-79.804687.664063-4.089844-2.113281-7.941407-6.203125-8.605469-4.097656-.664062-7.941406 2.117188-8.601562 6.203125-3.53125 21.769531-21.746094 91.664063-110.34375 116.773437 4.9375-6.910156 9.191406-14.277343 12.730468-22.058593 48.671875-19.863281 77.078125-60.042969 81.914063-102.84375 4.585937-40.609375-14.078125-83.789063-60.726563-53.007813-3.0625 2.019532-6.183594 3.988282-9.347656 5.894532v-19.695313c44.660156-29.382813 80.910156-7.640625 86.691406 42.007813.480469 4.113281 4.214844 7.054687 8.316406 6.582031 4.117188-.480469 7.0625-4.203125 6.582032-8.320313-6.667969-57.292968-51.019532-85.730468-101.589844-57.796875v-18.539062c0-10.65625-8.667969-19.324219-19.324219-19.324219h-225.910156c-10.652344 0-19.320313 8.667969-19.320313 19.324219v18.539062c-61.386718-33.902343-109.710937 15.621094-101.542968 87.894531zm366.097656 44.523438v-77.851562c5.992188-3.367188 11.902344-6.953126 17.605469-10.710938 6.234375-4.113281 17.847656-10.492188 25.601562-6.957031 19.375 8.828125 24.574219 91.949219-47.882812 130.398437 3.042969-11.117187 4.675781-22.808594 4.675781-34.878906zm-19.324219 302.027344c2.382813 0 4.324219 1.9375 4.324219 4.320312v20.371094h-234.554688v-20.371094c0-2.382812 1.9375-4.320312 4.320313-4.320312zm-162.578125-15v-45.996094c0-1.269531 1.074219-2.34375 2.34375-2.34375h94.558594c1.269531 0 2.34375 1.074219 2.34375 2.34375v45.996094zm122.632813-80.855469c4.246093 0 7.699219 3.457031 7.699219 7.703125v73.148438h-16.085938v-45.992188c0-9.5625-7.78125-17.34375-17.34375-17.34375h-94.558594c-9.5625 0-17.34375 7.777344-17.34375 17.34375v45.992188h-16.085937v-73.148438c0-4.246094 3.457031-7.703125 7.703125-7.703125zm-84.507813-15v-59.390625c7.652344.660156 15.597656.640625 23 0v59.390625zm-105.777344-342.128906c0-2.382813 1.9375-4.324219 4.320313-4.324219h225.910156c2.382813 0 4.324219 1.941406 4.324219 4.324219v20.367187h-234.554688zm0 35.367187h234.554688v115.589844c0 70.832031-62.894531 126.363281-134.238281 116.046875-56.660157-8.246094-100.316407-57.140625-100.316407-116.046875 0-11.21875 0-103.945312 0-115.589844zm-10.324218 150.46875c-72.1875-38.304687-67.515625-121.457031-47.886719-130.398437 7.75-3.527344 19.371094 2.84375 25.605469 6.957031 5.699218 3.757812 11.609375 7.34375 17.605468 10.710938 0 82.535156-1.359374 90.675781 4.675782 112.730468zm-4.675782-149.769531v19.699219c-10.15625-6.125-30.746093-22.484375-49.429687-13.980469-13.019531 5.933594-24.292969 28.820313-20.644531 61.09375 4.839844 42.859375 33.292968 83 81.910156 102.839844 3.535156 7.773437 7.785156 15.132812 12.714844 22.035156-161.484375-46.179687-129.210938-260.539063-24.550782-191.6875zm0 0"></path><path d="m215.800781 186.535156c0 4.132813 3.351563 7.5 7.5 7.5 4.007813 0 7.5-3.277344 7.5-7.5 0-3.242187-2.203125-6.558594-6.039062-7.359375-4.558594-.914062-8.960938 2.554688-8.960938 7.359375zm0 0"></path><path d="m242.949219 171.636719c4.089843 0 7.503906-3.332031 7.503906-7.5 0-3.667969-2.664063-6.714844-6.042969-7.351563-4.496094-.9375-8.960937 2.523438-8.960937 7.351563 0 4.113281 3.347656 7.5 7.5 7.5zm0 0"></path><path d="m249.5 183.648438c-5.820312 1.113281-8.078125 8.429687-3.828125 12.648437 1.285156 1.324219 3.277344 2.199219 5.300781 2.199219 4.007813 0 7.5-3.246094 7.5-7.5 0-4.730469-4.371094-8.300782-8.972656-7.347656zm0 0"></path><path d="m263.121094 168.605469c0 4.058593 3.289062 7.492187 7.5 7.492187 4.15625 0 7.503906-3.367187 7.503906-7.492187 0-4.824219-4.433594-8.269531-8.960938-7.359375-3.679687.765625-6.042968 3.933594-6.042968 7.359375zm0 0"></path><path d="m264.074219 134.382812c-4.769531-.933593-8.972657 2.742188-8.972657 7.351563 0 4.191406 3.414063 7.5 7.5 7.5 4.125 0 7.5-3.339844 7.5-7.5 0-3.476563-2.382812-6.574219-6.027343-7.351563zm0 0"></path><path d="m235.222656 230.316406c64.8125 0 97.957032-78.734375 51.761719-124.929687-8.941406-8.941407-20.101563-15.441407-32.269531-18.792969-3.996094-1.097656-8.125 1.246094-9.222656 5.242188-1.101563 3.992187 1.246093 8.121093 5.238281 9.222656 9.667969 2.660156 18.539062 7.824218 25.644531 14.933594 36.742188 36.738281 10.363281 99.332031-41.152344 99.328124-51.710937-.003906-77.710937-62.773437-41.15625-99.328124 7.109375-7.105469 15.976563-12.273438 25.644532-14.933594 3.996093-1.101563 6.34375-5.230469 5.242187-9.226563-1.101563-3.992187-5.226563-6.339843-9.222656-5.238281-12.167969 3.351562-23.328125 9.851562-32.273438 18.792969-45.96875 45.96875-13.277343 124.929687 51.765625 124.929687zm0 0"></path></svg>