<svg height="512pt" viewBox="-71 0 512 512.002" width="512pt" xmlns="http://www.w3.org/2000/svg"><path d="m369.210938 198.859375c8.21875-108.195313-77.539063-198.859375-184.125-198.859375-160.734376 0-246.601563 193.832031-133.667969 312.160156 11.015625 11.546875 23.449219 21.59375 37.015625 29.933594-5.699219 2.957031-9.609375 8.902344-9.609375 15.753906v14.070313c0 9.789062 7.960937 17.75 17.75 17.75h10.503906l10.578125 17.109375c3.5 5.664062 9.570312 9.042968 16.230469 9.042968h2.011719c11.914062 30.03125 17.453124 67.902344 19.332031 83.328126.890625 7.328124 7.128906 12.855468 14.511719 12.855468h30.671874c7.382813 0 13.621094-5.527344 14.511719-12.855468.648438-5.339844 1.796875-13.828126 3.578125-23.933594.71875-4.082032-2.007812-7.96875-6.085937-8.691406-4.078125-.714844-7.96875 2.007812-8.6875 6.085937-1.800781 10.226563-2.976563 18.851563-3.65625 24.390625h-29.996094c-1.871094-15.277344-7.101563-50.796875-18.136719-81.179688h66.269532c-2.347657 6.476563-4.566407 13.542969-6.625 21.125-1.085938 3.996094 1.277343 8.117188 5.273437 9.203126 3.996094 1.082031 8.117187-1.277344 9.203125-5.273438 2.515625-9.269531 5.269531-17.660156 8.199219-25.054688h1.96875c6.664062 0 12.730469-3.378906 16.230469-9.042968l10.582031-17.109375h10.535156c9.789063 0 17.75-7.960938 17.75-17.746094v-14.074219c0-6.855468-3.917969-12.808594-9.628906-15.761718 50.109375-30.816407 82.996093-84 87.511719-143.226563zm-144.265626-179.113281-14.222656 8.210937c-6.566406-3.789062-11.578125-6.683593-18.144531-10.476562v-2.304688c10.636719.46875 21.332031 1.90625 32.367187 4.570313zm78.511719 286.371094c-9.363281 9.132812-19.773437 17.195312-31.035156 23.988281l-2.90625-1.679688v-20.953125l18.148437-10.476562c2.121094 1.226562 14.121094 8.152344 15.792969 9.121094zm-275.820312-184.746094 3.5625-2.054688c6.566406 3.789063 11.578125 6.683594 18.144531 10.476563v20.953125l-18.144531 10.476562-1.867188-1.078125-11.117187-6.421875c2.074218-11.207031 5.253906-22.027344 9.421875-32.351562zm311.316406-2.054688 3.519531 2.03125c4.175782 10.335938 7.359375 21.171875 9.4375 32.394532-11.578125 6.683593-8.953125 5.167968-12.957031 7.476562l-18.144531-10.476562v-20.953126c6.566406-3.789062 11.578125-6.683593 18.144531-10.472656zm15.132813 50.488282c.886718 10.148437.867187 19.832031 0 29.765624l-7.628907-4.40625v-20.953124c2.894531-1.671876 4.640625-2.679688 7.628907-4.40625zm-161.507813 184.382812v-2.292969c11.128906-6.425781 7.007813-4.046875 18.144531-10.476562 4.429688 2.558593 1.574219.910156 14.222656 8.210937-10.695312 2.597656-21.507812 4.082032-32.367187 4.558594zm-47.378906-4.554688c11.980469-6.917968 10.015625-5.78125 14.230469-8.214843 11.132812 6.425781 7.015624 4.050781 18.148437 10.476562v2.296875c-11.066406-.484375-21.871094-2.003906-32.378906-4.558594zm-129.773438-169.007812c.007813-.480469.03125-.957031.046875-1.433594.027344-.878906.058594-1.753906.097656-2.628906.027344-.546875.058594-1.089844.089844-1.636719.046875-.832031.097656-1.660156.160156-2.488281.035157-.515625.074219-1.027344.113282-1.542969.03125-.371093.070312-.738281.101562-1.109375l7.664063 4.425782v20.953124l-7.664063 4.421876c-.578125-6.601563-.757812-12.726563-.609375-18.960938zm239.089844-139.675781v20.953125l-18.144531 10.476562-18.148438-10.476562v-20.953125l18.148438-10.476563zm-18.144531 297.953125c-11.128906-6.421875-7.011719-4.046875-18.148438-10.476563v-20.953125c11.128906-6.425781 7.011719-4.046875 18.148438-10.476562 11.128906 6.425781 7.011718 4.050781 18.144531 10.476562v20.953125zm-51.292969 0c-11.128906-6.421875-7.011719-4.046875-18.148437-10.476563v-20.953125l18.148437-10.476562 18.144531 10.476562v20.953125c-11.128906 6.425781-7.015625 4.050781-18.144531 10.476563zm-51.292969 0-18.148437-10.476563v-20.953125c11.128906-6.425781 7.011719-4.046875 18.148437-10.476562 11.128906 6.425781 7.015625 4.050781 18.144532 10.476562v20.953125c-11.128907 6.425781-7.015626 4.050781-18.144532 10.476563zm-69.441406-209.113282 18.148438-10.476562 18.144531 10.476562v20.953126l-18.144531 10.476562-18.148438-10.476562zm164.523438 133.261719v20.953125c-11.128907 6.429688-7.015626 4.050782-18.144532 10.476563-11.128906-6.421875-7.007812-4.046875-18.144531-10.476563v-20.953125c6.566406-3.789062 11.578125-6.683593 18.144531-10.476562 6.566406 3.792969 11.578125 6.6875 18.144532 10.476562zm-43.789063-12.988281c-6.566406-3.792969-11.582031-6.6875-18.148437-10.476562v-20.953126l18.148437-10.476562 18.144531 10.476562v20.953126c-6.566406 3.789062-11.578125 6.683593-18.144531 10.476562zm-58.792969-75.851562v20.953124l-18.148437 10.476563-18.144531-10.476563v-20.953124l18.144531-10.476563zm76.9375-23.46875-18.148437 10.476562-18.144531-10.476562v-20.953126l18.144531-10.476562 18.148437 10.476562zm-61.9375 44.421874v-20.953124l18.144532-10.476563c2.578124 1.488281 15.71875 9.074219 18.148437 10.476563v20.953124c-6.707031 3.871094-11.441406 6.605469-18.148437 10.476563-6.707032-3.871094-11.4375-6.605469-18.144532-10.476563zm120.730469-78.363281-18.144531-10.476562v-20.953125c6.707031-3.875 11.4375-6.605469 18.144531-10.476563l18.144531 10.476563v20.953125zm-25.644531 2.515625c6.707031 3.871094 11.4375 6.601563 18.144531 10.476563v20.953125l-18.144531 10.476562-18.148438-10.476562v-20.953125c6.707032-3.875 11.441406-6.605469 18.148438-10.476563zm-84.441406 10.472656v20.953126l-18.144532 10.476562-18.148437-10.476562v-20.953126c6.707031-3.871093 11.441406-6.601562 18.148437-10.476562 6.707032 3.875 11.441406 6.605469 18.144532 10.476562zm-36.289063 109.796876v-20.953126c6.707031-3.875 11.4375-6.605468 18.144531-10.476562 6.707032 3.871094 11.441406 6.601562 18.144532 10.476562v20.953126c-6.566407 3.789062-11.578126 6.683593-18.144532 10.476562-6.566406-3.792969-11.578125-6.6875-18.144531-10.476562zm25.644531 44.417968v-20.953125c6.566406-3.789062 11.578125-6.683593 18.144532-10.476562 6.566406 3.792969 11.582031 6.6875 18.148437 10.476562v20.953125c-11.132813 6.429688-7.015625 4.050782-18.148437 10.476563-11.125-6.421875-7.007813-4.046875-18.144532-10.476563zm69.4375-78.363281c-6.707031-3.871094-11.441406-6.605469-18.144531-10.476563v-20.953124c2.429687-1.40625 15.574219-8.992188 18.144531-10.476563l18.144532 10.476563v20.953124c-6.707032 3.875-11.4375 6.605469-18.144532 10.476563zm95.085938-54.898437-18.148438 10.476562-18.144531-10.476562v-20.953126c9.914063-5.722656 6.9375-4.003906 18.144531-10.476562l18.148438 10.476562zm-95.085938-75.847657 18.144532 10.476563v20.953125c-6.707032 3.871093-11.4375 6.605469-18.144532 10.476562-6.707031-3.871093-11.441406-6.605469-18.144531-10.476562v-20.953125c2.578125-1.488282 15.71875-9.078125 18.144531-10.476563zm-33.144531 10.476563v20.953125l-18.148437 10.476562c-6.707032-3.875-11.4375-6.605469-18.144532-10.476562v-20.953125l18.144532-10.476563c2.433593 1.402344 15.574218 8.992188 18.148437 10.476563zm-51.292969 0v20.953125l-18.148437 10.476562-18.144531-10.476562v-20.953125l18.144531-10.476563c6.710937 3.871094 11.441406 6.605469 18.148437 10.476563zm-69.441406 78.363281 18.148438 10.476563v20.953124l-18.148438 10.476563-18.144531-10.476563v-20.953124c6.566406-3.789063 11.578125-6.683594 18.144531-10.476563zm7.5 54.898437c6.710938-3.875 11.441406-6.605468 18.148438-10.476562l18.144531 10.476562v20.953126l-18.144531 10.476562-18.148438-10.476562zm25.648438 44.417969 18.144531-10.476562c6.566406 3.792969 11.582031 6.6875 18.148437 10.476562v20.953125l-18.148437 10.476563-18.144531-10.476563zm146.378906-12.988281c-6.566406-3.792969-11.582032-6.6875-18.148438-10.476562v-20.953126c6.707032-3.875 11.441406-6.605468 18.148438-10.476562 6.707031 3.871094 11.4375 6.605469 18.144531 10.476562v20.953126c-6.566406 3.789062-11.578125 6.683593-18.144531 10.476562zm7.5-75.851562 18.144531-10.476563 18.144531 10.476563v20.953124l-18.144531 10.476563-18.144531-10.476563zm36.289062 88.839843v20.953125l-18.144531 10.476563-18.148437-10.476563v-20.953125c6.566406-3.789062 11.582031-6.683593 18.148437-10.476562 6.566406 3.792969 11.578125 6.6875 18.144531 10.476562zm15-67.886719v-20.953124l18.148438-10.476563c2.433594 1.40625 15.574218 8.992187 18.144531 10.476563v20.953124c-2.433594 1.40625-15.574219 8.992188-18.144531 10.476563-6.566406-3.789063-11.582032-6.683594-18.148438-10.476563zm-7.496094-122.785156-18.148437-10.476562v-20.953125l2.910156-1.679688c11.261719 6.792969 21.667969 14.859375 31.03125 23.992188-2.433593 1.402343-13.730469 7.925781-15.792969 9.117187zm-102.585937-41.90625 18.144531 10.476563v20.953125l-18.144531 10.476562-18.148437-10.476562v-20.953125zm-33.148437 31.429688-18.144532 10.476562-18.148437-10.476562v-20.953125l18.148437-10.476563 18.144532 10.476563zm-51.292969 0-18.144531 10.476562-14.367188-8.292968-1.449219-.839844c9.367188-9.128906 19.773438-17.195313 31.039063-23.984375l2.921875 1.6875zm-69.4375 146.253906 18.144531 10.476562v20.953126l-18.144531 10.476562-3.5625-2.058594c-4.167969-10.320312-7.347657-21.144531-9.421875-32.347656 2.886718-1.667969 10.113281-5.84375 12.984375-7.5zm51.292969 88.839844 18.144531 10.476562v20.953125l-2.921875 1.691407c-11.265625-6.792969-21.671875-14.855469-31.039063-23.988282zm205.167968-46.933594c-6.566406-3.792969-11.578125-6.6875-18.144531-10.476562v-20.953126c6.707031-3.875 11.441406-6.605468 18.144531-10.476562 6.707032 3.871094 11.441406 6.601562 18.148438 10.476562v20.953126c-6.566406 3.789062-11.582032 6.683593-18.148438 10.476562zm54.8125-2.03125-3.519531 2.03125-18.144531-10.476562v-20.953126l18.144531-10.476562c1.863281 1.074219 11.257813 6.496094 12.957031 7.476562-2.078125 11.222657-5.261718 22.0625-9.4375 32.398438zm-11.019531-141.707031c-6.566406 3.789062-11.578125 6.683593-18.144531 10.476562l-18.148438-10.476562v-20.953125l18.148438-10.476563 1.988281 1.148438c5.992187 7.167969 11.398437 14.835937 16.15625 22.933593zm-153.875-88.84375-18.148437 10.476562-14.230469-8.214843c10.453125-2.527344 21.277343-4.085938 32.378906-4.566407zm-122.789063 58.601562 2.058594-1.1875 18.144532 10.476563v20.953125l-18.144532 10.476562c-6.710937-3.875-11.441406-6.605469-18.148437-10.476562v-7.40625c4.742187-8.058594 10.128906-15.695313 16.089843-22.835938zm-16.089843 186.96875 18.148437-10.476562 18.144532 10.476562v20.953125c-6.566407 3.792969-11.578126 6.6875-18.144532 10.476563l-2.058594-1.183594c-5.960937-7.140625-11.347656-14.78125-16.089843-22.839844zm276.601562 30.28125-1.992187 1.148438c-6.566406-3.789063-11.578125-6.683594-18.144532-10.476563v-20.953125c8.835938-5.101562 9.316407-5.378906 18.144532-10.476562l18.148437 10.476562v7.351563c-4.761719 8.09375-10.167969 15.761718-16.15625 22.929687zm-38.972656 78.585938c0 1.515625-1.234375 2.746093-2.75 2.746093h-71c-4.144531 0-7.5 3.359376-7.5 7.5 0 4.144532 3.355469 7.503907 7.5 7.503907h42.828125l-5.703125 9.21875c-.746094 1.210937-2.042969 1.933593-3.46875 1.933593-10.996094 0-85.4375 0-102.347656 0-1.425781 0-2.722657-.722656-3.472657-1.933593l-5.699218-9.21875h42.859375c4.144531 0 7.5-3.359375 7.5-7.503907 0-4.140624-3.355469-7.5-7.5-7.5h-71c-1.515625 0-2.75-1.230468-2.75-2.746093v-14.070313c0-1.515625 1.234375-2.75 2.75-2.75h17.1875c45.066406 18.875 96.769531 19.195313 142.597656 0h17.21875c1.515625 0 2.746094 1.234375 2.746094 2.75v14.070313zm0 0"></path></svg>