<svg height="512pt" viewBox="-30 0 512 512.00127" width="512pt" xmlns="http://www.w3.org/2000/svg"><path d="m239.492188 289.359375c4.164062 0 7.539062-3.375 7.539062-7.535156v-52.253907c20.558594 5.886719 37.605469 20.027344 47.347656 39.210938 3.898438 7.734375 14.976563 7.675781 18.878906-.003906 23.3125-45.902344 83.242188-55.933594 120.390626-22.238282 7.421874 6.730469 19.195312.304688 17.570312-9.570312-16.757812-101.539062-100.269531-180.355469-204.1875-190.105469v-25.515625c0-11.773437-9.574219-21.347656-21.347656-21.347656-11.769532 0-21.34375 9.574219-21.34375 21.347656v25.515625c-103.859375 9.746094-187.421875 88.519531-204.1875 190.105469-1.632813 9.890625 10.164062 16.292969 17.574218 9.570312 37.167969-33.714843 97.089844-23.632812 120.386719 22.242188 3.964844 7.800781 15.007813 7.632812 18.878907-.003906 9.886718-19.460938 27.101562-33.410156 47.347656-39.207032v147.429688c-3.460938 4.523438-5.523438 10.171875-5.523438 16.292969v53.175781c0 7.941406-6.457031 14.402344-14.398437 14.402344-7.941407 0-14.398438-6.460938-14.398438-14.402344v-12.285156c0-14.816406-12.054687-26.871094-26.871093-26.871094-14.816407 0-26.867188 12.054688-26.867188 26.871094v12.285156c0 29.738281 19.882812 56.546875 48.355469 65.203125 3.980469 1.210937 8.195312-1.039063 9.402343-5.023437 1.210938-3.980469-1.035156-8.191407-5.019531-9.402344-22.175781-6.742188-37.664062-27.621094-37.664062-50.777344v-12.285156c0-6.503906 5.292969-11.792969 11.792969-11.792969s11.792968 5.289063 11.792968 11.792969v12.285156c0 16.253906 13.222656 29.476562 29.476563 29.476562 16.253906 0 29.476562-13.222656 29.476562-29.476562v-28.753906h23.582031v28.757812c0 23.15625-15.484374 44.035156-37.660156 50.773438-3.984375 1.210937-6.234375 5.421875-5.023437 9.40625 1.214843 3.992187 5.433593 6.230468 9.40625 5.019531 28.46875-8.652344 48.355469-35.464844 48.355469-65.199219 0-49.699218 0-24.15625 0-53.175781 0-6.121094-2.0625-11.769531-5.523438-16.292969v-60c0-4.164062-3.375-7.539062-7.539062-7.539062-4.164063 0-7.539063 3.375-7.539063 7.539062v50.152344c-1.746094-.414062-4.097656-.730469-6.269531-.730469-2.109375 0-4.464844.300781-6.265625.730469v-140.308594c4.554687-.351562 8.332031-.335937 12.535156 0v54.976563c0 4.160156 3.375 7.535156 7.539063 7.535156zm194.582031-61.671875c-38.726563-26.648438-92.050781-19.890625-122.632813 16.648438v-66.007813c0-42.800781-15.945312-84.839844-46.746094-113.863281 83.46875 15.257812 150.628907 78.722656 169.378907 163.222656zm-214.65625-206.339844c0-3.457031 2.8125-6.269531 6.265625-6.269531 3.457031 0 6.269531 2.8125 6.269531 6.269531v24.597656c-3.734375-.109374-8.332031-.125-12.539063 0v-24.597656zm-79.488281 156.980469v66.011719c-30.601563-36.5625-83.925782-43.285156-122.632813-16.652344 18.75-84.5 85.910156-147.964844 169.378906-163.222656-30.839843 29.058594-46.746093 71.128906-46.746093 113.863281zm85.753906 203.175781c6.480468 0 11.792968 5.28125 11.792968 11.789063v9.34375h-23.582031v-9.34375c0-6.503907 5.308594-11.789063 11.789063-11.789063zm0-169.996094c-27.019532 0-52.929688 11.71875-70.675782 33.015626v-66.195313c0-49.140625 23.121094-93.832031 60.464844-117.144531 7.207032-.347656 13.855469-.316406 20.429688 0 37.339844 23.3125 60.460937 68.003906 60.460937 117.144531v66.195313c-17.335937-20.839844-43.097656-33.015626-70.679687-33.015626zm0 0"></path></svg>