<svg height="512pt" viewBox="0 -91 512.002 512" width="512pt" xmlns="http://www.w3.org/2000/svg"><path d="m204.253906 181.472656c-39.363281-10.292968-71.242187-25.167968-117.277344-25.671875-16.246093-.15625-30.828124 9.304688-37.175781 24.15625-4.878906 11.410157-5.761719 24.285157-2.492187 36.253907l15.414062 56.414062c2.121094 7.777344 7.914063 14.050781 15.496094 16.789062.621094.226563 36.855469 13.339844 37.496094 13.492188 31.070312 7.371094 52.539062 2.453125 65.066406-5.429688 5.855469-3.6875 3.683594-1.296874 39.664062-75.480468 7.6875-15.855469 1.5-35.898438-16.191406-40.523438zm2.695313 33.976563c-35.445313 73.074219-33.058594 68.640625-34.15625 69.328125-6.972657 4.390625-23.140625 10.671875-53.203125 3.628906l-36.273438-13.097656c-2.996094-1.085938-5.285156-3.5625-6.125-6.636719l-15.410156-56.414063c-2.382812-8.714843-1.738281-18.09375 1.8125-26.40625 3.957031-9.253906 13.089844-15.148437 23.21875-15.050781 43.484375.472657 73.929688 14.800781 113.648438 25.1875 8.296874 2.167969 9.996093 12.21875 6.488281 19.460938zm0 0"></path><path d="m331.214844 297.476562c12.5 7.863282 33.953125 12.8125 65.066406 5.429688.277344-.066406.550781-.148438.816406-.246094l36.679688-13.246094c7.582031-2.734374 13.375-9.011718 15.5-16.789062l15.410156-56.414062c7.867188-28.78125-8.273438-60.671876-39.664062-60.410157-46.054688.503907-77.832032 15.359375-117.277344 25.671875-17.773438 4.648438-23.792969 24.855469-16.191406 40.523438 35.964843 74.148437 33.804687 71.796875 39.660156 75.480468zm-19.675782-101.488281c38.3125-10.015625 72.007813-25.1875 113.929688-25.1875 20.992188 0 29.894531 22.640625 24.75 41.457031l-15.414062 56.417969c-.835938 3.070313-3.125 5.550781-6.121094 6.632813l-36.273438 13.097656c-30.066406 7.042969-46.230468.761719-53.203125-3.625-1.109375-.695312 1.234375 3.632812-34.15625-69.332031-3.59375-7.40625-1.671875-17.328125 6.488281-19.460938zm0 0"></path><path d="m31.757812 160.707031c-4.144531 0-7.5 3.359375-7.5 7.503907 0 4.140624 3.355469 7.5 7.5 7.5h3.503907c4.144531 0 7.5-3.359376 7.5-7.5 0-4.144532-3.355469-7.503907-7.5-7.503907zm0 0"></path><path d="m480.242188 175.710938c4.144531 0 7.5-3.359376 7.5-7.5 0-4.144532-3.355469-7.503907-7.5-7.503907h-3.503907c-4.144531 0-7.5 3.359375-7.5 7.503907 0 4.140624 3.355469 7.5 7.5 7.5zm0 0"></path><path d="m499.542969 138.75c-8.359375-1.648438-16.339844-2.960938-24.003907-4.011719l-25.066406-44.742187c-2.023437-3.613282-6.59375-4.902344-10.210937-2.878906-3.609375 2.023437-4.898438 6.597656-2.875 10.210937l19.8125 35.367187c-5.085938-.429687-11.8125-.847656-18.203125-1.023437l-51.34375-95.382813c-1.308594-2.429687-3.84375-3.945312-6.601563-3.945312h-39.511719c-4.777343 0-8.667968-3.890625-8.667968-8.667969 0-4.78125 3.890625-8.671875 8.667968-8.671875h44.742188c5.902344 0 7.738281 4.914063 8.296875 5.914063l25.683594 45.839843c2.023437 3.613282 6.59375 4.902344 10.207031 2.875 3.613281-2.023437 4.902344-6.59375 2.878906-10.207031l-25.511718-45.535156c-3.835938-8.449219-12.25-13.88671875-21.554688-13.88671875h-44.742188c-13.050781 0-23.667968 10.61718775-23.667968 23.67187475 0 13.050781 10.617187 23.671875 23.667968 23.671875h35.027344l45.40625 84.351563c-66.464844 2.09375-103.292968 26.976562-149.304687 32.113281-4.113281.457031-7.078125 4.167969-6.621094 8.285156.460937 4.117188 4.175781 7.089844 8.285156 6.625 63.925781-7.136718 106.042969-48.148437 222.3125-25.253906.207031.042969.355469.226562.355469.445312v28.941407c0 .203125-.140625.382812-.339844.4375-8.902344 2.375-15.941406 9.371093-18.367187 18.257812l-20.085938 73.515625c-2.917969 10.679688-10.871093 19.296875-21.339843 23.078125-16.753907 6.0625-35.367188 12.773438-37.820313 13.617188-39.296875 9.480469-62.445313.039062-72.757813-6.449219-4.339843-2.730469-7.839843-6.660156-10.121093-11.359375l-38.308594-78.980469c-2.566406-5.292968-8.023437-8.710937-13.90625-8.710937h-15.90625c-5.882813 0-11.34375 3.417969-13.90625 8.710937l-38.3125 78.980469c-2.277344 4.703125-5.777344 8.628906-10.121094 11.363281-10.335937 6.5-33.570312 15.972656-73.125 6.351563l-37.507812-13.542969c-10.410157-3.761719-18.367188-12.378906-21.28125-23.054688l-20.085938-73.519531c-2.429687-8.886719-9.464843-15.882812-18.371093-18.257812-.195313-.054688-.335938-.234375-.335938-.441407v-28.9375c0-.222656.148438-.40625.355469-.445312 116.324219-22.910156 158.3125 18.117188 222.3125 25.25 4.109375.460938 7.824219-2.503906 8.285156-6.621094.457031-4.117187-2.507813-7.828125-6.625-8.285156-46.042969-5.132812-82.832031-30.027344-149.300781-32.117188l45.402344-84.351562h35.027343c13.054688 0 23.671875-10.621094 23.671875-23.671875s-10.617187-23.671875-23.671875-23.671875h-44.738281c-9.308594 0-17.722656 5.4375-21.554688 13.886719l-67.703124 120.851562c-7.664063 1.046875-15.640626 2.363281-24 4.011719-7.222657 1.421875-12.460938 7.796875-12.460938 15.164062v28.9375c0 6.992188 4.71875 13.132813 11.472656 14.933594 3.761719 1.003906 6.738282 3.960938 7.765625 7.714844l20.082031 73.519531c4.203126 15.378907 15.664063 27.796875 30.660157 33.210938 40.445312 14.605469 37.960937 13.75 39.148437 14.039062 28.59375 6.949219 59.878906 7.269531 84.566406-8.261719 6.722657-4.226562 12.128907-10.28125 15.632813-17.507812l38.3125-78.988281c.074219-.15625.230469-.253907.40625-.253907h15.910156c.171875 0 .332031.101563.40625.257813l38.308594 78.984375c3.507813 7.230469 8.914063 13.285156 15.632813 17.511719 15.074218 9.480469 41.980468 18.609375 84.570312 8.257812.523438-.128906 1.0625-.261719 39.144531-14.039062 14.996094-5.414063 26.457031-17.828125 30.660157-33.210938l20.085937-73.515625c1.023437-3.757812 4-6.714844 7.765625-7.71875 6.753906-1.800781 11.472656-7.941406 11.472656-14.933594v-28.9375c-.003906-7.367187-5.246094-13.742187-12.460937-15.164062zm-381.78125-118.519531c1.375-3.175781 4.496093-5.230469 7.957031-5.230469h44.742188c4.777343 0 8.667968 3.890625 8.667968 8.671875s-3.890625 8.671875-8.667968 8.671875h-39.511719c-2.757813 0-5.292969 1.511719-6.601563 3.945312l-51.339844 95.375c-6.230468.171876-12.984374.582032-18.207031 1.027344.289063-.515625 62.722657-111.917968 62.960938-112.460937zm0 0"></path></svg>