<svg height="511pt" viewBox="0 -56 511.99765 511" width="511pt" xmlns="http://www.w3.org/2000/svg"><path d="m428.902344 84.234375c0-26.757813-21.769532-48.527344-48.527344-48.527344s-48.53125 21.769531-48.53125 48.527344 21.773438 48.527344 48.53125 48.527344 48.527344-21.769531 48.527344-48.527344zm-48.527344 33.46875c-18.457031 0-33.472656-15.011719-33.472656-33.46875 0-18.453125 15.015625-33.46875 33.472656-33.46875 18.453125 0 33.46875 15.015625 33.46875 33.46875 0 18.457031-15.015625 33.46875-33.46875 33.46875zm0 0"></path><path d="m387.902344 16.855469v-8.828125c0-4.15625-3.367188-7.527344-7.527344-7.527344s-7.53125 3.371094-7.53125 7.527344v8.828125c0 4.160156 3.371094 7.53125 7.53125 7.53125s7.527344-3.371094 7.527344-7.53125zm0 0"></path><path d="m372.84375 151.613281v8.828125c0 4.15625 3.371094 7.527344 7.53125 7.527344s7.527344-3.371094 7.527344-7.527344v-8.828125c0-4.160156-3.367188-7.53125-7.527344-7.53125s-7.53125 3.371094-7.53125 7.53125zm0 0"></path><path d="m433.34375 41.914062 6.242188-6.242187c2.941406-2.9375 2.941406-7.707031 0-10.648437-2.941407-2.9375-7.707032-2.9375-10.648438 0l-6.242188 6.242187c-4.757812 4.761719-1.324218 12.855469 5.324219 12.855469 1.925781 0 3.851563-.734375 5.324219-2.207032zm0 0"></path><path d="m331.8125 143.445312 6.242188-6.242187c2.941406-2.941406 2.941406-7.710937 0-10.648437-2.9375-2.941407-7.707032-2.941407-10.648438 0l-6.242188 6.242187c-2.941406 2.9375-2.941406 7.707031 0 10.648437 2.9375 2.9375 7.707032 2.941407 10.648438 0zm0 0"></path><path d="m447.753906 91.765625h8.828125c4.15625 0 7.527344-3.371094 7.527344-7.53125 0-4.15625-3.371094-7.527344-7.527344-7.527344h-8.828125c-4.160156 0-7.53125 3.371094-7.53125 7.527344 0 4.160156 3.371094 7.53125 7.53125 7.53125zm0 0"></path><path d="m312.996094 76.707031h-8.828125c-4.15625 0-7.527344 3.371094-7.527344 7.527344 0 4.160156 3.371094 7.53125 7.527344 7.53125h8.828125c4.160156 0 7.53125-3.371094 7.53125-7.53125 0-4.15625-3.371094-7.527344-7.53125-7.527344zm0 0"></path><path d="m428.9375 143.445312c2.941406 2.941407 7.707031 2.9375 10.644531 0 2.941407-2.941406 2.941407-7.710937.003907-10.648437l-6.242188-6.242187c-2.941406-2.941407-7.710938-2.941407-10.648438 0-2.941406 2.9375-2.941406 7.707031-.003906 10.648437zm0 0"></path><path d="m327.40625 41.914062c2.945312 2.945313 7.710938 2.941407 10.648438 0 2.941406-2.9375 2.941406-7.707031 0-10.648437l-6.242188-6.242187c-2.941406-2.9375-7.707031-2.9375-10.648438 0-2.941406 2.941406-2.941406 7.710937 0 10.648437zm0 0"></path><path d="m209.710938 278.734375c5.0625.964844 10.191406-.882813 13.394531-4.808594 9.835937-12.058593 25.304687-17.238281 40.027343-14.117187 6.695313 1.421875 13.484376-2.625 15.46875-9.203125 9.105469-30.226563 37.632813-51.832031 69.785157-51.832031 40.199219 0 72.902343 32.703124 72.902343 72.917968-.003906 6.277344 5.898438 10.847656 11.949219 9.246094 28.648438-7.582031 56.796875 10.226562 63.949219 37.234375 1.0625 4.019531 5.183594 6.417969 9.207031 5.351563 4.019531-1.0625 6.414063-5.1875 5.351563-9.207032-8.546875-32.273437-40.683594-54.875-75.652344-49.347656-3.4375-45.382812-41.460938-81.257812-87.707031-81.257812-10.90625 0-21.503907 1.964843-31.425781 5.765624-4.242188-.125-8.460938.136719-12.613282.792969-1.355468-17.582031-8.007812-34.519531-19.074218-48.300781-12.269532-15.28125-29.480469-26.152344-48.464844-30.605469-4.039063-.953125-8.097656 1.558594-9.050782 5.609375-.949218 4.046875 1.5625 8.101563 5.609376 9.050782 33.078124 7.765624 56.179687 36.9375 56.179687 70.964843-.003906 2.617188 1.03125 5.058594 2.871094 6.851563-12.660157 10.484375-22.613281 24.882812-27.769531 40.921875-19.355469-3.511719-39.546876 3.328125-52.734376 19.066406-33.90625-6.113281-66.054687 14.117187-76.605468 45.210937h-67.285156c-30.078126 0-54.339844-25.007812-52.90625-55.53125 1.457031-31.019531 30.488281-55.597656 62.851562-49.46875 5.066406.960938 10.191406-.882812 13.390625-4.808593 9.984375-12.242188 25.539063-17.195313 40.03125-14.121094 6.695313 1.421875 13.484375-2.621094 15.46875-9.203125 7.683594-25.503906 28.625-44.761719 54.648437-50.257812 4.070313-.859376 6.671876-4.851563 5.808594-8.921876-.859375-4.070312-4.851562-6.667968-8.921875-5.8125-30.898437 6.527344-55.859375 29.117188-65.488281 59.148438-19.355469-3.511719-39.542969 3.328125-52.734375 19.066406-41.269531-7.4375-78.234375 23.992188-80.09375 63.671875-1.828125 38.929688 29.070313 71.296875 67.949219 71.296875h64.042968c-3.949218 40.085938 27.480469 74.699219 67.699219 74.699219h246.886719c28.480469 0 53.992188-18.042969 63.480469-44.902344 1.382812-3.921875-.671875-8.222656-4.59375-9.609375-3.917969-1.386718-8.222657.667969-9.605469 4.59375-7.367188 20.851563-27.171875 34.863282-49.28125 34.863282h-246.886719c-14.621093 0-28.230469-5.828126-38.328125-16.410157-35.480468-37.1875-1.9375-98.121093 48.269532-88.597656zm0 0"></path></svg>