<svg height="512pt" viewBox="0 -78 512 511" width="512pt" xmlns="http://www.w3.org/2000/svg"><path d="m137.128906 134.042969c7.5625-3.492188 7.554688-13.945313 0-17.433594l-29.304687-13.527344c-.726563-3.382812-3.730469-5.917969-7.332031-5.917969-4.144532 0-7.5 3.355469-7.5 7.5v71.035157c-15.652344 1.691406-26.042969 8.703125-26.042969 18.203125 0 24.835937 67.082031 24.867187 67.082031 0 0-9.503906-10.386719-16.511719-26.039062-18.203125v-28.210938zm-29.136718-14.359375 12.226562 5.640625-12.226562 5.644531zm9.875 74.21875c-8.15625 4.792968-26.589844 4.796875-34.75 0 8.152343-4.792969 26.589843-4.796875 34.75 0zm0 0"></path><path d="m453.9375 8.453125c-5.253906-5.128906-12.1875-7.953125-19.527344-7.953125h-133.167968c-6.574219 0-12.960938 2.332031-17.992188 6.558594-67.546875 56.816406 2.421875-2.039063-40.417969 34-2.332031 1.957031-5.292969 3.039062-8.335937 3.039062h-22.675782c-4.144531 0-7.5 3.355469-7.5 7.5 0 4.140625 3.355469 7.5 7.5 7.5h22.675782c4.9375 0 9.773437-1.316406 14.003906-3.765625v16.597657c0 9.46875 7.703125 17.167968 17.167969 17.167968h12.605469c1.195312 0 2.167968.972656 2.167968 2.167969v18.003906c0 9.464844 7.699219 17.167969 17.167969 17.167969h128.675781c1.195313 0 2.164063.96875 2.164063 2.164062 0 9.46875 7.703125 17.167969 17.167969 17.167969h51.382812v14.394531c0 4.140626 3.355469 7.5 7.5 7.5s7.5-3.359374 7.5-7.5v-83.242187c0-7.015625-2.699219-13.859375-7.445312-18.992187-.742188-.800782 2.3125 2.207031-50.617188-49.476563zm43.0625 122.316406h-51.382812c-1.191407 0-2.164063-.972656-2.164063-2.167969 0-9.46875-7.703125-17.167968-17.167969-17.167968h-128.675781c-1.195313 0-2.167969-.972656-2.167969-2.167969v-18c0-9.46875-7.699218-17.167969-17.167968-17.167969h-12.605469c-1.195313 0-2.167969-.972656-2.167969-2.167968v-28.65625l29.40625-24.734376c2.328125-1.960937 5.289062-3.039062 8.335938-3.039062h133.167968c7.078125 0 5.277344 0 58.6875 52.15625 2.480469 2.421875 3.902344 5.796875 3.902344 9.265625zm0 0"></path><path d="m387.75 36.597656c0-4.144531-3.355469-7.5-7.5-7.5h-77.140625c-4.144531 0-7.5 3.355469-7.5 7.5 0 4.140625 3.355469 7.5 7.5 7.5h77.140625c4.140625 0 7.5-3.359375 7.5-7.5zm0 0"></path><path d="m419.417969 64.265625c0-4.144531-3.355469-7.503906-7.5-7.503906h-95.972657c-4.144531 0-7.5 3.359375-7.5 7.503906 0 4.140625 3.355469 7.5 7.5 7.5h95.972657c4.144531 0 7.5-3.359375 7.5-7.5zm0 0"></path><path d="m425.117188 84.433594h-52.167969c-4.144531 0-7.503907 3.355468-7.503907 7.5 0 4.140625 3.359376 7.5 7.503907 7.5h52.167969c4.144531 0 7.5-3.359375 7.5-7.5 0-4.144532-3.359376-7.5-7.5-7.5zm0 0"></path><path d="m410.949219 44.097656h10c4.144531 0 7.5-3.359375 7.5-7.5 0-4.144531-3.355469-7.5-7.5-7.5h-10c-4.144531 0-7.5 3.355469-7.5 7.5 0 4.140625 3.355469 7.5 7.5 7.5zm0 0"></path><path d="m168.222656 291.945312c0-4.144531-3.355468-7.5-7.5-7.5h-77.136718c-4.144532 0-7.503907 3.355469-7.503907 7.5 0 4.140626 3.359375 7.5 7.503907 7.5h77.136718c4.144532 0 7.5-3.359374 7.5-7.5zm0 0"></path><path d="m192.394531 312.113281h-95.976562c-4.144531 0-7.5 3.359375-7.5 7.5s3.355469 7.5 7.5 7.5h95.976562c4.140625 0 7.5-3.359375 7.5-7.5s-3.359375-7.5-7.5-7.5zm0 0"></path><path d="m201.425781 284.445312h-10.003906c-4.140625 0-7.5 3.355469-7.5 7.5 0 4.140626 3.359375 7.5 7.5 7.5h10.003906c4.140625 0 7.5-3.359374 7.5-7.5 0-4.144531-3.359375-7.5-7.5-7.5zm0 0"></path><path d="m462.617188 84.433594h-10c-4.140626 0-7.5 3.355468-7.5 7.5 0 4.140625 3.359374 7.5 7.5 7.5h10c4.144531 0 7.503906-3.359375 7.503906-7.5 0-4.144532-3.359375-7.5-7.503906-7.5zm0 0"></path><path d="m345.945312 84.433594h-11c-4.144531 0-7.5 3.355468-7.5 7.5 0 4.140625 3.355469 7.5 7.5 7.5h11c4.144532 0 7.5-3.359375 7.5-7.5 0-4.144532-3.355468-7.5-7.5-7.5zm0 0"></path><path d="m354.261719 179.105469c0-11.378907-9.207031-20.585938-20.585938-20.585938-11.378906 0-20.585937 9.207031-20.585937 20.585938 0 11.375 9.207031 20.582031 20.585937 20.582031 11.378907 0 20.585938-9.203125 20.585938-20.582031zm-20.585938 5.582031c-3.089843 0-5.582031-2.503906-5.582031-5.582031s2.488281-5.585938 5.582031-5.585938c3.089844 0 5.582031 2.503907 5.582031 5.585938 0 3.078125-2.488281 5.582031-5.582031 5.582031zm0 0"></path><path d="m350.707031 216.230469c13.488281-6.53125 22.292969-18.773438 23.703125-33.132813 1.460938-14.855468-5.363281-29.382812-17.816406-37.917968-29.644531-20.316407-69.351562 5.445312-63.230469 40.886718 2.332031 13.503906 10.988281 24.664063 23.34375 30.273438l9.347657 16.597656c3.34375 5.949219 11.917968 5.914062 15.242187.003906zm-12.066406-9.144531-4.964844 8.816406-4.953125-8.792969c-.984375-1.753906-2.5625-3.117187-4.441406-3.851563-8.542969-3.324218-14.574219-10.707031-16.136719-19.742187-2.78125-16.117187 9.8125-30.414063 25.570313-30.414063 14.699218 0 27.3125 12.804688 25.769531 28.527344-.953125 9.671875-7.027344 17.585938-16.664063 21.714844-1.765624.753906-3.25 2.085938-4.179687 3.742188zm0 0"></path><path d="m332.214844 245.703125c-3.472656.652344-6.042969 3.785156-6.042969 7.351563 0 4.261718 3.46875 7.5 7.5 7.5 4.097656 0 7.5-3.304688 7.5-7.5 0-4.824219-4.453125-8.257813-8.957031-7.351563zm0 0"></path><path d="m504.5 187.664062c-4.144531 0-7.5 3.359376-7.5 7.5v15.566407c0 3.457031-1.347656 6.710937-3.792969 9.15625l-23.625 23.625c-2.445312 2.445312-5.695312 3.792969-9.15625 3.792969h-41.863281c-7.402344 0-14.636719 3.011718-19.847656 8.269531l-16.824219 16.964843c-2.410156 2.433594-5.761719 3.828126-9.191406 3.828126h-75.152344c-6.519531 0-12.863281 2.296874-17.875 6.464843l-21.386719 17.785157v-38.027344c0-14.355469-11.679687-26.035156-26.03125-26.035156h-40.351562c-9.277344 0-16.980469 7.546874-17.164063 16.824218-.023437 1.214844-.792969 2.511719-2.167969 2.511719h-128.675781c-9.46875 0-17.167969 7.703125-17.167969 17.167969v19.085937l-7.570312-7.003906c-2.640625-2.445313-4.15625-5.910156-4.15625-9.507813v-154.839843c0-3.867188 1.710938-7.503907 4.6875-9.972657l58.855469-48.746093c2.316406-1.917969 5.25-2.976563 8.261719-2.976563h90.015624c4.140626 0 7.5-3.359375 7.5-7.5 0-4.144531-3.359374-7.503906-7.5-7.503906h-90.015624c-6.496094 0-12.828126 2.28125-17.828126 6.425781l-58.855468 48.75c-6.433594 5.328125-10.121094 13.171875-10.121094 21.523438v154.839843c0 7.765626 3.269531 15.242188 8.96875 20.515626 8.488281 7.855468 52.242188 48.34375 55.375 51.242187 5.183594 4.792969 11.921875 7.4375 18.980469 7.4375h123.140625c6.515625 0 12.859375-2.296875 17.871094-6.464844l64.925781-54c2.320312-1.929687 5.261719-2.992187 8.28125-2.992187h75.15625c7.398437 0 14.632812-3.015625 19.84375-8.269532l16.824219-16.964843c2.414062-2.4375 5.765624-3.832031 9.191406-3.832031h41.867187c7.464844 0 14.480469-2.90625 19.761719-8.1875l23.625-23.625c5.277344-5.277344 8.1875-12.296876 8.1875-19.761719v-15.566407c0-4.140624-3.359375-7.5-7.5-7.5zm-261.21875 125.429688-28.539062 23.738281c-2.320313 1.929688-5.257813 2.992188-8.277344 2.992188h-123.140625c-3.269531 0-6.390625-1.222657-8.792969-3.445313l-32.804688-30.355468v-32.964844c0-1.195313.972657-2.167969 2.167969-2.167969h128.675781c9.433594 0 16.972657-7.5625 17.164063-17.214844.023437-1.167969.996094-2.117187 2.167969-2.117187h40.347656c6.082031 0 11.03125 4.945312 11.03125 11.03125zm0 0"></path></svg>