<svg height="511pt" viewBox="0 -22 511.99862 511" width="511pt" xmlns="http://www.w3.org/2000/svg"><path d="m468.921875 68.324219c-2.929687-2.929688-7.675781-2.929688-10.605469 0-2.929687 2.929687-2.929687 7.679687 0 10.605469l36.773438 36.773437c2.53125 2.535156 2.550781 6.722656 0 9.273437l-18.777344 18.777344c-2.539062 2.539063-6.730469 2.539063-9.269531 0l-98.296875-98.296875c-2.542969-2.542969-2.539063-6.734375 0-9.273437l18.777344-18.773438c2.539062-2.542968 6.734374-2.542968 9.269531 0l36.773437 36.769532c2.929688 2.929687 7.679688 2.929687 10.605469 0 2.929687-2.929688 2.929687-7.675782 0-10.605469l-36.769531-36.773438c-8.40625-8.402343-22.085938-8.402343-30.488282 0l-18.777343 18.777344c-7.945313 7.945313-8.328125 20.507813-1.433594 28.90625l-8.261719 8.265625c-6.386718 6.382812-6.386718 16.714844-.003906 23.101562l8.953125 8.949219-101.390625 101.390625-101.390625-101.390625 8.949219-8.949219c3.085937-3.085937 4.785156-7.1875 4.785156-11.550781s-1.699219-8.464843-4.785156-11.550781l-8.265625-8.265625c6.882812-8.378906 6.527343-20.945313-1.429688-28.90625l-18.777343-18.777344c-8.402344-8.402343-22.082032-8.402343-30.484376 0l-98.296874 98.296875c-8.40625 8.40625-8.40625 22.082032 0 30.488282l18.773437 18.773437c7.886719 7.886719 20.425781 8.382813 28.902344 1.433594l8.269531 8.265625c6.375 6.371094 16.734375 6.367187 23.101562 0l8.949219-8.949219 101.390625 101.386719-112.855468 112.859375c-15.574219 15.574219-17.285157 25.878906-38.261719 83.871093-3.308594 9.152344 5.554687 18.003907 14.695312 14.695313 57.953125-20.960937 68.285157-22.675781 83.875-38.261719l112.855469-112.855468 112.855469 112.855468c15.574219 15.574219 25.878906 17.289063 83.871093 38.261719 9.152344 3.3125 18.003907-5.554687 14.699219-14.695313-20.945312-57.90625-22.671875-68.277343-38.265625-83.871093l-112.851562-112.859375 36.539062-36.539063c2.929688-2.929687 2.929688-7.675781 0-10.605469-2.929687-2.929687-7.679687-2.929687-10.609375 0-8.578125 8.582032-202.207031 202.210938-209.699219 209.703126-12.632812 12.628906-20.488281 13.828124-71.300781 32.207031 18.332031-50.6875 19.550781-58.644531 32.207031-71.300781 5.289063-5.289063 265.316407-265.316407 274.550782-274.550782l39.09375 39.09375-40.101563 40.097656c-2.929687 2.929688-2.929687 7.679688 0 10.605469 2.929688 2.929688 7.679688 2.929688 10.609375 0l40.097656-40.097656 8.953126 8.949219c6.382812 6.382812 16.714843 6.386718 23.101562 0l8.265625-8.265625c8.394531 6.894531 20.960937 6.511719 28.902344-1.429688l18.777343-18.777343c8.40625-8.40625 8.402344-22.085938 0-30.484376zm-163.222656 198.78125 112.855469 112.855469c12.640624 12.640624 13.847656 20.535156 32.210937 71.300781-50.691406-18.332031-58.644531-19.550781-71.300781-32.207031l-112.859375-112.855469c8.035156-8.035157 31.113281-31.113281 39.09375-39.09375zm-260.738281-123.351563c-2.558594 2.554688-6.71875 2.558594-9.273438 0l-18.777344-18.777344c-2.554687-2.554687-2.554687-6.714843 0-9.273437l98.296875-98.292969c2.539063-2.542968 6.734375-2.542968 9.269531 0 20.113282 20.109375 20.679688 19.765625 20.679688 23.410156 0 1.761719-.675781 3.410157-1.902344 4.636719-.902344.902344-70.867187 70.867188-98.292968 98.296875zm29.785156 9.699219c-.519532.519531-1.367188.519531-1.886719 0l-8.191406-8.191406c49.082031-49.085938 31.007812-31.011719 80.09375-80.097657l8.191406 8.191407c.320313.324219.390625.691406.390625.945312 0 .25-.070312.621094-.390625.941407-7.59375 7.59375-71.085937 71.085937-78.207031 78.210937zm131.554687 92.4375-101.390625-101.390625 39.09375-39.09375 101.390625 101.390625zm232.839844-92.4375c-.519531.519531-1.363281.519531-1.886719 0-83.253906-83.257813-79.652344-78.652344-78.207031-80.097656l8.191406-8.191407 80.09375 80.09375zm0 0"></path></svg>