<svg height="512pt" viewBox="-11 0 512 512.002" width="512pt" xmlns="http://www.w3.org/2000/svg"><path d="m391.742188 406.34375c-20.800782 0-37.71875 16.921875-37.71875 37.71875s16.917968 37.71875 37.71875 37.71875c20.796874 0 37.71875-16.921875 37.71875-37.71875s-16.921876-37.71875-37.71875-37.71875zm0 60.4375c-12.527344 0-22.71875-10.191406-22.71875-22.71875s10.191406-22.71875 22.71875-22.71875c12.527343 0 22.71875 10.191406 22.71875 22.71875s-10.191407 22.71875-22.71875 22.71875zm0 0"></path><path d="m98.78125 406.34375c-20.800781 0-37.71875 16.921875-37.71875 37.71875s16.917969 37.71875 37.71875 37.71875c20.796875 0 37.71875-16.921875 37.71875-37.71875s-16.921875-37.71875-37.71875-37.71875zm0 60.4375c-12.527344 0-22.71875-10.191406-22.71875-22.71875s10.191406-22.71875 22.71875-22.71875c12.523438 0 22.71875 10.191406 22.71875 22.71875s-10.195312 22.71875-22.71875 22.71875zm0 0"></path><path d="m479.65625 397.796875v-41.96875c0-4.144531-3.359375-7.5-7.5-7.5-4.144531 0-7.5 3.355469-7.5 7.5v20.761719c-19.003906-20.519532-45.53125-31.804688-72.914062-31.804688-15.25 0-30.632813 3.476563-44.832032 10.695313v-89.492188c0-1 .816406-1.8125 1.8125-1.8125 1.003906 0 41.667969 0 40.394532 0 35.304687.007813 65.546874 24 73.546874 58.351563.9375 4.03125 4.972657 6.539062 9.007813 5.601562 4.03125-.9375 6.542969-4.972656 5.601563-9.003906-8.855469-38.019531-41.714844-67.054688-82.25-69.734375l-38.878907-156.960937h62.441407c13.074218 0 23.707031-10.632813 23.707031-23.707032v-14.402344c0-13.074218-10.632813-23.707031-23.707031-23.707031h-3.917969v-6.90625c-.003907-13.074219-10.636719-23.707031-23.710938-23.707031h-335.027343c-13.070313 0-23.707032 10.632812-23.707032 23.707031v6.90625h-3.917968c-13.070313 0-23.707032 10.632813-23.707032 23.707031v14.40625c0 13.070313 10.636719 23.707032 23.707032 23.707032h47.863281v165.523437h-21.617188c-13.074219 0-23.707031 10.632813-23.707031 23.703125v23.5625h-7.839844c-10.148437 0-18.40625 8.257813-18.40625 18.40625v88.960938c-2.171875 6.542968-3.714844 13.398437-4.496094 20.507812-1.082031 9.832032 6.683594 18.464844 16.625 18.464844h14.542969c3.746094 33.945312 32.585938 60.441406 67.511719 60.441406 28.226562 0 52.484375-17.3125 62.726562-41.871094h66.253907c4.144531 0 7.5-3.355468 7.5-7.5 0-4.140624-3.355469-7.5-7.5-7.5h-61.949219c.539062-3.277343.90625-7.378906.90625-11.066406 0-7.910156-1.449219-15.78125-3.917969-22.71875h164.917969c-2.457031 6.921875-3.914062 14.816406-3.914062 22.71875 0 3.699219.363281 7.761719.90625 11.066406h-61.949219c-4.144531 0-7.5 3.359376-7.5 7.5 0 4.144532 3.355469 7.5 7.5 7.5h66.253906c10.242187 24.558594 34.5 41.871094 62.726563 41.871094 34.921874 0 63.765624-26.496094 67.511718-60.441406h14.542969c9.929687 0 17.707031-8.621094 16.625-18.460938-1.394531-12.695312-5.140625-24.597656-10.765625-35.304687zm-432.429688-374.089844c0-4.800781 3.902344-8.707031 8.703126-8.707031h335.027343c4.800781 0 8.707031 3.90625 8.707031 8.707031v6.90625h-352.4375zm-18.921874 53.722657c-4.800782 0-8.707032-3.902344-8.707032-8.707032v-14.402344c0-4.800781 3.90625-8.707031 8.707032-8.707031h390.28125c4.796874 0 8.703124 3.90625 8.703124 8.707031v14.40625c0 4.800782-3.90625 8.707032-8.703124 8.707032h-390.28125zm62.867187 195.523437h30.328125v32.269531h-30.328125zm-45.328125 8.707031c0-4.800781 3.90625-8.707031 8.707031-8.707031h21.617188v32.269531h-30.324219zm52.9375 215.339844c-29.191406 0-52.9375-23.75-52.9375-52.9375 0-29.191406 23.746094-52.9375 52.9375-52.9375 28.785156 0 52.9375 23.40625 52.9375 52.9375 0 29.027344-23.613281 52.9375-52.9375 52.9375zm56.488281-90.65625c-12.148437-18.148438-33.101562-30.21875-56.488281-30.21875-35.003906 0-63.796875 26.613281-67.527344 60.4375h-14.527344c-.992187 0-1.824218-.839844-1.714843-1.824219 4.71875-42.933593 41.238281-74.953125 83.769531-74.953125 31.785156 0 61.058594 18.015625 75.34375 46.558594zm22.664063-22.191406c-18.695313-24.675782-48.019532-39.367188-79.152344-39.367188-30.648438 0-60.117188 14.140625-79.179688 39.296875v-60.457031c0-1.875 1.523438-3.402344 3.402344-3.402344h151.527344c1.875 0 3.402344 1.527344 3.402344 3.402344zm-41.433594-78.929688c0-6.851562 0-64.578125 0-71.84375 0-.890625.722656-1.617187 1.613281-1.617187h18.355469c.890625 0 1.613281.726562 1.613281 1.617187v71.84375zm80.332031 101.121094h-23.898437v-46.558594h19.105468c2.597657 0 4.792969 2.195313 4.792969 4.792969zm83.101563 0h-68.101563v-41.765625c0-10.914063-8.878906-19.792969-19.796875-19.792969h-19.101562v-21.160156c0-10.148438-8.257813-18.402344-18.402344-18.402344h-1.445312v-71.84375c0-9.164062-7.457032-16.617187-16.617188-16.617187h-18.355469c-9.160156 0-16.613281 7.453125-16.613281 16.617187v24.574219h-30.328125v-165.523437h249.515625l38.824219 156.746093h-30.789063c-9.269531 0-16.8125 7.539063-16.8125 16.8125v40.039063l-41.113281-30.140625 4.519531-5.84375c2.53125-3.277344 1.929688-7.984375-1.347656-10.519531-3.273438-2.535157-7.984375-1.9375-10.519531 1.34375l-18.457031 23.855468c-2.535157 3.277344-1.933594 7.988282 1.34375 10.523438 3.273437 2.53125 7.984374 1.933594 10.523437-1.34375l4.753906-6.148438 50.296875 36.871094v40.257812c-13.921875 10.519532-25.097656 24.710938-31.976562 41.460938zm91.808594 90.65625c-29.023438 0-52.9375-23.582031-52.9375-52.9375 0-29.484375 24.105468-52.9375 52.9375-52.9375 29.1875 0 52.9375 23.746094 52.9375 52.9375 0 29.1875-23.75 52.9375-52.9375 52.9375zm82.054687-60.4375h-14.527344c-3.765625-34.109375-32.8125-60.4375-67.527343-60.4375-22.480469 0-43.828126 11.304688-56.488282 30.21875h-18.871094c14.117188-28.207031 43.214844-46.558594 75.359376-46.558594 42.84375 0 79.085937 32.363282 83.769531 74.953125.105469.984375-.726563 1.824219-1.714844 1.824219zm0 0"></path></svg>