<svg height="512pt" viewBox="0 -8 512 512" width="512pt" xmlns="http://www.w3.org/2000/svg"><path d="m494.304688 456.796875c-1.542969-13.34375-25.011719-215.992187-26.601563-229.703125-.476563-4.117188-4.195313-7.070312-8.3125-6.585938-4.113281.476563-7.0625 4.195313-6.589844 8.3125l7.460938 64.390626h-137.46875c0-7.378907 0-152.621094 0-160.023438 0-3.375 2.75-6.121094 6.125-6.121094h106.644531c3.109375 0 5.726562 2.328125 6.082031 5.417969l7.105469 61.332031c.472656 4.117188 4.199219 7.066406 8.3125 6.589844s7.0625-4.199219 6.585938-8.316406l-7.101563-61.332032c-1.234375-10.65625-10.257813-18.695312-20.984375-18.695312h-2.8125v-48.703125h7.179688c8.417968 0 15.269531-6.851563 15.269531-15.273437v-32.8125c0-8.421876-6.851563-15.273438-15.269531-15.273438h-40.929688c-4.144531 0-7.503906 3.359375-7.503906 7.5 0 4.144531 3.359375 7.5 7.503906 7.5h40.929688c.148437 0 .269531.121094.269531.273438v32.8125c0 .410156-102.039063.269531-102.453125.269531h-14.679688c-.148437 0-.269531-.121094-.269531-.269531v-32.8125c0-.152344.121094-.273438.269531-.273438h40.929688c4.144531 0 7.5-3.355469 7.5-7.5 0-4.140625-3.355469-7.5-7.5-7.5h-40.929688c-8.421875 0-15.273437 6.851562-15.273437 15.273438v32.8125c0 8.421874 6.851562 15.273437 15.273437 15.273437h7.179688v48.707031h-1.328125c-11.644531 0-21.121094 9.476563-21.121094 21.125v4.203125h-4.574219v-4.011719c0-11.753906-9.5625-21.316406-21.316406-21.316406h-51.8125c-11.753906 0-21.316406 9.5625-21.316406 21.316406v4.011719h-4.570313v-4.203125c0-11.648437-9.476562-21.125-21.125-21.125h-1.328125v-48.707031h7.179688c8.421875 0 15.273437-6.851563 15.273437-15.273437v-32.8125c0-8.421876-6.851562-15.273438-15.273437-15.273438h-116.863282c-8.417968 0-15.269531 6.851562-15.269531 15.273438v32.8125c0 8.421874 6.851563 15.273437 15.269531 15.273437h7.179688v48.707031h-2.8125c-10.730469 0-19.75 8.035156-20.984375 18.695313-.382813 3.296875-37.308594 322.152343-37.757813 326.035156-9.914062.957031-17.695312 9.332031-17.695312 19.492187 0 10.804688 8.789062 19.59375 19.589844 19.59375h181.144531c10.804687 0 19.589844-8.789062 19.589844-19.59375 0-9.613281-6.96875-17.617187-16.117188-19.261718 0-4.453125 0-141.109375 0-148.816406h103.585938v148.816406c-9.148438 1.644531-16.117188 9.648437-16.117188 19.265625 0 10.800781 8.789063 19.589843 19.589844 19.589843h181.144531c10.800782 0 19.589844-8.789062 19.589844-19.589843 0-10.164063-7.78125-18.539063-17.695312-19.496094zm-149.058594-393.4375h72.5v48.707031h-72.5zm-273.175782-15.003906c-.148437 0-.269531-.121094-.269531-.269531v-32.8125c0-.152344.121094-.273438.269531-.273438h116.863282c.148437 0 .269531.121094.269531.273438v32.8125c0 .410156-116.71875.269531-117.132813.269531zm94.683594 15.003906v48.707031h-72.503906v-48.707031zm-96.398437 69.125c.355469-3.089844 2.972656-5.417969 6.082031-5.417969h106.644531c3.375 0 6.121094 2.746094 6.121094 6.125v160.019532h-137.460937zm-20.351563 175.726563h139.199219v123.542968h-153.507813zm-16.046875 138.546874h155.246094v9.945313h-156.394531zm171.367188 29.53125c0 2.488282-2.101563 4.589844-4.589844 4.589844h-181.144531c-2.488282 0-4.589844-2.101562-4.589844-4.589844 0-2.484374 2.101562-4.585937 4.589844-4.585937h181.144531c2.488281 0 4.589844 2.097656 4.589844 4.585937zm117.46875-168.078124h139.203125l14.308594 123.542968h-153.511719zm0 138.546874h155.246093l1.152344 9.945313h-156.398437zm-15-294.363281v91.691407h-44.292969v-91.691407zm-84.015625-19.011719c0-3.484374 2.835937-6.316406 6.316406-6.316406h51.8125c3.480469 0 6.3125 2.832032 6.3125 6.316406v4.011719h-64.441406zm-19.570313 19.011719h44.292969v91.691407h-44.292969zm0 140.816407v-34.125h103.585938v34.125zm288.203125 187.667968h-181.144531c-2.488281 0-4.589844-2.101562-4.589844-4.589844 0-2.484374 2.101563-4.585937 4.589844-4.585937h181.144531c2.488282 0 4.589844 2.101563 4.589844 4.585937 0 2.488282-2.101562 4.589844-4.589844 4.589844zm0 0"></path></svg>