<svg height="512pt" viewBox="-32 0 512 512.00138" width="512pt" xmlns="http://www.w3.org/2000/svg"><path d="m445.722656 355.496094-44.003906-76.648438h22.164062c13.363282 0 21.738282-14.441406 15.074219-26.042968l-17.507812-30.492188c-2.0625-3.589844-6.644531-4.832031-10.238281-2.769531-3.589844 2.0625-4.832032 6.644531-2.769532 10.238281l17.507813 30.492188c.914062 1.59375-.226563 3.570312-2.066407 3.570312-6.5625 0-169.699218 0-177.304687 0-1.84375 0-2.984375-1.980469-2.066406-3.570312l49.996093-87.085938h81.445313l15.054687 26.226562c2.0625 3.59375 6.648438 4.832032 10.238282 2.769532 3.59375-2.0625 4.832031-6.644532 2.769531-10.238282l-10.765625-18.753906h22.492188c12.664062 0 20.601562-13.6875 14.289062-24.683594l-80.511719-140.230468c-6.332031-11.03125-22.242187-11.042969-28.578125 0l-80.511718 140.230468c-6.308594 10.984376 1.609374 24.683594 14.289062 24.683594h22.492188l-45.710938 79.613282c-6.652344 11.589843 1.699219 26.042968 15.078125 26.042968h22.164063l-44.007813 76.648438c-.238281.417968-.453125.839844-.65625 1.269531-.207031-.429687-.421875-.851563-.660156-1.269531l-44.007813-76.648438h22.164063c13.363281 0 21.738281-14.4375 15.078125-26.042968l-45.710938-79.613282h22.492188c12.664062 0 20.605468-13.6875 14.289062-24.683594l-80.507812-140.230468c-6.332032-11.03125-22.242188-11.042969-28.582032 0l-80.511718 140.230468c-6.304688 10.984376 1.613281 24.683594 14.289062 24.683594h22.496094l-45.710938 79.613282c-6.652343 11.589843 1.695313 26.042968 15.074219 26.042968h22.167969l-44.011719 76.648438c-6.914062 12.050781 1.773438 27.070312 15.675781 27.070312h66.429688v114.433594h-14.539062c-4.140626 0-7.5 3.359375-7.5 7.5 0 4.144531 3.359374 7.5 7.5 7.5h307.277343c4.144531 0 7.5-3.355469 7.5-7.5 0-4.140625-3.355469-7.5-7.5-7.5h-13.644531v-114.433594h66.425781c13.890625 0 22.597657-15.011718 15.671875-27.070312zm-191.003906-197.304688c-1.152344 0-1.851562-1.21875-1.28125-2.210937l80.511719-140.234375c.574219-1 1.988281-1 2.5625 0l80.511719 140.234375c.570312.996093-.132813 2.210937-1.28125 2.210937-2.261719 0-151.222657 0-161.023438 0zm-222.308594 0c-1.144531 0-1.851562-1.214844-1.277344-2.210937l80.511719-140.234375c.574219-1 1.984375-.996094 2.5625 0l80.511719 140.234375c.570312.996093-.132812 2.210937-1.28125 2.210937-12.546875 0-156.421875 0-161.027344 0zm-8.136718 105.65625c-1.839844 0-2.988282-1.976562-2.070313-3.574218l50-87.082032h81.441406l50 87.082032c.914063 1.597656-.226562 3.574218-2.070312 3.574218-12.476563 0-171.253907 0-177.300781 0zm-6.171876 103.71875c-2.363281 0-3.847656-2.539062-2.664062-4.601562l48.296875-84.117188h98.378906l48.296875 84.117188c1.179688 2.054687-.292968 4.601562-2.664062 4.601562-9.703125 0-183.074219 0-189.644532 0zm288.734376 129.433594h-165.519532v-37.527344c0-4.144531-3.355468-7.5-7.5-7.5-4.144531 0-7.5 3.355469-7.5 7.5v37.527344h-26.785156v-114.433594h26.785156v41.902344c0 4.144531 3.355469 7.5 7.5 7.5 4.144532 0 7.5-3.355469 7.5-7.5v-41.902344h66.429688c6.523437 0 12.371094-3.371094 15.640625-9.019531.253906-.433594.480469-.875.691406-1.324219.210937.449219.4375.890625.6875 1.324219 3.273437 5.648437 9.117187 9.019531 15.644531 9.019531h66.425782zm41.785156 0h-26.78125v-114.433594h26.78125zm-108.210938-129.433594c-2.371094 0-3.847656-2.542968-2.664062-4.601562l48.292968-84.117188h98.382813l48.292969 84.117188c1.179687 2.054687-.289063 4.601562-2.664063 4.601562-6.601562 0-179.964843 0-189.640625 0zm0 0"></path></svg>