<svg height="511pt" viewBox="0 -77 511.998 511" width="511pt" xmlns="http://www.w3.org/2000/svg"><path d="m185.859375 14.894531 17.871094 7.667969c3.8125 1.640625 8.21875-.132812 9.851562-3.933594 1.632813-3.804687-.128906-8.214844-3.9375-9.847656l-17.867187-7.671875c-3.808594-1.632813-8.21875.125-9.851563 3.933594-1.636719 3.808593.125 8.21875 3.933594 9.851562zm0 0"></path><path d="m105.929688 36.660156 26.71875 11.46875c3.808593 1.632813 8.21875-.128906 9.851562-3.933594 1.636719-3.808593-.125-8.21875-3.933594-9.851562l-26.71875-11.46875c-3.808594-1.632812-8.214844.128906-9.851562 3.933594-1.632813 3.808594.128906 8.214844 3.933594 9.851562zm0 0"></path><path d="m60.097656 83.53125 26.71875 11.46875c3.8125 1.640625 8.21875-.132812 9.851563-3.933594 1.632812-3.804687-.128907-8.214844-3.933594-9.847656l-26.71875-11.472656c-3.808594-1.632813-8.21875.128906-9.851563 3.9375-1.636718 3.804687.125 8.214844 3.933594 9.847656zm0 0"></path><path d="m50.75 146.066406 14.289062 6.136719c3.808594 1.632813 8.21875-.128906 9.851563-3.933594 1.636719-3.808593-.125-8.21875-3.933594-9.851562l-14.289062-6.136719c-3.808594-1.632812-8.21875.128906-9.851563 3.9375-1.636718 3.804688.125 8.214844 3.933594 9.847656zm0 0"></path><path d="m436.339844 230.929688c.492187-5.496094.734375-10.917969.734375-16.121094 0-98.992188-81.414063-184.972656-188.261719-180.921875-105.265625 3.988281-182.292969 95.722656-173.367188 197.097656-35.824218 9.410156-75.445312 25.578125-75.445312 51.066406 0 25.554688 39.390625 42.757813 72.4375 52.6875 44.703125 13.4375 103.621094 21.546875 165.90625 22.84375 4.167969.09375 7.570312-3.203125 7.65625-7.34375s-3.203125-7.566406-7.34375-7.65625c-135.476562-2.816406-223.65625-36.921875-223.65625-60.53125 0-5.824219 6.742188-13.882812 23.511719-22.148437-2.019531 3.378906-3.039063 6.898437-3.039063 10.5625 0 57.605468 224.691406 59.113281 286.558594 54.484375 39.527344-2.953125 154.492188-15.25 154.492188-54.484375 0-3.664063-1.015626-7.1875-3.039063-10.566406 16.769531 8.269531 23.511719 16.328124 23.511719 22.15625 0 23.421874-87.445313 57.695312-223.652344 60.53125-4.140625.085937-7.429688 3.511718-7.34375 7.65625.085938 4.085937 3.425781 7.34375 7.496094 7.34375.054687 0 .105468 0 .160156-.003907 116.128906-2.414062 238.339844-30.820312 238.339844-75.527343.003906-25.535157-39.734375-41.714844-75.65625-51.125zm-307.199219-123.199219c8.195313 4.730469 4.894531 2.828125 16.097656 9.292969v20.953124l-18.144531 10.476563c-11.132812-6.425781-7.015625-4.046875-18.144531-10.476563v-.007812c5.507812-10.527344 12.238281-20.722656 20.191406-30.238281zm118.6875-58.777344v.183594l-18.148437 10.476562-11.496094-6.636719c10.160156-2.324218 19.8125-3.5625 29.644531-4.023437zm44.886719 3.878906-11.742188 6.777344-18.144531-10.476563v-.246093c10.367187.410156 20.222656 1.757812 29.886719 3.945312zm126.988281 133.984375c-7.328125 4.230469-3.15625 1.820313-10.496094 6.058594l-18.144531-10.476562v-20.953126l18.144531-10.476562.128907.074219c4.800781 11.503906 8.261718 23.382812 10.367187 35.773437zm-208.167969 124.441406v-16.546874c11.128906-6.425782 7.015625-4.050782 18.144532-10.476563 11.128906 6.421875 7.011718 4.046875 18.148437 10.476563v17.59375c-12.105469-.136719-22.738281-.375-36.292969-1.046876zm-119.378906-123.746093c2.117188-12.285157 5.605469-24.324219 10.410156-35.898438 9.472656 5.472657 5.855469 3.382813 17.027344 9.832031v20.953126l-18.148438 10.476562-.230468-.132812zm163.171875 94.207031c-11.132813-6.425781-7.015625-4.050781-18.148437-10.476562v-20.953126c11.132812-6.425781 7.015624-4.050781 18.148437-10.476562 11.128906 6.425781 7.007813 4.046875 18.144531 10.476562v20.953126c-11.125 6.425781-7.007812 4.046874-18.144531 10.476562zm-51.292969 0c-11.132812-6.425781-7.015625-4.050781-18.148437-10.476562v-20.953126c11.132812-6.425781 7.015625-4.050781 18.148437-10.476562 11.128906 6.425781 7.007813 4.046875 18.144532 10.476562v20.953126c-11.128907 6.425781-7.007813 4.046874-18.144532 10.476562zm-93.992187 12.359375c10.789062-6.230469 7.253906-4.1875 17.050781-9.84375 11.128906 6.421875 7.007812 4.046875 18.144531 10.476563v10.359374c-11.472656-1.644531-22.246093-3.542968-32.148437-5.664062-1.101563-1.847656-2.261719-3.886719-3.046875-5.328125zm311.359375-64.546875-4.695313-2.710938v-20.953124l4.941407-2.851563c.648437 9.125.527343 17.78125-.246094 26.515625zm-2.210938 16.042969c-2.28125 12.128906-5.855468 23.878906-10.941406 35.589843l-17.1875-9.921874v-20.953126c11.128906-6.429687 7.015625-4.050781 18.144531-10.476562 3.992188 2.300781 6.003907 3.464844 9.984375 5.761719zm-17.484375-39.707031v20.953124c-11.128906 6.425782-7.011719 4.046876-18.148437 10.476563-11.128906-6.425781-7.015625-4.050781-18.144532-10.476563v-20.953124l18.144532-10.476563c11.128906 6.425781 7.011718 4.046875 18.148437 10.476563zm-69.441406 31.429687c-11.128906-6.425781-7.015625-4.050781-18.144531-10.476563v-20.953124c11.128906-6.425782 7.015625-4.050782 18.144531-10.476563 11.128906 6.425781 7.011719 4.046875 18.148437 10.476563v20.953124c-11.128906 6.425782-7.011718 4.046876-18.148437 10.476563zm-51.292969 0c-11.128906-6.425781-7.015625-4.050781-18.144531-10.476563v-20.953124l18.144531-10.476563 18.148438 10.476563v20.953124c-11.128906 6.425782-7.011719 4.046876-18.148438 10.476563zm-51.292968 0c-11.128907-6.425781-7.015626-4.050781-18.144532-10.476563v-20.953124c11.128906-6.425782 7.015625-4.050782 18.144532-10.476563 11.128906 6.425781 7.011718 4.046875 18.148437 10.476563v20.953124c-11.128906 6.425782-7.011719 4.046876-18.148437 10.476563zm-51.292969 0c-11.128907-6.425781-7.015625-4.050781-18.144531-10.476563v-20.953124c11.128906-6.425782 7.015624-4.050782 18.144531-10.476563 11.128906 6.425781 7.011719 4.046875 18.148437 10.476563v20.953124c-11.128906 6.425782-7.011718 4.046876-18.148437 10.476563zm-85.914063 7.699219c1.398438-.808594 8.214844-4.746094 8.976563-5.183594 7.25 4.183594 11.355469 6.554688 18.144531 10.476562v20.953126l-16.175781 9.339843c-4.886719-11.222656-8.617188-23.03125-10.945313-35.585937zm34.621094-7.699219-18.144531-10.476563v-20.953124l18.144531-10.476563c11.125 6.425781 7.007812 4.046875 18.144531 10.476563v20.953124c-11.125 6.425782-7.007812 4.046876-18.144531 10.476563zm161.382812-164.691406 18.144532-10.476563 18.148437 10.476563v20.953125c-11.128906 6.421875-7.011719 4.046875-18.148437 10.476562-11.128906-6.429687-7.015625-4.050781-18.144532-10.476562zm-58.796874 33.941406c11.128906 6.425781 7.011718 4.046875 18.148437 10.476563v20.953124c-11.128906 6.425782-7.011719 4.050782-18.148437 10.476563-11.128907-6.425781-7.015626-4.046875-18.144532-10.476563v-20.953124c11.128906-6.425782 7.015625-4.050782 18.144532-10.476563zm51.292968 0c11.128906 6.425781 7.011719 4.046875 18.148438 10.476563v20.953124l-18.148438 10.476563-18.144531-10.476563v-20.953124c11.128906-6.425782 7.015625-4.050782 18.144531-10.476563zm7.503906 54.898437 18.144532-10.476562 18.148437 10.476562v20.953126l-18.148437 10.476562-18.144532-10.476562zm-102.589843 0 18.148437-10.476562 18.144532 10.476562v20.953126l-18.144532 10.476562-18.148437-10.476562zm51.292969 20.953126v-20.953126c11.132812-6.425781 7.015624-4.050781 18.148437-10.476562 11.128906 6.425781 7.007813 4.046875 18.144531 10.476562v20.953126c-11.125 6.425781-7.007812 4.046874-18.144531 10.476562-11.132813-6.425781-7.015625-4.050781-18.148437-10.476562zm95.085937-33.945313c-11.128906-6.425781-7.015625-4.046875-18.144531-10.476563v-20.953124c11.804687-6.8125 8.3125-4.796876 18.144531-10.476563l18.148437 10.476563v20.953124c-11.128906 6.425782-7.011718 4.050782-18.148437 10.476563zm-58.792969-54.894531c-11.125 6.421875-7.007812 4.046875-18.144531 10.476562-11.132813-6.429687-7.015625-4.050781-18.148437-10.476562v-20.953125l18.148437-10.476563 18.144531 10.476563zm-51.292968 0c-11.128907 6.421875-7.007813 4.046875-18.144532 10.476562-11.132812-6.429687-7.015625-4.050781-18.148437-10.476562v-20.953125l18.148437-10.476563 18.144532 10.476563zm-61.9375 44.417968v-20.949218l18.144531-10.480469c9.824219 5.671875 6.3125 3.644531 18.144531 10.480469v20.953125c-11.125 6.421875-7.007812 4.046875-18.144531 10.476562-11.128907-6.429687-7.015625-4.050781-18.144531-10.480469zm215.820312 23.46875v20.953126c-11.128906 6.425781-7.011719 4.046874-18.148438 10.476562-11.128906-6.425781-7.015624-4.050781-18.144531-10.476562v-20.953126c11.136719-6.429687 7.015625-4.050781 18.144531-10.476562 2.769532 1.597656 15.375 8.878906 18.148438 10.476562zm-205.175781-88.839843v20.953125l-18.144531 10.476562-13.21875-7.632812c9.328124-9.289063 19.648437-17.375 30.796874-24.125zm-18.144531 78.363281c11.136718 6.433594 7.015624 4.050781 18.144531 10.476562v20.953126c-11.128907 6.425781-7.007813 4.046874-18.144531 10.476562-11.132813-6.425781-7.015626-4.050781-18.148438-10.476562v-20.953126c2.773438-1.597656 15.378906-8.878906 18.148438-10.476562zm-58.796876 75.851562-3.628906 2.097657c-.699218-8.375-.742187-16.804688-.136718-25.226563l3.765624 2.175782zm58.796876 54.898438c-11.132813-6.425781-7.015626-4.050781-18.148438-10.476562v-20.953126c11.132812-6.425781 7.015625-4.050781 18.148438-10.476562 11.125 6.425781 7.007812 4.046875 18.144531 10.476562v20.953126c-11.128907 6.425781-7.007813 4.046874-18.144531 10.476562zm135.734374-10.476562v-20.953126c11.128907-6.425781 7.015626-4.050781 18.144532-10.476562 11.128906 6.425781 7.011718 4.046875 18.148437 10.476562v20.953126c-11.128906 6.425781-7.011719 4.046874-18.148437 10.476562-11.132813-6.425781-7.015625-4.050781-18.144532-10.476562zm25.644532 23.46875c11.128906-6.425782 7.015625-4.050782 18.144531-10.476563 11.128906 6.421875 7.011719 4.046875 18.148437 10.476563v12.476562c-11.636718 1.351562-23.792968 2.449219-36.292968 3.277344zm43.792968-12.992188c-11.128906-6.425781-7.015624-4.050781-18.144531-10.476562v-20.953126c11.128907-6.425781 7.015625-4.050781 18.144531-10.476562 11.128907 6.425781 7.007813 4.046875 18.148438 10.476562v20.953126c-11.128906 6.425781-7.011719 4.046874-18.148438 10.476562zm13.964844-185.746094-13.964844 8.0625-18.144531-10.476562v-20.953125l.972657-.5625c11.316406 6.738281 21.761718 14.785156 31.136718 23.929687zm-211.636718 198.738282c11.128906-6.425782 7.015624-4.050782 18.144531-10.476563 11.128906 6.421875 7.011719 4.046875 18.148437 10.476563v15.664062c-12.507812-.847656-24.664062-1.96875-36.292968-3.347656zm102.585937 0c11.128906-6.425782 7.015625-4.050782 18.144531-10.476563 11.128906 6.421875 7.011719 4.046875 18.148438 10.476563v16.609374c-11.738282.566407-24.203125.914063-36.292969.996094zm102.585937 0c11.132813-6.425782 7.015626-4.050782 18.148438-10.476563 5.691406 3.285156 2.84375 1.640625 18.066406 10.429687-1.085937 1.976563-2.058594 3.640626-2.710937 4.746094-10.285157 2.203125-21.511719 4.164063-33.503907 5.851563zm36.292969-156.734376c-11.128906 6.425782-7.011719 4.050782-18.144531 10.476563l-18.148438-10.476563v-20.949218l16.984376-9.808594c7.34375 8.613281 13.824218 17.980469 19.308593 27.972656zm-351.230469 132.488282c0-4.390625 7.480469-11.800782 27.898438-19.296875 3.160156 15.367187 8.367188 30.054687 14.996094 43.414062-33.410156-9.386719-42.894532-19.277343-42.894532-24.117187zm368.117188 24.128906c6.550781-13.300781 11.683594-27.941406 14.835938-43.496094 20.5625 7.515625 28.09375 14.957032 28.09375 19.367188 0 4.851562-9.496094 14.738281-42.929688 24.128906zm0 0"></path></svg>