<svg height="511.999pt" viewBox="1 1 511.999 511.999" width="511.999pt" xmlns="http://www.w3.org/2000/svg"><path d="m495.148438 278.492188c-61.191407 4.328124-121.296876 17.386718-178.644532 38.808593-18.332031 6.84375-37.421875 12.265625-56.773437 16.15625-49.121094-17.269531-100.34375-26.601562-152.507813-27.789062v-179.140625l102.550782-42.308594c9.160156-3.777344 9.144531-16.070312.003906-19.84375l-102.554688-42.308594c0-13.816406-10.007812-22.066406-20.804687-22.066406-11.476563 0-20.808594 9.332031-20.808594 20.800781v284.703125h-44.804687c-11.472657-.003906-20.804688 9.328125-20.804688 20.796875v165.785157c0 10.980468 8.9375 19.914062 19.917969 19.914062h218.582031c4.140625 0 7.5-3.359375 7.5-7.5 0-4.144531-3.359375-7.5-7.5-7.5h-218.582031c-2.710938 0-4.917969-2.203125-4.917969-4.914062v-165.785157c0-3.195312 2.605469-5.796875 5.808594-5.796875h44.800781v98.707032c-4.117187 3.964843-5.085937 8.027343-5.085937 10.96875 0 31.40625 105.746093 31.585937 105.746093 0 0-19.503907-37.351562-24.46875-59.046875-23.480469v-86.035157c134.308594 3.15625 158.902344 49.042969 261.015625 49.042969h125.394531c1.855469 0 3.367188 1.507813 3.367188 3.359375v31.488282h-221.867188c-14.136718 0-25.632812 11.496093-25.632812 25.621093 0 14.128907 11.496094 25.621094 25.632812 25.621094h221.867188v33.628906c0 4.175781-3.402344 7.570313-7.582031 7.570313h-215.917969c-4.144531 0-7.5 3.359375-7.5 7.5 0 4.144531 3.355469 7.5 7.5 7.5h215.917969c12.453125 0 22.582031-10.125 22.582031-22.570313 0-5.746093 0-142.097656 0-147.921875 0-4.140625-3.359375-7.5-7.5-7.5-4.144531 0-7.5 3.359375-7.5 7.5v13.507813c-1.074219-.195313-2.316406-.308594-3.367188-.308594-138.46875 0-157.902343 2.824219-207.289062-12.054687 41.644531-11.117188 100.96875-41.488282 209.863281-49.195313.410157-.039063.792969.269531.792969.695313v12.355468c0 4.140625 3.355469 7.5 7.5 7.5 4.140625 0 7.5-3.359375 7.5-7.5v-12.355468c0-9.160157-7.832031-16.3125-16.851562-15.65625zm-387.925782-240.199219 87.269532 36.003906-87.269532 36zm-15 398.503906c-4.550781-.941406-8.542968-2.167969-11.613281-3.582031 0-2.726563 0-409.695313 0-412.414063 0-3.199219 2.605469-5.800781 5.808594-5.800781s5.804687 2.601562 5.804687 5.800781zm58.777344-6.617187c-3.195312 3.601562-19.582031 9.710937-43.777344 8.46875v-16.941407c23.613282-1.210937 40.394532 4.652344 43.777344 8.472657zm346 10.617187h-221.867188c-5.863281 0-10.632812-4.761719-10.632812-10.617187 0-5.855469 4.769531-10.621094 10.632812-10.621094h221.867188zm0 0"></path></svg>