<svg height="512pt" viewBox="-83 0 512 512.001" width="512pt" xmlns="http://www.w3.org/2000/svg"><path d="m197.441406 372.417969c-29.648437-21.703125-70.4375 3.578125-64.886718 39.449219 3.488281 22.511718 24.535156 37.78125 46.898437 34.324218 36.046875-5.582031 47.449219-52.207031 17.988281-73.773437zm-3.214844 48.574219c-13.683593 18.695312-43.304687 11.476562-46.847656-11.417969-3.5625-23.019531 22.554688-38.695313 41.199219-25.050781 11.613281 8.5 14.144531 24.859374 5.648437 36.46875zm0 0"></path><path d="m164.765625 404.105469c-4.59375-.945313-8.960937 2.59375-8.960937 7.351562 0 4.144531 3.367187 7.5 7.5 7.5 4.15625 0 7.488281-3.378906 7.488281-7.5 0-3.648437-2.644531-6.714843-6.027344-7.351562zm0 0"></path><path d="m183.953125 404.226562c-4.480469-.925781-8.96875 2.523438-8.96875 7.351563 0 4.035156 3.253906 7.5 7.5 7.5 3.6875 0 6.722656-2.691406 7.351563-6.03125.8125-3.957031-1.707032-7.953125-5.882813-8.820313zm0 0"></path><path d="m181.746094 394.246094c0-8.039063-11.175782-10.542969-14.421875-2.871094-.785157 1.910156-.734375 4.003906 0 5.742188 1.257812 2.976562 4.023437 4.628906 6.921875 4.628906 4.132812 0 7.5-3.339844 7.5-7.5zm0 0"></path><path d="m173.167969 356.007812c4.140625 0 7.5-3.359374 7.5-7.5v-178.34375c0-4.144531-3.359375-7.503906-7.5-7.503906-4.144531 0-7.5 3.359375-7.5 7.503906v178.34375c0 4.140626 3.355469 7.5 7.5 7.5zm0 0"></path><path d="m127.542969 109.234375c0 17.117187 9.453125 32.648437 24.675781 40.53125 3.675781 1.902344 8.203125.464844 10.109375-3.214844 1.902344-3.675781.464844-8.203125-3.214844-10.109375-10.222656-5.292968-16.570312-15.71875-16.570312-27.207031 0-16.886719 13.738281-30.621094 30.625-30.621094s30.625 13.734375 30.625 30.621094c0 11.488281-6.351563 21.914063-16.574219 27.207031-3.679688 1.90625-5.113281 6.433594-3.210938 10.109375 1.898438 3.671875 6.417969 5.121094 10.109376 3.214844 15.21875-7.882813 24.675781-23.410156 24.675781-40.53125 0-25.15625-20.46875-45.625-45.625-45.625-25.160157 0-45.625 20.46875-45.625 45.625zm0 0"></path><path d="m338.835938 246c4.140624 0 7.5-3.359375 7.5-7.5v-203.023438c0-19.5625-15.917969-35.476562-35.480469-35.476562h-275.570313c-20.234375 0-35.285156 16.644531-35.285156 35.476562v441.046876c0 19.222656 15.503906 35.476562 35.671875 35.476562h275.378906c19.113281 0 35.28125-15.277344 35.28125-35.476562v-203.023438c0-4.140625-3.355469-7.5-7.5-7.5-4.140625 0-7.5 3.359375-7.5 7.5v203.023438c0 2.277343-.386719 4.460937-1.078125 6.507812l-13.542968-11.746094v-430.8125l13.605468-11.335937c.652344 2 1.015625 4.125 1.015625 6.339843v203.023438c0 4.140625 3.359375 7.5 7.503907 7.5zm-323.835938 230.523438v-441.046876c0-2.277343.390625-4.460937 1.078125-6.507812l13.546875 11.746094v430.808594l-13.605469 11.339843c-.652343-2-1.019531-4.125-1.019531-6.339843zm305.609375 18c-2.898437 1.578124-6.222656 2.476562-9.753906 2.476562h-275.183594c-3.410156 0-6.921875-.875-10.027344-2.628906l14.390625-11.992188h266.570313zm-147.441406-438.367188c4.140625 0 7.5-3.359375 7.5-7.5v-4.03125h121.042969v422.75h-121.042969v-4.03125c0-4.140625-3.359375-7.5-7.5-7.5-4.144531 0-7.5 3.359375-7.5 7.5v4.03125h-121.042969v-422.75h121.042969v4.03125c0 4.140625 3.355469 7.5 7.5 7.5zm133.132812-26.535156h-266.570312l-14.007813-12.144532c2.902344-1.578124 6.226563-2.476562 9.757813-2.476562h275.183593c3.414063 0 6.921876.875 10.027344 2.628906zm0 0"></path></svg>