<svg height="512pt" viewBox="0 -107 512 512" width="512pt" xmlns="http://www.w3.org/2000/svg"><path d="m494.929688 254.695312h-84.101563v-37.949218c0-10.136719.234375-19.070313-1.769531-32.84375-11.835938-81.339844-82.789063-147.433594-174.042969-157.300782v-3.15625c0-12.925781-10.515625-23.445312-23.445313-23.445312-12.929687 0-23.445312 10.519531-23.445312 23.445312v3.140626c-91.460938 9.835937-166.695312 77.472656-175.054688 165.742187-7.339843.800781-13.070312 7.035156-13.070312 14.585937v19.664063c0 7.289063 5.34375 13.335937 12.3125 14.46875v39.398437c0 9.414063 7.65625 17.070313 17.070312 17.070313h164.6875c4.140626 0 7.5-3.359375 7.5-7.5 0-4.144531-3.359374-7.5-7.5-7.5h-164.6875c-1.121093 0-2.066406-.949219-2.066406-2.070313v-10.75h467.617188c1.121094 0 2.066406.945313 2.066406 2.066407v8.683593c0 1.121094-.945312 2.070313-2.066406 2.070313h-265.863282c-4.140624 0-7.5 3.355469-7.5 7.5 0 4.140625 3.359376 7.5 7.5 7.5h265.863282c9.410156 0 17.066406-7.65625 17.066406-17.070313v-8.683593c0-9.410157-7.65625-17.066407-17.070312-17.066407zm-291.804688-231.25c0-4.65625 3.789062-8.445312 8.445312-8.445312s8.445313 3.789062 8.445313 8.445312v2.050782c-5.636719-.21875-11.664063-.203125-16.890625 0zm-146.515625 231.25h-29.292969v-13.441406h29.292969zm0-28.441406c-24.054687 0-27.535156 0-41.609375 0v-19.015625h41.609375zm0-34.019531h-28.457031c.453125-4.347656 1.097656-8.695313 1.921875-13.007813h22.035156c2.4375 0 4.5 2.058594 4.5 4.5zm54.171875 16.003906v46.457031h-39.171875v-13.441406h14.824219c8.097656 0 14.679687-6.585937 14.679687-14.675781v-19.667969c0-8.085937-6.582031-14.675781-14.679687-14.675781h-14.824219v-8.507813c0-10.753906-8.746094-19.503906-19.5-19.503906h-18.421875c17.167969-58.085937 67.457031-103.304687 131.03125-118.433594-26.25 24.734376-53.9375 80.339844-53.9375 162.449219zm-39.171875 18.015625v-19.015625h14.5v19.015625zm324.21875 28.441406h-83.46875v-37.457031c0-4.144531-3.359375-7.5-7.5-7.5-4.144531 0-7.503906 3.355469-7.503906 7.5v37.457031h-171.570313v-46.457031c0-91.558593 38.855469-167.90625 85.785156-167.90625 41.917969 0 78.367188 61.257813 84.789063 142.492188.324219 4.132812 3.9375 7.203125 8.066406 6.886719 4.128907-.324219 7.210938-3.9375 6.886719-8.066407-4.765625-60.300781-24.953125-109.582031-52.855469-135.796875 67.5 16.195313 119.972657 66.5 133.785157 129.378906h-39.234376c-9.414062 0-17.070312 7.65625-17.070312 17.066407v14.886719c0 9.410156 7.65625 17.066406 17.070312 17.066406h42.816407v30.449218zm0-45.449218h-42.820313c-1.121093 0-2.066406-.945313-2.066406-2.066406v-14.886719c0-1.121094.945313-2.066407 2.066406-2.066407h41.757813c.839844 7.421876 1.0625 12.761719 1.0625 19.019532zm0 0"></path></svg>