<svg height="512pt" viewBox="0 -18 512.00451 512" width="512pt" xmlns="http://www.w3.org/2000/svg"><path d="m303.074219 255.777344-35.839844-35.839844c-7.414063-7.414062-19.476563-7.410156-26.886719 0-7.347656 7.347656-39.507812 39.507812-44.207031 44.207031-7.410156 7.414063-7.410156 19.472657 0 26.886719l35.84375 35.839844c7.410156 7.410156 19.472656 7.410156 26.886719 0 4.886718-4.886719 38.992187-38.996094 44.203125-44.207032 7.453125-7.449218 7.367187-19.519531 0-26.886718zm-54.8125 60.484375c-1.539063 1.539062-4.136719 1.539062-5.671875 0l-35.839844-35.839844c-1.539062-1.535156-1.539062-4.136719 0-5.671875l17.105469-17.105469c.71875 1.113281 1.554687 2.171875 2.53125 3.144531l35.835937 35.835938c.976563.976562 2.03125 1.8125 3.144532 2.53125zm44.207031-44.203125-13.964844 13.960937c-1.535156 1.539063-4.136718 1.539063-5.671875 0l-35.839843-35.839843c-1.539063-1.535157-1.539063-4.136719 0-5.671876l13.960937-13.964843c1.539063-1.535157 4.140625-1.535157 5.675781 0l35.839844 35.839843c1.546875 1.546876 1.550781 4.125 0 5.675782zm0 0"></path><path d="m268.945312 251.894531c-2.929687-2.933593-7.675781-2.933593-10.605468-.003906-2.929688 2.929687-2.929688 7.675781 0 10.605469l2.175781 2.175781c1.464844 1.464844 3.382813 2.199219 5.304687 2.199219 1.917969 0 3.835938-.730469 5.300782-2.195313 2.929687-2.929687 2.929687-7.675781.003906-10.605469zm0 0"></path><path d="m482.136719 112.441406c-7.414063-7.414062-19.472657-7.414062-26.886719 0-17.878906 17.878906-32.890625 32.890625-50.074219 50.074219l-15.953125-15.949219c73.535156-73.535156 55.011719-55.015625 78.429688-78.421875 9.363281-9.363281 11.324218-23.933593 4.761718-35.4375l-11.84375-20.765625c-6.910156-12.109375-22.78125-15.65625-34.1875-7.628906-9.957031 7.003906-13.089843 20.359375-7.289062 31.058594 15.214844 28.070312 14.941406 25.574218 15.457031 44.652344l-55.933593 55.933593-16.542969-16.539062c37.972656-37.972657 23.695312-23.695313 48.582031-48.578125 9.367188-9.359375 11.324219-23.929688 4.765625-35.433594l-11.847656-20.765625c-6.910157-12.113281-22.777344-15.65625-34.1875-7.632813-9.953125 7.003907-13.089844 20.359376-7.289063 31.0625 15.226563 28.09375 14.941406 25.542969 15.457032 44.648438l-26.085938 26.089844-6.226562-6.226563c-8.722657-8.722656-22.914063-8.71875-31.636719 0-7.515625 7.515625-124.945313 124.945313-132.210938 132.214844-7.742187 7.742187-19.070312 10.636719-29.558593 7.558594-35.007813-10.277344-72.683594-.738281-98.316407 24.894531-26.683593 26.683594-42.171875 38.578125-50.195312 69.144531-8.878907 33.539063.144531 70.15625 25.660156 95.675781 5.628906 5.628907 9.753906 9.753907 15.488281 15.488282 38.601563 38.597656 101.527344 38.753906 140.285156 0 4.957032-4.957032 103.210938-103.214844 108.164063-108.164063 2.929687-2.929687 2.929687-7.679687 0-10.605469-2.929687-2.929687-7.679687-2.929687-10.609375 0l-35.871094 35.871094-52.46875-52.46875c-10.96875-10.964844-28.808594-10.964844-39.777344 0l-111.933593 111.9375c-17.582031-17.585937-27.214844-37.332031-27.214844-62.203125 0-11.296875 2.1875-22.410156 6.542969-32.753906 7.699218-18.355469 15.21875-23.996094 42.539062-51.3125 21.753906-21.753906 53.742188-29.84375 83.484375-21.109375 15.757813 4.625 32.765625.277344 44.390625-11.34375l42.535156-42.535156c11.949219-11.910156 31.355469-11.902344 43.289063.03125l15.445313 15.445312c2.929687 2.929688 7.675781 2.929688 10.605468 0 2.929688-2.929687 2.929688-7.675781 0-10.605468l-15.445312-15.449219c-8.328125-8.324219-19.105469-12.753907-30.035156-13.285157l65.816406-65.816406c2.875-2.875 7.550781-2.871094 10.421875 0l76.878906 76.878906c2.625 2.625 2.625 6.894532 0 9.519532l-57.894531 57.894531-24.996094-24.992187c-2.925781-2.929688-7.675781-2.929688-10.605469 0-2.925781 2.929687-2.925781 7.675781.003907 10.605468l24.992187 24.992188-35.949219 35.953125c-2.929687 2.929687-2.929687 7.675781 0 10.605469 2.929688 2.925781 7.675782 2.925781 10.605469 0l104.453125-104.453126c8.488281-8.492187 8.492188-22.238281 0-30.730468l-6.34375-6.339844 29.753906-29.753906 27.144532 27.140625c7.417968 7.414062 19.476562 7.414062 26.890624 0l6.875-6.875c7.410157-7.414063 7.414063-19.472657 0-26.886719zm-49.855469-84.214844c-2.175781-4.015624-1-9.019531 2.734375-11.648437 4.175781-2.9375 9.980469-1.660156 12.523437 2.796875l11.847657 20.765625c3.21875 5.648437 2.257812 12.796875-2.339844 17.394531l-8.25 8.246094c-1.726563-11.878906-5.433594-17.105469-16.515625-37.554688zm-56.996094 2.699219c-2.171875-4.015625-1-9.019531 2.734375-11.648437 4.214844-2.960938 10.003907-1.621094 12.523438 2.796875l11.847656 20.765625c3.222656 5.648437 2.261719 12.796875-2.335937 17.394531l-8.25 8.246094c-1.726563-11.878907-5.445313-17.125-16.519532-37.554688zm-210.480468 291.875c5.117187-5.121093 13.445312-5.121093 18.5625 0l52.46875 52.46875-61.683594 61.683594c-30.816406 30.816406-83.460938 35.605469-121.285156-2.214844zm331.03125-169.773437-6.875 6.878906c-1.546876 1.546875-4.125 1.550781-5.675782 0l-27.144531-27.144531 9.714844-9.714844c1.546875-1.546875 4.125-1.550781 5.671875 0l24.308594 24.308594c1.546874 1.546875 1.550781 4.125 0 5.671875zm0 0"></path></svg>