<svg height="511pt" viewBox="-98 0 511 511.99983" width="511pt" xmlns="http://www.w3.org/2000/svg"><path d="m244.226562 448.53125c-.027343 0-.054687 0-.078124 0l-17.414063.066406c-4.625.046875-9.304687-1.074218-13.457031-3.164062h-.003906l-4.550782-2.285156-47.085937-182.65625c15.359375-7.34375 20-26.964844 9.585937-40.40625l-15.839844-20.445313c-2.535156-3.277344-7.246093-3.875-10.519531-1.335937-3.273437 2.535156-3.875 7.246093-1.335937 10.519531l15.835937 20.445312c3.945313 5.09375 3.011719 12.441407-2.078125 16.386719-5.089844 3.941406-12.441406 3.011719-16.386718-2.082031l-54.105469-69.84375c-1.191407-1.539063-1.984375-3.367188-2.292969-5.257813l-.027344-.1875c-.535156-3.378906-3.285156-5.96875-6.691406-6.296875-3.402344-.324219-6.59375 1.6875-7.765625 4.898438l-28.167969 77.308593c-.898437 2.476563-.4375 5.242188 1.21875 7.285157l63.527344 78.5c2.609375 3.222656 7.335938 3.714843 10.546875 1.109375 3.222656-2.601563 3.71875-7.328125 1.113281-10.546875l-60.859375-75.199219 21.082031-57.855469 50.5625 65.273438c4.5 5.8125 10.945313 9.25 17.71875 10.113281 57.171876 221.773438 44.660157 175.285156 54.886719 209.253906 3.164063 10.5 12.898438 17.699219 23.816407 17.699219.210937 0 .425781-.003906.636718-.007813l18.902344-.488281c11.953125-.304687 21.0625-10.855469 19.625-22.722656-1.246094-10.320313-10.007812-18.078125-20.398438-18.078125zm.390626 25.808594-18.902344.484375c-4.417969.09375-8.421875-2.769531-9.703125-7.019531l-1.796875-5.964844c4.027344 1.160156 8.214844 1.757812 12.402344 1.757812h.175781l17.410156-.066406h.023437c2.804688 0 5.171876 2.09375 5.511719 4.882812.371094 3.097657-1.996093 5.84375-5.121093 5.925782zm0 0"></path><path d="m291.851562 440.816406c-13.511718 0-24.503906 10.996094-24.503906 24.507813s10.992188 24.503906 24.503906 24.503906c13.511719 0 24.507813-10.992187 24.507813-24.503906s-10.996094-24.507813-24.507813-24.507813zm0 34.011719c-5.238281 0-9.503906-4.261719-9.503906-9.503906 0-5.242188 4.265625-9.503907 9.503906-9.503907 5.242188 0 9.503907 4.261719 9.503907 9.503907 0 5.242187-4.261719 9.503906-9.503907 9.503906zm0 0"></path><path d="m116.636719 70.976562c19.566406 0 35.488281-15.921874 35.488281-35.488281 0-19.570312-15.921875-35.488281-35.488281-35.488281-19.570313 0-35.488281 15.917969-35.488281 35.488281 0 19.566407 15.917968 35.488281 35.488281 35.488281zm0-55.976562c11.296875 0 20.484375 9.191406 20.484375 20.488281s-9.1875 20.484375-20.484375 20.484375-20.488281-9.1875-20.488281-20.484375 9.191406-20.488281 20.488281-20.488281zm0 0"></path><path d="m123.148438 352.90625c-4.074219-.808594-8.011719 1.835938-8.816407 5.898438l-25.539062 128.78125c-1.234375 6.222656-7.304688 10.457031-13.730469 9.183593-3.058594-.605469-5.699219-2.367187-7.433594-4.960937-3.097656-4.628906-1.808594-8.480469-.820312-13.46875l24.867187-125.371094c.433594-2.1875-.125-4.449219-1.527343-6.179688-2.167969-2.679687-51.019532-63.042968-72.066407-89.046874-2.5625-3.167969-3.289062-7.515626-1.894531-11.34375l57.058594-156.617188c4.105468-11.277344 20.585937-9.6875 22.503906 2.128906l11.023438 67.980469c.199218 1.238281.707031 2.402344 1.472656 3.394531l13.839844 17.863282c2.535156 3.277343 7.25 3.875 10.523437 1.339843 3.273437-2.539062 3.875-7.25 1.335937-10.523437l-12.671874-16.359375-10.71875-66.097657c-4.382813-27.015624-42.027344-30.601562-51.402344-4.859374l-57.054688 156.613281c-3.1875 8.75-1.53125 18.679687 4.328125 25.917969l3.554688 4.398437 46.890625 83.625-46.09375 120.582031c-5.253906 13.742188 1.652344 29.195313 15.398437 34.449219 10.949219 4.183594 23.148438.703125 30.339844-8.246094 3.921875 4.914063 9.390625 8.257813 15.628906 9.496094 14.59375 2.894531 28.53125-6.714844 31.359375-20.980469l25.542969-128.78125c.804687-4.0625-1.835937-8.007812-5.898437-8.816406zm-70.925782 121.894531-5.613281 14.683594c-2.25 5.878906-8.898437 9.089844-15.082031 6.738281-6.015625-2.300781-9.039063-9.066406-6.738282-15.082031l47.351563-123.863281c.796875-2.082032.625-4.40625-.464844-6.347656l-5.699219-10.164063 10.304688 12.730469zm0 0"></path></svg>