<svg height="511pt" viewBox="0 -9 511.99986 511" width="511pt" xmlns="http://www.w3.org/2000/svg"><path d="m214.320312 358.933594c4.15625 0 7.5-3.390625 7.5-7.5 0-3.597656-2.597656-6.707032-6.042968-7.351563-4.453125-.929687-8.960938 2.496094-8.960938 7.351563 0 4.117187 3.359375 7.5 7.503906 7.5zm0 0"></path><path d="m229.488281 351.570312c0 4.207032 3.457031 7.511719 7.5 7.511719 4.101563 0 7.5-3.335937 7.5-7.511719 0-3.378906-2.324219-6.578124-6.027343-7.347656-4.691407-.921875-8.972657 2.675782-8.972657 7.347656zm0 0"></path><path d="m227.257812 338.601562c4.082032 0 7.5-3.324218 7.5-7.5 0-3.507812-2.519531-6.691406-6.039062-7.351562-4.609375-.953125-8.960938 2.628906-8.960938 7.351562 0 4.179688 3.410157 7.5 7.5 7.5zm0 0"></path><path d="m420.730469 310.394531h-89.246094c3.6875-6.359375 36.59375-63.109375 48.265625-83.238281 9.300781 1.75 18.898438-2.476562 23.769531-10.878906l105.421875-181.800782c6.269532-10.816406 2.59375-24.644531-8.226562-30.917968-10.816406-6.269532-24.644532-2.59375-30.917969 8.222656l-105.417969 181.800781c-4.941406 8.523438-3.675781 18.964844 2.390625 26.058594l-32.925781 56.777344-14.828125 3.515625c-20.972656 4.96875-32.632813.285156-70.886719-8.949219-21.472656-5.1875-42.316406 10.121094-44.105468 31.738281-3.84375 2.011719-7.433594 4.578125-10.664063 7.671875h-102.09375c-50.324219 0-91.265625 40.9375-91.265625 91.261719s40.941406 91.265625 91.265625 91.265625h147.230469c4.144531 0 7.5-3.359375 7.5-7.5 0-4.144531-3.355469-7.503906-7.5-7.503906h-147.230469c-42.054687 0-76.265625-34.210938-76.265625-76.261719s34.210938-76.261719 76.265625-76.261719h91.546875c-10.292969 23.265625-.214844 51.152344 23.523438 62.015625 28.429687 13.019532 62.035156-4.894531 66.394531-36.5 22.398437 4.167969 38.53125-5.640625 50.054687-25.519531h97.945313c42.050781 0 76.261719 34.214844 76.261719 76.265625s-34.210938 76.261719-76.261719 76.261719h-147.234375c-4.140625 0-7.5 3.359375-7.5 7.5 0 4.144531 3.359375 7.5 7.5 7.5h147.234375c50.324219 0 91.261719-40.9375 91.261719-91.261719s-40.9375-91.261719-91.261719-91.261719zm-31.960938-128.96875 13.285157 7.476563-11.511719 19.851562c-2.082031 3.585938-6.75 4.898438-10.417969 2.769532-3.632812-2.105469-4.878906-6.78125-2.769531-10.417969zm94.007813-162.121093c2.109375-3.636719 6.761718-4.886719 10.414062-2.769532 3.640625 2.109375 4.890625 6.765625 2.773438 10.417969l-86.386719 148.972656-13.28125-7.480469zm-238.167969 266.261718c38.527344 9.300782 52.425781 14.992188 78.875 8.722656-1.542969 2.664063-9.9375 17.132813-11.507813 19.839844l-4.382812 7.5625c-6.328125 10.914063-19.3125 17.917969-35.316406 13.679688-4.75-24.148438-27.351563-40.636719-51.707032-37.777344 3.980469-9.28125 14.109376-14.421875 24.039063-12.027344zm-50.8125 59.226563c-.1875-17.8125 14.1875-32.488281 32.222656-32.488281 17.433594 0 31.800781 13.957031 32.132813 31.617187.484375 26.613281-29.816406 42.191406-51.1875 26.546875-8.3125-6.082031-13.0625-15.625-13.167969-25.675781zm0 0"></path><path d="m99.242188 387c4.101562-.585938 6.945312-4.390625 6.359374-8.488281-.589843-4.101563-4.386718-6.945313-8.492187-6.359375-26.949219 3.867187-43.691406 15.171875-43.691406 29.503906 0 9.421875 7.316406 17.726562 20.601562 23.378906 11.25 4.789063 26.046875 7.425782 41.660157 7.425782 31.765624 0 62.261718-11.175782 62.261718-30.804688 0-14.332031-16.746094-25.636719-43.695312-29.503906-4.089844-.59375-7.902344 2.257812-8.492188 6.359375-.585937 4.097656 2.261719 7.898437 6.359375 8.488281 20.113281 2.886719 30.824219 10.363281 30.824219 14.65625 0 5.363281-16.679688 15.800781-47.257812 15.800781-30.578126 0-47.261719-10.4375-47.261719-15.800781 0-4.289062 10.710937-11.769531 30.824219-14.65625zm0 0"></path></svg>