<svg height="512pt" viewBox="-52 0 512 512" width="512pt" xmlns="http://www.w3.org/2000/svg"><path d="m252.984375 154.035156c-26.929687-26.925781-70.746094-26.925781-97.675781 0-26.925782 26.929688-26.925782 70.746094 0 97.675782 13.464844 13.464843 31.152344 20.199218 48.839844 20.199218 61.335937 0 92.226562-74.480468 48.835937-117.875zm-48.835937 102.90625c-14.441407 0-28.019532-5.625-38.230469-15.835937-33.953125-33.953125-9.769531-92.296875 38.230469-92.296875 29.878906 0 54.066406 24.179687 54.066406 54.066406 0 29.882812-24.179688 54.066406-54.066406 54.066406zm0 0"></path><path d="m192.976562 222.902344c-4.128906 0-7.5 3.355468-7.5 7.511718 0 4.179688 3.414063 7.5 7.5 7.5 4.054688 0 7.5-3.308593 7.5-7.5 0-4.292968-3.523437-7.511718-7.5-7.511718zm0 0"></path><path d="m218.886719 209.421875c0-3.664063-2.652344-6.71875-6.027344-7.351563-4.519531-.933593-8.972656 2.539063-8.972656 7.351563 0 4.078125 3.328125 7.5 7.5 7.5 4.257812 0 7.5-3.472656 7.5-7.5zm0 0"></path><path d="m220.367188 227.242188c-4.542969-.929688-8.960938 2.558593-8.960938 7.351562 0 4.195312 3.4375 7.5 7.5 7.5 4.082031 0 7.5-3.332031 7.5-7.5 0-3.734375-2.726562-6.730469-6.039062-7.351562zm0 0"></path><path d="m238.789062 206.25c-4.546874-.910156-8.972656 2.566406-8.972656 7.351562 0 4.160157 3.394532 7.5 7.5 7.5 4.203125 0 7.503906-3.417968 7.503906-7.5 0-3.496093-2.398437-6.589843-6.03125-7.351562zm0 0"></path><path d="m237.308594 188.429688c0-3.410157-2.332032-6.570313-6.039063-7.351563-4.601562-.90625-8.960937 2.601563-8.960937 7.351563 0 4.152343 3.359375 7.503906 7.5 7.503906 4.132812 0 7.5-3.375 7.5-7.503906zm0 0"></path><path d="m221.480469 346.558594c.316406 0 .636719-.019532.957031-.0625 72.027344-9.203125 126.34375-70.945313 126.34375-143.621094 0-79.839844-64.953125-144.796875-144.792969-144.796875-79.839843 0-144.796875 64.957031-144.796875 144.796875 0 72.675781 54.316406 134.417969 126.34375 143.621094 4.097656.527344 7.867188-2.378906 8.390625-6.488282.527344-4.109374-2.378906-7.863281-6.488281-8.390624-64.558594-8.25-113.242188-63.597657-113.242188-128.742188 0-71.570312 58.226563-129.792969 129.792969-129.792969 71.570313 0 129.792969 58.222657 129.792969 129.792969 0 65.144531-48.683594 120.492188-113.242188 128.742188-4.109374.527343-7.015624 4.28125-6.488281 8.390624.480469 3.789063 3.710938 6.550782 7.429688 6.550782zm0 0"></path><path d="m313.78125 202.875c0-60.539062-49.253906-109.792969-109.792969-109.792969-60.539062 0-109.792969 49.253907-109.792969 109.792969s49.253907 109.792969 109.792969 109.792969c60.539063 0 109.792969-49.253907 109.792969-109.792969zm-109.792969 94.792969c-52.269531 0-94.792969-42.527344-94.792969-94.792969 0-52.269531 42.523438-94.792969 94.792969-94.792969 52.265625 0 94.789063 42.523438 94.789063 94.792969 0 52.265625-42.519532 94.792969-94.789063 94.792969zm0 0"></path><path d="m400.414062 212.902344c-4.140624-.355469-7.753906 2.726562-8.09375 6.855468-6.039062 73.105469-54.53125 136.617188-123.539062 161.804688-6.15625 2.246094-11.140625 6.671875-14.035156 12.457031l-50.757813 101.519531-50.378906-100.757812c-3.121094-6.238281-8.511719-11.035156-15.175781-13.5-74.019532-27.378906-123.625-98.816406-123.433594-177.761719.25-103.953125 87.273438-189.851562 191.550781-188.5 96.75 1.285157 176.527344 74.820313 185.574219 171.058594.386719 4.121094 4.035156 7.148437 8.167969 6.761719 4.125-.386719 7.152343-4.042969 6.765625-8.167969-9.679688-102.992187-95.710938-183.265625-200.308594-184.6523438-.90625-.0117187-1.808594-.0195312-2.714844-.0195312-110.957031 0-203.765625 91.648438-204.035156 203.484375-.210938 87.222656 54.433594 162.722656 133.230469 191.867187 3.078125 1.136719 5.550781 3.316407 6.960937 6.140626l51.4375 102.871093c2.355469 4.710938 7.09375 7.636719 12.359375 7.636719 5.269531 0 10.003907-2.925781 12.359375-7.636719l51.816406-103.636719c1.171876-2.34375 3.21875-4.144531 5.757813-5.074218 74.488281-27.183594 126.832031-95.742188 133.347656-174.660156.34375-4.128907-2.726562-7.75-6.855469-8.089844zm0 0"></path></svg>