<svg height="511pt" viewBox="0 0 511 511.99927" width="511pt" xmlns="http://www.w3.org/2000/svg"><path d="m394.148438 387.671875c3.765624-1.730469 5.414062-6.179687 3.683593-9.945313-1.730469-3.757812-6.179687-5.410156-9.945312-3.679687-6.65625 3.0625-13.4375 5.699219-20.300781 7.929687l-2.773438-2.773437 9.792969-36.558594 36.554687-9.792969 16.464844 16.464844c-3.289062 2.664063-6.660156 5.222656-10.101562 7.652344-3.386719 2.390625-4.195313 7.066406-1.808594 10.449219 1.460937 2.070312 3.78125 3.175781 6.136718 3.175781 1.492188 0 3-.441406 4.3125-1.371094 97.324219-68.648437 114.855469-205.496094 38.960938-296.171875-2.65625-3.175781-7.386719-3.59375-10.5625-.9375-3.175781 2.660157-3.59375 7.386719-.9375 10.5625 1.003906 1.195313 1.984375 2.402344 2.953125 3.617188l-3.578125 13.34375-4.894531 18.28125-36.558594 9.792969-26.757813-26.757813 9.792969-36.558594 31.628907-8.472656c1.210937.964844 2.414062 1.945313 3.609374 2.945313 3.171876 2.660156 7.902344 2.238281 10.5625-.9375 2.65625-3.171876 2.238282-7.902344-.9375-10.5625-24.234374-20.285157-52.8125-34.335938-81.484374-41.296876-151.089844-37.167968-285.699219 102.449219-244.21875 251.660157 33.199218 119.804687 166.679687 182.226562 280.40625 129.941406zm-231.886719-67.332031 8.648437-32.273438 36.558594-9.792968 26.757812 26.757812-9.792968 36.558594-32.261719 8.644531c-11.066406-8.800781-20.972656-18.695313-29.910156-29.894531zm127.460937 58.332031-26.761718-26.761719 9.796874-36.554687 36.554688-9.796875 26.761719 26.761718-9.796875 36.558594zm166.082032-57.589844-16.4375-16.4375 9.796874-36.554687 36.554688-9.796875 2.792969 2.792969c-6.972657 21.351562-17.894531 41.710937-32.707031 59.996093zm-99.75-267.011719-9.796876 36.554688-36.554687 9.796875-26.761719-26.761719 9.792969-36.554687 36.558594-9.796875zm-104.640626-30.082031 2.789063 2.792969-9.792969 36.554688-36.554687 9.796874-16.4375-16.4375c18.285156-14.8125 38.640625-25.734374 59.996093-32.707031zm-88.234374 60.882813 16.46875 16.46875-9.796876 36.554687-36.554687 9.792969-2.730469-2.730469c6.9375-21.417969 17.808594-41.824219 32.613282-60.085937zm-37.164063 76.722656c1.882813 1.710938 4.511719 2.363281 6.980469 1.699219l44.921875-12.035157c2.585937-.691406 4.605469-2.714843 5.300781-5.300781l12.035156-44.917969c.691406-2.589843-.046875-5.351562-1.941406-7.242187l-20.207031-20.210937c.117187-.121094.234375-.242188.355469-.367188 1.414062-1.480469 3.515624-3.660156 6.652343-6.617188l20.199219 20.195313c1.894531 1.894531 4.652344 2.632813 7.242188 1.941406l44.917968-12.035156c2.589844-.695313 4.609375-2.714844 5.300782-5.304687l12.039062-44.917969c.640625-2.394531.054688-4.9375-1.539062-6.808594 15.789062-3.519531 31.894531-4.984375 47.964843-4.390625l-31.566406 8.457031c-2.585937.691407-4.605469 2.714844-5.300781 5.304688l-12.035156 44.917969c-.691407 2.585937.046874 5.347656 1.941406 7.242187l32.882812 32.882813c1.894532 1.894531 4.65625 2.632812 7.242188 1.941406l44.917968-12.035156c2.589844-.695313 4.609376-2.714844 5.304688-5.304688l12.035156-44.917969c.691406-2.589843-.046875-5.351562-1.941406-7.242187l-28.671875-28.675782c6.035156 1.035157 12.035156 2.363282 17.980469 3.988282l17.691406 17.6875c1.894531 1.894531 4.65625 2.636718 7.242188 1.941406l14.480468-3.878906c4.066406 2.191406 8.0625 4.539062 11.96875 7.039062l-23.890625 6.402344c-2.585937.691406-4.605469 2.714844-5.300781 5.300781l-12.035156 44.921875c-.691406 2.585938.046875 5.347656 1.9375 7.242188l32.882812 32.882812c1.898438 1.894532 4.660156 2.632813 7.246094 1.9375l44.917969-12.035156c2.589843-.695312 4.609375-2.714844 5.300781-5.304688l6.402344-23.890624c2.496094 3.90625 4.847656 7.90625 7.039062 11.972656l-3.878906 14.480468c-.691406 2.589844.046875 5.351563 1.9375 7.242188l17.691406 17.691406c1.625 5.945313 2.953125 11.949219 3.984375 17.980469l-28.671875-28.671875c-1.898437-1.894531-4.65625-2.632812-7.246094-1.941406l-44.917968 12.035156c-2.585938.695312-4.609375 2.714844-5.300782 5.304688l-12.035156 44.917968c-.695312 2.585938.042969 5.347656 1.9375 7.242188l32.882813 32.882812c1.894531 1.894532 4.65625 2.632813 7.242187 1.941406l44.921875-12.039062c2.585938-.691406 4.605469-2.710938 5.300781-5.300781l8.457032-31.5625c.597656 16.066406-.867188 32.175781-4.390625 47.960937-1.871094-1.589844-4.414063-2.175781-6.808594-1.535156l-44.917969 12.035156c-2.585937.695313-4.609375 2.714844-5.300781 5.300782l-12.035156 44.921874c-.695313 2.585938.042969 5.347657 1.9375 7.242188l20.199219 20.199219s-1.925782 2.121093-6.992188 7.007812l-20.203125-20.207031c-1.898437-1.898438-4.660156-2.632812-7.246094-1.941406l-44.917969 12.035156c-2.585937.695312-4.605468 2.714844-5.300781 5.300781l-12.035156 44.921875c-.667969 2.492188-.003906 5.140625 1.734375 7.027344-16.183594 3.636719-32.675781 5.078125-49.035156 4.402344l32.4375-8.691406c2.585937-.691407 4.609375-2.714844 5.300781-5.300782l12.039063-44.917968c.691406-2.589844-.046876-5.351563-1.941407-7.242188l-32.882812-32.882812c-1.894531-1.898438-4.65625-2.632813-7.242188-1.941407l-44.921875 12.035157c-2.585937.695312-4.605468 2.714843-5.300781 5.304687l-12.035156 44.917969c-.691407 2.585937.046875 5.347656 1.9375 7.242187l29.023437 29.023438c-6.015625-1.007813-11.988281-2.308594-17.886718-3.894531l-18.132813-18.132813c-1.898437-1.894531-4.65625-2.632813-7.242187-1.9375l-15.066407 4.035156c-4.074219-2.1875-8.074219-4.535156-11.992187-7.03125l24.496094-6.566406c2.589843-.691406 4.609374-2.710937 5.300781-5.300781l12.039062-44.917969c.691407-2.589844-.046875-5.351563-1.941406-7.242187l-32.882813-32.882813c-1.894531-1.898437-4.65625-2.636719-7.242187-1.941406l-44.921875 12.035156c-2.585938.695313-4.605469 2.714844-5.300781 5.300781l-6.582031 24.566406c-2.507813-3.914062-4.855469-7.902343-7.042969-11.953124l4.0625-15.175782c.695312-2.585937-.046875-5.347656-1.9375-7.238281l-18.28125-18.28125c-1.570313-5.890625-2.851563-11.84375-3.839844-17.839844l29.117187 29.121094c1.898438 1.894531 4.660157 2.632813 7.242188 1.941406l44.921875-12.039062c2.585937-.691407 4.605469-2.710938 5.300781-5.300781l12.035156-44.917969c.695313-2.589844-.046874-5.351563-1.9375-7.242188l-32.882812-32.882812c-1.898438-1.898438-4.660156-2.636719-7.246094-1.941407l-44.917968 12.035157c-2.585938.695312-4.609376 2.714843-5.300782 5.304687l-8.714844 32.511719c-.644531-16.445313.84375-32.953125 4.476563-49.078125zm359.175781 21.613281-9.796875 36.554688-36.554687 9.796875-26.761719-26.761719 9.796875-36.554687 36.554688-9.796876zm-351.367187 39.570313 9.796875-36.558594 36.554687-9.796875 26.761719 26.761719-9.792969 36.558594c-22.441406 6.011718-14.140625 3.785156-36.558593 9.792968zm0 0"></path><path d="m384.171875 215.398438-44.921875 12.035156c-2.585938.695312-4.605469 2.714844-5.300781 5.304687l-12.035157 44.917969c-.691406 2.585938.046876 5.347656 1.941407 7.242188 35.671875 35.671874 34.035156 35.078124 38.183593 35.078124 1.414063 0-1.574218.6875 46.859376-12.289062 2.585937-.695312 4.605468-2.714844 5.300781-5.300781l12.035156-44.921875c.695313-2.585938-.042969-5.347656-1.9375-7.242188l-32.882813-32.882812c-1.894531-1.894532-4.65625-2.632813-7.242187-1.941406zm16.664063 78.921874-36.554688 9.792969-26.761719-26.761719 9.796875-36.550781 36.554688-9.796875 26.761718 26.761719zm0 0"></path><path d="m234.84375 190.582031 44.917969-12.035156c2.589843-.691406 4.609375-2.710937 5.304687-5.300781l12.035156-44.917969c.691407-2.589844-.046874-5.351563-1.941406-7.242187l-32.882812-32.882813c-1.894532-1.894531-4.65625-2.636719-7.242188-1.941406l-44.917968 12.035156c-2.589844.695313-4.609376 2.714844-5.304688 5.300781l-12.035156 44.921875c-.691406 2.585938.046875 5.347657 1.941406 7.242188 35.378906 35.378906 34.601562 36.300781 40.125 34.820312zm-16.664062-78.921875 36.554687-9.792968 26.761719 26.761718-9.796875 36.554688-36.554688 9.792968-26.761719-26.757812zm0 0"></path><path d="m322.449219 222.933594-32.882813-32.882813c-1.894531-1.898437-4.660156-2.632812-7.242187-1.941406l-44.917969 12.035156c-2.589844.691407-4.609375 2.714844-5.304688 5.300781l-12.03125 44.921876c-.695312 2.585937.042969 5.347656 1.9375 7.242187 35.378907 35.378906 34.601563 36.300781 40.125 34.820313l44.917969-12.035157c2.589844-.691406 4.609375-2.714843 5.304688-5.300781l12.035156-44.917969c.691406-2.589843-.046875-5.347656-1.941406-7.242187zm-23.457031 44.097656c-22.441407 6.011719-14.140626 3.789062-36.558594 9.792969l-26.757813-26.757813 9.792969-36.558594 36.554688-9.792968 26.761718 26.761718zm0 0"></path><path d="m296.566406 183.050781 32.882813 32.882813c1.425781 1.425781 3.339843 2.195312 5.300781 2.195312 1.414062 0-1.578125.6875 46.863281-12.289062 2.585938-.695313 4.605469-2.714844 5.300781-5.304688l12.035157-44.917968c.691406-2.585938-.046875-5.347657-1.941407-7.242188l-32.882812-32.882812c-1.894531-1.894532-4.65625-2.632813-7.242188-1.941407l-44.917968 12.035157c-2.589844.695312-4.609375 2.714843-5.304688 5.304687l-12.035156 44.917969c-.691406 2.585937.046875 5.347656 1.941406 7.242187zm23.460938-44.097656 36.554687-9.796875 26.761719 26.761719-9.796875 36.558593c-22.441406 6.011719-14.136719 3.785157-36.554687 9.792969l-26.761719-26.761719zm0 0"></path><path d="m13.300781 233.300781 80.597657-80.597656c2.929687-2.929687 2.929687-7.675781 0-10.601563-2.929688-2.929687-7.675782-2.929687-10.601563 0l-80.601563 80.597657c-2.925781 2.925781-2.925781 7.675781 0 10.601562 2.929688 2.929688 7.675782 2.929688 10.605469 0zm0 0"></path><path d="m86.441406 277.203125-83.039062 83.039063c-4.742188 4.742187-1.316406 12.800781 5.300781 12.800781 1.917969 0 3.839844-.730469 5.304687-2.195313l83.039063-83.042968c2.929687-2.925782 2.929687-7.675782 0-10.601563-2.929687-2.929687-7.675781-2.929687-10.605469 0zm0 0"></path><path d="m29.328125 493.773438 12.753906-12.75c2.929688-2.929688 2.929688-7.675782 0-10.605469-2.929687-2.925781-7.675781-2.929688-10.601562 0l-12.757813 12.753906c-2.925781 2.925781-2.925781 7.675781 0 10.601563 2.929688 2.929687 7.675782 2.929687 10.605469 0zm0 0"></path><path d="m136.585938 365.308594-80.847657 80.847656c-2.929687 2.929688-2.929687 7.675781 0 10.605469 2.929688 2.925781 7.675781 2.925781 10.601563 0l80.851562-80.851563c2.929688-2.929687 2.929688-7.675781 0-10.601562-2.929687-2.929688-7.675781-2.929688-10.605468 0zm0 0"></path><path d="m224.691406 415.453125-83.039062 83.039063c-2.929688 2.929687-2.929688 7.675781 0 10.605468 2.925781 2.925782 7.671875 2.925782 10.601562 0l83.042969-83.039062c2.925781-2.929688 2.925781-7.675782 0-10.605469-2.929687-2.925781-7.675781-2.925781-10.605469 0zm0 0"></path><path d="m304.417969 495.183594c2.929687-2.929688 2.929687-7.675782.003906-10.605469-2.929687-2.925781-7.679687-2.925781-10.605469 0l-14.621094 14.621094c-2.925781 2.929687-2.925781 7.675781 0 10.605469 1.464844 1.460937 3.382813 2.195312 5.304688 2.195312 4.015625 0 4.253906-1.148438 19.917969-16.816406zm0 0"></path><path d="m327.820312 471.78125 42.582032-42.578125c2.925781-2.929687 2.925781-7.675781 0-10.601563-2.929688-2.929687-7.675782-2.929687-10.605469 0l-42.578125 42.578126c-2.929688 2.929687-2.929688 7.675781 0 10.601562 2.925781 2.929688 7.671875 2.929688 10.601562 0zm0 0"></path></svg>