<svg height="512pt" viewBox="-35 0 512 512.00128" width="512pt" xmlns="http://www.w3.org/2000/svg"><path d="m151.894531 0c-11.332031 0-20.550781 9.21875-20.550781 20.546875v285.726563c-36.847656 7.882812-68.351562 20.332031-91.375 36.167968-26.144531 17.988282-39.96875 39.433594-39.96875 62.023438 0 29.808594 23.980469 57.34375 67.527344 77.539062 126.089844 58.464844 342.90625 27.296875 375.125-57.371094 1.472656-3.871093-.46875-8.203124-4.339844-9.675781-3.875-1.472656-8.207031.46875-9.679688 4.339844-16.855468 44.296875-105.164062 77.699219-205.414062 77.699219-117.585938 0-208.21875-43.996094-208.21875-92.53125 0-34.445313 46.375-67.1875 116.34375-82.839844v21.34375c-14.828125 10.976562-12.304688 27.351562 3.855469 36.296875 29.503906 16.839844 89.5625 7.980469 89.5625-19.398437 0-16.09375-22.601563-28.15625-52.320313-27.941407v-17.144531c10.988282-1.25 22.242188-2.101562 33.558594-2.523438 4.136719-.152343 7.367188-3.632812 7.214844-7.773437-.15625-4.136719-3.636719-7.378906-7.773438-7.214844-11.113281.414063-22.171875 1.230469-33 2.417969v-158.296875l100.960938-48.160156c10-4.773438 9.925781-18.707031 0-23.441407l-100.960938-48.164062c0-13.667969-10.125-21.625-20.546875-21.625zm5.546875 371.355469c-4.105468-.800781-7.863281-1.914063-11.09375-3.289063 0-5.582031 0-341.941406 0-347.519531 0-3.058594 2.488282-5.546875 5.546875-5.546875 3.058594 0 5.546875 2.488281 5.546875 5.546875zm52.324219-11.492188c0 4.652344-14.3125 13.144531-37.324219 12.953125v-25.902344c22.992188-.191406 37.324219 8.292969 37.324219 12.949219zm53.367187-278.355469-90.691406 43.265626v-23.277344l66.292969-31.625zm-41.816406-19.945312-48.875 23.3125v-46.628906zm0 0"></path><path d="m320.816406 356.136719c0-17.472657-14.214844-31.6875-31.6875-31.6875s-31.6875 14.214843-31.6875 31.6875c0 17.46875 14.214844 31.683593 31.6875 31.683593s31.6875-14.214843 31.6875-31.683593zm-48.371094 0c0-9.203125 7.484376-16.6875 16.683594-16.6875 9.203125 0 16.6875 7.484375 16.6875 16.6875 0 9.199219-7.484375 16.683593-16.6875 16.683593-9.199218 0-16.683594-7.484374-16.683594-16.683593zm0 0"></path><path d="m442.652344 384.296875c-9.046875-23.777344-33.59375-44.726563-70.988282-60.578125-36.515624-15.484375-81.695312-24.628906-130.664062-26.453125-4.144531-.167969-7.617188 3.078125-7.773438 7.214844-.152343 4.140625 3.078126 7.621093 7.214844 7.777343 94.042969 3.5 172.464844 36.039063 188.195313 77.371094 1.136719 2.996094 3.988281 4.835938 7.011719 4.835938.886718 0 1.789062-.15625 2.664062-.492188 3.871094-1.472656 5.816406-5.804687 4.339844-9.675781zm0 0"></path></svg>