<svg height="511pt" viewBox="-65 0 511 511.998" width="511pt" xmlns="http://www.w3.org/2000/svg"><path d="m44.066406 331.046875c-.046875.015625-.09375.035156-.140625.054687-1.773437.730469-43.425781 18.414063-43.425781 67.085938v93.121094c0 11.40625 9.28125 20.6875 20.6875 20.6875h152.511719c4.144531 0 7.5-3.355469 7.5-7.5 0-4.140625-3.355469-7.5-7.5-7.5h-95.898438v-77.234375c0-4.144531-3.355469-7.5-7.5-7.5s-7.5 3.355469-7.5 7.5v77.234375h-41.609375c-3.136718 0-5.691406-2.550782-5.691406-5.6875v-93.121094c0-38.078125 32.148438-52.367188 34.082031-53.191406l60.464844-23.441406 26.589844 53.285156c3.75 7.519531 13.367187 9.972656 20.265625 5.070312l26.796875-19.03125v58.878906c0 4.144532 3.359375 7.503907 7.5 7.503907 4.144531 0 7.5-3.359375 7.5-7.503907v-58.839843l26.742187 18.992187c6.898438 4.898438 16.511719 2.460938 20.269532-5.070312l26.585937-53.285156 60.511719 23.4375c2.125.90625 34.089844 15.222656 34.089844 53.191406v25.292968c0 4.140626 3.359374 7.5 7.503906 7.5 4.140625 0 7.5-3.359374 7.5-7.5v-25.292968c0-48.671875-41.652344-66.355469-43.429688-67.082032-.046875-.023437-.09375-.039062-.140625-.058593l-100.050781-38.746094v-24.308594c15.980469-12.296875 27.023438-30.695312 29.609375-51.6875 19.160156-1.007812 33.351563-16.394531 33.351563-34.636719 0-5.453124-1.296876-10.773437-3.734376-15.582031.488282-2.75.484376-5.609375-.066406-8.453125-5.976562-30.851562-4.734375-21.496094-6.300781-43.890625-3.253906-46.480469-36.640625-84.273437-81.949219-92.625v-2.234375c0-10.410156-8.472656-18.878906-18.882812-18.878906s-18.878906 8.46875-18.878906 18.878906v2.234375c-15.996094 2.949219-30.925782 9.652344-43.898438 19.847657-22.175781 17.429687-36.035156 43.976562-38.035156 72.828124-1.480469 21.414063-.183594 12.15625-6.320313 43.839844-.582031 3.003906-.554687 6.023438.019531 8.914063-2.496093 4.695312-3.820312 9.855469-3.820312 15.125 0 18.214843 14.160156 33.621093 33.34375 34.632812 2.59375 21.230469 13.828125 40.359375 31.296875 52.898438v23.101562zm147.105469 3.359375-32.15625-39.699219v-17.101562c19.894531 8.371093 43.785156 8.808593 64.261719-.5625v17.734375zm67.074219-18.289062-25.308594 50.71875-30.933594-21.96875 31.160156-38.464844zm10.25-114.921876v-16.960937c6.625 1.699219 12.511718.859375 17.738281-2.121094-.21875 9.609375-7.382813 17.859375-17.738281 19.082031zm7.679687-86.410156.652344 9.339844c-24.105469-2.492188-27.042969-2.835938-36.304687-3.585938l-.269532-9.738281c-.5625-20.261719-5.9375-49.101562-15.507812-69.398437 30.699218 13.230468 49.242187 42.070312 51.429687 73.382812zm-81.984375-95.328125c-2.605468-.101562-5.160156-.101562-7.761718 0 0-5.945312 7.761718-5.953125 7.761718 0zm-17.371094 15.964844c8.425782-1.300781 17.707032-1.429687 26.964844-.003906 13.722656 17.359375 20.867188 53.847656 21.472656 75.800781l.230469 8.292969c-9.117187-.414063-29.980469-2.242188-70.359375 0 .230469-8.5.261719-12.882813.949219-19.09375 3.164063-28.5 10.851563-52.480469 20.742187-64.996094zm-72.359374 79.402344c2.183593-31.507813 20.863281-60.246094 51.394531-73.414063-7.027344 14.914063-12.175781 34.746094-14.6875 57.351563-.777344 7.015625-.804688 11.824219-1.078125 21.78125-9.226563.746093-11.714844 1.046875-36.273438 3.585937zm7.65625 86.371093c-10.371094-1.222656-17.546876-9.503906-17.738282-19.144531 5.082032 2.902344 11.097656 3.902344 17.738282 2.183594zm-6.15625-31.09375c-4.851563.101563-9.070313-4.382812-8.054688-9.621093l4.082031-21.082031c79.398438-8.089844 101.546875-7.726563 176.640625-.003907 4.433594 22.882813 5.105469 23.257813 3.183594 26.605469-.867188 1.503906-2.261719 2.816406-4.078125 3.558594-4.667969 1.855468-8.054687-1.453125-34.492187-6.96875-75.273438-15.648438-126.378907 7.265625-137.28125 7.511718zm21.199218 38.199219c-.054687-1.804687-.039062 1.757813-.039062-27.949219 42.445312-10.40625 82.113281-11.300781 126.375.039063 0 30.578125.015625 25.59375-.039063 27.972656-1.101562 44.316407-46.996093 73.5-89.253906 55.140625-22.839844-10.011718-36.601563-32.703125-37.042969-55.203125zm21.980469 98.117188 31.167969 38.472656-30.898438 21.945313-25.308594-50.71875zm162.960937 105.84375c-4.144531 0-7.5 3.355469-7.5 7.5v77.234375h-95.898437c-4.144531 0-7.5 3.359375-7.5 7.5 0 4.144531 3.355469 7.5 7.5 7.5h154.960937c10.058594 0 18.238282-8.179688 18.238282-18.234375v-35.285157c0-4.140624-3.359375-7.5-7.5-7.5-4.144532 0-7.503906 3.359376-7.503906 7.5v35.285157c0 1.785156-1.449219 3.234375-3.234376 3.234375h-44.0625v-77.234375c0-4.144531-3.355468-7.5-7.5-7.5zm0 0"></path></svg>