<svg height="512pt" viewBox="0 0 512 512" width="512pt" xmlns="http://www.w3.org/2000/svg"><path d="m397.097656 281.78125h-247.398437v-115.933594h162.417969c23.863281 0 43.28125-19.417968 43.28125-43.28125v-79.285156c0-23.867188-19.417969-43.28125-43.28125-43.28125h-149.140626c-23.863281 0-43.277343 19.414062-43.277343 43.28125v238.5h-4.796875c-63.359375 0-114.902344 51.546875-114.902344 114.902344v.417968c0 63.355469 51.542969 114.898438 114.902344 114.898438h282.195312c63.359375 0 114.902344-51.542969 114.902344-114.902344v-.414062c0-63.355469-51.542969-114.902344-114.902344-114.902344zm-247.398437-183.855469h72.847656v37.921875h-72.847656zm162.417969 37.921875h-59.570313v-37.921875h72.851563v24.640625c0 7.324219-5.960938 13.28125-13.28125 13.28125zm13.28125-92.566406v24.644531h-72.851563v-37.925781h59.570313c7.320312 0 13.28125 5.957031 13.28125 13.28125zm-175.699219 0c0-7.324219 5.957031-13.28125 13.277343-13.28125h59.570313v37.925781h-72.851563v-24.644531zm332.300781 353.816406c0 46.816406-38.085938 84.902344-84.902344 84.902344h-282.195312c-46.816406 0-84.902344-38.085938-84.902344-84.902344v-.414062c0-46.816406 38.085938-84.902344 84.902344-84.902344h4.796875v70.109375h-15c-8.285157 0-15 6.714844-15 15s6.714843 15 15 15h60c8.28125 0 15-6.714844 15-15s-6.71875-15-15-15h-15v-70.109375h247.398437c46.816406 0 84.902344 38.085938 84.902344 84.902344zm0 0"></path><path d="m407.429688 381.890625h-30c-8.28125 0-15 6.714844-15 15s6.71875 15 15 15h30c8.285156 0 15-6.714844 15-15s-6.714844-15-15-15zm0 0"></path></svg>