<svg height="512pt" viewBox="0 0 512 512" width="512pt" xmlns="http://www.w3.org/2000/svg"><path d="m397.097656 281.78125h-247.398437v-105.257812l74.339843 23.144531c2.523438.785156 5.167969 1.179687 7.808594 1.179687 1.46875 0 2.933594-.121094 4.378906-.367187l158.5-26.960938c16.054688-2.730469 27.707032-16.53125 27.707032-32.8125v-54.792969c0-16.28125-11.652344-30.082031-27.707032-32.8125l-158.5-26.960937c-4.050781-.6875-8.265624-.40625-12.1875.8125l-74.339843 23.144531v-35.097656c0-8.285156-6.71875-15-15-15-8.285157 0-15 6.714844-15 15v266.78125h-4.796875c-63.359375 0-114.902344 51.546875-114.902344 114.902344v.417968c0 63.355469 51.542969 114.898438 114.902344 114.898438h282.195312c63.359375 0 114.902344-51.542969 114.902344-114.902344v-.414062c0-63.355469-51.542969-114.902344-114.902344-114.902344zm-121.203125-118.480469-29.832031 5.074219v-110.132812l29.832031 5.074218zm30-94.878906 30 5.101563v79.574218l-30 5.101563zm86.535157 17.492187v54.792969c0 1.605469-1.148438 2.96875-2.734376 3.238281l-23.800781 4.046876v-69.363282l23.800781 4.046875c1.585938.269531 2.734376 1.632813 2.734376 3.238281zm-176.367188-25.058593v104.90625l-66.363281-20.660157v-63.582031zm265.9375 336.242187c0 46.816406-38.085938 84.902344-84.902344 84.902344h-282.195312c-46.816406 0-84.902344-38.085938-84.902344-84.902344v-.414062c0-46.816406 38.085938-84.902344 84.902344-84.902344h4.796875v70.109375h-15c-8.285157 0-15 6.714844-15 15s6.714843 15 15 15h60c8.28125 0 15-6.714844 15-15s-6.71875-15-15-15h-15v-70.109375h247.398437c46.816406 0 84.902344 38.085938 84.902344 84.902344zm0 0"></path><path d="m407.429688 381.890625h-30c-8.28125 0-15 6.714844-15 15s6.71875 15 15 15h30c8.285156 0 15-6.714844 15-15s-6.714844-15-15-15zm0 0"></path></svg>