<svg height="512pt" viewBox="-53 0 512 512" width="512pt" xmlns="http://www.w3.org/2000/svg"><path d="m202.5 0c-111.65625 0-202.49609375 90.707031-202.5 202.199219 0 36.394531 9.382812 74.980469 27.886719 114.6875 14.554687 31.222656 34.773437 63.253906 60.105469 95.203125 42.882812 54.085937 85.214843 88.976562 86.996093 90.433594 7.710938 6.316406 17.613281 9.476562 27.511719 9.476562s19.796875-3.160156 27.511719-9.476562c1.78125-1.460938 44.113281-36.351563 86.996093-90.433594 25.328126-31.949219 45.550782-63.980469 60.105469-95.207032 18.503907-39.703124 27.886719-78.289062 27.886719-114.6875 0-111.488281-90.839844-202.195312-202.5-202.195312zm91.378906 392.972656c-40.898437 51.691406-82.464844 86.003906-82.875 86.339844-4.371094 3.582031-12.636718 3.582031-17.007812 0-1.640625-1.339844-163.996094-135.953125-163.996094-277.113281.003906-94.953125 77.386719-172.199219 172.5-172.199219 95.117188 0 172.5 77.246094 172.5 172.199219 0 72.929687-44.113281 144-81.121094 190.773437zm0 0"></path><path d="m202.5 60.632812c-78.28125 0-141.972656 63.6875-141.972656 141.96875 0 78.285157 63.691406 141.972657 141.972656 141.972657s141.972656-63.6875 141.972656-141.972657c0-78.28125-63.691406-141.96875-141.972656-141.96875zm0 253.941407c-61.742188 0-111.972656-50.230469-111.972656-111.972657 0-61.742187 50.230468-111.96875 111.972656-111.96875s111.972656 50.226563 111.972656 111.96875c0 61.742188-50.230468 111.972657-111.972656 111.972657zm0 0"></path><path d="m191.195312 136.949219c-5.855468-5.855469-15.351562-5.855469-21.210937 0-5.855469 5.859375-5.855469 15.355469 0 21.214843l21.210937 21.210938c2.929688 2.929688 6.769532 4.394531 10.609376 4.394531 3.835937 0 7.675781-1.464843 10.605468-4.394531 5.855469-5.859375 5.855469-15.355469 0-21.214844zm0 0"></path><path d="m254.636719 130.390625c-5.855469-5.859375-15.355469-5.859375-21.210938 0-5.859375 5.855469-5.859375 15.355469 0 21.210937l21.214844 21.214844c2.925781 2.929688 6.765625 4.394532 10.605469 4.394532 3.835937 0 7.675781-1.464844 10.605468-4.394532 5.859376-5.859375 5.859376-15.355468 0-21.214844zm0 0"></path><path d="m248.632812 194.386719c-5.855468-5.859375-15.355468-5.859375-21.210937 0-5.859375 5.859375-5.859375 15.355469 0 21.214843l21.210937 21.210938c2.929688 2.929688 6.769532 4.394531 10.605469 4.394531 3.839844 0 7.679688-1.464843 10.609375-4.394531 5.855469-5.859375 5.855469-15.355469 0-21.210938zm0 0"></path></svg>