<svg height="512pt" viewBox="-54 0 512 512.00061" width="512pt" xmlns="http://www.w3.org/2000/svg"><path d="m388.472656 166.320312c-18.027344-9.007812-25.53125-30.382812-17.089844-48.664062l30.644532-66.339844c3.742187-8.113281 3.617187-17.355468-.347656-25.367187-3.96875-8.015625-11.25-13.722657-19.976563-15.664063l-.695313-.152344-76.695312-9.550781c-12.414062-2.429687-24.546875 2.910157-31.132812 13.769531l-67.128907 106.660157c-1.113281 1.769531-2.785156 2.035156-3.683593 2.035156-.898438 0-2.570313-.265625-3.6875-2.039063l-67.09375-106.605468-.023438-.042969c-6.578125-10.855469-18.707031-16.207031-31.105469-13.785156l-76.730469 9.5625-.6875.152343c-11.015624 2.445313-19.765624 11.140626-22.300781 22.148438-1.449219 6.285156-.6992185 13.097656 2.105469 19.175781l30.503906 66.046875c8.445313 18.28125.941406 39.65625-17.074218 48.65625-9.886719 4.929688-16.273438 15.253906-16.273438 26.304688v292.1875c0 14.996094 12.191406 27.191406 27.183594 27.191406h348.136718c16.21875 0 29.414063-13.1875 29.414063-29.402344v-289.972656c0-11.0625-6.390625-21.394531-16.261719-26.304688zm-358.472656 194.707032 20.023438-20.039063 26.652343 26.675781c3.035157 3.035157 7.074219 4.707032 11.367188 4.707032s8.332031-1.671875 11.371093-4.710938l26.648438-26.671875 26.65625 26.671875c6.269531 6.269532 16.464844 6.269532 22.738281 0l26.648438-26.671875 26.65625 26.671875c6.269531 6.269532 16.464843 6.269532 22.738281 0l26.648438-26.671875 26.65625 26.671875c3.035156 3.039063 7.070312 4.710938 11.363281 4.710938 4.296875 0 8.332031-1.671875 11.371093-4.714844l26.652344-26.667969 20.539063 20.550781v37.558594l-9.171875-9.175781c-6.269532-6.269531-16.46875-6.265625-22.738282.003906l-26.648437 26.667969-26.65625-26.671875c-6.269531-6.269531-16.464844-6.265625-22.738281.003906l-26.648438 26.667969-26.65625-26.671875c-6.269531-6.269531-16.464844-6.265625-22.738281.003906l-26.648437 26.667969-26.65625-26.671875c-6.265626-6.269531-16.464844-6.265625-22.734376.003906l-26.652343 26.667969-26.65625-26.671875c-6.265625-6.269531-16.464844-6.265625-22.734375.003906l-8.652344 8.65625zm335.5625-51.105469c-6.269531-6.265625-16.46875-6.265625-22.738281.003906l-26.648438 26.671875-26.65625-26.675781c-6.265625-6.265625-16.464843-6.265625-22.734375.003906l-26.652344 26.671875-26.65625-26.675781c-6.265624-6.265625-16.464843-6.265625-22.734374.003906l-26.652344 26.671875-26.652344-26.675781c-6.269531-6.265625-16.46875-6.265625-22.738281.003906l-26.652344 26.671875-26.652344-26.675781c-6.269531-6.265625-16.46875-6.265625-22.738281.003906l-8.652344 8.65625v-39.296875l20.285156-20.296875 26.652344 26.671875c3.039063 3.039063 7.074219 4.710938 11.367188 4.710938 4.292968 0 8.332031-1.671875 11.371094-4.714844l26.648437-26.667969 26.65625 26.671875c6.269531 6.269532 16.464844 6.269532 22.738281-.003906l26.648438-26.667969 26.65625 26.671875c6.269531 6.269532 16.46875 6.269532 22.738281-.003906l26.648437-26.667969 26.65625 26.671875c3.035157 3.035156 7.070313 4.707032 11.367188 4.707032 4.292969 0 8.328125-1.671876 11.367188-4.710938l26.652343-26.667969 20.277344 20.289063v39.820312zm-304.976562-204.84375-30.269532-65.53125 75.148438-9.363281.53125-.121094 67.292968 106.925781c6.332032 10.054688 17.199219 16.058594 29.078126 16.058594 11.878906 0 22.746093-6.003906 29.074218-16.058594l67.191406-106.761719.085938-.136718.015625-.027344.558594.125 75.125 9.355469-30.269531 65.535156c-15.230469 32.972656-1.800782 71.503906 30.585937 87.914063v43.847656l-8.910156-8.917969c-6.269531-6.265625-16.46875-6.265625-22.738281.003906l-26.652344 26.667969-26.652344-26.671875c-6.265625-6.265625-16.46875-6.265625-22.738281.003906l-26.652344 26.667969-26.652344-26.671875c-6.269531-6.265625-16.46875-6.265625-22.738281.003906l-26.648438 26.667969-26.65625-26.671875c-6.269531-6.265625-16.464843-6.265625-22.738281.003906l-26.648437 26.667969-26.65625-26.671875c-6.269532-6.265625-16.464844-6.265625-22.734375.003906l-8.914063 8.917969v-43.851562c32.375-16.390626 45.8125-54.929688 30.582032-87.914063zm-30.585938 376.921875v-40.972656l20.023438-20.039063 26.652343 26.675781c3.035157 3.035157 7.074219 4.707032 11.367188 4.707032s8.332031-1.671875 11.371093-4.710938l26.648438-26.671875 26.65625 26.671875c6.269531 6.269532 16.464844 6.269532 22.738281 0l26.648438-26.671875 26.65625 26.671875c6.269531 6.269532 16.464843 6.269532 22.738281 0l26.648438-26.671875 26.65625 26.671875c3.035156 3.039063 7.070312 4.710938 11.363281 4.710938 4.296875 0 8.332031-1.671875 11.371093-4.714844l26.652344-26.667969 20.539063 20.550781v40.457032h-344.730469zm0 0"></path></svg>