<svg height="512pt" viewBox="0 0 512 512" width="512pt" xmlns="http://www.w3.org/2000/svg"><path d="m437.019531 74.980469c-48.351562-48.351563-112.640625-74.980469-181.019531-74.980469s-132.667969 26.628906-181.019531 74.980469c-48.351563 48.351562-74.980469 112.640625-74.980469 181.019531s26.628906 132.667969 74.980469 181.019531c48.351562 48.351563 112.640625 74.980469 181.019531 74.980469s132.667969-26.628906 181.019531-74.980469c48.351563-48.351562 74.980469-112.640625 74.980469-181.019531s-26.628906-132.667969-74.980469-181.019531zm-21.214843 21.214843c42.6875 42.683594 66.195312 99.4375 66.195312 159.804688 0 59.464844-22.8125 115.425781-64.296875 157.886719-8.644531 8.363281-21.222656 14.042969-37.441406 16.894531-15.941407 2.800781-34.953125 2.710938-54.976563-.253906-65.265625-9.675782-121.417968-35.582032-162.382812-74.917969-42.367188-40.6875-67.019532-94.882813-71.300782-156.730469-4.253906-61.449218 10.066407-110.222656 38.304688-130.46875l-.019531-.03125c36.972656-24.964844 80.511719-38.378906 126.113281-38.378906 60.367188 0 117.121094 23.507812 159.804688 66.195312zm-319.609376 319.609376c-42.6875-42.683594-66.195312-99.4375-66.195312-159.804688 0-42.832031 11.835938-83.84375 33.957031-119.304688-3.863281 25.527344-3.308593 49.464844-2.285156 64.253907 4.804687 69.402343 32.625 130.367187 80.453125 176.296875 45.480469 43.679687 107.296875 72.363281 178.761719 82.957031 9.128906 1.351563 18.125 2.179687 26.839843 2.476563-28.5 12.664062-59.601562 19.320312-91.726562 19.320312-60.367188 0-117.121094-23.507812-159.804688-66.195312zm0 0"></path><path d="m291.925781 173.207031c2.933594 2.953125 6.789063 4.433594 10.648438 4.433594 3.820312 0 7.640625-1.449219 10.566406-4.351563 5.878906-5.835937 5.914063-15.335937.082031-21.214843l-31.785156-32.027344c-5.832031-5.878906-15.332031-5.917969-21.210938-.082031-5.878906 5.835937-5.917968 15.332031-.082031 21.214844zm0 0"></path><path d="m387.378906 163.710938c2.933594 2.953124 6.789063 4.433593 10.648438 4.433593 3.820312 0 7.640625-1.449219 10.566406-4.351562 5.878906-5.835938 5.917969-15.332031.082031-21.214844l-31.78125-32.027344c-5.835937-5.878906-15.332031-5.917969-21.214843-.082031-5.878907 5.835938-5.914063 15.332031-.082032 21.214844zm0 0"></path><path d="m377.976562 259.925781c2.933594 2.957031 6.789063 4.433594 10.648438 4.433594 3.820312 0 7.640625-1.449219 10.566406-4.351563 5.878906-5.835937 5.914063-15.332031.082032-21.210937l-31.785157-32.03125c-5.832031-5.878906-15.332031-5.917969-21.210937-.082031-5.878906 5.835937-5.917969 15.332031-.082032 21.214844zm0 0"></path></svg>