<svg height="512pt" viewBox="-70 0 512 512" width="512pt" xmlns="http://www.w3.org/2000/svg"><path d="m177.847656 114.59375 22.550782 22.722656c2.933593 2.957032 6.789062 4.4375 10.648437 4.4375 3.820313 0 7.640625-1.453125 10.566406-4.355468 5.878907-5.835938 5.914063-15.332032.082031-21.210938l-22.550781-22.726562c-5.835937-5.878907-15.332031-5.914063-21.214843-.082032-5.878907 5.835938-5.914063 15.332032-.082032 21.214844zm0 0"></path><path d="m268.128906 130.578125c2.929688 2.957031 6.785156 4.4375 10.644532 4.4375 3.820312 0 7.640624-1.453125 10.566406-4.355469 5.878906-5.835937 5.917968-15.332031.082031-21.210937l-22.550781-22.726563c-5.832032-5.878906-15.332032-5.914062-21.210938-.082031-5.882812 5.835937-5.917968 15.332031-.082031 21.214844zm0 0"></path><path d="m261.457031 198.84375c2.933594 2.957031 6.789063 4.433594 10.648438 4.433594 3.816406 0 7.636719-1.449219 10.5625-4.351563 5.882812-5.835937 5.917969-15.332031.082031-21.210937l-22.550781-22.726563c-5.832031-5.878906-15.332031-5.917969-21.210938-.082031-5.878906 5.835938-5.917969 15.332031-.082031 21.210938zm0 0"></path><path d="m360.324219 250.875c7.546875-20.210938 11.675781-42.074219 11.675781-64.886719 0-102.554687-83.4375-185.988281-186-185.988281-16.15625 0-31.839844 2.070312-46.796875 5.960938l-.003906-.015626c-.246094.070313-.492188.140626-.738281.210938-79.605469 21.058594-138.460938 93.703125-138.460938 179.832031 0 71.949219 41.066406 134.484375 100.992188 165.40625-11.507813 8.621094-18.964844 22.363281-18.964844 37.8125 0 12.617188 4.914062 24.476563 13.832031 33.398438 8.664063 8.660156 20.09375 13.542969 32.296875 13.816406-1.371094 5.066406-2.0625 10.308594-2.0625 15.671875 0 16.433594 6.519531 31.757812 18.359375 43.160156 11.273437 10.851563 25.933594 16.746094 41.511719 16.746094.78125 0 1.566406-.015625 2.351562-.046875 14.777344-.558594 28.945313-6.949219 39.898438-17.996094 10.949218-11.042969 17.222656-25.265625 17.664062-40.042969.175782-5.90625-.527344-11.8125-2.058594-17.488281 12.210938-.269531 23.652344-5.152343 32.320313-13.820312 8.917969-8.917969 13.832031-20.78125 13.832031-33.398438 0-15.449219-7.457031-29.191406-18.964844-37.8125 40.835938-21.070312 72.914063-56.824219 89.207032-100.230469.039062-.09375.082031-.1875.125-.28125zm-18.324219-64.886719c0 18.945313-3.394531 37.109375-9.605469 53.917969-17.816406 39.84375-65.5 46.300781-102.5 44.675781-37.175781-1.640625-70.230469-16.105469-95.589843-41.835937-24.785157-25.144532-40.078126-59.703125-43.0625-97.304688-4.367188-55.070312 17.753906-99.242187 55.121093-110.339844 12.660157-3.328124 25.945313-5.101562 39.636719-5.101562 86.019531 0 156 69.976562 156 155.988281zm-312 0c0-38.238281 13.832031-73.308593 36.757812-100.46875-5.21875 18.78125-7.199218 39.863281-5.417968 62.292969 3.539062 44.628906 21.863281 85.824219 51.597656 115.992188 30.332031 30.773437 71.398438 48.796874 115.632812 50.746093 3.867188.171875 7.660157.253907 11.394532.253907 13.929687 0 26.921875-1.183594 38.894531-3.542969-25.964844 19.289062-58.101563 30.714843-92.859375 30.714843-86.019531.003907-156-69.972656-156-155.988281zm212.742188 185.992188c9.5 0 17.230468 7.726562 17.230468 17.230469 0 4.601562-1.789062 8.925781-5.042968 12.179687-3.253907 3.253906-7.582032 5.046875-12.1875 5.046875h-9.550782c-7.835937 0-14.996094 3.964844-19.144531 10.605469-4.167969 6.671875-4.597656 14.886719-1.140625 21.972656 2.128906 4.367187 3.132812 9.078125 2.988281 14.003906-.445312 14.863281-13.863281 28.394531-28.714843 28.957031-8.222657.316407-16.007813-2.648437-21.917969-8.335937-5.910157-5.691406-9.164063-13.339844-9.164063-21.542969 0-4.636718 1.023438-9.074218 3.050782-13.1875 3.445312-6.992187 3.035156-15.128906-1.097657-21.769531-4.167969-6.703125-11.363281-10.703125-19.246093-10.703125h-9.542969c-4.605469 0-8.933594-1.792969-12.1875-5.046875-3.253907-3.253906-5.046875-7.582031-5.046875-12.183594 0-9.5 7.730468-17.226562 17.230468-17.226562zm0 0"></path></svg>