<svg height="512pt" viewBox="-91 0 512 512" width="512pt" xmlns="http://www.w3.org/2000/svg"><path d="m197.414062 432.484375h-64.828124c-8.285157 0-15 6.714844-15 15 0 8.28125 6.714843 15 15 15h64.828124c8.28125 0 15-6.71875 15-15 0-8.285156-6.71875-15-15-15zm0 0"></path><path d="m191.777344 374.511719h40c8.285156 0 15-6.714844 15-15 0-8.28125-6.714844-15-15-15h-40c-8.285156 0-15 6.71875-15 15 0 8.285156 6.714844 15 15 15zm0 0"></path><path d="m275.601562 0h-221.203124c-29.996094 0-54.398438 24.402344-54.398438 54.398438v403.203124c0 29.996094 24.402344 54.398438 54.398438 54.398438h221.203124c29.996094 0 54.398438-24.402344 54.398438-54.398438v-403.203124c0-29.996094-24.402344-54.398438-54.398438-54.398438zm-163.984374 30h108.160156v13.738281c0 2.75-2.238282 4.988281-4.988282 4.988281h-98.1875c-2.75 0-4.984374-2.238281-4.984374-4.988281zm188.382812 427.601562c0 13.453126-10.945312 24.398438-24.398438 24.398438h-221.203124c-13.453126 0-24.398438-10.945312-24.398438-24.398438v-151.90625h60.988281v38.816407h-5c-8.285156 0-15 6.71875-15 15 0 8.285156 6.714844 15 15 15h40c8.28125 0 15-6.714844 15-15 0-8.28125-6.71875-15-15-15h-5v-38.816407h179.011719zm0-181.90625h-179.011719v-30.539062h98.324219c15.144531 0 27.464844-12.316406 27.464844-27.460938v-56.582031c0-15.144531-12.320313-27.464843-27.464844-27.464843h-100.863281c-15.140625 0-27.460938 12.320312-27.460938 27.464843v114.582031h-60.988281v-221.296874c0-13.453126 10.945312-24.398438 24.398438-24.398438h27.21875v13.738281c0 19.292969 15.695312 34.988281 34.984374 34.988281h98.1875c19.292969 0 34.988282-15.695312 34.988282-34.988281v-13.738281h25.824218c13.453126 0 24.398438 10.945312 24.398438 24.398438zm-179.011719-60.539062v-51.507812h95.789063v51.507812zm0 0"></path></svg>