<svg height="512pt" viewBox="-106 0 512 512" width="512pt" xmlns="http://www.w3.org/2000/svg"><path d="m243.390625 91h-8.28125v-55.914062c0-19.347657-15.742187-35.085938-35.085937-35.085938h-100.046876c-19.347656 0-35.085937 15.738281-35.085937 35.085938v55.914062h-8.28125c-31.214844 0-56.609375 25.394531-56.609375 56.609375v216.78125c0 31.214844 25.394531 56.609375 56.609375 56.609375h8.28125v55.914062c0 19.347657 15.738281 35.085938 35.085937 35.085938h100.046876c19.34375 0 35.085937-15.738281 35.085937-35.085938v-55.914062h8.28125c31.214844 0 56.609375-25.394531 56.609375-56.609375v-216.78125c0-31.214844-25.394531-56.609375-56.609375-56.609375zm-148.5-55.914062c0-2.804688 2.28125-5.085938 5.085937-5.085938h100.046876c2.804687 0 5.085937 2.28125 5.085937 5.085938v55.914062h-110.21875zm-38.28125 85.914062h186.78125c14.671875 0 26.609375 11.9375 26.609375 26.609375v119.570313h-142.4375v-18h53.242188c15.140624 0 27.460937-12.320313 27.460937-27.460938v-27.367188c0-15.144531-12.320313-27.464843-27.460937-27.464843h-55.777344c-15.144532 0-27.464844 12.320312-27.464844 27.464843v72.828126h-67.5625v-119.570313c0-14.671875 11.9375-26.609375 26.609375-26.609375zm70.953125 75.886719h50.703125v22.292969h-50.703125zm77.546875 280.027343c0 2.804688-2.28125 5.085938-5.085937 5.085938h-100.046876c-2.804687 0-5.085937-2.28125-5.085937-5.085938v-55.914062h110.21875zm38.28125-85.914062h-186.78125c-14.671875 0-26.609375-11.9375-26.609375-26.609375v-67.210937h67.5625v18.089843c-7.257812 1.050781-12.832031 7.296875-12.832031 14.84375 0 8.285157 6.714843 15 15 15h25.664062c8.285157 0 15-6.714843 15-15 0-7.546875-5.574219-13.792969-12.832031-14.84375v-18.089843h142.4375v67.210937c0 14.671875-11.9375 26.609375-26.609375 26.609375zm0 0"></path><path d="m200.394531 315.113281h-25.664062c-8.28125 0-15 6.714844-15 15 0 8.285157 6.71875 15 15 15h25.664062c8.285157 0 15-6.714843 15-15 0-8.285156-6.714843-15-15-15zm0 0"></path></svg>