<svg height="512pt" viewBox="-63 0 512 512.001" width="512pt" xmlns="http://www.w3.org/2000/svg"><path d="m192.5 0c-106.144531 0-192.5 85.929688-192.5 191.546875 0 34.832031 9.492188 68.9375 27.449219 98.632813 9.449219 15.625 14.445312 33.566406 14.445312 51.890624l.007813 127.273438c0 23.519531 19.136718 42.65625 42.65625 42.65625h216.074218c23.355469 0 42.496094-19 42.660157-42.355469l.921875-130.125c.125-17.859375 4.949218-35.269531 13.945312-50.355469 17.558594-29.445312 26.839844-63.199218 26.839844-97.613281 0-105.621093-86.355469-191.550781-192.5-191.550781zm139.890625 273.800781c-11.726563 19.664063-18.011719 42.3125-18.175781 65.503907l-.921875 130.125c-.046875 6.929687-5.726563 12.570312-12.660157 12.570312h-216.070312c-6.980469 0-12.660156-5.679688-12.660156-12.660156l-.003906-127.269532c-.003907-23.796874-6.496094-47.109374-18.777344-67.417968-15.125-25.011719-23.121094-53.75-23.121094-83.105469 0-89.078125 72.898438-161.546875 162.5-161.546875s162.5 72.46875 162.5 161.546875c0 29.007813-7.816406 57.449219-22.609375 82.253906zm0 0"></path><path d="m172.117188 386.589844c8.179687 8.179687 18.925781 12.269531 29.671874 12.269531 10.746094 0 21.492188-4.089844 29.675782-12.269531 7.925781-7.925782 12.289062-18.464844 12.289062-29.675782 0-11.207031-4.363281-21.746093-12.289062-29.671874l-18.578125-18.582032c-7.925781-7.925781-18.464844-12.289062-29.675781-12.289062-11.210938 0-21.746094 4.363281-29.671876 12.289062-7.925781 7.925782-12.292968 18.464844-12.292968 29.675782 0 11.207031 4.363281 21.746093 12.289062 29.671874zm2.632812-56.714844c2.261719-2.261719 5.265625-3.503906 8.460938-3.503906 3.195312 0 6.199218 1.246094 8.460937 3.503906l18.578125 18.578125c2.257812 2.261719 3.503906 5.265625 3.503906 8.460937 0 3.195313-1.246094 6.199219-3.503906 8.460938-4.664062 4.664062-12.257812 4.664062-16.921875 0l-18.578125-18.578125c-2.261719-2.261719-3.503906-5.265625-3.503906-8.460937 0-3.195313 1.246094-6.199219 3.503906-8.460938zm0 0"></path><path d="m183.210938 269.628906c11.210937 0 21.75-4.363281 29.675781-12.292968l18.578125-18.578126c7.925781-7.925781 12.289062-18.464843 12.289062-29.671874 0-11.210938-4.363281-21.75-12.289062-29.675782-16.363282-16.359375-42.988282-16.359375-59.347656 0l-18.578126 18.578125c-7.925781 7.925781-12.292968 18.464844-12.292968 29.675781 0 11.210938 4.363281 21.746094 12.289062 29.675782 7.929688 7.925781 18.464844 12.289062 29.675782 12.289062zm-8.460938-50.425781 18.578125-18.578125c2.332031-2.332031 5.394531-3.5 8.460937-3.5 3.0625 0 6.128907 1.167969 8.460938 3.5 2.261719 2.261719 3.503906 5.265625 3.503906 8.460938 0 3.195312-1.246094 6.199218-3.503906 8.460937l-18.578125 18.578125c-2.261719 2.261719-5.265625 3.503906-8.460937 3.503906-3.195313 0-6.203126-1.242187-8.460938-3.503906-2.261719-2.261719-3.503906-5.265625-3.503906-8.460938 0-3.195312 1.246094-6.199218 3.503906-8.460937zm0 0"></path><path d="m230.105469 427.703125h-75.207031c-8.285157 0-15 6.714844-15 15 0 8.28125 6.714843 15 15 15h75.207031c8.28125 0 15-6.71875 15-15 0-8.285156-6.71875-15-15-15zm0 0"></path><path d="m189.929688 140.558594c8.285156 0 15-6.714844 15-15v-38.1875c0-8.285156-6.714844-15-15-15-8.285157 0-15 6.714844-15 15v38.1875c0 8.285156 6.714843 15 15 15zm0 0"></path></svg>