<svg height="512pt" viewBox="-63 0 512 512.001" width="512pt" xmlns="http://www.w3.org/2000/svg"><path d="m192.5 0c-106.144531 0-192.5 85.929688-192.5 191.546875 0 34.832031 9.492188 68.9375 27.449219 98.632813 9.449219 15.625 14.445312 33.566406 14.445312 51.890624l.007813 127.273438c0 23.519531 19.136718 42.65625 42.65625 42.65625h216.074218c23.355469 0 42.496094-19 42.660157-42.355469l.921875-130.125c.125-17.859375 4.949218-35.269531 13.945312-50.355469 17.558594-29.445312 26.839844-63.199218 26.839844-97.613281 0-105.621093-86.355469-191.550781-192.5-191.550781zm139.890625 273.800781c-11.726563 19.664063-18.011719 42.3125-18.175781 65.503907l-.921875 130.125c-.046875 6.929687-5.726563 12.570312-12.660157 12.570312h-216.070312c-6.980469 0-12.660156-5.679688-12.660156-12.660156l-.003906-127.269532c-.003907-23.796874-6.496094-47.109374-18.777344-67.417968-15.125-25.011719-23.121094-53.75-23.121094-83.105469 0-89.078125 72.898438-161.546875 162.5-161.546875s162.5 72.46875 162.5 161.546875c0 29.007813-7.816406 57.449219-22.609375 82.253906zm0 0"></path><path d="m192.5 140.558594c8.285156 0 15-6.714844 15-15v-38.1875c0-8.285156-6.714844-15-15-15s-15 6.714844-15 15v38.1875c0 8.285156 6.714844 15 15 15zm0 0"></path><path d="m172.777344 251.363281c16.363281-16.359375 16.363281-42.984375 0-59.347656-16.359375-16.363281-42.984375-16.359375-59.347656 0l-18.578126 18.578125c-7.925781 7.925781-12.292968 18.464844-12.292968 29.675781 0 11.207031 4.367187 21.746094 12.292968 29.671875 8.179688 8.183594 18.925782 12.273438 29.675782 12.273438 10.746094 0 21.492187-4.089844 29.671875-12.273438zm-39.789063-2.632812c-4.667969 4.664062-12.257812 4.664062-16.921875 0-2.261718-2.261719-3.503906-5.265625-3.503906-8.460938 0-3.195312 1.242188-6.203125 3.503906-8.460937l18.578125-18.578125c2.332031-2.335938 5.398438-3.5 8.460938-3.5s6.128906 1.167969 8.460937 3.5c4.664063 4.664062 4.664063 12.253906 0 16.921875zm0 0"></path><path d="m276.757812 192.015625c-7.925781-7.925781-18.464843-12.289063-29.675781-12.289063-11.207031 0-21.746093 4.363282-29.671875 12.289063-16.363281 16.363281-16.363281 42.988281 0 59.347656l18.578125 18.582031c8.179688 8.179688 18.929688 12.269532 29.675781 12.269532 10.746094 0 21.492188-4.089844 29.671876-12.269532 7.925781-7.925781 12.292968-18.464843 12.292968-29.675781 0-11.207031-4.367187-21.746093-12.292968-29.671875zm-2.636718 56.714844c-4.664063 4.664062-12.253906 4.664062-16.917969 0l-18.582031-18.578125c-4.664063-4.667969-4.664063-12.257813 0-16.921875 2.261718-2.261719 5.265625-3.503907 8.460937-3.503907 3.195313 0 6.203125 1.242188 8.460938 3.503907l18.578125 18.578125c2.261718 2.257812 3.503906 5.261718 3.503906 8.460937 0 3.195313-1.242188 6.199219-3.503906 8.460938zm0 0"></path><path d="m222.078125 361.074219h-59.152344c-12.699219 0-23.027343 10.328125-23.027343 23.027343v50.574219c0 12.695313 10.328124 23.027344 23.027343 23.027344h59.152344c12.695313 0 23.027344-10.332031 23.027344-23.027344v-50.574219c0-12.699218-10.332031-23.027343-23.027344-23.027343zm-6.972656 66.628906h-45.207031v-36.628906h45.207031zm0 0"></path></svg>