<svg height="512pt" viewBox="-125 0 512 512" width="512pt" xmlns="http://www.w3.org/2000/svg"><path d="m249.03125 177.246094c8.054688-8.882813 12.96875-20.652344 12.96875-33.550782 0-15.660156-6.855469-30.457031-18.8125-40.597656l-27.625-23.425781c9.992188-8.261719 16.371094-20.738281 16.371094-34.671875 0-24.8125-20.21875-45-45.070313-45h-111.726562c-24.851563 0-45.070313 20.1875-45.070313 45 0 13.933594 6.378906 26.410156 16.371094 34.671875l-27.625 23.425781c-11.957031 10.140625-18.8125 24.9375-18.8125 40.597656 0 12.898438 4.914062 24.667969 12.96875 33.546876-8.015625 8.152343-12.96875 19.316406-12.96875 31.617187 0 11.574219 4.386719 22.144531 11.582031 30.140625-7.195312 7.996094-11.582031 18.566406-11.582031 30.140625s4.386719 22.144531 11.582031 30.140625c-7.195312 7.996094-11.582031 18.566406-11.582031 30.140625 0 12.300781 4.953125 23.464844 12.96875 31.613281-8.054688 8.882813-12.96875 20.652344-12.96875 33.550782v52.292968c0 35.90625 29.265625 65.121094 65.234375 65.121094h131.53125c35.96875 0 65.234375-29.214844 65.234375-65.121094v-52.292968c0-12.898438-4.914062-24.671876-12.96875-33.550782 8.015625-8.148437 12.96875-19.3125 12.96875-31.613281 0-11.574219-4.386719-22.144531-11.582031-30.140625 7.195312-8 11.582031-18.570312 11.582031-30.140625 0-11.574219-4.386719-22.144531-11.582031-30.144531 7.195312-7.996094 11.582031-18.566406 11.582031-30.140625 0-12.296875-4.953125-23.460938-12.96875-31.609375zm-17.03125 91.894531c0 8.347656-6.824219 15.140625-15.210938 15.140625h-171.578124c-8.390626 0-15.210938-6.792969-15.210938-15.140625s6.824219-15.140625 15.210938-15.140625h171.578124c8.386719 0 15.210938 6.792969 15.210938 15.140625zm0 60.28125c0 8.347656-6.824219 15.140625-15.210938 15.140625h-171.578124c-8.390626 0-15.210938-6.792969-15.210938-15.140625s6.824219-15.140625 15.210938-15.140625h171.578124c8.386719 0 15.210938 6.792969 15.210938 15.140625zm-186.789062-105.421875c-8.390626 0-15.210938-6.792969-15.210938-15.140625s6.824219-15.140625 15.210938-15.140625h171.578124c8.386719 0 15.210938 6.792969 15.210938 15.140625s-6.824219 15.140625-15.210938 15.140625zm29.925781-194h111.726562c8.308594 0 15.070313 6.730469 15.070313 15s-6.761719 15-15.070313 15h-111.726562c-8.308594 0-15.070313-6.730469-15.070313-15s6.761719-15 15.070313-15zm-36.917969 95.976562 42.421875-35.976562h100.71875l42.421875 35.976562c5.226562 4.429688 8.21875 10.886719 8.21875 17.71875 0 11.042969-9.015625 20.023438-20.101562 20.023438h-161.796876c-11.085937 0-20.101562-8.980469-20.101562-20.023438 0-6.832031 2.996094-13.289062 8.21875-17.71875zm193.78125 320.902344c0 19.367188-15.804688 35.121094-35.234375 35.121094h-131.53125c-19.429687 0-35.234375-15.753906-35.234375-35.121094v-52.292968c0-11.042969 9.015625-20.023438 20.101562-20.023438h161.796876c11.085937 0 20.101562 8.980469 20.101562 20.023438zm0 0"></path></svg>