<svg height="511pt" viewBox="0 -35 511.99976 511" width="511pt" xmlns="http://www.w3.org/2000/svg"><path d="m506.644531 20.691406c-7.183593-12.640625-20.101562-20.191406-34.550781-20.191406h-98.367188c-12.488281 0-24.242187 6.707031-30.667968 17.5l-69.445313 116.621094c-5.78125-.683594-11.65625-1.03125-17.613281-1.03125s-11.835938.351562-17.613281 1.03125l-69.445313-116.617188c-6.425781-10.796875-18.179687-17.503906-30.667968-17.503906h-98.367188c-14.449219 0-27.367188 7.550781-34.550781 20.191406-7.28125 12.816406-7.128907 28.027344.410156 40.6875l106.132813 178.230469c-4.808594 14.945313-7.40625 30.886719-7.40625 47.433594-.003907 84.617187 67.964843 153.457031 151.507812 153.457031s151.511719-68.839844 151.511719-153.457031c0-16.546875-2.601563-32.488281-7.40625-47.433594l106.128906-178.230469c7.539063-12.660156 7.691406-27.871094.410156-40.6875zm-137.816406 12.660156c1.0625-1.785156 2.894531-2.851562 4.898437-2.851562h39.949219l-75.878906 127.425781c-10.351563-6.75-21.566406-12.261719-33.429687-16.320312zm-225.65625 0 64.460937 108.253907c-11.863281 4.058593-23.078124 9.570312-33.429687 16.320312l-75.878906-127.425781h39.949219c2.003906 0 3.835937 1.066406 4.898437 2.851562zm-111.636719 12.675782c-2.804687-4.710938-1.007812-8.921875-.101562-10.511719.855468-1.507813 3.398437-5.015625 8.472656-5.015625h23.503906l87.1875 146.410156c-8.984375 8.820313-16.894531 18.753906-23.511718 29.578125zm224.464844 364.472656c-67.003906 0-121.515625-55.382812-121.515625-123.457031s54.511719-123.453125 121.515625-123.453125 121.515625 55.382812 121.515625 123.453125c0 68.074219-54.511719 123.457031-121.515625 123.457031zm224.464844-364.472656-95.554688 160.464844c-6.617187-10.828126-14.523437-20.761719-23.507812-29.582032l87.183594-146.410156h23.507812c5.074219 0 7.613281 3.507812 8.472656 5.015625.90625 1.589844 2.703125 5.800781-.101562 10.511719zm0 0"></path><path d="m256 210.125c-42.40625 0-76.90625 34.503906-76.90625 76.917969 0 42.414062 34.5 76.921875 76.90625 76.921875s76.90625-34.507813 76.90625-76.921875c0-42.414063-34.5-76.917969-76.90625-76.917969zm0 123.839844c-25.867188 0-46.914062-21.046875-46.914062-46.921875 0-25.871094 21.046874-46.917969 46.914062-46.917969s46.914062 21.046875 46.914062 46.917969c0 25.875-21.046874 46.921875-46.914062 46.921875zm0 0"></path></svg>