<svg height="511pt" viewBox="-103 0 511 511.99923" width="511pt" xmlns="http://www.w3.org/2000/svg"><path d="m305.484375 153.402344c0-84.585938-68.40625-153.402344-152.492187-153.402344-84.085938 0-152.492188 68.816406-152.492188 153.402344 0 41.949218 16.824219 80.019531 44.046875 107.742187v219.285157c0 12.429687 7.035156 23.390624 18.359375 28.605468 11.386719 5.242188 24.375 3.441406 33.890625-4.703125l56.195313-48.089843 56.199218 48.089843c5.902344 5.054688 13.148438 7.664063 20.515625 7.664063 4.503907 0 9.054688-.972656 13.375-2.964844 11.324219-5.210938 18.355469-16.171875 18.355469-28.601562v-219.285157c27.222656-27.722656 44.046875-65.792969 44.046875-107.742187zm-152.492187-123.402344c67.542968 0 122.496093 55.355469 122.496093 123.402344 0 68.042968-54.953125 123.402344-122.496093 123.402344-67.542969 0-122.492188-55.359376-122.492188-123.402344 0-68.046875 54.949219-123.402344 122.492188-123.402344zm-75.699219 451.542969c-.25.210937-.828125.707031-1.84375.242187-.90625-.417968-.90625-1.003906-.90625-1.355468v-195.523438c18.886719 11.441406 40.425781 18.886719 63.449219 21.160156v123.53125zm153.242187.242187c-1.011718.46875-1.59375-.03125-1.839844-.242187l-60.703124-51.945313v-123.53125c23.023437-2.273437 44.5625-9.71875 63.449218-21.160156v195.523438c0 .351562 0 .9375-.90625 1.355468zm0 0"></path><path d="m152.992188 230.296875c42.652343 0 77.355468-34.496094 77.355468-76.894531 0-42.402344-34.703125-76.898438-77.355468-76.898438-42.652344 0-77.355469 34.496094-77.355469 76.898438 0 42.398437 34.703125 76.894531 77.355469 76.894531zm0-123.792969c26.113281 0 47.355468 21.039063 47.355468 46.898438 0 25.855468-21.242187 46.894531-47.355468 46.894531-26.113282 0-47.355469-21.039063-47.355469-46.894531 0-25.859375 21.242187-46.898438 47.355469-46.898438zm0 0"></path></svg>