<svg height="512pt" viewBox="0 -21 512 512" width="512pt" xmlns="http://www.w3.org/2000/svg"><path d="m497 440h-22.953125c-.015625-.070312-.027344-.144531-.039063-.21875-8.859374-48.652344-32.386718-177.902344 26.160157-252.988281 6.472656-8.257813 6.007812-19.863281-1.128907-27.628907-7.109374-7.691406-18.625-9.117187-27.414062-3.378906-51.414062 33.722656-137 114.957032-143.734375 284.214844h-5.769531c-1.375-45.628906-6.519532-87.078125-14.484375-124.6875-2.839844-16.128906-.824219-61.675781 12.761719-116.195312 9.351562-37.515626 31.484374-106.757813 74.640624-148.925782 7.875-7.648437 9.050782-19.761718 2.777344-28.824218-6.28125-9.042969-18.050781-12.164063-27.996094-7.421876-37.707031 18.003907-91.355468 49.464844-136.859374 118.28125-41.835938-63.453124-90.425782-103.949218-127.304688-128.140624-4.035156-2.671876-8.738281-4.085938-13.605469-4.085938-6.894531 0-13.527343 2.90625-18.222656 8.003906-8.199219 8.9375-8.734375 22.371094-1.273437 31.941406 23.203124 29.765626 41.628906 67.085938 54.761718 110.929688 11.042969 36.851562 18.417969 78.488281 21.925782 123.746094 5.777343 74.488281-.433594 138.550781-3.804688 165.378906h-6.765625c-6.101563-121.804688-68.34375-180.703125-105.902344-205.335938-8.054687-5.277343-18.640625-3.972656-25.203125 3.140626-6.503906 7.09375-6.925781 17.75-1.011718 25.328124 40.75 52.25 35.140624 141.070313 30.835937 176.867188h-22.390625c-8.285156 0-15 6.714844-15 15s6.714844 15 15 15h482c8.285156 0 15-6.714844 15-15s-6.714844-15-15-15zm-20.464844-271.683594c-.003906.003906-.011718.011719-.015625.019532zm-23.507812 40.015625c-35.03125 80.90625-18.042969 184.222657-9.472656 231.667969h-85.613282c2.886719-64.117188 20.722656-162.410156 95.085938-231.667969zm-105.445313-148.082031c-19.9375 28.414062-41.042969 70.414062-56.292969 131.613281-3.238281 12.992188-5.992187 26.179688-8.21875 39.039063-9.703124-25.667969-20.765624-48.976563-32.683593-70.117188 30.570312-50.527344 66.101562-80.921875 97.195312-100.535156zm-168.429687 212.054688c-7.15625-92.324219-29.113282-168.066407-65.347656-225.6875 144.773437 110.800781 174.71875 286.480468 178.285156 393.382812h-116.4375c3.585937-30.011719 9.210937-94.0625 3.5-167.695312zm-109.429688 95.464843c-1.582031-26.914062-5.910156-50.996093-12.929687-72.085937 38.488281 45.875 49.441406 103.625 51.804687 144.316406h-40.996094c1.964844-17.484375 3.808594-43.578125 2.121094-72.230469zm0 0"></path></svg>