<svg height="512pt" viewBox="0 -38 512.00024 512" width="512pt" xmlns="http://www.w3.org/2000/svg"><path d="m507.886719 305.273438c-10.285157-25.097657-25.109375-42.863282-45.316407-54.308594-12.9375-7.328125-28.550781-8.929688-42.824218-4.394532-14.035156 4.453126-25.15625 14.117188-31.320313 27.203126l-36.375 77.222656c-.871093 1.851562-1.636719 3.722656-2.292969 5.613281l-71.359374-71.347656 209.28125-209.253907c8.042968-8.039062 12.472656-18.734374 12.472656-30.109374 0-11.371094-4.429688-22.0625-12.472656-30.105469-16.601563-16.597657-43.613282-16.601563-60.210938 0l-107.984375 107.96875c-8.042969 8.039062-12.472656 18.734375-12.472656 30.105469 0 11.375 4.429687 22.066406 12.472656 30.109374l8.890625 8.890626-71.1875 71.179687-73.5625-73.546875 8.894531-8.894531c8.042969-8.039063 12.46875-18.734375 12.46875-30.105469 0-11.375-4.429687-22.066406-12.46875-30.109375l-109.648437-109.628906c-15.683594-15.683594-41.203125-15.679688-56.886719 0l-1.664063 1.660156c-8.042968 8.042969-12.46875 18.734375-12.46875 30.109375s4.429688 22.066406 12.46875 30.109375l211.652344 211.617187-73.730468 73.722657c-.65625-1.890625-1.417969-3.765625-2.292969-5.617188l-36.375-77.222656c-6.160157-13.085937-17.285157-22.746094-31.320313-27.203125-14.277344-4.535156-29.886718-2.933594-42.824218 4.394531-20.207032 11.449219-35.03125 29.214844-45.316407 54.3125-8.304687 20.269531-3.84375 42.480469 11.648438 57.96875l54.066406 54.058594c10.222656 10.21875 23.644531 15.328125 37.070313 15.328125 13.421874 0 26.851562-5.109375 37.070312-15.328125l113.214844-113.203125 110.847656 110.835938c10.222656 10.21875 23.644531 15.328124 37.070312 15.328124 13.425782 0 26.851563-5.113281 37.070313-15.332031l54.066406-54.054687c15.492188-15.492188 19.953125-37.703125 11.648438-57.972656zm-167.195313-160.296876 107.980469-107.964843c2.457031-2.453125 5.675781-3.679688 8.898437-3.679688 3.226563 0 6.449219 1.226563 8.902344 3.679688 2.375 2.375 3.683594 5.53125 3.683594 8.890625 0 3.355468-1.308594 6.515625-3.683594 8.890625l-116.882812 116.863281-8.898438-8.894531c-2.375-2.375-3.683594-5.535157-3.683594-8.890625 0-3.359375 1.308594-6.519532 3.683594-8.894532zm-169.382812 15.414063-8.898438 8.898437-116.882812-116.867187c-2.375-2.375-3.683594-5.53125-3.683594-8.890625s1.308594-6.515625 3.683594-8.890625l1.660156-1.660156c1.996094-1.996094 4.617188-2.992188 7.238281-2.992188 2.621094 0 5.242188.996094 7.238281 2.992188l109.644532 109.628906c2.375 2.375 3.683594 5.53125 3.683594 8.890625 0 3.355469-1.308594 6.515625-3.683594 8.890625zm-42.503906 232.023437-6.042969 6.039063c-8.75 8.746094-22.980469 8.746094-31.730469 0l-54.0625-54.058594c-6.882812-6.882812-8.789062-16.367187-5.101562-25.371093 7.636718-18.632813 18.214843-31.582032 32.34375-39.582032 3.554687-2.015625 7.578124-3.042968 11.644531-3.042968 2.457031 0 4.929687.375 7.320312 1.132812 6.074219 1.929688 10.660157 5.871094 13.265625 11.398438l36.375 77.21875c4.328125 9.191406 2.75 19.5-4.011718 26.265624zm346.226562-50.386718-54.066406 54.058594c-8.746094 8.746093-22.980469 8.746093-31.726563 0l-6.042969-6.042969c-6.761718-6.765625-8.339843-17.074219-4.011718-26.261719l36.375-77.21875c2.605468-5.527344 7.191406-9.46875 13.265625-11.398438 2.390625-.761718 4.863281-1.136718 7.320312-1.136718 4.066407 0 8.089844 1.03125 11.644531 3.042968 14.128907 8 24.707032 20.949219 32.34375 39.582032 3.6875 9.007812 1.78125 18.492187-5.101562 25.375zm0 0"></path></svg>