<svg height="512pt" viewBox="0 -26 512 512" width="512pt" xmlns="http://www.w3.org/2000/svg"><path d="m494.417969 198.695312c-32.3125-20.507812-69.109375-32.46875-107.230469-34.957031v-34.730469l55.09375-21.460937c11.886719-4.628906 19.570312-15.871094 19.570312-28.644531 0-12.769532-7.683593-24.015625-19.570312-28.644532l-55.09375-21.457031v-13.800781c0-8.285156-6.714844-15-15-15s-15 6.714844-15 15v148.742188c-64.1875 4.242187-123.855469 35.53125-164.03125 86.054687-22.355469-18.292969-48.214844-30.523437-76.414062-36.226563v-27.945312c34.578124-6.992188 60.699218-37.675781 60.699218-74.355469 0-41.824219-33.957031-75.851562-75.699218-75.851562-41.742188 0-75.699219 34.027343-75.699219 75.851562 0 36.679688 26.117187 67.363281 60.699219 74.355469v24.386719c-2.539063-.097657-5.09375-.148438-7.660157-.148438-17.675781 0-35.15625 2.535157-51.957031 7.535157-15.96875 4.753906-27.125 19.71875-27.125 36.394531v163.574219c0 23.507812 19.082031 42.632812 42.539062 42.632812h426.917969c23.457031 0 42.539063-19.125 42.539063-42.628906l.003906-186.625c0-13.078125-6.574219-25.058594-17.582031-32.050782zm-63.023438-120.480468c.3125.121094.457031.175781.457031.6875 0 .511718-.144531.570312-.457031.691406l-44.207031 17.21875v-35.816406zm-375.351562 33.054687c0-25.28125 20.5-45.851562 45.699219-45.851562 25.199218 0 45.699218 20.570312 45.699218 45.851562 0 20.011719-12.847656 37.074219-30.699218 43.316407v-35.832032c0-8.285156-6.714844-15-15-15-8.285157 0-15 6.714844-15 15v35.832032c-17.851563-6.242188-30.699219-23.304688-30.699219-43.316407zm-26.042969 306.097657v-163.574219c0-3.503907 2.335938-6.644531 5.683594-7.640625 14.019531-4.171875 28.621094-6.289063 43.398437-6.289063 39.902344 0 75.824219 14.160157 103.882813 40.941407 21.980468 19.652343 38.835937 40.804687 50.640625 63.832031 12.976562 25.316406 20.425781 53.972656 22.210937 85.363281h-213.277344c-6.914062 0-12.539062-5.664062-12.539062-12.632812zm451.996094.003906c0 6.964844-5.625 12.628906-12.539063 12.628906h-183.589843c-3.128907-63.097656-26.3125-115.65625-70.53125-159.875 37.59375-48.320312 95.492187-76.878906 156.851562-76.878906 37.726562 0 74.433594 10.644531 106.152344 30.777344 2.292968 1.457031 3.660156 3.96875 3.660156 6.722656zm0 0"></path></svg>