<svg height="512pt" viewBox="0 -51 512 512" width="512pt" xmlns="http://www.w3.org/2000/svg"><path d="m371.226562 306.386719c-8.777343 0-17.113281 2.125-24.710937 6.285156-.566406.304687-1.246094.246094-1.714844-.136719-.433593-.351562-.625-.980468-.46875-1.5 3.671875-12.027344 5.691407-24.523437 6.015625-37.199218 19.128906-4.285157 36.589844-14.257813 50.183594-28.863282 16.980469-18.246094 26.332031-42.042968 26.332031-67.007812 0-54.167969-43.949219-98.238282-97.972656-98.238282-37.527344 0-71.15625 21.253907-87.578125 54.125-8.601562-1.882812-17.515625-2.992187-26.667969-3.242187l-.410156-.003906c-37.03125 0-72.34375 14.148437-99.4375 39.84375-27.335937 25.921875-42.804687 60.316406-43.554687 96.824219-.019532.792968-.671876 1.417968-1.46875 1.425781-38.472657.332031-69.773438 31.933593-69.773438 70.441406l.015625.703125c1.796875 38.472656 33.359375 69.773438 70.339844 69.773438l300.886719.382812c28.511718 0 51.703124-23.234375 51.703124-51.796875 0-28.570313-23.203124-51.816406-51.71875-51.816406zm-42.335937-196.585938c37.484375 0 67.976563 30.578125 67.976563 68.160157 0 30.6875-20.628907 57.148437-48.988282 65.457031-8.488281-44.511719-37.796875-81.285157-77.722656-99.839844 11.996094-20.644531 34.160156-33.777344 58.734375-33.777344zm42.371094 270.125-300.886719-.386719c-20.746094 0-39.160156-18.625-40.378906-40.75.1875-21.90625 18.078125-39.824218 40.054687-40.015624 17.113281-.167969 30.808594-13.71875 31.179688-30.867188.582031-28.410156 12.71875-55.261719 34.175781-75.605469 21.453125-20.34375 49.367188-31.570312 78.625-31.621093 59.660156 1.738281 106.367188 49.808593 106.367188 109.523437 0 10.933594-1.597657 21.710937-4.753907 32.050781-3.738281 12.3125.28125 25.511719 10.257813 33.636719 9.921875 8.058594 23.601562 9.335937 34.917968 3.214844 3.207032-1.753907 6.707032-2.640625 10.40625-2.640625 11.980469 0 21.722657 9.75 21.722657 21.738281 0 11.976563-9.734375 21.722656-21.6875 21.722656zm0 0"></path><path d="m497.003906 156.617188h-29.675781c-8.28125 0-14.996094 6.734374-14.996094 15.039062s6.714844 15.035156 14.996094 15.035156h29.675781c8.28125 0 14.996094-6.730468 14.996094-15.035156 0-8.308594-6.714844-15.039062-14.996094-15.039062zm0 0"></path><path d="m328.890625 59.828125c8.285156 0 15-6.730469 15-15.039063v-29.75c0-8.304687-6.714844-15.039062-15-15.039062-8.28125 0-14.996094 6.734375-14.996094 15.039062v29.75c0 8.308594 6.714844 15.039063 14.996094 15.039063zm0 0"></path><path d="m426.585938 95.039062c3.839843 0 7.675781-1.464843 10.605468-4.402343l20.980469-21.039063c5.859375-5.871094 5.859375-15.394531 0-21.265625-5.855469-5.875-15.351563-5.875-21.210937 0l-20.980469 21.035157c-5.859375 5.875-5.859375 15.394531 0 21.269531 2.929687 2.9375 6.765625 4.402343 10.605469 4.402343zm0 0"></path><path d="m220.589844 90.636719c2.929687 2.9375 6.765625 4.40625 10.605468 4.40625 3.835938 0 7.675782-1.46875 10.605469-4.40625 5.855469-5.871094 5.855469-15.394531 0-21.265625l-20.980469-21.039063c-5.859374-5.871093-15.355468-5.871093-21.210937 0-5.859375 5.871094-5.859375 15.394531 0 21.265625zm0 0"></path><path d="m437.191406 265.289062c-5.855468-5.875-15.351562-5.875-21.210937 0-5.859375 5.871094-5.859375 15.394532 0 21.265626l20.980469 21.039062c2.929687 2.9375 6.769531 4.402344 10.605468 4.402344 3.839844 0 7.675782-1.46875 10.605469-4.402344 5.859375-5.871094 5.859375-15.394531 0-21.265625zm0 0"></path></svg>