<svg height="512pt" viewBox="0 -58 512.001 512" width="512pt" xmlns="http://www.w3.org/2000/svg"><path d="m458.554688 35.910156c-6.027344-21.144531-25.546876-35.910156-47.472657-35.910156-27.015625 0-49.03125 21.875-49.367187 48.886719-.105469 8.304687 6.375 15.449219 14.675781 15.625 8.429687.175781 15.320313-6.605469 15.320313-15 0-10.757813 8.6875-19.511719 19.371093-19.511719 8.59375 0 16.25 5.8125 18.621094 14.128906l46.144531 161.953125c-145.992187-14.929687-293.703125-14.929687-439.695312 0l46.144531-161.953125c2.371094-8.320312 10.027344-14.128906 18.621094-14.128906 10.554687 0 19.167969 8.550781 19.367187 19.132812.140625 7.445313 5.234375 14.042969 12.589844 15.191407 9.351562 1.460937 17.414062-5.734375 17.414062-14.8125 0-27.300781-22.148437-49.511719-49.371093-49.511719-21.929688 0-41.449219 14.765625-47.472657 35.910156l-53.148437 184.90625c-.183594.644532-.2773438 1.308594-.28125 1.980469l-.015625 29.480469c0 5.300781 1.355469 10.632812 3.917969 15.429687 3.089843 5.773438 5.296875 15.128907 6.6875 21.664063 1.386719 6.503906 2.382812 14.105468 3.441406 22.167968 3.285156 24.957032 7.007813 53.242188 23.851563 66.320313 14.34375 11.132813 62.941406 17.140625 101.378906 17.140625 25.082031 0 43.671875-2.558594 51.003906-7.019531l.105469-.066407c13.796875-8.554687 37.851562-55.652343 55.597656-93.652343 1.882813-4.023438 5.625-6.429688 10.015625-6.429688s8.132812 2.402344 10.011719 6.425781c17.75 38.003907 41.804687 85.101563 55.601562 93.65625l.097657.058594c7.320312 4.46875 25.914062 7.027344 51.007812 7.027344 38.4375 0 87.035156-6.007812 101.378906-17.140625 16.84375-13.078125 20.566406-41.363281 23.851563-66.332031 1.058593-8.042969 2.058593-15.644532 3.441406-22.15625 1.394531-6.539063 3.605469-15.898438 6.6875-21.664063 2.566406-4.796875 3.921875-10.132812 3.921875-15.429687v-28.105469c0-.832031-.113281-1.65625-.34375-2.457031zm23.445312 216.367188c0 .378906-.128906.820312-.375 1.277344-4.796875 8.972656-7.53125 19.980468-9.574219 29.566406-1.636719 7.675781-2.707031 15.851562-3.84375 24.503906-1.316406 10.007812-2.8125 21.347656-5.273437 30.757812-2.960938 11.300782-6.027344 14.757813-7.089844 15.664063-6.457031 3.863281-40.308594 10.953125-83.125 10.953125-21.527344 0-31.828125-2.023438-35.265625-2.894531-3.40625-3.949219-16.621094-21.359375-44.261719-80.546875-6.839844-14.632813-21.089844-23.726563-37.191406-23.726563-16.105469 0-30.355469 9.09375-37.195312 23.730469-27.632813 59.171875-40.847657 76.589844-44.257813 80.542969-3.4375.871093-13.738281 2.894531-35.269531 2.894531-42.8125 0-76.667969-7.085938-83.121094-10.953125-1.066406-.90625-4.132812-4.363281-7.089844-15.664063-2.464844-9.410156-3.957031-20.75-5.277344-30.761718-1.136718-8.65625-2.207031-16.828125-3.839843-24.5-2.042969-9.582032-4.777344-20.585938-9.574219-29.5625-.246094-.457032-.375-.898438-.375-1.28125v-15.390625c150.027344-16.007813 301.972656-16.007813 452 0zm0 0"></path></svg>