<svg height="512pt" viewBox="-65 0 512 512" width="512pt" xmlns="http://www.w3.org/2000/svg"><path d="m335.539062 85.242188h-53.722656v-4.527344c0-17.226563-13.980468-31.242188-31.167968-31.242188h-13.546876v-3.222656c0-25.503906-20.679687-46.25-46.101562-46.25s-46.101562 20.746094-46.101562 46.25v3.222656h-13.546876c-17.1875 0-31.167968 14.015625-31.167968 31.242188v4.527344h-53.722656c-25.617188 0-46.460938 20.910156-46.460938 46.609374v333.539063c0 25.703125 20.84375 46.609375 46.460938 46.609375h289.078124c25.617188 0 46.460938-20.90625 46.460938-46.609375v-333.539063c0-25.699218-20.84375-46.609374-46.460938-46.609374zm-205.355468-4.527344c0-.6875.523437-1.242188 1.167968-1.242188h21.328126c12.25 0 22.21875-9.984375 22.21875-22.25v-10.972656c0-8.960938 7.222656-16.25 16.101562-16.25s16.101562 7.289062 16.101562 16.25v10.96875c0 12.269531 9.96875 22.25 22.21875 22.25h21.328126c.644531 0 1.167968.558594 1.167968 1.246094v40.417968c0 .6875-.523437 1.246094-1.167968 1.246094h-119.296876c-.644531 0-1.167968-.558594-1.167968-1.246094zm221.816406 384.675781c0 9.160156-7.382812 16.609375-16.460938 16.609375h-289.078124c-9.078126 0-16.460938-7.449219-16.460938-16.609375v-333.539063c0-9.15625 7.382812-16.609374 16.460938-16.609374h53.722656v5.894531c0 17.226562 13.980468 31.246093 31.167968 31.246093h119.296876c17.1875 0 31.171874-14.019531 31.171874-31.246093v-5.894531h53.71875c9.078126 0 16.460938 7.453124 16.460938 16.609374zm0 0"></path><path d="m95.503906 369.738281c-25.421875 0-46.105468 20.746094-46.105468 46.25 0 25.503907 20.683593 46.253907 46.105468 46.253907 25.425782 0 46.109375-20.75 46.109375-46.253907 0-25.503906-20.683593-46.25-46.109375-46.25zm0 62.503907c-8.878906 0-16.105468-7.289063-16.105468-16.25 0-8.964844 7.226562-16.253907 16.105468-16.253907 8.882813 0 16.109375 7.289063 16.109375 16.253907 0 8.960937-7.226562 16.25-16.109375 16.25zm0 0"></path><path d="m317.40625 377.941406h-141.773438c-8.285156 0-15 6.714844-15 15 0 8.28125 6.714844 15 15 15h141.773438c8.285156 0 15-6.71875 15-15 0-8.285156-6.714844-15-15-15zm0 0"></path><path d="m317.40625 310.792969h-141.773438c-8.285156 0-15 6.714843-15 15 0 8.28125 6.714844 15 15 15h141.773438c8.285156 0 15-6.71875 15-15 0-8.285157-6.714844-15-15-15zm0 0"></path><path d="m126.613281 310.792969h-62.214843c-8.285157 0-15 6.714843-15 15 0 8.28125 6.714843 15 15 15h62.214843c8.28125 0 15-6.71875 15-15 0-8.285157-6.71875-15-15-15zm0 0"></path><path d="m317.503906 250.660156h-141.773437c-8.285157 0-15 6.714844-15 15 0 8.28125 6.714843 15 15 15h141.773437c8.285156 0 15-6.71875 15-15 0-8.285156-6.714844-15-15-15zm0 0"></path><path d="m126.707031 250.660156h-62.210937c-8.285156 0-15 6.714844-15 15 0 8.28125 6.714844 15 15 15h62.210937c8.285157 0 15-6.71875 15-15 0-8.285156-6.714843-15-15-15zm0 0"></path><path d="m317.503906 190.527344h-141.773437c-8.285157 0-15 6.714844-15 15s6.714843 15 15 15h141.773437c8.285156 0 15-6.714844 15-15s-6.714844-15-15-15zm0 0"></path><path d="m126.707031 190.527344h-62.210937c-8.285156 0-15 6.714844-15 15s6.714844 15 15 15h62.210937c8.285157 0 15-6.714844 15-15s-6.714843-15-15-15zm0 0"></path><path d="m246.519531 424.042969h-70.789062c-8.285157 0-15 6.714843-15 15 0 8.28125 6.714843 15 15 15h70.789062c8.285157 0 15-6.71875 15-15 0-8.285157-6.714843-15-15-15zm0 0"></path></svg>