<svg height="512pt" viewBox="-15 0 512 512" width="512pt" xmlns="http://www.w3.org/2000/svg"><path d="m482.953125 275.023438c-6.503906-123.335938-104.675781-220.992188-226.453125-228.449219v-31.574219c0-8.285156-6.714844-15-15-15s-15 6.714844-15 15v31.574219c-121.785156 7.457031-219.953125 105.117187-226.453125 228.457031-.710937 13.523438 6.617187 26.15625 18.675781 32.1875 17.507813 8.761719 44.128906 19.203125 71.53125 19.203125 28.617188 0 60.027344-17.875 75.316406-27.84375 12.3125 8.507813 35.4375 22.324219 60.929688 26.566406v141.84375c0 24.820313 20.1875 45.011719 45.003906 45.011719s45.003906-20.191406 45.003906-45.011719c0-8.285156-6.714843-15-15-15-8.28125 0-15 6.714844-15 15 0 8.277344-6.730468 15.011719-15.003906 15.011719-8.273437 0-15.003906-6.734375-15.003906-15.011719v-141.878906c25.25-4.246094 48.171875-17.835937 60.542969-26.332031 14.800781 10.171875 44.71875 27.644531 75.625 27.644531 27.402343 0 54.054687-10.441406 71.585937-19.199219 12.074219-6.03125 19.410156-18.671875 18.699219-32.199218zm-180.632813-2.507813c-12.660156 9.078125-38.054687 23.855469-60.898437 23.90625-24.378906 0-49.988281-16.230469-60.742187-23.90625-.472657-26.746094 1.558593-64.210937 12.378906-102.230469 10.300781-36.203125 26.570312-65.902344 48.441406-88.496094 21.871094 22.59375 38.140625 52.292969 48.441406 88.492188 10.820313 38.023438 12.851563 75.488281 12.378906 102.234375zm-270.171874 7.875c-1.386719-.691406-2.226563-2.175781-2.144532-3.78125 5.253906-99.707031 78.917969-180.253906 174.109375-197.207031-17.445312 23.035156-30.8125 50.699218-39.910156 82.667968-11.730469 41.21875-14 81.558594-13.527344 110.421876-13.894531 9.253906-40.199219 23.925781-60.421875 23.925781-22.683594.003906-46.140625-10.039063-58.105468-16.027344zm418.703124-.007813c-11.992187 5.988282-35.492187 16.039063-58.183593 16.039063-24.035157 0-49.308594-15.773437-60.347657-23.578125.492188-28.890625-1.746093-69.390625-13.523437-110.773438-9.097656-31.96875-22.46875-59.632812-39.910156-82.667968 95.1875 16.953125 168.847656 97.496094 174.105469 197.199218.085937 1.605469-.753907 3.089844-2.140626 3.78125zm0 0"></path></svg>