<svg height="512pt" viewBox="0 0 512 512" width="512pt" xmlns="http://www.w3.org/2000/svg"><path d="m446.867188 70.949219h-100.984376l-21.648437-51.203125c-5.074219-11.996094-16.761719-19.746094-29.78125-19.746094h-76.90625c-13.019531 0-24.707031 7.75-29.78125 19.746094l-21.648437 51.203125h-100.984376c-35.914062 0-65.132812 29.21875-65.132812 65.132812v240.199219c0 34.1875 26.476562 62.304688 60 64.929688v35.78125c0 19.304687 15.703125 35.007812 35.007812 35.007812h30.105469c19.300781 0 35.007813-15.703125 35.007813-35.007812v-35.582032h191.757812v35.582032c0 19.304687 15.707032 35.007812 35.007813 35.007812h30.105469c19.304687 0 35.007812-15.703125 35.007812-35.007812v-35.78125c33.523438-2.625 60-30.746094 60-64.929688v-240.199219c0-35.914062-29.21875-65.132812-65.132812-65.132812zm-231.46875-39.515625c.367187-.871094 1.210937-1.433594 2.148437-1.433594h76.90625c.9375 0 1.78125.5625 2.148437 1.429688l16.710938 39.519531h-114.625zm-85.277344 445.558594c0 2.761718-2.246094 5.007812-5.007813 5.007812h-30.105469c-2.761718 0-5.007812-2.246094-5.007812-5.007812v-35.582032h40.121094zm291.878906 0c0 2.761718-2.246094 5.007812-5.007812 5.007812h-30.105469c-2.761719 0-5.007813-2.246094-5.007813-5.007812v-35.582032h40.121094zm60-100.710938c0 19.371094-15.761719 35.128906-35.132812 35.128906h-381.734376c-19.371093 0-35.132812-15.757812-35.132812-35.128906v-240.199219c0-19.371093 15.761719-35.132812 35.132812-35.132812h381.734376c19.371093 0 35.132812 15.761719 35.132812 35.132812zm0 0"></path><path d="m171.667969 224.511719h-92.277344c-10.691406 0-19.390625 8.699219-19.390625 19.390625v118.253906c0 10.691406 8.699219 19.390625 19.390625 19.390625h92.277344c10.691406 0 19.390625-8.699219 19.390625-19.390625v-118.253906c0-10.691406-8.699219-19.390625-19.390625-19.390625zm-10.609375 127.035156h-71.058594v-97.035156h71.058594zm0 0"></path><path d="m432.546875 224.511719h-92.277344c-10.691406 0-19.390625 8.699219-19.390625 19.390625v118.253906c0 10.691406 8.699219 19.390625 19.390625 19.390625h92.277344c10.691406 0 19.390625-8.699219 19.390625-19.390625v-118.253906c0-10.691406-8.699219-19.390625-19.390625-19.390625zm-10.609375 127.035156h-71.058594v-97.035156h71.058594zm0 0"></path><path d="m256 252.109375c-8.285156 0-15 6.714844-15 15v10.925781c0 8.285156 6.714844 15 15 15s15-6.714844 15-15v-10.925781c0-8.285156-6.714844-15-15-15zm0 0"></path><path d="m256 307.246094c-8.285156 0-15 6.714844-15 15v10.925781c0 8.285156 6.714844 15 15 15 8.28125 0 15-6.714844 15-15v-10.925781c0-8.285156-6.71875-15-15-15zm0 0"></path><path d="m176.058594 147.714844h-101.058594c-8.285156 0-15 6.714844-15 15s6.714844 15 15 15h101.058594c8.285156 0 15-6.714844 15-15s-6.714844-15-15-15zm0 0"></path><path d="m437 127.25h-118.695312c-8.28125 0-15 6.714844-15 15s6.71875 15 15 15h118.695312c8.285156 0 15-6.714844 15-15s-6.714844-15-15-15zm0 0"></path><path d="m437 172.292969h-75.804688c-8.285156 0-15 6.71875-15 15 0 8.285156 6.714844 15 15 15h75.804688c8.285156 0 15-6.714844 15-15 0-8.28125-6.714844-15-15-15zm0 0"></path></svg>