<svg height="512pt" viewBox="0 0 512 512" width="512pt" xmlns="http://www.w3.org/2000/svg"><path d="m269.257812 258.785156c-5.839843-5.875-15.335937-5.90625-21.214843-.066406-5.878907 5.839844-5.90625 15.335938-.066407 21.210938l23.472657 23.628906c2.933593 2.949218 6.785156 4.425781 10.640625 4.425781 3.824218 0 7.648437-1.449219 10.574218-4.355469 5.875-5.839844 5.90625-15.339844.066407-21.214844zm0 0"></path><path d="m341.953125 296.554688c2.929687 2.949218 6.785156 4.425781 10.640625 4.425781 3.820312 0 7.644531-1.453125 10.570312-4.359375 5.878907-5.839844 5.90625-15.335938.070313-21.210938l-23.476563-23.628906c-5.835937-5.875-15.335937-5.90625-21.210937-.066406-5.878906 5.835937-5.90625 15.335937-.070313 21.210937zm0 0"></path><path d="m332.8125 322.757812c-5.835938-5.875-15.335938-5.90625-21.210938-.070312-5.878906 5.839844-5.90625 15.335938-.070312 21.214844l23.476562 23.625c2.929688 2.953125 6.785157 4.429687 10.640626 4.429687 3.820312 0 7.644531-1.453125 10.570312-4.359375 5.878906-5.839844 5.910156-15.335937.070312-21.210937zm0 0"></path><path d="m447.875 375.589844c.761719-6.941406 1.148438-13.953125 1.148438-21.011719 0-106.300781-86.582032-192.78125-193.003907-192.78125-106.425781 0-193.007812 86.480469-193.007812 192.78125 0 7.058594.386719 14.070313 1.148437 21.011719-42.578125 14.261718-64.160156 32.957031-64.160156 55.671875 0 25.667969 27.484375 46.175781 81.65625 60.953125 46.769531 12.757812 108.691406 19.785156 174.359375 19.785156 65.671875 0 127.59375-7.027344 174.363281-19.785156 54.171875-14.777344 81.621094-35.285156 81.621094-60.953125 0-22.714844-21.546875-41.410157-64.125-55.671875zm-417.859375 55.671875c0-3.625 7.585937-14.503907 39.8125-25.898438 5.882813 21.519531 15.472656 41.875 28.34375 60.144531-2.933594-.722656-5.804687-1.46875-8.617187-2.234374-43.375-11.832032-59.539063-25.914063-59.539063-32.011719zm115.921875 43.371093c-33.6875-30.824218-52.925781-74.335937-52.925781-120.054687 0-89.757813 73.125-162.78125 163.003906-162.78125 89.882813 0 163.007813 73.023437 163.007813 162.78125 0 45.71875-19.238282 89.230469-52.925782 120.054687-33.449218 4.8125-71.003906 7.363282-110.082031 7.363282-39.074219.003906-76.628906-2.550782-110.078125-7.363282zm276.542969-11.359374c-2.8125.765624-5.683594 1.511718-8.617188 2.234374 12.871094-18.269531 22.457031-38.625 28.34375-60.144531 32.226563 11.394531 39.8125 22.273438 39.8125 25.898438-.003906 6.097656-16.164062 20.179687-59.539062 32.011719zm0 0"></path><path d="m201.550781 127.035156c6.042969 6.050782 14.082031 9.382813 22.632813 9.382813 8.550781 0 16.589844-3.332031 22.636718-9.382813l101.371094-101.433594c5.855469-5.859374 5.851563-15.355468-.007812-21.210937s-15.355469-5.855469-21.214844.007813l-101.371094 101.433593c-.777344.777344-2.046875.777344-2.828125 0l-37.480469-37.503906c-5.855468-5.859375-15.351562-5.863281-21.214843-.003906-5.855469 5.855469-5.859375 15.351562-.003907 21.210937zm0 0"></path></svg>