<svg height="511pt" viewBox="0 1 511 511.99813" width="511pt" xmlns="http://www.w3.org/2000/svg"><path d="m269.703125 258.816406c-5.835937-5.875-15.332031-5.90625-21.210937-.066406-5.875 5.839844-5.90625 15.335938-.066407 21.210938l23.472657 23.625c2.929687 2.949218 6.785156 4.425781 10.640624 4.425781 3.820313 0 7.644532-1.453125 10.570313-4.359375 5.875-5.835938 5.90625-15.332032.066406-21.210938zm0 0"></path><path d="m342.390625 296.582031c2.933594 2.949219 6.785156 4.425781 10.640625 4.425781 3.820312 0 7.644531-1.453124 10.570312-4.359374 5.875-5.835938 5.90625-15.332032.066407-21.210938l-23.46875-23.621094c-5.839844-5.875-15.335938-5.90625-21.210938-.070312-5.875 5.839844-5.90625 15.335937-.070312 21.210937zm0 0"></path><path d="m333.253906 322.78125c-5.839844-5.875-15.335937-5.90625-21.210937-.070312-5.875 5.839843-5.90625 15.335937-.066407 21.210937l23.46875 23.625c2.933594 2.949219 6.785157 4.425781 10.640626 4.425781 3.820312 0 7.644531-1.449218 10.570312-4.355468 5.875-5.839844 5.90625-15.335938.070312-21.210938zm0 0"></path><path d="m448.300781 375.609375c.757813-6.941406 1.148438-13.957031 1.148438-21.011719 0-106.285156-86.570313-192.757812-192.980469-192.757812s-192.984375 86.472656-192.984375 192.757812c0 7.054688.386719 14.070313 1.152344 21.011719-42.578125 14.257813-64.136719 32.953125-64.136719 55.660156 0 25.667969 27.464844 46.175781 81.628906 60.949219 46.765625 12.753906 108.675782 19.78125 174.335938 19.78125 65.664062 0 127.578125-7.027344 174.339844-19.78125 54.164062-14.773438 81.628906-35.28125 81.628906-60.949219 0-22.707031-21.5625-41.402343-64.132813-55.660156zm-417.804687 55.660156c0-3.621093 7.582031-14.5 39.804687-25.894531 5.882813 21.519531 15.46875 41.871094 28.339844 60.140625-2.929687-.722656-5.804687-1.46875-8.617187-2.238281-43.367188-11.828125-59.527344-25.910156-59.527344-32.007813zm115.90625 43.367188c-33.683594-30.820313-52.921875-74.328125-52.921875-120.039063 0-89.75 73.117187-162.761718 162.984375-162.761718 89.871094 0 162.984375 73.011718 162.984375 162.761718 0 45.710938-19.234375 89.21875-52.917969 120.039063-33.441406 4.8125-70.992188 7.363281-110.066406 7.363281-39.066406.003906-76.621094-2.550781-110.0625-7.363281zm276.507812-11.355469c-2.8125.765625-5.6875 1.511719-8.617187 2.234375 12.871093-18.269531 22.457031-38.621094 28.339843-60.140625 32.222657 11.394531 39.804688 22.273438 39.804688 25.894531 0 6.097657-16.160156 20.179688-59.527344 32.011719zm0 0"></path><path d="m194.800781 127.722656c2.929688 2.929688 6.769531 4.394532 10.605469 4.394532 3.839844 0 7.679688-1.464844 10.605469-4.394532l40.453125-40.453125 40.453125 40.453125c2.929687 2.929688 6.769531 4.394532 10.605469 4.394532 3.839843 0 7.675781-1.464844 10.605468-4.394532 5.855469-5.855468 5.855469-15.355468 0-21.210937l-40.453125-40.453125 40.453125-40.453125c5.855469-5.859375 5.855469-15.355469 0-21.210938-5.855468-5.859375-15.351562-5.859375-21.210937 0l-40.453125 40.453125-40.453125-40.457031c-5.855469-5.855469-15.351563-5.855469-21.210938 0-5.855469 5.859375-5.855469 15.355469 0 21.210937l40.457031 40.457032-40.457031 40.453125c-5.855469 5.855469-5.855469 15.351562 0 21.210937zm0 0"></path></svg>