<svg height="512pt" viewBox="0 -77 512.0004 512" width="512pt" xmlns="http://www.w3.org/2000/svg"><path d="m270.40625 137.152344c2.933594 2.949218 6.785156 4.425781 10.640625 4.425781 3.824219 0 7.648437-1.453125 10.574219-4.363281 5.875-5.839844 5.902344-15.335938.0625-21.214844l-22.550782-22.6875c-5.839843-5.875-15.335937-5.90625-21.210937-.0625-5.875 5.839844-5.902344 15.335938-.0625 21.214844zm0 0"></path><path d="m338.136719 130.425781c2.933593 2.949219 6.785156 4.425781 10.640625 4.425781 3.820312 0 7.644531-1.453124 10.574218-4.363281 5.875-5.839843 5.902344-15.335937.0625-21.214843l-22.550781-22.6875c-5.839843-5.875-15.335937-5.90625-21.210937-.0625-5.875 5.839843-5.90625 15.335937-.066406 21.214843zm0 0"></path><path d="m331.464844 198.582031c2.933594 2.949219 6.785156 4.425781 10.640625 4.425781 3.820312 0 7.644531-1.453124 10.570312-4.359374 5.875-5.84375 5.90625-15.339844.066407-21.214844l-22.550782-22.691406c-5.839844-5.875-15.335937-5.902344-21.210937-.0625-5.875 5.839843-5.90625 15.339843-.066407 21.214843zm0 0"></path><path d="m25.574219 282.742188c8.933593-8.878907 23.472656-8.878907 32.410156 0 20.59375 20.46875 54.105469 20.46875 74.699219 0 8.9375-8.878907 23.476562-8.878907 32.410156 0 20.597656 20.472656 54.109375 20.46875 74.703125 0 8.933594-8.878907 23.472656-8.878907 32.40625 0 20.597656 20.46875 54.109375 20.46875 74.703125 0 8.9375-8.878907 23.472656-8.878907 32.410156 0 10.296875 10.234374 23.824219 15.351562 37.347656 15.351562 13.527344 0 27.054688-5.117188 37.355469-15.351562 8.933594-8.878907 23.472657-8.878907 32.40625 0 5.875 5.839843 15.375 5.8125 21.214844-.066407 5.839844-5.875 5.808594-15.375-.066406-21.214843-20.597657-20.46875-54.109375-20.464844-74.703125 0-2.792969 2.773437-6.132813 4.683593-9.675782 5.722656 12.355469-25.238282 18.804688-53.007813 18.804688-81.460938 0-102.40625-83.4375-185.722656-186-185.722656-102.558594 0-186 83.316406-186 185.722656 0 28.453125 6.453125 56.222656 18.804688 81.460938-3.542969-1.042969-6.882813-2.949219-9.675782-5.722656-20.59375-20.46875-54.105468-20.46875-74.703125 0-5.875 5.839843-5.902343 15.335937-.066406 21.214843 5.84375 5.878907 15.339844 5.90625 21.214844.066407zm230.425781-252.738282c86.019531 0 156 69.855469 156 155.71875 0 24.863282-5.867188 49.089844-17.085938 70.9375-20.683593-15.519531-50.320312-13.917968-69.152343 4.804688-8.933594 8.878906-23.472657 8.878906-32.410157-.003906-20.59375-20.46875-54.105468-20.464844-74.699218.003906-8.9375 8.878906-23.476563 8.878906-32.410156-.003906-18.835938-18.714844-48.472657-20.316407-69.152344-4.796876-11.21875-21.851562-17.089844-46.082031-17.089844-70.941406 0-85.863281 69.980469-155.71875 156-155.71875zm0 0"></path><path d="m432.871094 321.367188c-8.933594 8.878906-23.472656 8.878906-32.40625 0-20.597656-20.46875-54.109375-20.46875-74.703125 0-8.933594 8.878906-23.472657 8.878906-32.410157 0-20.597656-20.46875-54.105468-20.472657-74.703124 0-8.933594 8.878906-23.472657 8.878906-32.410157 0-20.59375-20.46875-54.105469-20.46875-74.703125 0-8.933594 8.882812-23.472656 8.878906-32.40625 0-20.597656-20.46875-54.105468-20.46875-74.703125 0-5.875 5.839843-5.90625 15.335937-.066406 21.214843 5.839844 5.875 15.339844 5.90625 21.214844.066407 8.933593-8.878907 23.472656-8.882813 32.40625 0 20.597656 20.46875 54.109375 20.46875 74.703125 0 8.9375-8.882813 23.472656-8.882813 32.410156 0 20.597656 20.46875 54.105469 20.46875 74.703125 0 8.933594-8.878907 23.472656-8.882813 32.40625 0 20.597656 20.46875 54.109375 20.46875 74.703125 0 8.9375-8.882813 23.476562-8.882813 32.410156 0 10.300782 10.234374 23.824219 15.351562 37.351563 15.351562 13.523437 0 27.054687-5.121094 37.351562-15.351562 8.933594-8.882813 23.472657-8.882813 32.40625 0 5.878907 5.839843 15.375 5.8125 21.214844-.066407 5.839844-5.875 5.808594-15.375-.066406-21.214843-20.59375-20.46875-54.109375-20.46875-74.703125 0zm0 0"></path></svg>