<svg height="512pt" viewBox="-23 0 512 512" width="512pt" xmlns="http://www.w3.org/2000/svg"><path d="m396.921875 113.835938c-40.363281-40.503907-92.953125-64.28125-149.421875-67.863282v-30.972656c0-8.285156-6.714844-15-15-15s-15 6.714844-15 15v30.972656c-56.46875 3.582032-109.058594 27.359375-149.421875 67.863282-43.898437 44.050781-68.078125 102.617187-68.078125 164.914062 0 62.292969 24.179688 120.859375 68.078125 164.914062 43.917969 44.066407 102.308594 68.335938 164.421875 68.335938s120.503906-24.269531 164.421875-68.335938c43.898437-44.054687 68.078125-102.621093 68.078125-164.914062 0-62.296875-24.179688-120.863281-68.078125-164.914062zm-164.421875 368.164062c-111.660156 0-202.5-91.179688-202.5-203.25 0-112.074219 90.839844-203.253906 202.5-203.253906s202.5 91.179687 202.5 203.253906c0 112.070312-90.839844 203.25-202.5 203.25zm0 0"></path><path d="m232.71875 98.4375c-99.109375 0-179.742188 80.886719-179.742188 180.3125s80.632813 180.3125 179.742188 180.3125 179.742188-80.890625 179.742188-180.3125c0-99.425781-80.632813-180.3125-179.742188-180.3125zm0 330.625c-82.570312 0-149.742188-67.429688-149.742188-150.3125s67.171876-150.3125 149.742188-150.3125c82.566406 0 149.742188 67.429688 149.742188 150.3125s-67.175782 150.3125-149.742188 150.3125zm0 0"></path><path d="m289.410156 189.835938c-6.433594-3.972657-14.308594-4.316407-21.0625-.929688l-93.726562 47.027344c-5.453125 2.742187-8.839844 8.234375-8.839844 14.339844v98.941406c0 7.574218 3.847656 14.472656 10.289062 18.449218 3.496094 2.15625 7.414063 3.242188 11.347657 3.242188 3.308593 0 6.628906-.769531 9.714843-2.316406l93.691407-47.007813c5.476562-2.730469 8.875-8.234375 8.875-14.355469v-98.941406c0-7.578125-3.847657-14.472656-10.289063-18.449218zm-19.710937 31.957031v60.105469l-57.253907-31.378907zm-73.917969 113.910156v-60.105469l57.253906 31.382813zm0 0"></path></svg>