<svg height="511pt" viewBox="0 1 511 511.99987" width="511pt" xmlns="http://www.w3.org/2000/svg"><path d="m476.285156.988281c-12.195312-2.558593-24.597656-.113281-34.914062 6.878907-10.308594 6.984374-17.167969 17.589843-19.308594 29.855468l-26.28125 150.476563c-4.257812 24.378906 11.402344 47.402343 35.648438 52.414062l17.496093 3.621094-23.511719 143.753906c-34.644531-14.496093-75.84375-19.851562-104.378906-19.851562-.597656 0-1.1875.003906-1.777344.007812-40.722656.324219-77.210937 11.9375-105.519531 33.589844-5.890625 4.5-9.136719 11.539063-8.757812 18.917969.527343 27.484375 14.921875 50.925781 41.640625 67.820312 20.230468 12.789063 46.917968 21.109375 73.222656 22.820313 6.179688.402343 12.808594.707031 19.6875.707031 19.941406 0 41.972656-2.550781 61.121094-12.625 28.859375-15.179688 46.070312-44.421875 51.15625-86.917969l60.027344-359.257812c4.136718-24.226563-11.480469-47.164063-35.550782-52.210938zm-56.589844 421.96875c-.027343.167969-.050781.339844-.074218.511719-11.320313 52.316406-46.222656 61.246094-97.828125 57.886719-21.140625-1.375-43.25-8.195313-59.140625-18.238281-16.921875-10.699219-26.164063-24.109376-27.511719-39.898438 22.667969-16.160156 51.734375-24.820312 84.355469-25.078125 29.527344-.273437 70.566406 6.054687 100.914062 20.453125zm62.570313-374.796875-28.390625 166.460938-16.375-3.386719c-8.273438-1.710937-13.617188-9.5625-12.167969-17.875l26.28125-150.476563c.730469-4.183593 3.070313-7.800781 6.589844-10.183593 2.609375-1.769531 5.613281-2.6875 8.691406-2.6875 1.074219 0 2.15625.113281 3.234375.339843 8.214844 1.722657 13.546875 9.542969 12.136719 17.808594zm0 0"></path><path d="m93.144531 326.015625c-51.085937 0-92.644531 41.539063-92.644531 92.59375s41.558594 92.589844 92.644531 92.589844c51.082031 0 92.640625-41.535157 92.640625-92.589844s-41.558594-92.59375-92.640625-92.59375zm0 155.183594c-34.542969 0-62.644531-28.078125-62.644531-62.589844 0-34.515625 28.101562-62.59375 62.644531-62.59375 34.539063 0 62.640625 28.078125 62.640625 62.59375 0 34.511719-28.101562 62.589844-62.640625 62.589844zm0 0"></path><path d="m125.046875 387.851562c-4.59375-6.894531-13.902344-8.761718-20.800781-4.167968-6.890625 4.59375-8.757813 13.90625-4.164063 20.800781l10.167969 15.261719c2.890625 4.335937 7.648438 6.683594 12.496094 6.683594 2.859375 0 5.746094-.816407 8.304687-2.519532 6.894531-4.59375 8.757813-13.90625 4.164063-20.800781zm0 0"></path></svg>