<svg height="512pt" viewBox="0 -50 512.00049 512" width="512pt" xmlns="http://www.w3.org/2000/svg"><path d="m496.460938 242.742188v-.003907c-3.371094-10.027343-8.261719-19.464843-14.574219-28.152343 11.5625-39.9375 18.617187-81.175782 20.996093-122.691407 1.003907-17.511719-8.289062-34.164062-23.671874-42.429687l-.109376-.058594c-33.261718-18.488281-106.382812-49.40625-223.097656-49.40625-116.707031 0-189.816406 30.910156-223.089844 49.398438l-.121093.0625c-15.378907 8.269531-24.671875 24.921874-23.667969 42.429687 2.375 41.523437 9.433594 82.757813 20.992188 122.695313-6.3125 8.6875-11.199219 18.125-14.574219 28.152343-.308594.914063-30.429688 91.988281-5.984375 146.09375l.496094 1.109375c3.195312 7.160156 9.847656 22.058594 26.113281 22.058594 39.046875 0 70.816406-21.375 99.335937-44.472656l4.339844-3.523438c34.621094-28.105468 73.855469-59.957031 116.160156-59.957031 42.296875 0 81.527344 31.847656 116.140625 59.945313l4.355469 3.535156c28.519531 23.097656 60.292969 44.472656 99.335938 44.472656 16.269531 0 22.925781-14.921875 26.128906-22.09375l.480468-1.074219c24.4375-54.128906-5.675781-145.179687-5.984374-146.089843zm-449.472657-166.851563.367188-.199219c71.441406-39.753906 161.390625-45.691406 208.648437-45.691406 47.253906 0 137.203125 5.9375 208.640625 45.691406l.375.203125c5.148438 2.769531 8.257813 8.375 7.917969 14.28125-2.101562 36.675781-8.0625 73.117188-17.746094 108.546875-64.5625-20.011718-131.492187-30.148437-199.1875-30.148437h-.617187c-67.492188.0625-134.214844 10.195312-198.578125 30.148437-9.679688-35.429687-15.640625-71.871094-17.742188-108.546875-.339844-5.910156 2.773438-11.515625 7.921875-14.285156zm428.121094 300.59375-.535156 1.195313c-.535157 1.203124-1.308594 2.925781-2.007813 4.246093-28.390625-1.265625-53.851562-18.808593-77.191406-37.714843l-4.328125-3.511719c-36.582031-29.695313-82.109375-66.65625-135.042969-66.65625-52.945312 0-98.476562 36.964843-135.058594 66.667969l-4.3125 3.5c-23.34375 18.90625-48.804687 36.453124-77.199218 37.714843-.695313-1.3125-1.457032-3.019531-1.992188-4.214843l-.550781-1.230469c-6.621094-14.65625-8.484375-37.253907-5.382813-65.339844 2.636719-23.914063 8.363282-46.644531 12.460938-58.835937 2.609375-7.75 6.511719-15.03125 11.625-21.707032 64.597656-21.1875 131.800781-31.960937 199.820312-32.023437h.589844c68.207032 0 135.613282 10.773437 200.410156 32.023437 5.109376 6.675782 9.011719 13.957032 11.617188 21.703125 4.101562 12.195313 9.824219 34.921875 12.464844 58.828125 3.097656 28.085938 1.238281 50.683594-5.386719 65.355469zm0 0"></path><path d="m256 147.8125c26.398438 0 47.875-21.476562 47.875-47.878906 0-26.40625-21.476562-47.882813-47.875-47.882813-26.394531 0-47.871094 21.476563-47.871094 47.882813 0 26.402344 21.476563 47.878906 47.871094 47.878906zm0-65.761719c9.859375 0 17.878906 8.019531 17.878906 17.882813 0 9.859375-8.019531 17.882812-17.878906 17.882812-9.855469 0-17.875-8.023437-17.875-17.882812 0-9.863282 8.015625-17.882813 17.875-17.882813zm0 0"></path></svg>