<svg height="512pt" viewBox="0 0 512 512" width="512pt" xmlns="http://www.w3.org/2000/svg"><path d="m467.0625 422h-86.125v-72.378906c60.550781-7.433594 107.597656-59.292969 107.597656-121.957032 0-67.75-54.996094-122.871093-122.597656-122.871093s-122.597656 55.121093-122.597656 122.871093c0 62.664063 47.046875 114.523438 107.597656 121.957032v72.378906h-208.351562v-92.992188h12.167968c18.816406 0 36.6875-8.15625 49.027344-22.375 12.355469-14.234374 17.917969-33.105468 15.265625-51.773437l-24.535156-172.601563c-3.246094-22.824218-14.609375-43.710937-32.003907-58.820312-17.398437-15.113281-39.667968-23.4375-62.703124-23.4375-15.652344 0-29.117188 11.691406-31.320313 27.195312l-32.363281 227.664063c-2.65625 18.667969 2.910156 37.539063 15.265625 51.773437 12.339843 14.21875 30.210937 22.375 49.027343 22.375h12.171876v92.988282h-67.648438c-24.777344.003906-44.9375 20.160156-44.9375 44.941406v.125c0 24.777344 20.160156 44.9375 44.9375 44.9375h422.125c24.777344 0 44.9375-20.160156 44.9375-44.9375v-.125c0-24.78125-20.160156-44.9375-44.9375-44.9375zm-193.722656-194.335938c0-51.207031 41.539062-92.871093 92.597656-92.871093s92.597656 41.664062 92.597656 92.871093c0 46.089844-33.644531 84.445313-77.597656 91.65625v-78.390624c0-8.285157-6.714844-15-15-15-8.28125 0-15 6.714843-15 15v78.390624c-43.949219-7.210937-77.597656-45.566406-77.597656-91.65625zm-172.925782 71.34375c-10.121093 0-19.730468-4.390624-26.371093-12.039062-6.652344-7.664062-9.652344-17.832031-8.222657-27.886719l32.367188-227.664062c.113281-.808594.808594-1.417969 1.617188-1.417969 15.808593 0 31.089843 5.710938 43.027343 16.085938 11.945313 10.375 19.75 24.71875 21.976563 40.394531l24.539062 172.601562c1.429688 10.058594-1.566406 20.222657-8.222656 27.890625-6.640625 7.648438-16.25 12.035156-26.371094 12.035156h-12.167968v-93.15625c0-8.285156-6.71875-15-15-15-8.285157 0-15 6.714844-15 15v93.15625zm381.585938 168.054688c0 8.238281-6.699219 14.9375-14.9375 14.9375h-422.125c-8.238281 0-14.9375-6.699219-14.9375-14.9375v-.125c0-8.238281 6.699219-14.9375 14.9375-14.9375h422.125c8.234375 0 14.9375 6.699219 14.9375 14.9375zm0 0"></path></svg>