<svg height="512pt" viewBox="-48 0 512 512" width="512pt" xmlns="http://www.w3.org/2000/svg"><path d="m229.101562 254.09375c-49.25 11.695312-58.96875 21.398438-62.167968 24.585938-8.945313 8.929687-13.875 20.804687-13.875 33.4375 0 12.632812 4.929687 24.507812 13.875 33.4375 9.226562 9.207031 21.34375 13.808593 33.464844 13.808593 12.117187 0 24.234374-4.601562 33.460937-13.808593 12.917969-12.894532 21.4375-48.613282 24.644531-62.0625 1.980469-8.300782-.4375-16.863282-6.46875-22.898438-6.042968-6.046875-14.613281-8.476562-22.933594-6.5zm-16.433593 70.226562c-6.765625 6.75-17.773438 6.75-24.539063 0-3.269531-3.261718-5.070312-7.597656-5.070312-12.203124 0-4.605469 1.800781-8.941407 5.066406-12.203126 2.183594-2.15625 13.082031-7.703124 38.964844-14.414062-6.714844 25.789062-12.261719 36.644531-14.421875 38.820312zm0 0"></path><path d="m206.121094 158.847656c-81.4375 0-147.691406 66.132813-147.691406 147.417969 0 81.289063 66.253906 147.421875 147.691406 147.421875 81.433594 0 147.6875-66.132812 147.6875-147.421875 0-81.285156-66.253906-147.417969-147.6875-147.417969zm0 264.839844c-64.894532 0-117.691406-52.675781-117.691406-117.421875 0-64.742187 52.796874-117.417969 117.691406-117.417969 64.894531 0 117.6875 52.675782 117.6875 117.417969 0 64.746094-52.792969 117.421875-117.6875 117.421875zm0 0"></path><path d="m405.574219 173.085938c6.078125-6.074219 9.425781-14.152344 9.425781-22.742188 0-8.59375-3.347656-16.667969-9.425781-22.746094l-20.6875-20.671875c-12.539063-12.535156-32.949219-12.535156-45.488281 0l-24.605469 24.585938c-18.859375-11.726563-39.75-20.496094-62.007813-25.660157v-25.816406h5.269532c13.0625 0 23.6875-10.628906 23.6875-23.6875v-32.660156c0-13.058594-10.625-23.6875-23.6875-23.6875h-103.871094c-13.0625 0-23.6875 10.628906-23.6875 23.6875v32.65625c0 13.0625 10.625 23.6875 23.6875 23.6875h5.269531v25.820312c-91.25 21.160157-159.453125 102.988282-159.453125 200.414063 0 113.441406 92.464844 205.734375 206.121094 205.734375 113.652344 0 206.117187-92.292969 206.117187-205.734375 0-39.871094-11.421875-77.128906-31.171875-108.6875zm-44.96875-44.941407c.847656-.847656 2.226562-.847656 3.074219 0l20.6875 20.675781c.523437.523438.632812 1.117188.632812 1.523438s-.109375 1.003906-.632812 1.523438l-21.25 21.234374c-7.269532-8.527343-15.226563-16.457031-23.777344-23.707031zm-200.109375-98.144531h91.246094v20.035156h-91.246094zm28.957031 50.035156h33.332031v21.164063c-5.5-.441407-11.054687-.664063-16.664062-.664063s-11.167969.222656-16.667969.664063zm16.667969 401.964844c-97.113282 0-176.121094-78.835938-176.121094-175.734375s79.007812-175.730469 176.121094-175.730469c97.113281 0 176.117187 78.832032 176.117187 175.730469s-79.003906 175.734375-176.117187 175.734375zm0 0"></path></svg>