<svg height="512pt" viewBox="0 -13 512 511" width="512pt" xmlns="http://www.w3.org/2000/svg"><path d="m495.359375 16.570312c-10.429687-6.289062-23.09375-6.667968-33.886719-1.015624l-119.957031 62.847656c-1.308594.683594-2.875.683594-4.183594 0l-141.183593-73.96875c-8.238282-4.320313-18.03125-5.121094-26.871094-2.207032l-145.617188 48.035157c-14.152344 4.667969-23.660156 17.796875-23.660156 32.664062v353.507813c0 11.007812 5.339844 21.429687 14.28125 27.875 8.949219 6.457031 20.550781 8.246094 31.035156 4.785156l134.40625-44.335938c1.015625-.335937 2.125-.296874 3.117188.105469l142.511718 58.074219c4.203126 1.710938 8.628907 2.5625 13.046876 2.5625 5.515624 0 11.015624-1.324219 16.035156-3.953125l139.117187-72.886719c11.378907-5.964844 18.449219-17.632812 18.449219-30.457031v-332.195313c0-12.148437-6.222656-23.148437-16.640625-29.4375zm-465.359375 143.8125 135.519531 32.65625v93.148438l-135.519531-81.636719zm165.519531 120.625v-92.191406l67.101563-49.332031 52.074218 43.671875zm127.636719-66.027343v151.199219l-115.164062-56.644532zm-127.636719 121.792969 127.636719 62.78125v50.148437l-127.636719-52.007813zm157.636719-135.457032 128.84375 24.109375v92.609375l-128.84375 50.285156zm122.261719-159.257812c1.957031-1.023438 3.609375-.355469 4.421875.132812.804687.488282 2.160156 1.628906 2.160156 3.816406v148.957032l-128.84375-24.109375v-64.84375c.777344-.339844 1.546875-.707031 2.304688-1.101563zm-152.261719 62.730468v46.355469l-42.800781-35.890625c-9.722657-8.15625-23.660157-8.597656-33.886719-1.078125l-50.949219 37.457031v-113.714843zm-290.082031-26.101562 132.445312-43.6875v127.238281l-135.519531-32.652343v-46.660157c0-1.929687 1.234375-3.628906 3.074219-4.238281zm2.828125 361.980469c-1.902344.625-3.355469-.121094-4.050782-.621094-.691406-.5-1.851562-1.632813-1.851562-3.613281v-196.914063l135.519531 81.636719v76.753906zm443.703125-58.515625-126.449219 66.25v-47.9375l128.84375-50.285156v28.023437c0 1.660156-.917969 3.175781-2.394531 3.949219zm0 0"></path></svg>