<svg height="512pt" viewBox="-55 0 511 512" width="512pt" xmlns="http://www.w3.org/2000/svg"><path d="m385.679688 243.71875c-19.472657-19.414062-51.011719-19.644531-70.765626-.683594v-161.148437c0-27.820313-22.675781-50.453125-50.550781-50.453125-8.0625 0-15.691406 1.894531-22.460937 5.261718-6.015625-21.15625-25.546875-36.695312-48.640625-36.695312-23.097657 0-42.628907 15.539062-48.644531 36.695312-6.769532-3.367187-14.398438-5.261718-22.460938-5.261718-23.097656 0-42.625 15.539062-48.640625 36.695312-6.773437-3.367187-14.402344-5.261718-22.464844-5.261718-27.875.003906-50.550781 22.636718-50.550781 50.457031v335.957031c0 34.582031 28.195312 62.71875 62.847656 62.71875h188.71875c34.65625 0 62.847656-28.136719 62.847656-62.71875v-63.613281l70.765626-70.566407c9.558593-9.53125 14.820312-22.207031 14.820312-35.691406 0-13.480468-5.261719-26.160156-14.820312-35.691406zm-21.183594 50.140625-72.277344 72.074219c-4.710938 4.695312-7.304688 10.945312-7.304688 17.59375v65.753906c0 18.042969-14.734374 32.71875-32.847656 32.71875h-188.71875c-18.113281 0-32.847656-14.675781-32.847656-32.71875v-335.957031c0-11.277344 9.21875-20.453125 20.550781-20.453125 11.335938 0 20.554688 9.175781 20.554688 20.453125v152.515625c0 8.28125 6.714843 15 15 15 8.28125 0 15-6.71875 15-15v-183.953125c0-11.277344 9.21875-20.453125 20.550781-20.453125s20.550781 9.175781 20.550781 20.453125v152.515625c0 8.285156 6.71875 15 15 15 8.285157 0 15-6.714844 15-15v-183.949219c0-11.277344 9.222657-20.453125 20.554688-20.453125s20.550781 9.175781 20.550781 20.453125v183.949219c0 8.285156 6.714844 15 15 15s15-6.714844 15-15v-152.515625c0-11.277344 9.21875-20.453125 20.550781-20.453125s20.550781 9.175781 20.550781 20.453125v173.472656c0 10.078125 6.023438 19.089844 15.339844 22.957031 9.332032 3.871094 19.984375 1.769532 27.136719-5.363281l8.011719-7.988281c8.019531-8 21.070312-8 29.09375 0 3.871094 3.859375 6.007812 8.992187 6.007812 14.445312-.003906 5.457032-2.136718 10.585938-6.007812 14.449219zm0 0"></path><path d="m216.085938 346.808594h-118.234376c-10.417968 0-18.890624 8.476562-18.890624 18.890625v55.019531c0 10.414062 8.472656 18.890625 18.890624 18.890625h118.234376c10.417968 0 18.894531-8.476563 18.894531-18.890625v-55.019531c0-10.417969-8.476563-18.890625-18.894531-18.890625zm-11.105469 62.796875h-96.019531v-32.796875h96.019531zm0 0"></path></svg>