<svg height="512pt" viewBox="0 -106 512 512" width="512pt" xmlns="http://www.w3.org/2000/svg"><path d="m423.664062 123.636719h-5.605468c-17.453125 0-34.449219-6.132813-47.863282-17.273438l-78.296874-65.03125c-.058594-.050781-.121094-.101562-.183594-.152343l-32.425782-26.933594c-11.0625-9.1875-25.078124-14.246094-39.46875-14.246094-34.03125 0-61.714843 27.640625-61.714843 61.617188v10.882812c0 12.933594-10.558594 23.457031-23.539063 23.457031-9.113281 0-17.488281-5.320312-21.335937-13.558593l-3.070313-6.570313c-9.453125-20.230469-30.011718-33.304687-52.371094-33.304687-31.863281 0-57.789062 25.882812-57.789062 57.699218v154.1875c0 25.136719 20.453125 45.589844 45.59375 45.589844h378.070312c48.707032 0 88.335938-39.558594 88.335938-88.183594 0-48.621094-39.628906-88.179687-88.335938-88.179687zm-365.875-51.113281c10.761719 0 20.648438 6.28125 25.191407 16.003906l3.070312 6.570312c8.757813 18.746094 27.800781 30.859375 48.515625 30.859375 29.523438 0 53.539063-23.980469 53.539063-53.457031v-10.886719c0-17.433593 14.226562-31.613281 31.714843-31.613281 7.402344 0 14.609376 2.601562 20.296876 7.324219l19.890624 16.519531-20.8125 20.8125c-5.859374 5.859375-5.859374 15.355469 0 21.214844 2.929688 2.929687 6.769532 4.394531 10.605469 4.394531 3.839844 0 7.679688-1.464844 10.605469-4.394531l22.777344-22.777344 17.003906 14.121094-21.21875 21.21875c-5.859375 5.855468-5.859375 15.351562 0 21.210937 2.929688 2.929688 6.765625 4.394531 10.605469 4.394531 3.835937 0 7.679687-1.464843 10.605469-4.394531l23.183593-23.179687 27.664063 22.976562c18.785156 15.601563 42.589844 24.195313 67.027344 24.195313h5.605468c32.167969 0 58.335938 26.101562 58.335938 58.179687 0 1.628906-.066406 3.238282-.199219 4.832032h-153.191406c-7.054688-37.457032-40.015625-65.886719-79.492188-65.886719h-219.113281v-50.539063c0-15.273437 12.464844-27.699218 27.789062-27.699218zm-27.789062 108.238281h219.113281c22.839844 0 42.214844 15.128906 48.628907 35.886719h-267.742188zm393.664062 89.238281h-378.070312c-8.601562 0-15.59375-6.992188-15.59375-15.589844v-7.761718h440.363281c-10.648437 14.167968-27.617187 23.351562-46.699219 23.351562zm0 0"></path></svg>