<svg height="512pt" viewBox="0 -20 512 512" width="512pt" xmlns="http://www.w3.org/2000/svg"><path d="m464.300781 234.695312-62.652343-48.425781c-3.011719-2.324219-6.382813-4.003906-9.933594-5.003906l-30.300782-92.023437h52.851563c14.855469 0 26.945313-12.085938 26.945313-26.945313 0-34.351563-27.949219-62.296875-62.300782-62.296875h-316.613281c-34.351563 0-62.296875 27.945312-62.296875 62.300781 0 14.855469 12.085938 26.941407 26.945312 26.941407h54.984376v91.574218h-6.476563c-17.464844 0-31.675781 14.207032-31.675781 31.667969v26.054687h-14.65625c-16.058594 0-29.121094 13.09375-29.121094 29.183594v116.300782c0 16.089843 13.0625 29.183593 29.121094 29.183593h21.34375c6.941406 33.523438 36.664062 58.792969 72.171875 58.792969 35.511719 0 65.234375-25.269531 72.175781-58.796875h132.402344c6.941406 33.527344 36.664062 58.796875 72.175781 58.796875 35.507813 0 65.230469-25.269531 72.171875-58.796875h11.3125c16.058594 0 29.125-13.089844 29.125-29.179687v-58.363282c-.003906-35.390625-16.5-66.847656-47.699219-90.964844zm-402.003906-204.695312h316.613281c16.78125 0 30.613282 12.859375 32.15625 29.242188h-380.921875c1.542969-16.382813 15.375-29.242188 32.152344-29.242188zm49.632813 59.242188h217.902343l32.929688 100.011718c-1.988281 2.097656-3.675781 4.507813-4.992188 7.167969l-64.390625 124.605469c-1.738281 3.363281-5.164062 5.453125-8.9375 5.453125h-43.878906c-5.550781 0-10.066406-4.535157-10.066406-10.105469v-48.652344c0-16.089844-13.0625-29.183594-29.121094-29.183594h-51.292969v-26.054687c0-17.460937-14.210937-31.667969-31.679687-31.667969h-6.472656zm-38.152344 123.242187c0-.917969.75-1.667969 1.675781-1.667969h42.949219c.925781 0 1.679687.75 1.679687 1.667969v26.054687h-46.304687zm48.859375 229.515625c-24.097657 0-43.703125-19.644531-43.703125-43.796875 0-24.148437 19.605468-43.792969 43.703125-43.792969 24.101562 0 43.707031 19.644532 43.707031 43.792969 0 24.152344-19.605469 43.796875-43.707031 43.796875zm276.753906 0c-24.101563 0-43.707031-19.644531-43.707031-43.796875 0-24.148437 19.605468-43.792969 43.707031-43.792969 24.097656 0 43.703125 19.644532 43.703125 43.792969 0 24.152344-19.605469 43.796875-43.703125 43.796875zm82.609375-58.796875h-10.4375c-6.941406-33.523437-36.664062-58.792969-72.171875-58.792969-35.511719 0-65.234375 25.269532-72.175781 58.792969h-132.402344c-6.941406-33.523437-36.664062-58.792969-72.175781-58.792969-35.507813 0-65.230469 25.269532-72.171875 58.792969h-20.464844v-114.664063h170.496094v47.835938c0 22.113281 17.972656 40.105469 40.066406 40.105469h43.878906c15.039063 0 28.675782-8.308594 35.585938-21.679688l64.144531-124.121093 61.78125 47.75c23.578125 18.226562 36.042969 41.476562 36.046875 67.230468zm0 0"></path><path d="m122.636719 376.578125c-8.28125 0-15 6.71875-15 15v13.253906c0 8.28125 6.71875 15 15 15 8.285156 0 15-6.71875 15-15v-13.253906c0-8.28125-6.714844-15-15-15zm0 0"></path><path d="m399.390625 376.578125c-8.285156 0-15 6.71875-15 15v13.253906c0 8.28125 6.714844 15 15 15 8.28125 0 15-6.71875 15-15v-13.253906c0-8.28125-6.71875-15-15-15zm0 0"></path></svg>