<svg height="512pt" viewBox="0 0 512 512" width="512pt" xmlns="http://www.w3.org/2000/svg"><path d="m497.574219 391.625c-48.195313-12.007812-97.261719-20.398438-146.6875-25.117188v-68.160156h49.433593c19.425782 0 35.230469-15.804687 35.230469-35.230468v-52.546876c0-19.425781-15.804687-35.230468-35.230469-35.230468h-49.433593v-22.335938h33.769531c4.164062 0 8.140625-1.5625 11.191406-4.398437l48.460938-45.074219c3.332031-3.097656 5.242187-7.480469 5.242187-12.027344 0-4.550781-1.910156-8.933594-5.242187-12.03125l-48.464844-45.074218c-3.050781-2.835938-7.023438-4.398438-11.1875-4.398438h-33.769531v-15c0-8.285156-6.714844-15-15-15-8.285157 0-15 6.714844-15 15v15h-129.773438v-15c0-8.285156-6.71875-15-15-15-8.285156 0-15 6.714844-15 15v15h-42.964843c-19.421876 0-35.226563 15.804688-35.226563 35.230469v52.546875c0 19.421875 15.800781 35.226562 35.226563 35.226562h42.964843v22.339844h-27.300781c-4.164062 0-8.136719 1.5625-11.1875 4.398438l-48.464844 45.070312c-3.332031 3.101562-5.238281 7.488281-5.238281 12.039062.003906 4.550782 1.917969 8.933594 5.242187 12.019532l48.464844 45.074218c3.046875 2.839844 7.019532 4.398438 11.1875 4.398438h27.296875v68.164062c-49.421875 4.714844-98.492187 13.109376-146.6875 25.117188-8.492187 2.113281-14.425781 9.707031-14.425781 18.460938v54.070312c0 26.382812 21.453125 47.84375 47.820312 47.84375h416.359376c26.367187 0 47.820312-21.460938 47.820312-47.84375v-54.070312c0-8.753907-5.933594-16.347657-14.425781-18.460938zm-384.652344-273.851562v-52.542969c0-2.882813 2.34375-5.230469 5.226563-5.230469h261.171874l33.875 31.503906-33.875 31.5h-261.171874c-2.882813 0-5.226563-2.347656-5.226563-5.230468zm78.191406 35.230468h129.773438v22.339844h-129.773438zm-85.835937 83.839844 33.871094-31.5h261.171874c2.882813 0 5.230469 2.34375 5.230469 5.226562v52.546876c0 2.882812-2.347656 5.230468-5.230469 5.230468h-261.171874zm85.835937 61.503906h129.773438v65.753906c-21.59375-1.410156-43.238281-2.113281-64.886719-2.113281s-43.292969.703125-64.886719 2.113281zm290.886719 165.808594c0 9.839844-7.992188 17.84375-17.820312 17.84375h-416.359376c-9.828124 0-17.820312-8.003906-17.820312-17.84375v-45.457031c73.957031-17.726563 149.945312-26.714844 226-26.714844s152.042969 8.988281 226 26.714844zm8.308594-43.425781c.003906 0 .011718.003906.015625.003906-.003907 0-.011719 0-.015625-.003906zm0 0"></path><path d="m200.640625 106.503906h91.855469c8.285156 0 15-6.71875 15-15 0-8.285156-6.714844-15-15-15h-91.855469c-8.28125 0-15 6.714844-15 15 0 8.28125 6.71875 15 15 15zm0 0"></path><path d="m220.640625 251.84375h91.855469c8.285156 0 15-6.714844 15-15s-6.714844-15-15-15h-91.855469c-8.28125 0-15 6.714844-15 15s6.71875 15 15 15zm0 0"></path></svg>