<svg height="512pt" viewBox="-59 0 511 512" width="512pt" xmlns="http://www.w3.org/2000/svg"><path d="m352.265625 0h-311.53125c-22.183594 0-40.234375 18.050781-40.234375 40.234375v431.53125c0 22.183594 18.050781 40.234375 40.234375 40.234375h311.53125c22.183594 0 40.234375-18.050781 40.234375-40.234375v-431.53125c0-22.183594-18.050781-40.234375-40.234375-40.234375zm10.234375 471.765625c0 5.644531-4.59375 10.234375-10.234375 10.234375h-311.53125c-5.640625 0-10.234375-4.59375-10.234375-10.234375v-431.53125c0-5.640625 4.59375-10.234375 10.234375-10.234375h311.53125c5.640625 0 10.234375 4.59375 10.234375 10.234375zm0 0"></path><path d="m196.5 79.167969c-65.390625 0-118.589844 53.199219-118.589844 118.589843 0 65.394532 53.199219 118.59375 118.589844 118.59375s118.59375-53.199218 118.59375-118.59375c0-65.390624-53.203125-118.589843-118.59375-118.589843zm0 207.183593c-48.851562 0-88.589844-39.742187-88.589844-88.59375 0-48.847656 39.738282-88.589843 88.589844-88.589843s88.59375 39.742187 88.59375 88.589843c0 48.851563-39.746094 88.59375-88.59375 88.59375zm0 0"></path><path d="m203.539062 161.550781-17.308593-17.308593c-5.855469-5.855469-15.351563-5.855469-21.210938 0-5.859375 5.859374-5.859375 15.355468 0 21.214843l17.304688 17.304688c2.929687 2.929687 6.769531 4.394531 10.609375 4.394531 3.835937 0 7.675781-1.464844 10.605468-4.394531 5.859376-5.859375 5.859376-15.355469 0-21.210938zm0 0"></path><path d="m237.992188 138.890625c-5.859376-5.859375-15.355469-5.855469-21.214844 0-5.855469 5.859375-5.855469 15.355469 0 21.214844l17.308594 17.304687c2.929687 2.933594 6.769531 4.394532 10.605468 4.394532 3.839844 0 7.679688-1.464844 10.605469-4.394532 5.859375-5.855468 5.859375-15.351562 0-21.210937zm0 0"></path><path d="m233.09375 191.105469c-5.859375-5.859375-15.355469-5.859375-21.214844 0-5.855468 5.855469-5.855468 15.351562 0 21.210937l17.308594 17.308594c2.929688 2.929688 6.765625 4.394531 10.605469 4.394531 3.839843 0 7.679687-1.464843 10.605469-4.394531 5.859374-5.855469 5.859374-15.355469 0-21.214844zm0 0"></path><path d="m262.863281 347.832031h-132.726562c-8.285157 0-15 6.71875-15 15 0 8.285157 6.714843 15 15 15h132.726562c8.285157 0 15-6.714843 15-15 0-8.28125-6.714843-15-15-15zm0 0"></path><path d="m232.863281 402.832031h-72.726562c-8.285157 0-15 6.71875-15 15 0 8.285157 6.714843 15 15 15h72.726562c8.285157 0 15-6.714843 15-15 0-8.28125-6.714843-15-15-15zm0 0"></path></svg>