<svg height="512pt" viewBox="-6 0 512 512" width="512pt" xmlns="http://www.w3.org/2000/svg"><path d="m484.835938 346.238281c-.347657-1.027343-.710938-2.058593-1.09375-3.085937v-113.789063c0-102.1875-83.046876-185.320312-185.128907-185.320312h-33.617187v-29.042969c0-8.285156-6.710938-15-14.996094-15-8.28125 0-14.996094 6.714844-14.996094 15v29.042969h-33.609375c-102.082031 0-185.132812 83.136719-185.132812 185.320312v113.789063c-.382813 1.027344-.746094 2.058594-1.09375 3.085937-.300781.894531-29.710938 89.964844-5.820313 142.925781l.484375 1.085938c3.148438 7.058594 9.699219 21.75 25.808594 21.75 38.195313 0 69.246094-20.917969 97.105469-43.519531l4.238281-3.445313c33.707031-27.402344 71.910156-58.46875 113.019531-58.46875 41.101563 0 79.300782 31.058594 113.003906 58.460938l4.25 3.453125c27.863282 22.601562 58.914063 43.519531 97.109376 43.519531 16.113281 0 22.667968-14.71875 25.820312-21.792969l.46875-1.046875c23.882812-52.984375-5.519531-142.027344-5.820312-142.921875zm-283.441407-272.195312h97.21875c85.542969 0 155.136719 69.675781 155.136719 155.320312v96.09375c-134.089844-40.554687-274.121094-40.5625-407.496094-.035156v-96.058594c0-85.644531 69.597656-155.320312 155.140625-155.320312zm261.917969 402.785156-.519531 1.167969c-.492188 1.105468-1.191407 2.675781-1.839844 3.921875-27.472656-1.320313-52.160156-18.371094-74.800781-36.738281l-4.226563-3.433594c-35.714843-29.039063-80.164062-65.179688-131.921875-65.179688-51.761718 0-96.21875 36.148438-131.9375 65.191406l-4.210937 3.421876c-22.640625 18.367187-47.328125 35.417968-74.808594 36.738281-.640625-1.238281-1.332031-2.789063-1.820313-3.890625l-.539062-1.203125c-14.210938-31.503907-2.320312-92.167969 6.21875-118.910157 135.246094-43.832031 278.140625-43.824218 414.199219.015626 8.535156 26.746093 20.417969 87.378906 6.207031 118.898437zm0 0"></path><path d="m250.003906 232.492188c24.910156 0 45.175782-20.28125 45.175782-45.210938s-20.265626-45.210938-45.175782-45.210938-45.175781 20.28125-45.175781 45.210938 20.265625 45.210938 45.175781 45.210938zm0-60.421876c8.371094 0 15.179688 6.824219 15.179688 15.210938s-6.808594 15.210938-15.179688 15.210938-15.183594-6.824219-15.183594-15.210938 6.8125-15.210938 15.183594-15.210938zm0 0"></path></svg>