<svg height="512pt" viewBox="0 0 512 512.001" width="512pt" xmlns="http://www.w3.org/2000/svg"><path d="m510.585938 117.175781-.066407-.191406c-2.328125-6.542969-7.265625-11.96875-13.539062-14.890625l-.476563-.222656-123.035156-47.148438v-25.605468c0-16.054688-13.054688-29.117188-29.101562-29.117188h-176.726563c-16.046875 0-29.105469 13.0625-29.105469 29.117188v25.605468l-122.546875 46.960938-.929687.394531c-6.402344 2.960937-11.367188 8.457031-13.621094 15.085937-2.320312 6.738282-1.820312 13.902344 1.410156 20.1875l39.832032 78.679688c5.632812 11.269531 18.480468 16.8125 30.496093 13.199219l25.042969-7.429688v264.300781c0 14.28125 11.621094 25.898438 25.90625 25.898438h263.757812c14.269532 0 25.875-11.609375 25.875-25.886719v-264.316406l25.015626 7.414063c12.007812 3.617187 24.84375-1.898438 30.519531-13.109376l39.902343-78.796874c3.179688-6.28125 3.671876-13.429688 1.390626-20.128907zm-342.050782-81.125 72.46875 65.664063v27.789062l-72.46875-70.78125zm87.46875 38.773438-49.46875-44.824219h98.9375zm15 26.890625 72.46875-65.660156v22.667968l-72.46875 70.78125zm-142.789062 380.285156v-45.949219h255.546875v45.949219zm315.859375-282.507812-36.222657-10.734376c-5.644531-1.675781-11.832031-.574218-16.554687 2.949219-4.71875 3.523438-7.539063 9.144531-7.539063 15.035157v199.308593h-255.542968v-199.308593c0-5.890626-2.816406-11.511719-7.539063-15.035157-4.71875-3.523437-10.910156-4.625-16.550781-2.953125l-36.195312 10.738282-36.289063-71.679688 118.289063-45.328125 91.074218 88.953125v73.75c0 8.285156 6.714844 15 15 15 8.28125 0 15-6.714844 15-15v-73.75l91.074219-88.953125 118.296875 45.332031zm0 0"></path></svg>